<?xml version="1.0" encoding="utf-8"?>
<!-- Generator: Adobe Illustrator 26.0.2, SVG Export Plug-In . SVG Version: 6.00 Build 0)  -->
<svg version="1.1" id="Layer_1" xmlns="http://www.w3.org/2000/svg" xmlns:xlink="http://www.w3.org/1999/xlink" x="0px" y="0px"
	 viewBox="0 0 202.67 24.67" style="enable-background:new 0 0 202.67 24.67;" xml:space="preserve">
<style type="text/css">
	.st0{fill:#FD46FC;}
	.st1{fill:none;stroke:#486AFB;stroke-miterlimit:10;}
	.st2{fill:#486AFB;}
</style>
<path class="st0" d="M25.06,11.03l-0.83-1.98c-0.03-0.08-0.05-0.12-0.05-0.13c0-0.06,0.17-0.25,0.59-0.29
	c0.1-0.01,0.2-0.02,0.2-0.19c0-0.12-0.12-0.12-0.15-0.12c-0.41,0-0.83,0.03-1.25,0.03c-0.25,0-0.86-0.03-1.11-0.03
	c-0.06,0-0.18,0-0.18,0.2c0,0.11,0.1,0.11,0.23,0.11c0.6,0,0.66,0.1,0.75,0.32l1.17,2.77l-2.1,2.25l-0.13,0.11
	c-0.49,0.53-0.95,0.69-1.46,0.72c-0.13,0.01-0.22,0.01-0.22,0.2c0,0.01,0,0.11,0.13,0.11c0.3,0,0.63-0.03,0.93-0.03
	c0.37,0,0.75,0.03,1.11,0.03c0.06,0,0.18,0,0.18-0.2c0-0.1-0.1-0.11-0.12-0.11c-0.09-0.01-0.4-0.03-0.4-0.31
	c0-0.16,0.15-0.32,0.27-0.45l1.01-1.07l0.89-0.97l1,2.38c0.04,0.11,0.05,0.12,0.05,0.14c0,0.08-0.19,0.25-0.58,0.29
	c-0.11,0.01-0.2,0.02-0.2,0.19c0,0.12,0.11,0.12,0.15,0.12c0.28,0,0.97-0.03,1.25-0.03c0.25,0,0.85,0.03,1.1,0.03
	c0.07,0,0.19,0,0.19-0.19c0-0.12-0.1-0.12-0.18-0.12c-0.67-0.01-0.69-0.04-0.85-0.44c-0.39-0.92-1.05-2.47-1.28-3.07
	c0.67-0.7,1.72-1.88,2.04-2.16c0.29-0.24,0.67-0.48,1.26-0.51c0.13-0.01,0.22-0.01,0.22-0.2c0-0.01,0-0.11-0.13-0.11
	c-0.3,0-0.63,0.03-0.93,0.03c-0.37,0-0.75-0.03-1.1-0.03c-0.06,0-0.19,0-0.19,0.2c0,0.07,0.05,0.1,0.12,0.11
	c0.09,0.01,0.4,0.03,0.4,0.31c0,0.14-0.11,0.27-0.19,0.36L25.06,11.03"/>
<path class="st0" d="M180.64,9.46l0.14-0.14c0.3-0.3,0.63-0.64,1.3-0.69c0.11-0.01,0.2-0.01,0.2-0.19c0-0.08-0.05-0.12-0.13-0.12
	c-0.26,0-0.55,0.03-0.81,0.03c-0.33,0-0.68-0.03-0.99-0.03c-0.06,0-0.19,0-0.19,0.19c0,0.11,0.1,0.12,0.15,0.12
	c0.07,0,0.36,0.02,0.36,0.23c0,0.17-0.23,0.43-0.27,0.48l-2.3,2.65l-1.09-2.95c-0.06-0.14-0.06-0.16-0.06-0.17
	c0-0.24,0.49-0.24,0.59-0.24c0.14,0,0.24,0,0.24-0.2c0-0.11-0.12-0.11-0.15-0.11c-0.28,0-0.97,0.03-1.25,0.03
	c-0.25,0-0.86-0.03-1.11-0.03c-0.06,0-0.19,0-0.19,0.2c0,0.11,0.1,0.11,0.23,0.11c0.6,0,0.64,0.09,0.72,0.34l1.22,3.27
	c0.01,0.03,0.04,0.14,0.04,0.17c0,0.03-0.4,1.63-0.45,1.81c-0.13,0.55-0.14,0.58-0.93,0.59c-0.19,0-0.27,0-0.27,0.2
	c0,0.11,0.12,0.11,0.14,0.11c0.28,0,0.97-0.03,1.25-0.03c0.28,0,0.99,0.03,1.27,0.03c0.07,0,0.19,0,0.19-0.2
	c0-0.11-0.09-0.11-0.28-0.11c-0.02,0-0.21,0-0.38-0.02c-0.21-0.02-0.27-0.04-0.27-0.16c0-0.07,0.09-0.42,0.14-0.62l0.35-1.4
	c0.05-0.19,0.06-0.22,0.14-0.31L180.64,9.46"/>
<path class="st0" d="M102.73,10.83l2.38-1.99c0.22-0.18,0.64-0.18,0.93-0.18h0.17V8.2c-0.4,0.03-0.96,0.03-1.01,0.03
	c-0.38,0-1.09,0-1.45-0.03v0.47c0.13,0,0.33,0,0.58,0.05c0.16,0.04,0.04,0.03,0.13,0.06l-3.68,3.07V8.67h1.07V8.2
	c-0.38,0.03-1.35,0.03-1.78,0.03c-0.43,0-1.4,0-1.78-0.03v0.47h1.07v5.88H98.3v0.47c0.38-0.03,1.35-0.03,1.78-0.03
	c0.43,0,1.4,0,1.78,0.03v-0.47h-1.07v-2.09l0.99-0.83l2.05,2.69c0.05,0.06,0.05,0.08,0.08,0.14c-0.18,0.08-0.38,0.08-0.72,0.08v0.47
	c0.41-0.03,1.3-0.03,1.75-0.03c0.4,0,1.08,0,1.45,0.03v-0.47h-0.29c-0.53,0-0.56-0.04-0.67-0.2L102.73,10.83"/>
<rect x="0.5" y="0.5" class="st1" width="51" height="23.67"/>
<rect x="75.83" y="0.5" class="st1" width="51" height="23.67"/>
<rect x="151.17" y="0.5" class="st1" width="51" height="23.67"/>
<g>
	<g>
		<line class="st1" x1="56.67" y1="11.61" x2="66.14" y2="11.61"/>
		<g>
			<path class="st2" d="M70.67,11.61c-2.13,0.79-4.77,2.14-6.41,3.57l1.29-3.57l-1.29-3.57C65.89,9.47,68.54,10.82,70.67,11.61z"/>
		</g>
	</g>
</g>
<g>
	<g>
		<line class="st1" x1="132" y1="11.72" x2="141.47" y2="11.72"/>
		<g>
			<path class="st2" d="M146,11.72c-2.13,0.79-4.77,2.14-6.41,3.57l1.29-3.57l-1.29-3.57C141.23,9.59,143.87,10.93,146,11.72z"/>
		</g>
	</g>
</g>
</svg>
