<?xml version="1.0" encoding="utf-8"?>
<!-- Generator: Adobe Illustrator 26.0.2, SVG Export Plug-In . SVG Version: 6.00 Build 0)  -->
<svg version="1.1" id="Layer_1" xmlns="http://www.w3.org/2000/svg" xmlns:xlink="http://www.w3.org/1999/xlink" x="0px" y="0px"
	 viewBox="0 0 202.74 60.68" style="enable-background:new 0 0 202.74 60.68;" xml:space="preserve">
<style type="text/css">
	.st0{fill:#FD46FC;}
	.st1{fill:none;stroke:#486AFB;stroke-miterlimit:10;}
	.st2{fill:#486AFB;}
</style>
<path class="st0" d="M13.94,12.21c0.22,0.04,1.03,0.2,1.03,0.91c0,0.51-0.35,0.9-1.12,0.9c-0.83,0-1.19-0.57-1.38-1.41
	c-0.03-0.13-0.04-0.17-0.14-0.17c-0.13,0-0.13,0.07-0.13,0.25V14c0,0.17,0,0.24,0.11,0.24c0.05,0,0.06-0.01,0.25-0.2
	c0.02-0.02,0.02-0.04,0.2-0.23c0.44,0.42,0.88,0.43,1.09,0.43c1.14,0,1.6-0.67,1.6-1.38c0-0.53-0.3-0.82-0.42-0.94
	c-0.33-0.32-0.72-0.4-1.13-0.48c-0.56-0.11-1.22-0.24-1.22-0.81c0-0.35,0.26-0.75,1.11-0.75c1.09,0,1.14,0.89,1.16,1.2
	c0.01,0.09,0.1,0.09,0.12,0.09c0.13,0,0.13-0.05,0.13-0.24v-1c0-0.17,0-0.24-0.11-0.24c-0.05,0-0.07,0-0.2,0.12
	c-0.03,0.04-0.13,0.13-0.17,0.16c-0.38-0.28-0.79-0.28-0.93-0.28c-1.21,0-1.59,0.67-1.59,1.22c0,0.35,0.16,0.62,0.43,0.84
	C12.94,12.01,13.22,12.07,13.94,12.21"/>
<path class="st0" d="M16.97,11.84h2.77c0.22,0,0.25,0,0.25-0.21c0-0.98-0.54-1.95-1.78-1.95c-1.15,0-2.07,1.02-2.07,2.26
	c0,1.33,1.04,2.3,2.19,2.3c1.21,0,1.66-1.1,1.66-1.29c0-0.1-0.08-0.12-0.13-0.12c-0.09,0-0.11,0.06-0.13,0.14
	c-0.35,1.02-1.24,1.02-1.34,1.02c-0.5,0-0.89-0.3-1.12-0.67C16.97,12.85,16.97,12.2,16.97,11.84 M16.98,11.63
	c0.06-1.48,0.89-1.73,1.23-1.73c1.02,0,1.12,1.34,1.12,1.73H16.98z"/>
<path class="st0" d="M21.36,10.72v2.66c0,0.45-0.11,0.45-0.77,0.45v0.31c0.35-0.01,0.85-0.03,1.12-0.03c0.26,0,0.77,0.02,1.11,0.03
	v-0.31c-0.67,0-0.77,0-0.77-0.45v-1.83c0-1.03,0.7-1.59,1.34-1.59c0.63,0,0.74,0.54,0.74,1.1v2.31c0,0.45-0.11,0.45-0.77,0.45v0.31
	c0.35-0.01,0.85-0.03,1.12-0.03c0.26,0,0.77,0.02,1.11,0.03v-0.31c-0.52,0-0.76,0-0.77-0.3v-1.9c0-0.85,0-1.16-0.31-1.52
	c-0.14-0.17-0.47-0.37-1.04-0.37c-0.73,0-1.19,0.43-1.47,1.04V9.74l-1.4,0.11v0.31C21.28,10.16,21.36,10.23,21.36,10.72"/>
<path class="st0" d="M29.55,10.93v2.04c0,0.18,0,0.2-0.11,0.37c-0.3,0.48-0.75,0.7-1.17,0.7c-0.45,0-0.8-0.26-1.04-0.64
	c-0.26-0.41-0.29-0.97-0.29-1.38c0-0.37,0.02-0.96,0.31-1.41c0.21-0.31,0.59-0.64,1.12-0.64c0.35,0,0.77,0.15,1.07,0.6
	C29.55,10.73,29.55,10.75,29.55,10.93 M29.55,13.59v0.66L31,14.13v-0.31c-0.7,0-0.77-0.07-0.77-0.56V7.24L28.8,7.35v0.31
	c0.7,0,0.77,0.07,0.77,0.56v2.15c-0.29-0.36-0.72-0.62-1.25-0.62c-1.17,0-2.22,0.97-2.22,2.25c0,1.26,0.97,2.25,2.11,2.25
	C28.85,14.24,29.3,13.91,29.55,13.59z"/>
<path class="st0" d="M32.47,11.84h2.77c0.22,0,0.25,0,0.25-0.21c0-0.98-0.54-1.95-1.78-1.95c-1.15,0-2.07,1.02-2.07,2.26
	c0,1.33,1.04,2.3,2.19,2.3c1.21,0,1.66-1.1,1.66-1.29c0-0.1-0.08-0.12-0.13-0.12c-0.09,0-0.11,0.06-0.13,0.14
	c-0.35,1.02-1.24,1.02-1.34,1.02c-0.5,0-0.89-0.3-1.12-0.67C32.47,12.85,32.47,12.2,32.47,11.84 M32.48,11.63
	c0.06-1.48,0.89-1.73,1.23-1.73c1.02,0,1.12,1.34,1.12,1.73H32.48z"/>
<path class="st0" d="M37.43,10.83V9.74l-1.38,0.11v0.31c0.7,0,0.77,0.07,0.77,0.56v2.66c0,0.45-0.11,0.45-0.77,0.45v0.31
	c0.39-0.01,0.85-0.03,1.13-0.03c0.4,0,0.86,0,1.26,0.03v-0.31h-0.21c-0.74,0-0.75-0.11-0.75-0.47v-1.53c0-0.98,0.42-1.87,1.17-1.87
	c0.07,0,0.09,0,0.11,0.01c-0.03,0.01-0.23,0.13-0.23,0.39c0,0.28,0.21,0.43,0.43,0.43c0.18,0,0.43-0.12,0.43-0.44
	c0-0.32-0.31-0.61-0.73-0.61C37.93,9.74,37.57,10.41,37.43,10.83"/>
<path class="st0" d="M162.46,10.63V9.54l-1.38,0.11v0.31c0.7,0,0.78,0.07,0.78,0.56v2.66c0,0.45-0.11,0.45-0.78,0.45v0.31
	c0.39-0.01,0.85-0.03,1.13-0.03c0.4,0,0.86,0,1.26,0.03v-0.31h-0.21c-0.74,0-0.75-0.11-0.75-0.47v-1.53c0-0.98,0.42-1.87,1.17-1.87
	c0.07,0,0.09,0,0.11,0.01c-0.03,0.01-0.23,0.13-0.23,0.39c0,0.28,0.21,0.43,0.43,0.43c0.18,0,0.43-0.12,0.43-0.44
	c0-0.32-0.31-0.61-0.73-0.61C162.96,9.54,162.6,10.2,162.46,10.63"/>
<path class="st0" d="M165.8,11.63h2.77c0.22,0,0.25,0,0.25-0.21c0-0.98-0.54-1.95-1.78-1.95c-1.15,0-2.07,1.02-2.07,2.26
	c0,1.33,1.04,2.3,2.19,2.3c1.21,0,1.66-1.1,1.66-1.29c0-0.1-0.08-0.12-0.13-0.12c-0.09,0-0.11,0.06-0.13,0.14
	c-0.35,1.02-1.24,1.02-1.34,1.02c-0.5,0-0.89-0.3-1.12-0.67C165.8,12.65,165.8,11.99,165.8,11.63 M165.81,11.43
	c0.06-1.48,0.89-1.73,1.23-1.73c1.02,0,1.12,1.34,1.12,1.73H165.81z"/>
<path class="st0" d="M170.36,11.76c0-1.62,0.81-2.04,1.34-2.04c0.09,0,0.72,0.01,1.06,0.37c-0.41,0.03-0.47,0.33-0.47,0.46
	c0,0.26,0.18,0.46,0.46,0.46c0.26,0,0.46-0.17,0.46-0.47c0-0.68-0.75-1.06-1.52-1.06c-1.24,0-2.16,1.07-2.16,2.3
	c0,1.27,0.98,2.25,2.14,2.25c1.33,0,1.65-1.19,1.65-1.29c0-0.1-0.1-0.1-0.13-0.1c-0.09,0-0.11,0.04-0.13,0.1
	c-0.29,0.92-0.93,1.04-1.3,1.04C171.24,13.79,170.36,13.36,170.36,11.76"/>
<path class="st0" d="M174.7,11.63h2.77c0.22,0,0.25,0,0.25-0.21c0-0.98-0.54-1.95-1.78-1.95c-1.15,0-2.07,1.02-2.07,2.26
	c0,1.33,1.04,2.3,2.19,2.3c1.21,0,1.66-1.1,1.66-1.29c0-0.1-0.08-0.12-0.13-0.12c-0.09,0-0.11,0.06-0.13,0.14
	c-0.35,1.02-1.24,1.02-1.34,1.02c-0.5,0-0.89-0.3-1.12-0.67C174.7,12.65,174.7,11.99,174.7,11.63 M174.71,11.43
	c0.06-1.48,0.89-1.73,1.23-1.73c1.02,0,1.12,1.34,1.12,1.73H174.71z"/>
<path class="st0" d="M179.8,7.81c0-0.32-0.25-0.53-0.53-0.53c-0.31,0-0.53,0.27-0.53,0.53c0,0.27,0.22,0.53,0.53,0.53
	C179.55,8.34,179.8,8.13,179.8,7.81 M179.76,9.54l-1.39,0.11v0.31c0.65,0,0.74,0.06,0.74,0.55v2.67c0,0.45-0.11,0.45-0.77,0.45v0.31
	c0.32-0.01,0.85-0.03,1.09-0.03c0.35,0,0.7,0.02,1.03,0.03v-0.31c-0.65,0-0.7-0.05-0.7-0.44V9.54z"/>
<path class="st0" d="M184.93,10.62c0.09-0.23,0.26-0.66,0.91-0.67V9.65c-0.23,0.02-0.52,0.03-0.75,0.03c-0.24,0-0.7-0.02-0.86-0.03
	v0.31c0.37,0.01,0.48,0.24,0.48,0.43c0,0.09-0.02,0.13-0.06,0.24l-1.01,2.53l-1.11-2.77c-0.06-0.13-0.06-0.15-0.06-0.17
	c0-0.26,0.39-0.26,0.57-0.26V9.65c-0.3,0.01-0.85,0.03-1.08,0.03c-0.27,0-0.66-0.01-0.96-0.03v0.31c0.62,0,0.67,0.06,0.79,0.37
	l1.43,3.53c0.06,0.14,0.08,0.19,0.21,0.19c0.13,0,0.17-0.09,0.21-0.19L184.93,10.62"/>
<path class="st0" d="M186.9,11.63h2.77c0.22,0,0.25,0,0.25-0.21c0-0.98-0.54-1.95-1.78-1.95c-1.15,0-2.07,1.02-2.07,2.26
	c0,1.33,1.04,2.3,2.19,2.3c1.21,0,1.66-1.1,1.66-1.29c0-0.1-0.08-0.12-0.13-0.12c-0.09,0-0.11,0.06-0.13,0.14
	c-0.35,1.02-1.24,1.02-1.34,1.02c-0.5,0-0.89-0.3-1.12-0.67C186.9,12.65,186.9,11.99,186.9,11.63 M186.91,11.43
	c0.06-1.48,0.89-1.73,1.23-1.73c1.02,0,1.12,1.34,1.12,1.73H186.91z"/>
<path class="st0" d="M191.96,10.63V9.54l-1.38,0.11v0.31c0.7,0,0.77,0.07,0.77,0.56v2.66c0,0.45-0.11,0.45-0.77,0.45v0.31
	c0.39-0.01,0.85-0.03,1.13-0.03c0.4,0,0.86,0,1.26,0.03v-0.31h-0.21c-0.74,0-0.75-0.11-0.75-0.47v-1.53c0-0.98,0.42-1.87,1.17-1.87
	c0.07,0,0.09,0,0.11,0.01c-0.03,0.01-0.23,0.13-0.23,0.39c0,0.28,0.21,0.43,0.43,0.43c0.18,0,0.43-0.12,0.43-0.44
	c0-0.32-0.31-0.61-0.73-0.61C192.46,9.54,192.1,10.2,191.96,10.63"/>
<path class="st0" d="M85.96,11.94c0-1.62,0.81-2.04,1.34-2.04c0.09,0,0.72,0.01,1.06,0.37c-0.41,0.03-0.47,0.33-0.47,0.46
	c0,0.26,0.18,0.46,0.46,0.46c0.26,0,0.46-0.17,0.46-0.47c0-0.68-0.75-1.06-1.52-1.06c-1.24,0-2.16,1.07-2.16,2.3
	c0,1.27,0.98,2.25,2.14,2.25c1.33,0,1.65-1.19,1.65-1.29c0-0.1-0.1-0.1-0.13-0.1c-0.09,0-0.11,0.04-0.13,0.1
	c-0.29,0.92-0.93,1.04-1.3,1.04C86.83,13.97,85.96,13.54,85.96,11.94"/>
<path class="st0" d="M90.09,13.35c0,0.45-0.11,0.45-0.77,0.45v0.31c0.35-0.01,0.85-0.03,1.12-0.03c0.26,0,0.78,0.02,1.11,0.03V13.8
	c-0.67,0-0.78,0-0.78-0.45v-1.83c0-1.03,0.7-1.59,1.34-1.59c0.63,0,0.74,0.54,0.74,1.1v2.31c0,0.45-0.11,0.45-0.78,0.45v0.31
	c0.35-0.01,0.85-0.03,1.12-0.03c0.26,0,0.78,0.02,1.11,0.03V13.8c-0.52,0-0.76,0-0.77-0.3v-1.9c0-0.85,0-1.16-0.31-1.52
	c-0.14-0.17-0.47-0.37-1.04-0.37c-0.83,0-1.27,0.6-1.44,0.97V7.21l-1.43,0.11v0.31c0.7,0,0.77,0.07,0.77,0.56V13.35"/>
<path class="st0" d="M97.74,11.72v0.99c0,0.94-0.72,1.28-1.16,1.28c-0.49,0-0.89-0.35-0.89-0.84C95.68,12.61,96.1,11.78,97.74,11.72
	 M97.81,13.35c0.04,0.4,0.31,0.81,0.78,0.81c0.21,0,0.81-0.14,0.81-0.94v-0.56h-0.25v0.56c0,0.58-0.25,0.64-0.36,0.64
	c-0.33,0-0.37-0.45-0.37-0.5v-1.99c0-0.42,0-0.8-0.36-1.17c-0.39-0.39-0.88-0.55-1.36-0.55c-0.81,0-1.5,0.47-1.5,1.12
	c0,0.3,0.2,0.47,0.46,0.47c0.28,0,0.46-0.2,0.46-0.46c0-0.12-0.05-0.45-0.51-0.46c0.27-0.35,0.75-0.46,1.07-0.46
	c0.49,0,1.05,0.39,1.05,1.27v0.37c-0.51,0.03-1.2,0.06-1.83,0.36c-0.75,0.34-0.99,0.85-0.99,1.29c0,0.8,0.96,1.05,1.59,1.05
	C97.16,14.22,97.62,13.82,97.81,13.35z"/>
<path class="st0" d="M100.69,10.69v2.66c0,0.45-0.11,0.45-0.78,0.45v0.31c0.35-0.01,0.85-0.03,1.12-0.03c0.26,0,0.78,0.02,1.11,0.03
	V13.8c-0.67,0-0.78,0-0.78-0.45v-1.83c0-1.03,0.7-1.59,1.34-1.59c0.63,0,0.74,0.54,0.74,1.1v2.31c0,0.45-0.11,0.45-0.77,0.45v0.31
	c0.35-0.01,0.85-0.03,1.12-0.03c0.26,0,0.78,0.02,1.11,0.03V13.8c-0.52,0-0.76,0-0.78-0.3v-1.9c0-0.85,0-1.16-0.31-1.52
	c-0.14-0.17-0.47-0.37-1.04-0.37c-0.72,0-1.19,0.43-1.47,1.04V9.72l-1.4,0.11v0.31C100.61,10.13,100.69,10.2,100.69,10.69"/>
<path class="st0" d="M106.19,10.69v2.66c0,0.45-0.11,0.45-0.78,0.45v0.31c0.35-0.01,0.85-0.03,1.12-0.03c0.26,0,0.77,0.02,1.11,0.03
	V13.8c-0.67,0-0.78,0-0.78-0.45v-1.83c0-1.03,0.7-1.59,1.34-1.59c0.63,0,0.74,0.54,0.74,1.1v2.31c0,0.45-0.11,0.45-0.77,0.45v0.31
	c0.35-0.01,0.85-0.03,1.12-0.03c0.26,0,0.78,0.02,1.11,0.03V13.8c-0.52,0-0.76,0-0.78-0.3v-1.9c0-0.85,0-1.16-0.31-1.52
	c-0.14-0.17-0.47-0.37-1.04-0.37c-0.72,0-1.19,0.43-1.47,1.04V9.72l-1.4,0.11v0.31C106.11,10.13,106.19,10.2,106.19,10.69"/>
<path class="st0" d="M111.7,11.81h2.77c0.22,0,0.25,0,0.25-0.21c0-0.98-0.54-1.95-1.78-1.95c-1.15,0-2.07,1.02-2.07,2.26
	c0,1.33,1.04,2.3,2.19,2.3c1.21,0,1.66-1.1,1.66-1.29c0-0.1-0.08-0.12-0.13-0.12c-0.09,0-0.11,0.06-0.13,0.14
	c-0.35,1.02-1.24,1.02-1.34,1.02c-0.5,0-0.89-0.3-1.12-0.67C111.7,12.83,111.7,12.17,111.7,11.81 M111.71,11.61
	c0.06-1.48,0.89-1.73,1.23-1.73c1.02,0,1.12,1.34,1.12,1.73H111.71z"/>
<path class="st0" d="M116.76,7.21l-1.43,0.11v0.31c0.7,0,0.78,0.07,0.78,0.56v5.17c0,0.45-0.11,0.45-0.78,0.45v0.31
	c0.33-0.01,0.85-0.03,1.1-0.03c0.25,0,0.74,0.02,1.1,0.03V13.8c-0.67,0-0.78,0-0.78-0.45V7.21"/>
<rect x="0.5" y="0.5" class="st1" width="51" height="23.67"/>
<rect x="75.83" y="0.5" class="st1" width="51" height="23.67"/>
<rect x="151.17" y="0.5" class="st1" width="51" height="23.67"/>
<g>
	<g>
		<line class="st1" x1="56.67" y1="11.61" x2="66.14" y2="11.61"/>
		<g>
			<path class="st2" d="M70.67,11.61c-2.13,0.79-4.77,2.14-6.41,3.57l1.29-3.57l-1.29-3.57C65.89,9.47,68.54,10.82,70.67,11.61z"/>
		</g>
	</g>
</g>
<g>
	<g>
		<line class="st1" x1="132" y1="11.72" x2="141.47" y2="11.72"/>
		<g>
			<path class="st2" d="M146,11.72c-2.13,0.79-4.77,2.14-6.41,3.57l1.29-3.57l-1.29-3.57C141.23,9.59,143.87,10.93,146,11.72z"/>
		</g>
	</g>
</g>
<path class="st0" d="M102.81,46.84l2.38-1.99c0.22-0.18,0.64-0.18,0.93-0.18h0.17v-0.47c-0.4,0.03-0.96,0.03-1.01,0.03
	c-0.38,0-1.09,0-1.45-0.03v0.47c0.13,0,0.33,0,0.58,0.05c0.16,0.04,0.04,0.03,0.13,0.06l-3.68,3.07v-3.18h1.07v-0.47
	c-0.38,0.03-1.35,0.03-1.78,0.03c-0.43,0-1.4,0-1.78-0.03v0.47h1.07v5.88h-1.07v0.47C98.75,51,99.73,51,100.15,51
	c0.43,0,1.4,0,1.78,0.03v-0.47h-1.07v-2.09l0.99-0.83l2.05,2.69c0.05,0.06,0.05,0.08,0.08,0.14c-0.18,0.08-0.38,0.08-0.72,0.08v0.47
	C103.66,51,104.55,51,105,51c0.4,0,1.08,0,1.45,0.03v-0.47h-0.29c-0.53,0-0.56-0.04-0.67-0.2L102.81,46.84"/>
<rect x="0.58" y="36.51" class="st1" width="51" height="23.67"/>
<rect x="75.91" y="36.51" class="st1" width="51" height="23.67"/>
<rect x="151.24" y="36.51" class="st1" width="51" height="23.67"/>
<g>
	<g>
		<line class="st1" x1="56.74" y1="47.62" x2="66.22" y2="47.62"/>
		<g>
			<path class="st2" d="M70.74,47.62c-2.13,0.79-4.77,2.14-6.41,3.57l1.29-3.57l-1.29-3.57C65.97,45.48,68.62,46.83,70.74,47.62z"/>
		</g>
	</g>
</g>
<g>
	<g>
		<line class="st1" x1="132.08" y1="47.74" x2="141.55" y2="47.74"/>
		<g>
			<path class="st2" d="M146.08,47.74c-2.13,0.79-4.77,2.14-6.41,3.57l1.29-3.57l-1.29-3.57C141.31,45.6,143.95,46.95,146.08,47.74z
				"/>
		</g>
	</g>
</g>
<path class="st0" d="M9.25,46.58c0.06-0.26,0.29-1.17,0.98-1.17c0.05,0,0.29,0,0.5,0.13c-0.28,0.05-0.48,0.3-0.48,0.54
	c0,0.16,0.11,0.35,0.38,0.35c0.22,0,0.54-0.18,0.54-0.57c0-0.52-0.59-0.66-0.92-0.66c-0.58,0-0.92,0.53-1.04,0.75
	c-0.25-0.65-0.79-0.75-1.07-0.75c-1.03,0-1.6,1.28-1.6,1.53c0,0.1,0.1,0.1,0.12,0.1c0.08,0,0.11-0.02,0.13-0.11
	c0.34-1.05,0.99-1.3,1.33-1.3c0.19,0,0.54,0.09,0.54,0.67c0,0.31-0.17,0.97-0.54,2.36c-0.16,0.62-0.51,1.03-0.94,1.03
	c-0.06,0-0.29,0-0.5-0.13c0.25-0.05,0.47-0.26,0.47-0.54c0-0.27-0.22-0.35-0.37-0.35c-0.3,0-0.55,0.26-0.55,0.58
	c0,0.46,0.5,0.66,0.93,0.66c0.66,0,1.01-0.7,1.04-0.75c0.12,0.37,0.48,0.75,1.07,0.75c1.02,0,1.59-1.28,1.59-1.53
	c0-0.1-0.09-0.1-0.12-0.1c-0.09,0-0.11,0.04-0.13,0.11c-0.33,1.06-1,1.3-1.32,1.3c-0.39,0-0.55-0.32-0.55-0.66
	c0-0.22,0.06-0.44,0.17-0.87L9.25,46.58"/>
<path class="st0" d="M13.99,46.61c0-0.19-0.01-0.2-0.21-0.2c-0.45,0.44-1.09,0.45-1.38,0.45v0.25c0.17,0,0.63,0,1.02-0.2v3.59
	c0,0.23,0,0.32-0.7,0.32h-0.27v0.25c0.13-0.01,0.99-0.03,1.25-0.03c0.22,0,1.1,0.02,1.26,0.03v-0.25h-0.27c-0.7,0-0.7-0.09-0.7-0.32
	V46.61"/>
<path class="st0" d="M18.15,49.57c0-0.66-0.25-1.04-0.64-1.04c-0.33,0-0.53,0.25-0.53,0.53c0,0.27,0.2,0.53,0.53,0.53
	c0.12,0,0.25-0.04,0.35-0.13c0.03-0.02,0.04-0.03,0.05-0.03c0.01,0,0.02,0.01,0.02,0.15c0,0.73-0.35,1.33-0.68,1.66
	c-0.11,0.11-0.11,0.13-0.11,0.16c0,0.07,0.05,0.11,0.1,0.11C17.35,51.5,18.15,50.73,18.15,49.57"/>
<path class="st0" d="M23.95,46.58c0.06-0.26,0.29-1.17,0.98-1.17c0.05,0,0.29,0,0.5,0.13c-0.28,0.05-0.48,0.3-0.48,0.54
	c0,0.16,0.11,0.35,0.38,0.35c0.22,0,0.54-0.18,0.54-0.57c0-0.52-0.59-0.66-0.92-0.66c-0.58,0-0.92,0.53-1.04,0.75
	c-0.25-0.65-0.79-0.75-1.07-0.75c-1.03,0-1.6,1.28-1.6,1.53c0,0.1,0.1,0.1,0.12,0.1c0.08,0,0.11-0.02,0.13-0.11
	c0.34-1.05,0.99-1.3,1.33-1.3c0.19,0,0.54,0.09,0.54,0.67c0,0.31-0.17,0.97-0.54,2.36c-0.16,0.62-0.51,1.03-0.94,1.03
	c-0.06,0-0.29,0-0.5-0.13c0.25-0.05,0.47-0.26,0.47-0.54c0-0.27-0.22-0.35-0.37-0.35c-0.3,0-0.55,0.26-0.55,0.58
	c0,0.46,0.5,0.66,0.93,0.66c0.66,0,1.01-0.7,1.04-0.75c0.12,0.37,0.48,0.75,1.07,0.75c1.02,0,1.59-1.28,1.59-1.53
	c0-0.1-0.09-0.1-0.12-0.1c-0.09,0-0.11,0.04-0.13,0.11c-0.33,1.06-1,1.3-1.32,1.3c-0.39,0-0.55-0.32-0.55-0.66
	c0-0.22,0.06-0.44,0.17-0.87L23.95,46.58"/>
<path class="st0" d="M29.78,49.8h-0.24c-0.02,0.15-0.09,0.57-0.18,0.64c-0.06,0.04-0.6,0.04-0.7,0.04h-1.29
	c0.74-0.65,0.98-0.85,1.41-1.18c0.52-0.42,1-0.85,1-1.52c0-0.85-0.75-1.37-1.65-1.37c-0.87,0-1.46,0.61-1.46,1.26
	c0,0.36,0.3,0.39,0.37,0.39c0.17,0,0.37-0.12,0.37-0.37c0-0.13-0.05-0.37-0.41-0.37c0.22-0.5,0.7-0.65,1.03-0.65
	c0.7,0,1.07,0.55,1.07,1.12c0,0.61-0.44,1.1-0.66,1.35l-1.7,1.67c-0.07,0.06-0.07,0.08-0.07,0.27h2.9L29.78,49.8"/>
<path class="st0" d="M32.75,49.57c0-0.66-0.25-1.04-0.64-1.04c-0.33,0-0.53,0.25-0.53,0.53c0,0.27,0.2,0.53,0.53,0.53
	c0.12,0,0.25-0.04,0.35-0.13c0.03-0.02,0.04-0.03,0.05-0.03c0.01,0,0.02,0.01,0.02,0.15c0,0.73-0.35,1.33-0.68,1.66
	c-0.11,0.11-0.11,0.13-0.11,0.16c0,0.07,0.05,0.11,0.1,0.11C31.95,51.5,32.75,50.73,32.75,49.57"/>
<path class="st0" d="M37.04,49.06c0-0.29-0.24-0.53-0.53-0.53c-0.29,0-0.53,0.24-0.53,0.53c0,0.29,0.24,0.53,0.53,0.53
	C36.8,49.58,37.04,49.34,37.04,49.06"/>
<path class="st0" d="M41.44,49.06c0-0.29-0.24-0.53-0.53-0.53c-0.29,0-0.53,0.24-0.53,0.53c0,0.29,0.24,0.53,0.53,0.53
	C41.2,49.58,41.44,49.34,41.44,49.06"/>
<path class="st0" d="M45.94,49.06c0-0.29-0.24-0.53-0.53-0.53c-0.29,0-0.53,0.24-0.53,0.53c0,0.29,0.24,0.53,0.53,0.53
	C45.7,49.58,45.94,49.34,45.94,49.06"/>
<path class="st0" d="M163.3,45.13c0.04-0.14,0.04-0.16,0.04-0.23c0-0.18-0.14-0.27-0.29-0.27c-0.1,0-0.26,0.06-0.35,0.21
	c-0.02,0.05-0.1,0.36-0.14,0.54c-0.07,0.26-0.14,0.53-0.2,0.79l-0.45,1.79c-0.04,0.15-0.47,0.84-1.12,0.84
	c-0.51,0-0.62-0.44-0.62-0.8c0-0.46,0.17-1.07,0.51-1.95c0.16-0.41,0.2-0.52,0.2-0.72c0-0.45-0.32-0.81-0.81-0.81
	c-0.94,0-1.31,1.44-1.31,1.53c0,0.1,0.1,0.1,0.12,0.1c0.1,0,0.11-0.02,0.16-0.18c0.27-0.93,0.67-1.23,1-1.23
	c0.08,0,0.25,0,0.25,0.32c0,0.25-0.1,0.51-0.17,0.7c-0.4,1.05-0.58,1.62-0.58,2.09c0,0.88,0.63,1.18,1.21,1.18
	c0.39,0,0.72-0.17,1-0.45c-0.13,0.52-0.25,1-0.65,1.53c-0.26,0.34-0.64,0.62-1.09,0.62c-0.14,0-0.59-0.03-0.75-0.42
	c0.16,0,0.29,0,0.43-0.12c0.1-0.09,0.2-0.22,0.2-0.41c0-0.31-0.27-0.35-0.37-0.35c-0.23,0-0.56,0.16-0.56,0.65
	c0,0.5,0.44,0.86,1.05,0.86c1.02,0,2.05-0.9,2.32-2.03L163.3,45.13"/>
<path class="st0" d="M165.73,45.94c0-0.19-0.01-0.2-0.21-0.2c-0.45,0.44-1.09,0.45-1.38,0.45v0.25c0.17,0,0.63,0,1.02-0.2v3.59
	c0,0.23,0,0.32-0.7,0.32h-0.27v0.25c0.13-0.01,0.99-0.03,1.25-0.03c0.22,0,1.1,0.02,1.26,0.03v-0.25h-0.27c-0.7,0-0.7-0.09-0.7-0.32
	V45.94"/>
<path class="st0" d="M169.79,48.9c0-0.66-0.25-1.04-0.64-1.04c-0.33,0-0.53,0.25-0.53,0.53c0,0.27,0.2,0.53,0.53,0.53
	c0.12,0,0.25-0.04,0.35-0.13c0.03-0.02,0.04-0.03,0.05-0.03c0.01,0,0.02,0.01,0.02,0.15c0,0.73-0.35,1.33-0.68,1.66
	c-0.11,0.11-0.11,0.13-0.11,0.16c0,0.07,0.05,0.11,0.1,0.11C169,50.83,169.79,50.07,169.79,48.9"/>
<path class="st0" d="M177.1,45.13c0.04-0.14,0.04-0.16,0.04-0.23c0-0.18-0.14-0.27-0.29-0.27c-0.1,0-0.26,0.06-0.35,0.21
	c-0.02,0.05-0.1,0.36-0.14,0.54c-0.07,0.26-0.14,0.53-0.2,0.79l-0.45,1.79c-0.04,0.15-0.47,0.84-1.12,0.84
	c-0.51,0-0.62-0.44-0.62-0.8c0-0.46,0.17-1.07,0.51-1.95c0.16-0.41,0.2-0.52,0.2-0.72c0-0.45-0.32-0.81-0.81-0.81
	c-0.94,0-1.31,1.44-1.31,1.53c0,0.1,0.1,0.1,0.12,0.1c0.1,0,0.11-0.02,0.16-0.18c0.27-0.93,0.67-1.23,1-1.23
	c0.08,0,0.25,0,0.25,0.32c0,0.25-0.1,0.51-0.17,0.7c-0.4,1.05-0.57,1.62-0.57,2.09c0,0.88,0.62,1.18,1.21,1.18
	c0.39,0,0.72-0.17,1-0.45c-0.13,0.52-0.25,1-0.65,1.53c-0.26,0.34-0.64,0.62-1.09,0.62c-0.14,0-0.59-0.03-0.75-0.42
	c0.16,0,0.29,0,0.43-0.12c0.1-0.09,0.2-0.22,0.2-0.41c0-0.31-0.27-0.35-0.37-0.35c-0.23,0-0.56,0.16-0.56,0.65
	c0,0.5,0.44,0.86,1.05,0.86c1.02,0,2.05-0.9,2.32-2.03L177.1,45.13"/>
<path class="st0" d="M180.73,49.13h-0.24c-0.02,0.15-0.09,0.57-0.18,0.64c-0.06,0.04-0.6,0.04-0.7,0.04h-1.29
	c0.74-0.65,0.98-0.85,1.41-1.18c0.52-0.42,1-0.85,1-1.52c0-0.85-0.75-1.37-1.65-1.37c-0.87,0-1.46,0.61-1.46,1.26
	c0,0.36,0.3,0.39,0.37,0.39c0.17,0,0.37-0.12,0.37-0.37c0-0.13-0.05-0.37-0.41-0.37c0.22-0.5,0.7-0.65,1.03-0.65
	c0.7,0,1.07,0.55,1.07,1.12c0,0.61-0.44,1.1-0.66,1.35l-1.7,1.67c-0.07,0.06-0.07,0.08-0.07,0.27h2.9L180.73,49.13"/>
<path class="st0" d="M183.49,48.9c0-0.66-0.25-1.04-0.64-1.04c-0.33,0-0.53,0.25-0.53,0.53c0,0.27,0.2,0.53,0.53,0.53
	c0.12,0,0.25-0.04,0.35-0.13c0.03-0.02,0.04-0.03,0.05-0.03c0.01,0,0.02,0.01,0.02,0.15c0,0.73-0.35,1.33-0.68,1.66
	c-0.11,0.11-0.11,0.13-0.11,0.16c0,0.07,0.05,0.11,0.1,0.11C182.7,50.83,183.49,50.07,183.49,48.9"/>
<path class="st0" d="M187.88,48.39c0-0.29-0.24-0.53-0.53-0.53c-0.29,0-0.53,0.24-0.53,0.53c0,0.29,0.24,0.53,0.53,0.53
	C187.64,48.91,187.88,48.67,187.88,48.39"/>
<path class="st0" d="M192.28,48.39c0-0.29-0.24-0.53-0.53-0.53c-0.29,0-0.53,0.24-0.53,0.53c0,0.29,0.24,0.53,0.53,0.53
	C192.04,48.91,192.28,48.67,192.28,48.39"/>
<path class="st0" d="M196.68,48.39c0-0.29-0.24-0.53-0.53-0.53c-0.29,0-0.53,0.24-0.53,0.53c0,0.29,0.24,0.53,0.53,0.53
	C196.44,48.91,196.68,48.67,196.68,48.39"/>
</svg>
