<?xml version="1.0" encoding="utf-8"?>
<!-- Generator: Adobe Illustrator 26.0.2, SVG Export Plug-In . SVG Version: 6.00 Build 0)  -->
<svg version="1.1" id="Layer_1" xmlns="http://www.w3.org/2000/svg" xmlns:xlink="http://www.w3.org/1999/xlink" x="0px" y="0px"
	 viewBox="0 0 202.67 61.12" style="enable-background:new 0 0 202.67 61.12;" xml:space="preserve">
<style type="text/css">
	.st0{fill:#FD46FC;}
	.st1{fill:none;stroke:#486AFB;stroke-miterlimit:10;}
	.st2{fill:#486AFB;}
</style>
<path class="st0" d="M14.14,4.97c0.22,0.04,1.03,0.2,1.03,0.91c0,0.51-0.35,0.9-1.12,0.9c-0.83,0-1.19-0.57-1.38-1.41
	c-0.03-0.13-0.04-0.17-0.14-0.17c-0.13,0-0.13,0.07-0.13,0.25v1.31c0,0.17,0,0.24,0.11,0.24c0.05,0,0.06-0.01,0.25-0.2
	c0.02-0.02,0.02-0.04,0.2-0.23C13.4,6.99,13.85,7,14.05,7c1.14,0,1.6-0.67,1.6-1.38c0-0.53-0.3-0.82-0.42-0.94
	c-0.33-0.32-0.72-0.4-1.13-0.48c-0.56-0.11-1.22-0.24-1.22-0.81c0-0.35,0.26-0.75,1.11-0.75c1.09,0,1.14,0.89,1.16,1.2
	c0.01,0.09,0.1,0.09,0.12,0.09c0.13,0,0.13-0.05,0.13-0.24v-1c0-0.17,0-0.24-0.11-0.24c-0.05,0-0.07,0-0.2,0.12
	c-0.03,0.04-0.13,0.13-0.17,0.16C14.55,2.44,14.14,2.44,14,2.44c-1.21,0-1.59,0.67-1.59,1.22c0,0.35,0.16,0.62,0.43,0.84
	C13.15,4.77,13.43,4.83,14.14,4.97"/>
<path class="st0" d="M17.18,4.6h2.77c0.22,0,0.25,0,0.25-0.21c0-0.98-0.54-1.95-1.78-1.95c-1.15,0-2.07,1.02-2.07,2.26
	c0,1.33,1.04,2.3,2.19,2.3c1.21,0,1.66-1.1,1.66-1.29c0-0.1-0.08-0.12-0.13-0.12c-0.09,0-0.11,0.06-0.13,0.14
	C19.6,6.75,18.7,6.75,18.6,6.75c-0.5,0-0.89-0.3-1.12-0.67C17.18,5.61,17.18,4.96,17.18,4.6 M17.19,4.39
	c0.06-1.48,0.89-1.73,1.23-1.73c1.02,0,1.12,1.34,1.12,1.73H17.19z"/>
<path class="st0" d="M21.57,3.48v2.66c0,0.45-0.11,0.45-0.78,0.45v0.31c0.35-0.01,0.85-0.03,1.12-0.03c0.26,0,0.77,0.02,1.11,0.03
	V6.59c-0.67,0-0.77,0-0.77-0.45V4.31c0-1.03,0.7-1.59,1.34-1.59c0.63,0,0.74,0.54,0.74,1.1v2.31c0,0.45-0.11,0.45-0.77,0.45v0.31
	c0.35-0.01,0.85-0.03,1.12-0.03c0.26,0,0.78,0.02,1.11,0.03V6.59c-0.52,0-0.76,0-0.78-0.3v-1.9c0-0.85,0-1.16-0.31-1.52
	C24.57,2.7,24.24,2.5,23.67,2.5c-0.72,0-1.19,0.43-1.47,1.04V2.5l-1.4,0.11v0.31C21.49,2.92,21.57,2.99,21.57,3.48"/>
<path class="st0" d="M29.75,3.69v2.04c0,0.18,0,0.2-0.11,0.37c-0.3,0.48-0.75,0.7-1.17,0.7c-0.45,0-0.8-0.26-1.04-0.64
	c-0.26-0.41-0.29-0.97-0.29-1.38c0-0.37,0.02-0.96,0.31-1.41c0.21-0.31,0.59-0.64,1.12-0.64c0.35,0,0.77,0.15,1.07,0.6
	C29.75,3.49,29.75,3.51,29.75,3.69 M29.75,6.35V7l1.46-0.11V6.59c-0.7,0-0.77-0.07-0.77-0.56V0l-1.43,0.11v0.31
	c0.7,0,0.77,0.07,0.77,0.56v2.15C29.5,2.76,29.07,2.5,28.53,2.5c-1.17,0-2.22,0.97-2.22,2.25c0,1.26,0.97,2.25,2.11,2.25
	C29.06,7,29.5,6.67,29.75,6.35z"/>
<path class="st0" d="M32.68,4.6h2.77c0.22,0,0.25,0,0.25-0.21c0-0.98-0.54-1.95-1.78-1.95c-1.15,0-2.07,1.02-2.07,2.26
	c0,1.33,1.04,2.3,2.19,2.3c1.21,0,1.66-1.1,1.66-1.29c0-0.1-0.08-0.12-0.13-0.12c-0.09,0-0.11,0.06-0.13,0.14
	C35.1,6.75,34.2,6.75,34.1,6.75c-0.5,0-0.89-0.3-1.12-0.67C32.68,5.61,32.68,4.96,32.68,4.6 M32.69,4.39
	c0.06-1.48,0.89-1.73,1.23-1.73c1.02,0,1.12,1.34,1.12,1.73H32.69z"/>
<path class="st0" d="M37.64,3.6V2.5l-1.38,0.11v0.31c0.7,0,0.78,0.07,0.78,0.56v2.66c0,0.45-0.11,0.45-0.78,0.45v0.31
	c0.39-0.01,0.85-0.03,1.13-0.03c0.4,0,0.86,0,1.26,0.03V6.59h-0.21c-0.74,0-0.75-0.11-0.75-0.47V4.59c0-0.98,0.42-1.87,1.17-1.87
	c0.07,0,0.09,0,0.11,0.01c-0.03,0.01-0.23,0.13-0.23,0.39c0,0.28,0.21,0.43,0.43,0.43c0.18,0,0.43-0.12,0.43-0.44
	c0-0.32-0.31-0.61-0.73-0.61C38.13,2.5,37.78,3.17,37.64,3.6"/>
<path class="st0" d="M161.63,4.36V3.27l-1.38,0.11v0.31c0.7,0,0.78,0.07,0.78,0.56V6.9c0,0.45-0.11,0.45-0.78,0.45v0.31
	c0.39-0.01,0.85-0.03,1.13-0.03c0.4,0,0.86,0,1.26,0.03V7.35h-0.21c-0.74,0-0.75-0.11-0.75-0.47V5.35c0-0.98,0.42-1.87,1.17-1.87
	c0.07,0,0.09,0,0.11,0.01c-0.03,0.01-0.23,0.13-0.23,0.39c0,0.28,0.21,0.43,0.43,0.43c0.18,0,0.43-0.12,0.43-0.44
	c0-0.32-0.31-0.61-0.73-0.61C162.13,3.27,161.77,3.93,161.63,4.36"/>
<path class="st0" d="M164.97,5.36h2.77c0.22,0,0.25,0,0.25-0.21c0-0.98-0.54-1.95-1.78-1.95c-1.15,0-2.07,1.02-2.07,2.26
	c0,1.33,1.04,2.3,2.19,2.3c1.21,0,1.66-1.1,1.66-1.29c0-0.1-0.08-0.12-0.13-0.12c-0.09,0-0.11,0.06-0.13,0.14
	c-0.35,1.02-1.24,1.02-1.34,1.02c-0.5,0-0.89-0.3-1.12-0.67C164.97,6.38,164.97,5.72,164.97,5.36 M164.98,5.16
	c0.06-1.48,0.89-1.73,1.23-1.73c1.02,0,1.12,1.34,1.12,1.73H164.98z"/>
<path class="st0" d="M169.53,5.49c0-1.62,0.81-2.04,1.34-2.04c0.09,0,0.72,0.01,1.06,0.37c-0.41,0.03-0.47,0.33-0.47,0.46
	c0,0.26,0.18,0.46,0.46,0.46c0.26,0,0.46-0.17,0.46-0.47c0-0.67-0.75-1.06-1.52-1.06c-1.24,0-2.16,1.07-2.16,2.3
	c0,1.27,0.98,2.25,2.14,2.25c1.33,0,1.65-1.19,1.65-1.29c0-0.1-0.1-0.1-0.13-0.1c-0.09,0-0.11,0.04-0.13,0.1
	c-0.29,0.92-0.93,1.04-1.3,1.04C170.41,7.52,169.53,7.09,169.53,5.49"/>
<path class="st0" d="M173.87,5.36h2.77c0.22,0,0.25,0,0.25-0.21c0-0.98-0.54-1.95-1.78-1.95c-1.15,0-2.07,1.02-2.07,2.26
	c0,1.33,1.04,2.3,2.19,2.3c1.21,0,1.66-1.1,1.66-1.29c0-0.1-0.08-0.12-0.13-0.12c-0.09,0-0.11,0.06-0.13,0.14
	c-0.35,1.02-1.24,1.02-1.34,1.02c-0.5,0-0.89-0.3-1.12-0.67C173.87,6.38,173.87,5.72,173.87,5.36 M173.88,5.16
	c0.06-1.48,0.89-1.73,1.23-1.73c1.02,0,1.12,1.34,1.12,1.73H173.88z"/>
<path class="st0" d="M178.97,1.54c0-0.32-0.25-0.53-0.53-0.53c-0.31,0-0.53,0.27-0.53,0.53c0,0.27,0.22,0.53,0.53,0.53
	C178.72,2.07,178.97,1.86,178.97,1.54 M178.93,3.27l-1.39,0.11v0.31c0.65,0,0.74,0.06,0.74,0.55V6.9c0,0.45-0.11,0.45-0.77,0.45
	v0.31c0.32-0.01,0.85-0.03,1.09-0.03c0.35,0,0.7,0.02,1.03,0.03V7.35c-0.65,0-0.7-0.05-0.7-0.44V3.27z"/>
<path class="st0" d="M184.1,4.35c0.09-0.23,0.26-0.66,0.91-0.67V3.38c-0.23,0.02-0.52,0.03-0.75,0.03c-0.24,0-0.7-0.02-0.86-0.03
	v0.31c0.37,0.01,0.48,0.24,0.48,0.43c0,0.09-0.02,0.13-0.06,0.24l-1.01,2.53l-1.11-2.77c-0.06-0.13-0.06-0.15-0.06-0.17
	c0-0.26,0.39-0.26,0.57-0.26V3.38c-0.3,0.01-0.85,0.03-1.08,0.03c-0.27,0-0.66-0.01-0.96-0.03v0.31c0.62,0,0.67,0.06,0.79,0.37
	l1.43,3.53c0.06,0.14,0.08,0.19,0.21,0.19c0.13,0,0.17-0.09,0.21-0.19L184.1,4.35"/>
<path class="st0" d="M186.07,5.36h2.77c0.22,0,0.25,0,0.25-0.21c0-0.98-0.54-1.95-1.78-1.95c-1.15,0-2.07,1.02-2.07,2.26
	c0,1.33,1.04,2.3,2.19,2.3c1.21,0,1.66-1.1,1.66-1.29c0-0.1-0.08-0.12-0.13-0.12c-0.09,0-0.11,0.06-0.13,0.14
	c-0.35,1.02-1.24,1.02-1.34,1.02c-0.5,0-0.89-0.3-1.12-0.67C186.07,6.38,186.07,5.72,186.07,5.36 M186.08,5.16
	c0.06-1.48,0.89-1.73,1.23-1.73c1.02,0,1.12,1.34,1.12,1.73H186.08z"/>
<path class="st0" d="M191.13,4.36V3.27l-1.38,0.11v0.31c0.7,0,0.77,0.07,0.77,0.56V6.9c0,0.45-0.11,0.45-0.77,0.45v0.31
	c0.39-0.01,0.85-0.03,1.13-0.03c0.4,0,0.86,0,1.26,0.03V7.35h-0.21c-0.74,0-0.75-0.11-0.75-0.47V5.35c0-0.98,0.42-1.87,1.17-1.87
	c0.07,0,0.09,0,0.11,0.01c-0.03,0.01-0.23,0.13-0.23,0.39c0,0.28,0.21,0.43,0.43,0.43c0.18,0,0.43-0.12,0.43-0.44
	c0-0.32-0.31-0.61-0.73-0.61C191.63,3.27,191.27,3.93,191.13,4.36"/>
<path class="st0" d="M10.62,48.27h2.77c0.22,0,0.25,0,0.25-0.21c0-0.98-0.54-1.95-1.78-1.95c-1.15,0-2.07,1.02-2.07,2.26
	c0,1.33,1.04,2.3,2.19,2.3c1.21,0,1.66-1.1,1.66-1.29c0-0.1-0.08-0.12-0.13-0.12c-0.09,0-0.11,0.06-0.13,0.14
	c-0.35,1.02-1.24,1.02-1.34,1.02c-0.5,0-0.89-0.3-1.12-0.67C10.62,49.28,10.62,48.62,10.62,48.27 M10.63,48.06
	c0.06-1.48,0.89-1.73,1.23-1.73c1.02,0,1.12,1.34,1.12,1.73H10.63z"/>
<path class="st0" d="M15.11,47.14v2.66c0,0.45-0.11,0.45-0.78,0.45v0.31c0.35-0.01,0.85-0.03,1.12-0.03c0.26,0,0.77,0.02,1.11,0.03
	v-0.31c-0.67,0-0.78,0-0.78-0.45v-1.83c0-1.03,0.7-1.59,1.34-1.59c0.63,0,0.74,0.54,0.74,1.1v2.31c0,0.45-0.11,0.45-0.78,0.45v0.31
	c0.35-0.01,0.85-0.03,1.12-0.03c0.26,0,0.77,0.02,1.11,0.03v-0.31c-0.52,0-0.76,0-0.77-0.3v-1.9c0-0.85,0-1.16-0.31-1.52
	c-0.14-0.17-0.47-0.37-1.04-0.37c-0.73,0-1.19,0.43-1.47,1.04v-1.04l-1.4,0.11v0.31C15.03,46.59,15.11,46.66,15.11,47.14"/>
<path class="st0" d="M20.68,48.39c0-1.62,0.81-2.04,1.34-2.04c0.09,0,0.72,0.01,1.06,0.37c-0.41,0.03-0.47,0.33-0.47,0.46
	c0,0.26,0.18,0.46,0.46,0.46c0.26,0,0.46-0.17,0.46-0.47c0-0.67-0.75-1.06-1.52-1.06c-1.24,0-2.16,1.07-2.16,2.3
	c0,1.27,0.98,2.25,2.14,2.25c1.33,0,1.65-1.19,1.65-1.29c0-0.1-0.1-0.1-0.13-0.1c-0.09,0-0.11,0.04-0.13,0.1
	c-0.29,0.92-0.93,1.04-1.3,1.04C21.55,50.42,20.68,49.99,20.68,48.39"/>
<path class="st0" d="M26.4,50.42c-0.43,0-0.86-0.21-1.13-0.67c-0.25-0.44-0.25-1.04-0.25-1.4c0-0.39,0-0.93,0.24-1.36
	c0.27-0.46,0.74-0.67,1.13-0.67c0.44,0,0.86,0.22,1.12,0.65c0.26,0.43,0.26,1,0.26,1.38c0,0.36,0,0.89-0.22,1.33
	C27.34,50.13,26.9,50.42,26.4,50.42 M28.6,48.43c0-1.27-0.99-2.32-2.2-2.32c-1.24,0-2.2,1.08-2.2,2.32c0,1.28,1.03,2.24,2.2,2.24
	C27.59,50.67,28.6,49.7,28.6,48.43z"/>
<path class="st0" d="M32.99,47.35v2.04c0,0.18,0,0.2-0.11,0.37c-0.3,0.48-0.75,0.7-1.17,0.7c-0.45,0-0.8-0.26-1.04-0.64
	c-0.26-0.41-0.29-0.97-0.29-1.38c0-0.37,0.02-0.96,0.31-1.41c0.21-0.31,0.59-0.64,1.12-0.64c0.35,0,0.77,0.15,1.07,0.6
	C32.99,47.15,32.99,47.17,32.99,47.35 M32.99,50.01v0.66l1.46-0.11v-0.31c-0.7,0-0.77-0.07-0.77-0.56v-6.03l-1.43,0.11v0.31
	c0.7,0,0.78,0.07,0.78,0.56v2.15c-0.29-0.36-0.72-0.62-1.25-0.62c-1.17,0-2.22,0.97-2.22,2.25c0,1.26,0.97,2.25,2.11,2.25
	C32.3,50.67,32.75,50.33,32.99,50.01z"/>
<path class="st0" d="M35.82,48.27h2.77c0.22,0,0.25,0,0.25-0.21c0-0.98-0.54-1.95-1.78-1.95c-1.15,0-2.07,1.02-2.07,2.26
	c0,1.33,1.04,2.3,2.19,2.3c1.21,0,1.66-1.1,1.66-1.29c0-0.1-0.08-0.12-0.13-0.12c-0.09,0-0.11,0.06-0.13,0.14
	c-0.35,1.02-1.24,1.02-1.34,1.02c-0.5,0-0.89-0.3-1.12-0.67C35.82,49.28,35.82,48.62,35.82,48.27 M35.83,48.06
	c0.06-1.48,0.89-1.73,1.23-1.73c1.02,0,1.12,1.34,1.12,1.73H35.83z"/>
<path class="st0" d="M40.88,47.26v-1.09l-1.38,0.11v0.31c0.7,0,0.77,0.07,0.77,0.56v2.66c0,0.45-0.11,0.45-0.77,0.45v0.31
	c0.39-0.01,0.85-0.03,1.13-0.03c0.4,0,0.86,0,1.26,0.03v-0.31h-0.21c-0.74,0-0.75-0.11-0.75-0.47v-1.53c0-0.98,0.42-1.87,1.17-1.87
	c0.07,0,0.09,0,0.11,0.01c-0.03,0.01-0.23,0.13-0.23,0.39c0,0.28,0.21,0.43,0.43,0.43c0.18,0,0.43-0.12,0.43-0.44
	c0-0.32-0.31-0.61-0.73-0.61C41.38,46.17,41.02,46.84,40.88,47.26"/>
<path class="st0" d="M164.45,48.24v2.04c0,0.18,0,0.2-0.11,0.37c-0.3,0.48-0.75,0.7-1.17,0.7c-0.45,0-0.8-0.26-1.04-0.64
	c-0.26-0.41-0.29-0.97-0.29-1.38c0-0.37,0.02-0.96,0.31-1.41c0.21-0.31,0.59-0.64,1.12-0.64c0.35,0,0.77,0.15,1.07,0.6
	C164.45,48.04,164.45,48.06,164.45,48.24 M164.45,50.9v0.66l1.46-0.11v-0.31c-0.7,0-0.77-0.07-0.77-0.56v-6.03l-1.43,0.11v0.31
	c0.7,0,0.77,0.07,0.77,0.56v2.15c-0.29-0.36-0.72-0.62-1.25-0.62c-1.17,0-2.22,0.97-2.22,2.25c0,1.26,0.97,2.25,2.11,2.25
	C163.75,51.56,164.2,51.22,164.45,50.9z"/>
<path class="st0" d="M167.37,49.15h2.77c0.22,0,0.25,0,0.25-0.21c0-0.98-0.54-1.95-1.78-1.95c-1.15,0-2.07,1.02-2.07,2.26
	c0,1.33,1.04,2.3,2.19,2.3c1.21,0,1.66-1.1,1.66-1.29c0-0.1-0.08-0.12-0.13-0.12c-0.09,0-0.11,0.06-0.13,0.14
	c-0.35,1.02-1.24,1.02-1.34,1.02c-0.5,0-0.89-0.3-1.12-0.67C167.37,50.17,167.37,49.51,167.37,49.15 M167.38,48.95
	c0.06-1.48,0.89-1.73,1.23-1.73c1.02,0,1.12,1.34,1.12,1.73H167.38z"/>
<path class="st0" d="M171.83,49.28c0-1.62,0.81-2.04,1.34-2.04c0.09,0,0.72,0.01,1.06,0.37c-0.41,0.03-0.47,0.33-0.47,0.46
	c0,0.26,0.18,0.46,0.46,0.46c0.26,0,0.46-0.17,0.46-0.47c0-0.67-0.75-1.06-1.52-1.06c-1.24,0-2.16,1.07-2.16,2.3
	c0,1.27,0.98,2.25,2.14,2.25c1.33,0,1.65-1.19,1.65-1.29c0-0.1-0.1-0.1-0.13-0.1c-0.09,0-0.11,0.04-0.13,0.1
	c-0.29,0.92-0.93,1.04-1.3,1.04C172.71,51.31,171.83,50.88,171.83,49.28"/>
<path class="st0" d="M177.55,51.31c-0.43,0-0.86-0.21-1.13-0.67c-0.25-0.44-0.25-1.04-0.25-1.4c0-0.39,0-0.93,0.24-1.36
	c0.27-0.46,0.74-0.67,1.13-0.67c0.44,0,0.86,0.22,1.12,0.65c0.26,0.43,0.26,1,0.26,1.38c0,0.36,0,0.89-0.22,1.33
	C178.49,51.02,178.05,51.31,177.55,51.31 M179.75,49.32c0-1.27-0.99-2.32-2.2-2.32c-1.24,0-2.2,1.08-2.2,2.32
	c0,1.28,1.03,2.24,2.2,2.24C178.75,51.56,179.75,50.59,179.75,49.32z"/>
<path class="st0" d="M184.15,48.24v2.04c0,0.18,0,0.2-0.11,0.37c-0.3,0.48-0.75,0.7-1.17,0.7c-0.45,0-0.8-0.26-1.04-0.64
	c-0.26-0.41-0.29-0.97-0.29-1.38c0-0.37,0.02-0.96,0.31-1.41c0.21-0.31,0.59-0.64,1.12-0.64c0.35,0,0.77,0.15,1.07,0.6
	C184.15,48.04,184.15,48.06,184.15,48.24 M184.15,50.9v0.66l1.46-0.11v-0.31c-0.7,0-0.77-0.07-0.77-0.56v-6.03l-1.43,0.11v0.31
	c0.7,0,0.78,0.07,0.78,0.56v2.15c-0.29-0.36-0.72-0.62-1.25-0.62c-1.17,0-2.22,0.97-2.22,2.25c0,1.26,0.97,2.25,2.11,2.25
	C183.45,51.56,183.9,51.22,184.15,50.9z"/>
<path class="st0" d="M186.97,49.15h2.77c0.22,0,0.25,0,0.25-0.21c0-0.98-0.54-1.95-1.78-1.95c-1.15,0-2.07,1.02-2.07,2.26
	c0,1.33,1.04,2.3,2.19,2.3c1.21,0,1.66-1.1,1.66-1.29c0-0.1-0.08-0.12-0.13-0.12c-0.09,0-0.11,0.06-0.13,0.14
	c-0.35,1.02-1.24,1.02-1.34,1.02c-0.5,0-0.89-0.3-1.12-0.67C186.97,50.17,186.97,49.51,186.97,49.15 M186.98,48.95
	c0.06-1.48,0.89-1.73,1.23-1.73c1.02,0,1.12,1.34,1.12,1.73H186.98z"/>
<path class="st0" d="M192.03,48.15v-1.09l-1.38,0.11v0.31c0.7,0,0.77,0.07,0.77,0.56v2.66c0,0.45-0.11,0.45-0.77,0.45v0.31
	c0.39-0.01,0.85-0.03,1.13-0.03c0.4,0,0.86,0,1.26,0.03v-0.31h-0.21c-0.74,0-0.75-0.11-0.75-0.47v-1.53c0-0.98,0.42-1.87,1.17-1.87
	c0.07,0,0.09,0,0.11,0.01c-0.03,0.01-0.23,0.13-0.23,0.39c0,0.28,0.21,0.43,0.43,0.43c0.18,0,0.43-0.12,0.43-0.44
	c0-0.32-0.31-0.61-0.73-0.61C192.53,47.06,192.17,47.72,192.03,48.15"/>
<path class="st0" d="M85.96,48.39c0-1.62,0.81-2.04,1.34-2.04c0.09,0,0.72,0.01,1.06,0.37c-0.41,0.03-0.47,0.33-0.47,0.46
	c0,0.26,0.18,0.46,0.46,0.46c0.26,0,0.46-0.17,0.46-0.47c0-0.67-0.75-1.06-1.52-1.06c-1.24,0-2.16,1.07-2.16,2.3
	c0,1.27,0.98,2.25,2.14,2.25c1.33,0,1.65-1.19,1.65-1.29c0-0.1-0.1-0.1-0.13-0.1c-0.09,0-0.11,0.04-0.13,0.1
	c-0.29,0.92-0.93,1.04-1.3,1.04C86.83,50.42,85.96,49.99,85.96,48.39"/>
<path class="st0" d="M90.09,49.81c0,0.45-0.11,0.45-0.77,0.45v0.31c0.35-0.01,0.85-0.03,1.12-0.03c0.26,0,0.78,0.02,1.11,0.03v-0.31
	c-0.67,0-0.78,0-0.78-0.45v-1.83c0-1.03,0.7-1.59,1.34-1.59c0.63,0,0.74,0.54,0.74,1.1v2.31c0,0.45-0.11,0.45-0.78,0.45v0.31
	c0.35-0.01,0.85-0.03,1.12-0.03c0.26,0,0.78,0.02,1.11,0.03v-0.31c-0.52,0-0.76,0-0.77-0.3v-1.9c0-0.85,0-1.16-0.31-1.52
	c-0.14-0.17-0.47-0.37-1.04-0.37c-0.83,0-1.27,0.6-1.44,0.97v-3.48l-1.43,0.11v0.31c0.7,0,0.77,0.07,0.77,0.56V49.81"/>
<path class="st0" d="M97.74,48.18v0.99c0,0.94-0.72,1.28-1.16,1.28c-0.49,0-0.89-0.35-0.89-0.84C95.68,49.06,96.1,48.24,97.74,48.18
	 M97.81,49.81c0.04,0.4,0.31,0.81,0.78,0.81c0.21,0,0.81-0.14,0.81-0.94v-0.56h-0.25v0.56c0,0.58-0.25,0.64-0.36,0.64
	c-0.33,0-0.37-0.45-0.37-0.5v-1.99c0-0.42,0-0.8-0.36-1.17c-0.39-0.39-0.88-0.55-1.36-0.55c-0.81,0-1.5,0.47-1.5,1.12
	c0,0.3,0.2,0.47,0.46,0.47c0.28,0,0.46-0.2,0.46-0.46c0-0.12-0.05-0.45-0.51-0.46c0.27-0.35,0.75-0.46,1.07-0.46
	c0.49,0,1.05,0.39,1.05,1.27v0.37c-0.51,0.03-1.2,0.06-1.83,0.36c-0.75,0.34-0.99,0.85-0.99,1.29c0,0.8,0.96,1.05,1.59,1.05
	C97.16,50.67,97.62,50.27,97.81,49.81z"/>
<path class="st0" d="M100.69,47.14v2.66c0,0.45-0.11,0.45-0.78,0.45v0.31c0.35-0.01,0.85-0.03,1.12-0.03c0.26,0,0.78,0.02,1.11,0.03
	v-0.31c-0.67,0-0.78,0-0.78-0.45v-1.83c0-1.03,0.7-1.59,1.34-1.59c0.63,0,0.74,0.54,0.74,1.1v2.31c0,0.45-0.11,0.45-0.77,0.45v0.31
	c0.35-0.01,0.85-0.03,1.12-0.03c0.26,0,0.78,0.02,1.11,0.03v-0.31c-0.52,0-0.76,0-0.78-0.3v-1.9c0-0.85,0-1.16-0.31-1.52
	c-0.14-0.17-0.47-0.37-1.04-0.37c-0.72,0-1.19,0.43-1.47,1.04v-1.04l-1.4,0.11v0.31C100.61,46.59,100.69,46.66,100.69,47.14"/>
<path class="st0" d="M106.19,47.14v2.66c0,0.45-0.11,0.45-0.78,0.45v0.31c0.35-0.01,0.85-0.03,1.12-0.03c0.26,0,0.77,0.02,1.11,0.03
	v-0.31c-0.67,0-0.78,0-0.78-0.45v-1.83c0-1.03,0.7-1.59,1.34-1.59c0.63,0,0.74,0.54,0.74,1.1v2.31c0,0.45-0.11,0.45-0.77,0.45v0.31
	c0.35-0.01,0.85-0.03,1.12-0.03c0.26,0,0.78,0.02,1.11,0.03v-0.31c-0.52,0-0.76,0-0.78-0.3v-1.9c0-0.85,0-1.16-0.31-1.52
	c-0.14-0.17-0.47-0.37-1.04-0.37c-0.72,0-1.19,0.43-1.47,1.04v-1.04l-1.4,0.11v0.31C106.11,46.59,106.19,46.66,106.19,47.14"/>
<path class="st0" d="M111.7,48.27h2.77c0.22,0,0.25,0,0.25-0.21c0-0.98-0.54-1.95-1.78-1.95c-1.15,0-2.07,1.02-2.07,2.26
	c0,1.33,1.04,2.3,2.19,2.3c1.21,0,1.66-1.1,1.66-1.29c0-0.1-0.08-0.12-0.13-0.12c-0.09,0-0.11,0.06-0.13,0.14
	c-0.35,1.02-1.24,1.02-1.34,1.02c-0.5,0-0.89-0.3-1.12-0.67C111.7,49.28,111.7,48.62,111.7,48.27 M111.71,48.06
	c0.06-1.48,0.89-1.73,1.23-1.73c1.02,0,1.12,1.34,1.12,1.73H111.71z"/>
<path class="st0" d="M116.76,43.67l-1.43,0.11v0.31c0.7,0,0.78,0.07,0.78,0.56v5.17c0,0.45-0.11,0.45-0.78,0.45v0.31
	c0.33-0.01,0.85-0.03,1.1-0.03c0.25,0,0.74,0.02,1.1,0.03v-0.31c-0.67,0-0.78,0-0.78-0.45V43.67"/>
<rect x="0.5" y="36.95" class="st1" width="51" height="23.67"/>
<rect x="75.83" y="36.95" class="st1" width="51" height="23.67"/>
<rect x="151.17" y="36.95" class="st1" width="51" height="23.67"/>
<g>
	<g>
		<line class="st1" x1="24.2" y1="10.45" x2="24.2" y2="28.93"/>
		<g>
			<path class="st2" d="M24.2,33.45c-0.79-2.13-2.14-4.77-3.57-6.41l3.57,1.29l3.57-1.29C26.33,28.68,24.99,31.32,24.2,33.45z"/>
		</g>
	</g>
</g>
<g>
	<g>
		<line class="st1" x1="176.17" y1="15.39" x2="176.17" y2="33.86"/>
		<g>
			<path class="st2" d="M176.17,10.86c-0.79,2.13-2.14,4.77-3.57,6.41l3.57-1.29l3.57,1.29C178.31,15.63,176.96,12.99,176.17,10.86z
				"/>
		</g>
	</g>
</g>
<g>
	<g>
		<line class="st1" x1="56.67" y1="48.06" x2="66.14" y2="48.06"/>
		<g>
			<path class="st2" d="M70.67,48.06c-2.13,0.79-4.77,2.14-6.41,3.57l1.29-3.57l-1.29-3.57C65.89,45.92,68.54,47.27,70.67,48.06z"/>
		</g>
	</g>
</g>
<g>
	<g>
		<line class="st1" x1="132" y1="48.18" x2="141.47" y2="48.18"/>
		<g>
			<path class="st2" d="M146,48.18c-2.13,0.79-4.77,2.14-6.41,3.57l1.29-3.57l-1.29-3.57C141.23,46.04,143.87,47.39,146,48.18z"/>
		</g>
	</g>
</g>
</svg>
