<?xml version="1.0" encoding="utf-8"?>
<!-- Generator: Adobe Illustrator 26.0.2, SVG Export Plug-In . SVG Version: 6.00 Build 0)  -->
<svg version="1.1" id="Layer_1" xmlns="http://www.w3.org/2000/svg" xmlns:xlink="http://www.w3.org/1999/xlink" x="0px" y="0px"
	 viewBox="0 0 186.63 137.02" style="enable-background:new 0 0 186.63 137.02;" xml:space="preserve">
<style type="text/css">
	.st0{opacity:0.45;fill:#FD46FC;}
	.st1{fill:none;stroke:#486AFB;stroke-miterlimit:10;}
	.st2{fill:#486AFB;}
</style>
<rect x="63.93" y="117.9" class="st0" width="40.11" height="18.61"/>
<rect x="23.82" y="99.29" class="st0" width="40.11" height="18.61"/>
<rect x="23.82" y="80.68" class="st0" width="40.11" height="18.61"/>
<rect x="63.93" y="80.68" class="st0" width="40.11" height="18.61"/>
<rect x="104.04" y="99.29" class="st0" width="40.11" height="18.61"/>
<rect x="104.04" y="117.9" class="st0" width="40.11" height="18.61"/>
<rect x="144.15" y="117.9" class="st0" width="40.11" height="18.61"/>
<rect x="144.15" y="99.29" class="st0" width="40.11" height="18.61"/>
<rect x="144.15" y="80.68" class="st0" width="40.11" height="18.61"/>
<rect x="104.04" y="62.07" class="st0" width="40.11" height="18.61"/>
<rect x="63.93" y="62.07" class="st0" width="40.11" height="18.61"/>
<rect x="23.82" y="62.07" class="st0" width="40.11" height="18.61"/>
<rect x="23.82" y="62.07" class="st1" width="40.11" height="18.61"/>
<rect x="63.93" y="62.07" class="st1" width="40.11" height="18.61"/>
<rect x="104.04" y="62.07" class="st1" width="40.11" height="18.61"/>
<rect x="144.15" y="62.07" class="st1" width="40.11" height="18.61"/>
<rect x="23.82" y="80.68" class="st1" width="40.11" height="18.61"/>
<rect x="63.93" y="80.68" class="st1" width="40.11" height="18.61"/>
<rect x="104.04" y="80.68" class="st1" width="40.11" height="18.61"/>
<rect x="144.15" y="80.68" class="st1" width="40.11" height="18.61"/>
<rect x="23.82" y="99.29" class="st1" width="40.11" height="18.61"/>
<rect x="63.93" y="99.29" class="st1" width="40.11" height="18.61"/>
<rect x="104.04" y="99.29" class="st1" width="40.11" height="18.61"/>
<rect x="144.15" y="99.29" class="st1" width="40.11" height="18.61"/>
<rect x="23.82" y="117.9" class="st1" width="40.11" height="18.61"/>
<rect x="63.93" y="117.9" class="st1" width="40.11" height="18.61"/>
<rect x="104.04" y="117.9" class="st1" width="40.11" height="18.61"/>
<rect x="144.15" y="117.9" class="st1" width="40.11" height="18.61"/>
<g>
	<path class="st2" d="M72.55,68.63h0.98V68.4h-0.98v-1.1h-0.22c0,0.53-0.26,1.11-0.86,1.14v0.19h0.59v1.59c0,0.63,0.47,0.8,0.88,0.8
		c0.41,0,0.71-0.33,0.71-0.81v-0.33h-0.22v0.32c0,0.42-0.22,0.61-0.44,0.61c-0.43,0-0.43-0.48-0.43-0.6V68.63"/>
	<path class="st2" d="M75.34,69.63c0-0.55,0.29-1.09,0.82-1.1c-0.05,0.05-0.08,0.12-0.08,0.2c0,0.16,0.12,0.28,0.28,0.28
		c0.16,0,0.28-0.12,0.28-0.28c0-0.24-0.23-0.39-0.49-0.39c-0.36,0-0.66,0.21-0.85,0.61H75.3v-0.61l-0.9,0.07v0.23
		c0.42,0,0.47,0.04,0.47,0.33v1.51c0,0.26-0.06,0.26-0.47,0.26v0.23c0.15-0.01,0.59-0.02,0.72-0.02c0.31,0,0.72,0.02,0.8,0.02v-0.23
		h-0.13c-0.45,0-0.45-0.06-0.45-0.26V69.63"/>
	<path class="st2" d="M79.29,70.12c0,0.62-0.61,0.72-0.8,0.72c-0.32,0-0.62-0.2-0.62-0.5c0-0.33,0.32-0.77,1.43-0.8V70.12
		 M79.78,69.19c0-0.55-0.57-0.88-1.23-0.88c-0.29,0-0.99,0.03-0.99,0.53c0,0.16,0.11,0.29,0.29,0.29c0.17,0,0.29-0.13,0.29-0.29
		c0-0.11-0.05-0.21-0.15-0.26c0.2-0.09,0.5-0.09,0.55-0.09c0.42,0,0.75,0.25,0.75,0.7v0.15c-0.27,0.01-0.75,0.02-1.19,0.18
		c-0.39,0.14-0.77,0.4-0.77,0.8c0,0.53,0.63,0.69,1.1,0.69c0.5,0,0.8-0.25,0.93-0.48C79.4,70.86,79.6,71,79.81,71
		c0.02,0,0.66,0,0.66-0.57V70.1h-0.22v0.32c0,0.06,0,0.33-0.23,0.33c-0.23,0-0.23-0.27-0.23-0.33V69.19z"/>
	<path class="st2" d="M80.96,68.4v0.23c0.39,0,0.45,0.04,0.45,0.33v1.51c0,0.26-0.06,0.26-0.47,0.26v0.23
		c0.17-0.01,0.64-0.02,0.7-0.02c0.06,0,0.51,0.01,0.67,0.02v-0.23c-0.37,0-0.42,0-0.42-0.25v-2.15L80.96,68.4 M81.9,67.29
		c0-0.18-0.15-0.36-0.36-0.36c-0.18,0-0.36,0.14-0.36,0.36c0,0.22,0.17,0.36,0.36,0.36C81.76,67.65,81.9,67.47,81.9,67.29z"/>
	<path class="st2" d="M86.01,69.17c0-0.58-0.33-0.83-0.94-0.83c-0.53,0-0.85,0.27-1.03,0.56v-0.56l-0.93,0.07v0.23
		c0.42,0,0.47,0.04,0.47,0.33v1.51c0,0.26-0.06,0.26-0.47,0.26v0.23c0.04-0.01,0.45-0.02,0.72-0.02c0.27,0,0.66,0.02,0.72,0.02
		v-0.23c-0.41,0-0.47,0-0.47-0.26v-1.05c0-0.66,0.56-0.9,0.93-0.9c0.4,0,0.5,0.25,0.5,0.62v1.33c0,0.26-0.06,0.26-0.47,0.26v0.23
		c0.04-0.01,0.45-0.02,0.71-0.02c0.27,0,0.66,0.02,0.72,0.02v-0.23c-0.41,0-0.47,0-0.47-0.26V69.17"/>
	<path class="st2" d="M87.26,68.4v0.23c0.39,0,0.45,0.04,0.45,0.33v1.51c0,0.26-0.06,0.26-0.47,0.26v0.23
		c0.17-0.01,0.64-0.02,0.7-0.02c0.06,0,0.51,0.01,0.67,0.02v-0.23c-0.37,0-0.42,0-0.42-0.25v-2.15L87.26,68.4 M88.2,67.29
		c0-0.18-0.15-0.36-0.36-0.36c-0.18,0-0.36,0.14-0.36,0.36c0,0.22,0.17,0.36,0.36,0.36C88.06,67.65,88.2,67.47,88.2,67.29z"/>
	<path class="st2" d="M92.21,69.17c0-0.58-0.33-0.83-0.94-0.83c-0.53,0-0.85,0.27-1.03,0.56v-0.56l-0.92,0.07v0.23
		c0.42,0,0.47,0.04,0.47,0.33v1.51c0,0.26-0.06,0.26-0.47,0.26v0.23c0.04-0.01,0.45-0.02,0.72-0.02c0.27,0,0.66,0.02,0.72,0.02
		v-0.23c-0.41,0-0.47,0-0.47-0.26v-1.05c0-0.66,0.56-0.9,0.93-0.9c0.4,0,0.5,0.25,0.5,0.62v1.33c0,0.26-0.06,0.26-0.47,0.26v0.23
		c0.04-0.01,0.45-0.02,0.71-0.02c0.27,0,0.66,0.02,0.72,0.02v-0.23c-0.41,0-0.47,0-0.47-0.26V69.17"/>
	<path class="st2" d="M95.01,70.96c0.18,0,1.01,0.01,1.01,0.46c0,0.29-0.49,0.57-1.16,0.57c-0.64,0-1.16-0.27-1.16-0.58
		c0-0.15,0.14-0.45,0.64-0.45H95.01 M94.68,69.9c-0.49,0-0.62-0.36-0.62-0.68c0-0.11,0-0.68,0.61-0.68c0.53,0,0.62,0.42,0.62,0.68
		C95.29,69.33,95.29,69.9,94.68,69.9z M93.99,69.92c0.14,0.08,0.38,0.18,0.68,0.18c0.66,0,1.12-0.42,1.12-0.88
		c0-0.33-0.25-0.55-0.26-0.57c0.27-0.18,0.52-0.19,0.61-0.19c-0.02,0.02-0.04,0.05-0.04,0.13c0,0.11,0.08,0.2,0.2,0.2
		c0.13,0,0.2-0.1,0.2-0.2c0-0.13-0.11-0.32-0.38-0.32c-0.25,0-0.53,0.1-0.73,0.27c-0.2-0.14-0.47-0.21-0.72-0.21
		c-0.64,0-1.12,0.41-1.12,0.88c0,0.19,0.08,0.4,0.29,0.6c-0.13,0.17-0.17,0.33-0.17,0.48c0,0.33,0.21,0.51,0.24,0.54
		c-0.23,0.07-0.6,0.26-0.6,0.59c0,0.46,0.72,0.77,1.54,0.77c0.76,0,1.54-0.27,1.54-0.78c0-0.15-0.05-0.53-0.52-0.73
		c-0.34-0.14-0.68-0.14-1.24-0.14c-0.14,0-0.38,0-0.42-0.01c-0.15-0.02-0.3-0.17-0.3-0.38C93.92,70.02,93.98,69.94,93.99,69.92z"/>
	<path class="st2" d="M82.07,73.36c0-0.1,0-0.17-0.1-0.17c-0.03,0-0.04,0-0.13,0.07c-0.01,0.01-0.02,0.02-0.11,0.09
		c-0.23-0.15-0.53-0.16-0.65-0.16c-0.93,0-1.11,0.47-1.11,0.74c0,0.58,0.7,0.7,1.16,0.77c0.27,0.04,0.79,0.12,0.79,0.52
		c0,0.23-0.18,0.5-0.79,0.5c-0.57,0-0.81-0.33-0.93-0.78c-0.02-0.05-0.03-0.09-0.11-0.09c-0.11,0-0.11,0.05-0.11,0.17v0.72
		c0,0.1,0,0.17,0.1,0.17c0.04,0,0.04-0.01,0.15-0.11l0.14-0.14c0.29,0.26,0.65,0.26,0.77,0.26c0.88,0,1.12-0.48,1.12-0.83
		c0-0.24-0.12-0.42-0.25-0.53c-0.25-0.22-0.49-0.26-0.85-0.32c-0.45-0.07-0.85-0.14-0.85-0.45c0-0.17,0.16-0.42,0.78-0.42
		c0.42,0,0.73,0.16,0.77,0.58c0.01,0.08,0.01,0.12,0.11,0.12c0.11,0,0.11-0.05,0.11-0.17V73.36"/>
	<path class="st2" d="M83.42,74.33c0.07-0.8,0.61-0.94,0.86-0.94c0.77,0,0.81,0.77,0.82,0.94H83.42 M85.35,74.51
		c0.13,0,0.18,0,0.18-0.14c0-0.46-0.26-1.17-1.25-1.17c-0.83,0-1.44,0.64-1.44,1.35c0,0.75,0.69,1.36,1.53,1.36
		c0.86,0,1.16-0.64,1.16-0.77c0-0.03-0.01-0.1-0.11-0.1c-0.08,0-0.09,0.04-0.11,0.11c-0.18,0.44-0.63,0.55-0.9,0.55
		c-0.33,0-0.61-0.15-0.78-0.36c-0.22-0.28-0.22-0.67-0.22-0.83H85.35z"/>
	<path class="st2" d="M87.06,73.52h0.98v-0.23h-0.98v-1.1h-0.22c0,0.53-0.26,1.11-0.86,1.14v0.19h0.59v1.59
		c0,0.63,0.47,0.8,0.88,0.8c0.41,0,0.71-0.33,0.71-0.81v-0.33h-0.22v0.32c0,0.42-0.22,0.61-0.44,0.61c-0.43,0-0.43-0.48-0.43-0.6
		V73.52"/>
</g>
<g>
	<path class="st2" d="M32.44,68.58h0.98v-0.23h-0.98v-1.1h-0.22c0,0.53-0.26,1.11-0.86,1.14v0.19h0.59v1.59
		c0,0.63,0.47,0.8,0.88,0.8c0.41,0,0.71-0.33,0.71-0.81v-0.33h-0.22v0.32c0,0.42-0.22,0.61-0.44,0.61c-0.43,0-0.43-0.48-0.43-0.6
		V68.58"/>
	<path class="st2" d="M35.23,69.58c0-0.55,0.29-1.09,0.82-1.1c-0.05,0.05-0.08,0.12-0.08,0.2c0,0.16,0.12,0.28,0.28,0.28
		c0.16,0,0.28-0.12,0.28-0.28c0-0.24-0.23-0.39-0.49-0.39c-0.36,0-0.66,0.21-0.85,0.61h-0.01v-0.61l-0.9,0.07v0.23
		c0.42,0,0.47,0.04,0.47,0.33v1.51c0,0.26-0.06,0.26-0.47,0.26v0.23c0.15-0.01,0.59-0.02,0.72-0.02c0.31,0,0.72,0.02,0.8,0.02v-0.23
		h-0.13c-0.45,0-0.45-0.06-0.45-0.26V69.58"/>
	<path class="st2" d="M39.18,70.07c0,0.62-0.61,0.72-0.8,0.72c-0.32,0-0.62-0.2-0.62-0.5c0-0.33,0.32-0.77,1.43-0.8V70.07
		 M39.67,69.14c0-0.55-0.57-0.88-1.23-0.88c-0.29,0-0.99,0.03-0.99,0.53c0,0.16,0.11,0.29,0.29,0.29c0.17,0,0.29-0.13,0.29-0.29
		c0-0.11-0.05-0.21-0.15-0.26c0.2-0.09,0.5-0.09,0.55-0.09c0.42,0,0.75,0.25,0.75,0.7v0.15c-0.27,0.01-0.75,0.02-1.19,0.18
		c-0.39,0.14-0.77,0.4-0.77,0.8c0,0.53,0.63,0.69,1.1,0.69c0.5,0,0.8-0.25,0.93-0.48c0.04,0.31,0.24,0.45,0.45,0.45
		c0.02,0,0.66,0,0.66-0.57v-0.33h-0.22v0.32c0,0.06,0,0.33-0.23,0.33c-0.23,0-0.23-0.27-0.23-0.33V69.14z"/>
	<path class="st2" d="M40.85,68.35v0.23c0.39,0,0.45,0.04,0.45,0.33v1.51c0,0.26-0.06,0.26-0.47,0.26v0.23
		c0.17-0.01,0.64-0.02,0.7-0.02c0.06,0,0.51,0.01,0.67,0.02v-0.23c-0.37,0-0.42,0-0.42-0.25v-2.15L40.85,68.35 M41.8,67.24
		c0-0.18-0.15-0.36-0.36-0.36c-0.18,0-0.36,0.14-0.36,0.36c0,0.22,0.17,0.36,0.36,0.36C41.65,67.6,41.8,67.42,41.8,67.24z"/>
	<path class="st2" d="M45.9,69.12c0-0.58-0.33-0.83-0.94-0.83c-0.53,0-0.85,0.27-1.03,0.56v-0.56l-0.92,0.07v0.23
		c0.42,0,0.47,0.04,0.47,0.33v1.51c0,0.26-0.06,0.26-0.47,0.26v0.23c0.04-0.01,0.45-0.02,0.72-0.02c0.27,0,0.66,0.02,0.72,0.02
		v-0.23c-0.41,0-0.47,0-0.47-0.26v-1.05c0-0.66,0.56-0.9,0.93-0.9c0.4,0,0.5,0.25,0.5,0.62v1.33c0,0.26-0.06,0.26-0.47,0.26v0.23
		c0.04-0.01,0.45-0.02,0.71-0.02c0.27,0,0.66,0.02,0.72,0.02v-0.23c-0.41,0-0.47,0-0.47-0.26V69.12"/>
	<path class="st2" d="M47.15,68.35v0.23c0.39,0,0.45,0.04,0.45,0.33v1.51c0,0.26-0.06,0.26-0.47,0.26v0.23
		c0.17-0.01,0.64-0.02,0.7-0.02c0.06,0,0.51,0.01,0.67,0.02v-0.23c-0.37,0-0.42,0-0.42-0.25v-2.15L47.15,68.35 M48.1,67.24
		c0-0.18-0.15-0.36-0.36-0.36c-0.18,0-0.36,0.14-0.36,0.36c0,0.22,0.17,0.36,0.36,0.36C47.95,67.6,48.1,67.42,48.1,67.24z"/>
	<path class="st2" d="M52.1,69.12c0-0.58-0.33-0.83-0.94-0.83c-0.53,0-0.85,0.27-1.03,0.56v-0.56l-0.92,0.07v0.23
		c0.42,0,0.47,0.04,0.47,0.33v1.51c0,0.26-0.06,0.26-0.47,0.26v0.23c0.04-0.01,0.45-0.02,0.72-0.02c0.27,0,0.66,0.02,0.72,0.02
		v-0.23c-0.41,0-0.47,0-0.47-0.26v-1.05c0-0.66,0.56-0.9,0.93-0.9c0.4,0,0.5,0.25,0.5,0.62v1.33c0,0.26-0.06,0.26-0.47,0.26v0.23
		c0.04-0.01,0.45-0.02,0.71-0.02c0.27,0,0.66,0.02,0.72,0.02v-0.23c-0.41,0-0.47,0-0.47-0.26V69.12"/>
	<path class="st2" d="M54.9,70.91c0.18,0,1.01,0.01,1.01,0.46c0,0.29-0.49,0.57-1.16,0.57c-0.64,0-1.16-0.27-1.16-0.58
		c0-0.15,0.14-0.45,0.64-0.45H54.9 M54.57,69.85c-0.49,0-0.62-0.36-0.62-0.68c0-0.11,0-0.68,0.61-0.68c0.53,0,0.62,0.42,0.62,0.68
		C55.18,69.28,55.18,69.85,54.57,69.85z M53.89,69.87c0.14,0.08,0.38,0.18,0.68,0.18c0.66,0,1.12-0.42,1.12-0.88
		c0-0.33-0.25-0.55-0.26-0.57c0.27-0.18,0.52-0.19,0.61-0.19C56.02,68.44,56,68.46,56,68.54c0,0.11,0.08,0.2,0.2,0.2
		c0.13,0,0.2-0.1,0.2-0.2c0-0.13-0.11-0.32-0.38-0.32c-0.25,0-0.53,0.1-0.73,0.27c-0.2-0.14-0.47-0.21-0.72-0.21
		c-0.64,0-1.12,0.41-1.12,0.88c0,0.19,0.08,0.4,0.29,0.6c-0.13,0.17-0.17,0.33-0.17,0.48c0,0.33,0.21,0.51,0.24,0.54
		c-0.23,0.07-0.6,0.26-0.6,0.59c0,0.46,0.72,0.77,1.54,0.77c0.76,0,1.54-0.27,1.54-0.78c0-0.15-0.05-0.53-0.52-0.73
		c-0.34-0.14-0.68-0.14-1.24-0.14c-0.14,0-0.38,0-0.42-0.01c-0.15-0.03-0.3-0.17-0.3-0.38C53.81,69.97,53.87,69.88,53.89,69.87z"/>
	<path class="st2" d="M41.96,73.31c0-0.1,0-0.17-0.1-0.17c-0.03,0-0.04,0-0.13,0.07c-0.01,0.01-0.02,0.02-0.11,0.09
		c-0.23-0.15-0.53-0.16-0.65-0.16c-0.93,0-1.11,0.47-1.11,0.74c0,0.58,0.7,0.7,1.16,0.77c0.27,0.04,0.79,0.12,0.79,0.52
		c0,0.23-0.18,0.5-0.79,0.5c-0.57,0-0.81-0.33-0.93-0.78c-0.02-0.05-0.03-0.09-0.11-0.09c-0.11,0-0.11,0.05-0.11,0.17v0.72
		c0,0.1,0,0.17,0.1,0.17c0.04,0,0.04-0.01,0.15-0.11l0.14-0.14c0.29,0.26,0.65,0.26,0.77,0.26c0.88,0,1.12-0.48,1.12-0.83
		c0-0.24-0.12-0.42-0.25-0.53c-0.25-0.22-0.49-0.26-0.85-0.32c-0.45-0.07-0.85-0.14-0.85-0.45c0-0.17,0.16-0.42,0.78-0.42
		c0.42,0,0.73,0.16,0.77,0.58c0.01,0.08,0.01,0.12,0.11,0.12c0.11,0,0.11-0.05,0.11-0.17V73.31"/>
	<path class="st2" d="M43.31,74.28c0.07-0.8,0.61-0.94,0.86-0.94c0.77,0,0.81,0.77,0.82,0.94H43.31 M45.24,74.46
		c0.13,0,0.18,0,0.18-0.14c0-0.46-0.26-1.17-1.25-1.17c-0.83,0-1.44,0.64-1.44,1.35c0,0.75,0.69,1.36,1.53,1.36
		c0.86,0,1.16-0.64,1.16-0.78c0-0.03-0.01-0.1-0.11-0.1c-0.08,0-0.09,0.04-0.11,0.11c-0.18,0.44-0.63,0.55-0.9,0.55
		c-0.33,0-0.61-0.15-0.78-0.36c-0.22-0.28-0.22-0.67-0.22-0.83H45.24z"/>
	<path class="st2" d="M46.95,73.47h0.98v-0.23h-0.98v-1.1h-0.22c0,0.53-0.26,1.11-0.86,1.14v0.19h0.59v1.59
		c0,0.63,0.47,0.8,0.88,0.8c0.41,0,0.71-0.33,0.71-0.81v-0.33h-0.22v0.32c0,0.42-0.22,0.61-0.44,0.61c-0.43,0-0.43-0.48-0.43-0.6
		V73.47"/>
</g>
<g>
	<path class="st2" d="M112.66,68.58h0.98v-0.23h-0.98v-1.1h-0.22c0,0.53-0.26,1.11-0.86,1.14v0.19h0.59v1.59
		c0,0.63,0.47,0.8,0.88,0.8c0.41,0,0.71-0.33,0.71-0.81v-0.33h-0.22v0.32c0,0.42-0.22,0.61-0.44,0.61c-0.43,0-0.43-0.48-0.43-0.6
		V68.58"/>
	<path class="st2" d="M115.45,69.58c0-0.55,0.29-1.09,0.82-1.1c-0.05,0.05-0.08,0.12-0.08,0.2c0,0.16,0.12,0.28,0.28,0.28
		s0.28-0.12,0.28-0.28c0-0.24-0.23-0.39-0.49-0.39c-0.36,0-0.66,0.21-0.85,0.61h-0.01v-0.61l-0.9,0.07v0.23
		c0.42,0,0.47,0.04,0.47,0.33v1.51c0,0.26-0.06,0.26-0.47,0.26v0.23c0.15-0.01,0.59-0.02,0.72-0.02c0.31,0,0.72,0.02,0.8,0.02v-0.23
		h-0.13c-0.45,0-0.45-0.06-0.45-0.26V69.58"/>
	<path class="st2" d="M119.4,70.07c0,0.62-0.61,0.72-0.8,0.72c-0.32,0-0.62-0.2-0.62-0.5c0-0.33,0.32-0.77,1.43-0.8V70.07
		 M119.89,69.14c0-0.55-0.57-0.88-1.23-0.88c-0.29,0-0.99,0.03-0.99,0.53c0,0.16,0.11,0.29,0.29,0.29c0.17,0,0.29-0.13,0.29-0.29
		c0-0.11-0.05-0.21-0.15-0.26c0.2-0.09,0.5-0.09,0.55-0.09c0.42,0,0.75,0.25,0.75,0.7v0.15c-0.27,0.01-0.75,0.02-1.19,0.18
		c-0.39,0.14-0.77,0.4-0.77,0.8c0,0.53,0.63,0.69,1.1,0.69c0.5,0,0.8-0.25,0.93-0.48c0.04,0.31,0.24,0.45,0.45,0.45
		c0.02,0,0.66,0,0.66-0.57v-0.33h-0.22v0.32c0,0.06,0,0.33-0.23,0.33c-0.23,0-0.23-0.27-0.23-0.33V69.14z"/>
	<path class="st2" d="M121.06,68.35v0.23c0.39,0,0.45,0.04,0.45,0.33v1.51c0,0.26-0.06,0.26-0.47,0.26v0.23
		c0.17-0.01,0.64-0.02,0.7-0.02c0.06,0,0.51,0.01,0.67,0.02v-0.23c-0.37,0-0.42,0-0.42-0.25v-2.15L121.06,68.35 M122.01,67.24
		c0-0.18-0.15-0.36-0.36-0.36c-0.18,0-0.36,0.14-0.36,0.36c0,0.22,0.17,0.36,0.36,0.36C121.86,67.6,122.01,67.42,122.01,67.24z"/>
	<path class="st2" d="M126.12,69.12c0-0.58-0.33-0.83-0.94-0.83c-0.53,0-0.85,0.27-1.03,0.56v-0.56l-0.92,0.07v0.23
		c0.42,0,0.47,0.04,0.47,0.33v1.51c0,0.26-0.06,0.26-0.47,0.26v0.23c0.04-0.01,0.45-0.02,0.72-0.02c0.27,0,0.66,0.02,0.72,0.02
		v-0.23c-0.41,0-0.47,0-0.47-0.26v-1.05c0-0.66,0.56-0.9,0.93-0.9c0.4,0,0.5,0.25,0.5,0.62v1.33c0,0.26-0.06,0.26-0.47,0.26v0.23
		c0.04-0.01,0.45-0.02,0.71-0.02c0.27,0,0.66,0.02,0.72,0.02v-0.23c-0.41,0-0.47,0-0.47-0.26V69.12"/>
	<path class="st2" d="M127.36,68.35v0.23c0.39,0,0.45,0.04,0.45,0.33v1.51c0,0.26-0.06,0.26-0.47,0.26v0.23
		c0.17-0.01,0.64-0.02,0.7-0.02c0.06,0,0.51,0.01,0.67,0.02v-0.23c-0.37,0-0.42,0-0.42-0.25v-2.15L127.36,68.35 M128.31,67.24
		c0-0.18-0.15-0.36-0.36-0.36c-0.18,0-0.36,0.14-0.36,0.36c0,0.22,0.17,0.36,0.36,0.36C128.16,67.6,128.31,67.42,128.31,67.24z"/>
	<path class="st2" d="M132.32,69.12c0-0.58-0.33-0.83-0.94-0.83c-0.53,0-0.85,0.27-1.03,0.56v-0.56l-0.93,0.07v0.23
		c0.42,0,0.47,0.04,0.47,0.33v1.51c0,0.26-0.06,0.26-0.47,0.26v0.23c0.04-0.01,0.45-0.02,0.72-0.02c0.27,0,0.66,0.02,0.72,0.02
		v-0.23c-0.41,0-0.47,0-0.47-0.26v-1.05c0-0.66,0.56-0.9,0.93-0.9c0.4,0,0.5,0.25,0.5,0.62v1.33c0,0.26-0.06,0.26-0.47,0.26v0.23
		c0.04-0.01,0.45-0.02,0.71-0.02c0.27,0,0.66,0.02,0.72,0.02v-0.23c-0.41,0-0.47,0-0.47-0.26V69.12"/>
	<path class="st2" d="M135.12,70.91c0.18,0,1.01,0.01,1.01,0.46c0,0.29-0.49,0.57-1.16,0.57c-0.64,0-1.16-0.27-1.16-0.58
		c0-0.15,0.14-0.45,0.64-0.45H135.12 M134.79,69.85c-0.49,0-0.62-0.36-0.62-0.68c0-0.11,0-0.68,0.61-0.68
		c0.53,0,0.62,0.42,0.62,0.68C135.4,69.28,135.4,69.85,134.79,69.85z M134.1,69.87c0.14,0.08,0.38,0.18,0.68,0.18
		c0.66,0,1.12-0.42,1.12-0.88c0-0.33-0.25-0.55-0.26-0.57c0.27-0.18,0.52-0.19,0.61-0.19c-0.02,0.02-0.04,0.05-0.04,0.13
		c0,0.11,0.08,0.2,0.2,0.2c0.13,0,0.2-0.1,0.2-0.2c0-0.13-0.11-0.32-0.38-0.32c-0.25,0-0.52,0.1-0.73,0.27
		c-0.2-0.14-0.47-0.21-0.72-0.21c-0.64,0-1.12,0.41-1.12,0.88c0,0.19,0.08,0.4,0.29,0.6c-0.13,0.17-0.17,0.33-0.17,0.48
		c0,0.33,0.21,0.51,0.24,0.54c-0.23,0.07-0.6,0.26-0.6,0.59c0,0.46,0.72,0.77,1.54,0.77c0.76,0,1.54-0.27,1.54-0.78
		c0-0.15-0.05-0.53-0.52-0.73c-0.34-0.14-0.68-0.14-1.24-0.14c-0.14,0-0.38,0-0.42-0.01c-0.15-0.03-0.3-0.17-0.3-0.38
		C134.03,69.97,134.09,69.88,134.1,69.87z"/>
	<path class="st2" d="M122.18,73.31c0-0.1,0-0.17-0.1-0.17c-0.03,0-0.04,0-0.13,0.07c-0.01,0.01-0.02,0.02-0.11,0.09
		c-0.23-0.15-0.53-0.16-0.65-0.16c-0.93,0-1.11,0.47-1.11,0.74c0,0.58,0.7,0.7,1.16,0.77c0.27,0.04,0.79,0.12,0.79,0.52
		c0,0.23-0.18,0.5-0.79,0.5c-0.57,0-0.81-0.33-0.93-0.78c-0.02-0.05-0.03-0.09-0.11-0.09c-0.11,0-0.11,0.05-0.11,0.17v0.72
		c0,0.1,0,0.17,0.1,0.17c0.04,0,0.04-0.01,0.15-0.11l0.14-0.14c0.29,0.26,0.65,0.26,0.77,0.26c0.88,0,1.12-0.48,1.12-0.83
		c0-0.24-0.12-0.42-0.25-0.53c-0.25-0.22-0.49-0.26-0.85-0.32c-0.45-0.07-0.85-0.14-0.85-0.45c0-0.17,0.16-0.42,0.78-0.42
		c0.42,0,0.73,0.16,0.77,0.58c0.01,0.08,0.01,0.12,0.11,0.12c0.11,0,0.11-0.05,0.11-0.17V73.31"/>
	<path class="st2" d="M123.53,74.28c0.07-0.8,0.61-0.94,0.86-0.94c0.77,0,0.81,0.77,0.82,0.94H123.53 M125.46,74.46
		c0.13,0,0.18,0,0.18-0.14c0-0.46-0.26-1.17-1.25-1.17c-0.83,0-1.44,0.64-1.44,1.35c0,0.75,0.69,1.36,1.53,1.36
		c0.86,0,1.16-0.64,1.16-0.78c0-0.03-0.01-0.1-0.11-0.1c-0.08,0-0.09,0.04-0.11,0.11c-0.18,0.44-0.63,0.55-0.9,0.55
		c-0.33,0-0.61-0.15-0.78-0.36c-0.22-0.28-0.22-0.67-0.22-0.83H125.46z"/>
	<path class="st2" d="M127.16,73.47h0.98v-0.23h-0.98v-1.1h-0.22c0,0.53-0.26,1.11-0.86,1.14v0.19h0.59v1.59
		c0,0.63,0.47,0.8,0.88,0.8c0.41,0,0.71-0.33,0.71-0.81v-0.33h-0.22v0.32c0,0.42-0.22,0.61-0.44,0.61c-0.43,0-0.43-0.48-0.43-0.6
		V73.47"/>
</g>
<g>
	<path class="st2" d="M71.98,87.19h0.98v-0.23h-0.98v-1.1h-0.22c0,0.53-0.26,1.11-0.86,1.14v0.19h0.59v1.59
		c0,0.63,0.47,0.8,0.88,0.8c0.41,0,0.71-0.33,0.71-0.81v-0.33h-0.22v0.32c0,0.42-0.22,0.61-0.44,0.61c-0.43,0-0.43-0.48-0.43-0.6
		V87.19"/>
	<path class="st2" d="M74.77,88.19c0-0.55,0.29-1.09,0.82-1.1c-0.05,0.05-0.08,0.12-0.08,0.2c0,0.16,0.12,0.28,0.28,0.28
		c0.16,0,0.28-0.12,0.28-0.28c0-0.24-0.23-0.39-0.49-0.39c-0.36,0-0.66,0.21-0.85,0.61h-0.01V86.9l-0.9,0.07v0.23
		c0.42,0,0.47,0.04,0.47,0.33v1.51c0,0.26-0.06,0.26-0.47,0.26v0.23c0.15-0.01,0.59-0.02,0.72-0.02c0.31,0,0.72,0.02,0.8,0.02v-0.23
		h-0.13c-0.45,0-0.45-0.06-0.45-0.26V88.19"/>
	<path class="st2" d="M78.72,88.68c0,0.62-0.61,0.72-0.8,0.72c-0.32,0-0.62-0.2-0.62-0.5c0-0.33,0.32-0.77,1.43-0.8V88.68
		 M79.22,87.75c0-0.55-0.57-0.88-1.23-0.88c-0.29,0-0.99,0.03-0.99,0.53c0,0.16,0.11,0.29,0.29,0.29c0.17,0,0.29-0.13,0.29-0.29
		c0-0.11-0.05-0.21-0.15-0.26c0.2-0.09,0.5-0.09,0.55-0.09c0.42,0,0.75,0.25,0.75,0.7v0.15c-0.27,0.01-0.75,0.02-1.19,0.18
		c-0.39,0.14-0.77,0.4-0.77,0.8c0,0.53,0.63,0.69,1.1,0.69c0.5,0,0.8-0.25,0.93-0.48c0.04,0.31,0.24,0.45,0.45,0.45
		c0.02,0,0.66,0,0.66-0.57v-0.33h-0.22v0.32c0,0.06,0,0.33-0.23,0.33c-0.23,0-0.23-0.27-0.23-0.33V87.75z"/>
	<path class="st2" d="M80.39,86.97v0.23c0.39,0,0.45,0.04,0.45,0.33v1.51c0,0.26-0.06,0.26-0.47,0.26v0.23
		c0.17-0.01,0.64-0.02,0.7-0.02c0.06,0,0.51,0.01,0.67,0.02v-0.23c-0.37,0-0.42,0-0.42-0.25V86.9L80.39,86.97 M81.34,85.86
		c0-0.18-0.15-0.36-0.36-0.36c-0.18,0-0.36,0.14-0.36,0.36c0,0.22,0.17,0.36,0.36,0.36C81.19,86.21,81.34,86.04,81.34,85.86z"/>
	<path class="st2" d="M85.45,87.73c0-0.58-0.33-0.83-0.94-0.83c-0.52,0-0.85,0.27-1.02,0.56V86.9l-0.93,0.07v0.23
		c0.42,0,0.47,0.04,0.47,0.33v1.51c0,0.26-0.06,0.26-0.47,0.26v0.23c0.04-0.01,0.45-0.02,0.72-0.02c0.27,0,0.66,0.02,0.72,0.02
		v-0.23c-0.41,0-0.47,0-0.47-0.26v-1.05c0-0.66,0.56-0.9,0.93-0.9c0.4,0,0.5,0.25,0.5,0.62v1.33c0,0.26-0.06,0.26-0.47,0.26v0.23
		c0.04-0.01,0.45-0.02,0.71-0.02c0.27,0,0.66,0.02,0.72,0.02v-0.23c-0.41,0-0.47,0-0.47-0.26V87.73"/>
	<path class="st2" d="M86.69,86.97v0.23c0.39,0,0.45,0.04,0.45,0.33v1.51c0,0.26-0.06,0.26-0.47,0.26v0.23
		c0.17-0.01,0.64-0.02,0.7-0.02c0.06,0,0.51,0.01,0.67,0.02v-0.23c-0.37,0-0.42,0-0.42-0.25V86.9L86.69,86.97 M87.64,85.86
		c0-0.18-0.15-0.36-0.36-0.36c-0.18,0-0.36,0.14-0.36,0.36c0,0.22,0.17,0.36,0.36,0.36C87.49,86.21,87.64,86.04,87.64,85.86z"/>
	<path class="st2" d="M91.65,87.73c0-0.58-0.33-0.83-0.94-0.83c-0.53,0-0.85,0.27-1.03,0.56V86.9l-0.93,0.07v0.23
		c0.42,0,0.47,0.04,0.47,0.33v1.51c0,0.26-0.06,0.26-0.47,0.26v0.23c0.04-0.01,0.45-0.02,0.72-0.02c0.27,0,0.66,0.02,0.72,0.02
		v-0.23c-0.41,0-0.47,0-0.47-0.26v-1.05c0-0.66,0.56-0.9,0.93-0.9c0.4,0,0.5,0.25,0.5,0.62v1.33c0,0.26-0.06,0.26-0.47,0.26v0.23
		c0.04-0.01,0.45-0.02,0.71-0.02c0.27,0,0.66,0.02,0.72,0.02v-0.23c-0.41,0-0.47,0-0.47-0.26V87.73"/>
	<path class="st2" d="M94.45,89.52c0.18,0,1.01,0.01,1.01,0.46c0,0.29-0.49,0.57-1.16,0.57c-0.64,0-1.16-0.27-1.16-0.58
		c0-0.15,0.14-0.45,0.64-0.45H94.45 M94.11,88.46c-0.49,0-0.62-0.36-0.62-0.68c0-0.11,0-0.68,0.61-0.68c0.53,0,0.62,0.42,0.62,0.68
		C94.73,87.89,94.73,88.46,94.11,88.46z M93.43,88.48c0.14,0.08,0.38,0.18,0.68,0.18c0.66,0,1.12-0.42,1.12-0.88
		c0-0.33-0.25-0.55-0.26-0.57c0.27-0.18,0.52-0.19,0.61-0.19c-0.02,0.02-0.04,0.05-0.04,0.13c0,0.11,0.08,0.2,0.2,0.2
		c0.13,0,0.2-0.1,0.2-0.2c0-0.13-0.11-0.32-0.38-0.32c-0.25,0-0.53,0.1-0.73,0.27c-0.2-0.14-0.47-0.21-0.72-0.21
		c-0.64,0-1.12,0.41-1.12,0.88c0,0.19,0.08,0.4,0.29,0.6c-0.13,0.17-0.17,0.33-0.17,0.48c0,0.33,0.21,0.51,0.24,0.54
		c-0.23,0.07-0.6,0.26-0.6,0.59c0,0.46,0.72,0.77,1.54,0.77c0.76,0,1.54-0.27,1.54-0.78c0-0.15-0.05-0.53-0.52-0.73
		c-0.34-0.14-0.68-0.14-1.24-0.14c-0.14,0-0.38,0-0.42-0.01c-0.15-0.03-0.3-0.17-0.3-0.38C93.35,88.58,93.41,88.5,93.43,88.48z"/>
	<path class="st2" d="M81.5,91.92c0-0.1,0-0.17-0.1-0.17c-0.03,0-0.04,0-0.13,0.07c-0.01,0.01-0.02,0.02-0.11,0.09
		c-0.23-0.15-0.53-0.16-0.65-0.16c-0.93,0-1.11,0.47-1.11,0.74c0,0.58,0.7,0.7,1.16,0.77c0.27,0.04,0.79,0.12,0.79,0.52
		c0,0.23-0.18,0.5-0.79,0.5c-0.57,0-0.81-0.33-0.93-0.78c-0.02-0.05-0.03-0.09-0.11-0.09c-0.11,0-0.11,0.05-0.11,0.17v0.72
		c0,0.1,0,0.17,0.1,0.17c0.04,0,0.04-0.01,0.15-0.11l0.14-0.14c0.29,0.26,0.65,0.26,0.77,0.26c0.88,0,1.12-0.48,1.12-0.83
		c0-0.24-0.12-0.42-0.25-0.53c-0.25-0.22-0.49-0.26-0.85-0.32c-0.45-0.07-0.85-0.14-0.85-0.45c0-0.17,0.16-0.42,0.78-0.42
		c0.42,0,0.73,0.16,0.77,0.58c0.01,0.08,0.01,0.12,0.11,0.12c0.11,0,0.11-0.05,0.11-0.17V91.92"/>
	<path class="st2" d="M82.85,92.89c0.07-0.8,0.61-0.94,0.86-0.94c0.77,0,0.81,0.77,0.82,0.94H82.85 M84.78,93.07
		c0.13,0,0.18,0,0.18-0.14c0-0.46-0.26-1.17-1.25-1.17c-0.83,0-1.44,0.64-1.44,1.35c0,0.75,0.69,1.36,1.53,1.36
		c0.86,0,1.16-0.64,1.16-0.78c0-0.03-0.01-0.1-0.11-0.1c-0.08,0-0.09,0.04-0.11,0.11c-0.18,0.44-0.63,0.55-0.9,0.55
		c-0.33,0-0.61-0.15-0.78-0.36c-0.22-0.28-0.22-0.67-0.22-0.83H84.78z"/>
	<path class="st2" d="M86.49,92.08h0.98v-0.23h-0.98v-1.1h-0.22c0,0.53-0.26,1.11-0.86,1.14v0.19h0.59v1.59
		c0,0.63,0.47,0.8,0.88,0.8c0.41,0,0.71-0.33,0.71-0.81v-0.33h-0.22v0.32c0,0.42-0.22,0.61-0.44,0.61c-0.43,0-0.43-0.48-0.43-0.6
		V92.08"/>
</g>
<g>
	<path class="st2" d="M32.64,87.19h0.98v-0.23h-0.98v-1.1h-0.22c0,0.53-0.26,1.11-0.86,1.14v0.19h0.59v1.59
		c0,0.63,0.47,0.8,0.88,0.8c0.41,0,0.71-0.33,0.71-0.81v-0.33h-0.22v0.32c0,0.42-0.22,0.61-0.44,0.61c-0.43,0-0.43-0.48-0.43-0.6
		V87.19"/>
	<path class="st2" d="M35.43,88.19c0-0.55,0.29-1.09,0.82-1.1c-0.05,0.05-0.08,0.12-0.08,0.2c0,0.16,0.12,0.28,0.28,0.28
		c0.16,0,0.28-0.12,0.28-0.28c0-0.24-0.23-0.39-0.49-0.39c-0.36,0-0.66,0.21-0.85,0.61h-0.01V86.9l-0.9,0.07v0.23
		c0.42,0,0.47,0.04,0.47,0.33v1.51c0,0.26-0.06,0.26-0.47,0.26v0.23c0.15-0.01,0.59-0.02,0.72-0.02c0.31,0,0.72,0.02,0.8,0.02v-0.23
		h-0.13c-0.45,0-0.45-0.06-0.45-0.26V88.19"/>
	<path class="st2" d="M39.38,88.68c0,0.62-0.61,0.72-0.8,0.72c-0.32,0-0.62-0.2-0.62-0.5c0-0.33,0.32-0.77,1.43-0.8V88.68
		 M39.87,87.75c0-0.55-0.57-0.88-1.23-0.88c-0.29,0-0.99,0.03-0.99,0.53c0,0.16,0.11,0.29,0.29,0.29c0.17,0,0.29-0.13,0.29-0.29
		c0-0.11-0.05-0.21-0.15-0.26c0.2-0.09,0.5-0.09,0.55-0.09c0.42,0,0.75,0.25,0.75,0.7v0.15c-0.27,0.01-0.75,0.02-1.19,0.18
		c-0.39,0.14-0.77,0.4-0.77,0.8c0,0.53,0.63,0.69,1.1,0.69c0.5,0,0.8-0.25,0.93-0.48c0.04,0.31,0.24,0.45,0.45,0.45
		c0.02,0,0.66,0,0.66-0.57v-0.33h-0.22v0.32c0,0.06,0,0.33-0.23,0.33c-0.23,0-0.23-0.27-0.23-0.33V87.75z"/>
	<path class="st2" d="M41.05,86.97v0.23c0.39,0,0.45,0.04,0.45,0.33v1.51c0,0.26-0.06,0.26-0.47,0.26v0.23
		c0.17-0.01,0.64-0.02,0.7-0.02c0.06,0,0.51,0.01,0.67,0.02v-0.23c-0.37,0-0.42,0-0.42-0.25V86.9L41.05,86.97 M42,85.86
		c0-0.18-0.15-0.36-0.36-0.36c-0.18,0-0.36,0.14-0.36,0.36c0,0.22,0.17,0.36,0.36,0.36C41.85,86.21,42,86.04,42,85.86z"/>
	<path class="st2" d="M46.1,87.73c0-0.58-0.33-0.83-0.94-0.83c-0.53,0-0.85,0.27-1.03,0.56V86.9l-0.92,0.07v0.23
		c0.42,0,0.47,0.04,0.47,0.33v1.51c0,0.26-0.06,0.26-0.47,0.26v0.23c0.04-0.01,0.45-0.02,0.72-0.02c0.27,0,0.66,0.02,0.72,0.02
		v-0.23c-0.41,0-0.47,0-0.47-0.26v-1.05c0-0.66,0.56-0.9,0.93-0.9c0.4,0,0.5,0.25,0.5,0.62v1.33c0,0.26-0.06,0.26-0.47,0.26v0.23
		c0.04-0.01,0.45-0.02,0.71-0.02c0.27,0,0.66,0.02,0.72,0.02v-0.23c-0.41,0-0.47,0-0.47-0.26V87.73"/>
	<path class="st2" d="M47.35,86.97v0.23c0.39,0,0.45,0.04,0.45,0.33v1.51c0,0.26-0.06,0.26-0.47,0.26v0.23
		c0.17-0.01,0.64-0.02,0.7-0.02c0.06,0,0.51,0.01,0.67,0.02v-0.23c-0.37,0-0.42,0-0.42-0.25V86.9L47.35,86.97 M48.3,85.86
		c0-0.18-0.15-0.36-0.36-0.36c-0.18,0-0.36,0.14-0.36,0.36c0,0.22,0.17,0.36,0.36,0.36C48.15,86.21,48.3,86.04,48.3,85.86z"/>
	<path class="st2" d="M52.3,87.73c0-0.58-0.33-0.83-0.94-0.83c-0.53,0-0.85,0.27-1.03,0.56V86.9l-0.92,0.07v0.23
		c0.42,0,0.47,0.04,0.47,0.33v1.51c0,0.26-0.06,0.26-0.47,0.26v0.23c0.04-0.01,0.45-0.02,0.72-0.02c0.27,0,0.66,0.02,0.72,0.02
		v-0.23c-0.41,0-0.47,0-0.47-0.26v-1.05c0-0.66,0.56-0.9,0.93-0.9c0.4,0,0.5,0.25,0.5,0.62v1.33c0,0.26-0.06,0.26-0.47,0.26v0.23
		c0.04-0.01,0.45-0.02,0.71-0.02c0.27,0,0.66,0.02,0.72,0.02v-0.23c-0.41,0-0.47,0-0.47-0.26V87.73"/>
	<path class="st2" d="M55.1,89.52c0.18,0,1.01,0.01,1.01,0.46c0,0.29-0.49,0.57-1.16,0.57c-0.64,0-1.16-0.27-1.16-0.58
		c0-0.15,0.14-0.45,0.64-0.45H55.1 M54.77,88.46c-0.49,0-0.62-0.36-0.62-0.68c0-0.11,0-0.68,0.61-0.68c0.53,0,0.62,0.42,0.62,0.68
		C55.38,87.89,55.38,88.46,54.77,88.46z M54.08,88.48c0.14,0.08,0.38,0.18,0.68,0.18c0.66,0,1.12-0.42,1.12-0.88
		c0-0.33-0.25-0.55-0.26-0.57c0.27-0.18,0.52-0.19,0.61-0.19c-0.02,0.02-0.04,0.05-0.04,0.13c0,0.11,0.08,0.2,0.2,0.2
		c0.13,0,0.2-0.1,0.2-0.2c0-0.13-0.11-0.32-0.38-0.32c-0.25,0-0.53,0.1-0.73,0.27c-0.2-0.14-0.47-0.21-0.72-0.21
		c-0.64,0-1.12,0.41-1.12,0.88c0,0.19,0.08,0.4,0.29,0.6c-0.13,0.17-0.17,0.33-0.17,0.48c0,0.33,0.21,0.51,0.24,0.54
		c-0.23,0.07-0.6,0.26-0.6,0.59c0,0.46,0.72,0.77,1.54,0.77c0.76,0,1.54-0.27,1.54-0.78c0-0.15-0.05-0.53-0.52-0.73
		c-0.34-0.14-0.68-0.14-1.24-0.14c-0.14,0-0.38,0-0.42-0.01c-0.15-0.03-0.3-0.17-0.3-0.38C54.01,88.58,54.07,88.5,54.08,88.48z"/>
	<path class="st2" d="M42.16,91.92c0-0.1,0-0.17-0.1-0.17c-0.03,0-0.04,0-0.13,0.07c-0.01,0.01-0.02,0.02-0.11,0.09
		c-0.23-0.15-0.53-0.16-0.65-0.16c-0.93,0-1.11,0.47-1.11,0.74c0,0.58,0.7,0.7,1.16,0.77c0.27,0.04,0.79,0.12,0.79,0.52
		c0,0.23-0.18,0.5-0.79,0.5c-0.57,0-0.81-0.33-0.93-0.78c-0.02-0.05-0.03-0.09-0.11-0.09c-0.11,0-0.11,0.05-0.11,0.17v0.72
		c0,0.1,0,0.17,0.1,0.17c0.04,0,0.04-0.01,0.15-0.11l0.14-0.14c0.29,0.26,0.65,0.26,0.77,0.26c0.88,0,1.12-0.48,1.12-0.83
		c0-0.24-0.12-0.42-0.25-0.53c-0.25-0.22-0.49-0.26-0.85-0.32c-0.45-0.07-0.85-0.14-0.85-0.45c0-0.17,0.16-0.42,0.78-0.42
		c0.42,0,0.73,0.16,0.77,0.58c0.01,0.08,0.01,0.12,0.11,0.12c0.11,0,0.11-0.05,0.11-0.17V91.92"/>
	<path class="st2" d="M43.51,92.89c0.07-0.8,0.61-0.94,0.86-0.94c0.77,0,0.81,0.77,0.82,0.94H43.51 M45.44,93.07
		c0.13,0,0.18,0,0.18-0.14c0-0.46-0.26-1.17-1.25-1.17c-0.83,0-1.44,0.64-1.44,1.35c0,0.75,0.69,1.36,1.53,1.36
		c0.86,0,1.16-0.64,1.16-0.78c0-0.03-0.01-0.1-0.11-0.1c-0.08,0-0.09,0.04-0.11,0.11c-0.18,0.44-0.63,0.55-0.9,0.55
		c-0.33,0-0.61-0.15-0.78-0.36c-0.22-0.28-0.22-0.67-0.22-0.83H45.44z"/>
	<path class="st2" d="M47.15,92.08h0.98v-0.23h-0.98v-1.1h-0.22c0,0.53-0.26,1.11-0.86,1.14v0.19h0.59v1.59
		c0,0.63,0.47,0.8,0.88,0.8c0.41,0,0.71-0.33,0.71-0.81v-0.33h-0.22v0.32c0,0.42-0.22,0.61-0.44,0.61c-0.43,0-0.43-0.48-0.43-0.6
		V92.08"/>
</g>
<g>
	<path class="st2" d="M152.77,87.24h0.98v-0.23h-0.98v-1.1h-0.22c0,0.53-0.26,1.11-0.86,1.14v0.19h0.59v1.59
		c0,0.63,0.47,0.8,0.88,0.8c0.41,0,0.71-0.33,0.71-0.81V88.5h-0.22v0.32c0,0.42-0.22,0.61-0.44,0.61c-0.43,0-0.43-0.48-0.43-0.6
		V87.24"/>
	<path class="st2" d="M155.55,88.24c0-0.55,0.29-1.09,0.82-1.1c-0.05,0.05-0.08,0.12-0.08,0.2c0,0.16,0.12,0.28,0.28,0.28
		s0.28-0.12,0.28-0.28c0-0.24-0.23-0.39-0.49-0.39c-0.36,0-0.66,0.21-0.85,0.61h-0.01v-0.61l-0.9,0.07v0.23
		c0.42,0,0.47,0.04,0.47,0.33v1.51c0,0.26-0.06,0.26-0.47,0.26v0.23c0.15-0.01,0.59-0.02,0.72-0.02c0.31,0,0.72,0.02,0.8,0.02v-0.23
		h-0.13c-0.45,0-0.45-0.06-0.45-0.26V88.24"/>
	<path class="st2" d="M159.5,88.73c0,0.62-0.61,0.72-0.8,0.72c-0.32,0-0.62-0.2-0.62-0.5c0-0.33,0.32-0.77,1.43-0.8V88.73 M160,87.8
		c0-0.55-0.57-0.88-1.23-0.88c-0.29,0-0.99,0.03-0.99,0.53c0,0.16,0.11,0.29,0.29,0.29c0.17,0,0.29-0.13,0.29-0.29
		c0-0.11-0.05-0.21-0.15-0.26c0.2-0.09,0.5-0.09,0.55-0.09c0.42,0,0.75,0.25,0.75,0.7v0.15c-0.27,0.01-0.75,0.02-1.19,0.18
		c-0.39,0.14-0.77,0.4-0.77,0.8c0,0.53,0.63,0.69,1.1,0.69c0.5,0,0.8-0.25,0.93-0.48c0.04,0.31,0.24,0.45,0.45,0.45
		c0.02,0,0.66,0,0.66-0.57v-0.33h-0.22v0.32c0,0.06,0,0.33-0.23,0.33c-0.23,0-0.23-0.27-0.23-0.33V87.8z"/>
	<path class="st2" d="M161.17,87.02v0.23c0.39,0,0.45,0.04,0.45,0.33v1.51c0,0.26-0.06,0.26-0.47,0.26v0.23
		c0.17-0.01,0.64-0.02,0.7-0.02c0.06,0,0.51,0.01,0.67,0.02v-0.23c-0.37,0-0.42,0-0.42-0.25v-2.15L161.17,87.02 M162.12,85.91
		c0-0.18-0.15-0.36-0.36-0.36c-0.18,0-0.36,0.14-0.36,0.36c0,0.22,0.17,0.36,0.36,0.36C161.97,86.26,162.12,86.09,162.12,85.91z"/>
	<path class="st2" d="M166.23,87.78c0-0.58-0.33-0.83-0.94-0.83c-0.52,0-0.85,0.27-1.02,0.56v-0.56l-0.93,0.07v0.23
		c0.42,0,0.47,0.04,0.47,0.33v1.51c0,0.26-0.06,0.26-0.47,0.26v0.23c0.04-0.01,0.45-0.02,0.72-0.02c0.27,0,0.66,0.02,0.72,0.02
		v-0.23c-0.41,0-0.47,0-0.47-0.26v-1.05c0-0.66,0.56-0.9,0.93-0.9c0.4,0,0.5,0.25,0.5,0.62v1.33c0,0.26-0.06,0.26-0.47,0.26v0.23
		c0.04-0.01,0.45-0.02,0.71-0.02c0.27,0,0.66,0.02,0.72,0.02v-0.23c-0.41,0-0.47,0-0.47-0.26V87.78"/>
	<path class="st2" d="M167.47,87.02v0.23c0.39,0,0.45,0.04,0.45,0.33v1.51c0,0.26-0.06,0.26-0.47,0.26v0.23
		c0.17-0.01,0.64-0.02,0.7-0.02c0.06,0,0.51,0.01,0.67,0.02v-0.23c-0.37,0-0.42,0-0.42-0.25v-2.15L167.47,87.02 M168.42,85.91
		c0-0.18-0.15-0.36-0.36-0.36c-0.18,0-0.36,0.14-0.36,0.36c0,0.22,0.17,0.36,0.36,0.36C168.27,86.26,168.42,86.09,168.42,85.91z"/>
	<path class="st2" d="M172.43,87.78c0-0.58-0.33-0.83-0.94-0.83c-0.52,0-0.85,0.27-1.02,0.56v-0.56l-0.93,0.07v0.23
		c0.42,0,0.47,0.04,0.47,0.33v1.51c0,0.26-0.06,0.26-0.47,0.26v0.23c0.04-0.01,0.45-0.02,0.72-0.02c0.27,0,0.66,0.02,0.72,0.02
		v-0.23c-0.41,0-0.47,0-0.47-0.26v-1.05c0-0.66,0.56-0.9,0.93-0.9c0.4,0,0.5,0.25,0.5,0.62v1.33c0,0.26-0.06,0.26-0.47,0.26v0.23
		c0.04-0.01,0.45-0.02,0.71-0.02c0.27,0,0.66,0.02,0.72,0.02v-0.23c-0.41,0-0.47,0-0.47-0.26V87.78"/>
	<path class="st2" d="M175.23,89.57c0.18,0,1.01,0.01,1.01,0.46c0,0.29-0.49,0.57-1.16,0.57c-0.64,0-1.16-0.27-1.16-0.58
		c0-0.15,0.14-0.45,0.64-0.45H175.23 M174.89,88.51c-0.49,0-0.62-0.36-0.62-0.68c0-0.11,0-0.68,0.61-0.68
		c0.53,0,0.62,0.42,0.62,0.68C175.51,87.94,175.51,88.51,174.89,88.51z M174.21,88.53c0.14,0.08,0.38,0.18,0.68,0.18
		c0.66,0,1.12-0.42,1.12-0.88c0-0.33-0.25-0.55-0.26-0.57c0.27-0.18,0.52-0.19,0.61-0.19c-0.02,0.02-0.04,0.05-0.04,0.13
		c0,0.11,0.08,0.2,0.2,0.2c0.13,0,0.2-0.1,0.2-0.2c0-0.13-0.11-0.32-0.38-0.32c-0.25,0-0.53,0.1-0.73,0.27
		c-0.2-0.14-0.47-0.21-0.72-0.21c-0.64,0-1.12,0.41-1.12,0.88c0,0.19,0.08,0.4,0.29,0.6c-0.13,0.17-0.17,0.33-0.17,0.48
		c0,0.33,0.21,0.51,0.24,0.54c-0.23,0.07-0.6,0.26-0.6,0.59c0,0.46,0.72,0.77,1.54,0.77c0.76,0,1.54-0.27,1.54-0.78
		c0-0.15-0.05-0.53-0.52-0.73c-0.34-0.14-0.68-0.14-1.24-0.14c-0.14,0-0.38,0-0.42-0.01c-0.15-0.03-0.3-0.17-0.3-0.38
		C174.14,88.63,174.2,88.55,174.21,88.53z"/>
	<path class="st2" d="M162.29,91.98c0-0.1,0-0.17-0.1-0.17c-0.03,0-0.04,0-0.13,0.07c-0.01,0.01-0.02,0.02-0.11,0.09
		c-0.23-0.15-0.53-0.16-0.65-0.16c-0.93,0-1.11,0.47-1.11,0.74c0,0.58,0.7,0.7,1.16,0.77c0.27,0.04,0.79,0.12,0.79,0.52
		c0,0.23-0.18,0.5-0.79,0.5c-0.57,0-0.81-0.33-0.93-0.78c-0.02-0.05-0.03-0.09-0.11-0.09c-0.11,0-0.11,0.05-0.11,0.17v0.72
		c0,0.1,0,0.17,0.1,0.17c0.04,0,0.04-0.01,0.15-0.11l0.14-0.14c0.29,0.26,0.65,0.26,0.77,0.26c0.88,0,1.12-0.48,1.12-0.83
		c0-0.24-0.12-0.42-0.25-0.53c-0.25-0.22-0.49-0.26-0.85-0.32c-0.45-0.07-0.85-0.14-0.85-0.45c0-0.17,0.16-0.42,0.78-0.42
		c0.42,0,0.73,0.16,0.77,0.58c0.01,0.08,0.01,0.12,0.11,0.12c0.11,0,0.11-0.05,0.11-0.17V91.98"/>
	<path class="st2" d="M163.64,92.94c0.07-0.8,0.61-0.94,0.86-0.94c0.77,0,0.81,0.77,0.82,0.94H163.64 M165.57,93.12
		c0.13,0,0.18,0,0.18-0.14c0-0.46-0.26-1.17-1.25-1.17c-0.83,0-1.44,0.64-1.44,1.35c0,0.75,0.69,1.36,1.53,1.36
		c0.86,0,1.16-0.64,1.16-0.77c0-0.03-0.01-0.1-0.11-0.1c-0.08,0-0.09,0.04-0.11,0.11c-0.18,0.44-0.63,0.55-0.9,0.55
		c-0.33,0-0.61-0.15-0.77-0.36c-0.22-0.28-0.22-0.67-0.22-0.83H165.57z"/>
	<path class="st2" d="M167.27,92.13h0.98V91.9h-0.98v-1.1h-0.22c0,0.53-0.26,1.11-0.86,1.14v0.19h0.59v1.59
		c0,0.63,0.47,0.8,0.88,0.8c0.41,0,0.71-0.33,0.71-0.81v-0.33h-0.22v0.32c0,0.42-0.22,0.61-0.44,0.61c-0.43,0-0.43-0.48-0.43-0.6
		V92.13"/>
</g>
<g>
	<path class="st2" d="M32.44,105.8h0.98v-0.23h-0.98v-1.1h-0.22c0,0.53-0.26,1.11-0.86,1.14v0.19h0.59v1.59
		c0,0.63,0.47,0.8,0.88,0.8c0.41,0,0.71-0.33,0.71-0.81v-0.33h-0.22v0.32c0,0.42-0.22,0.61-0.44,0.61c-0.43,0-0.43-0.48-0.43-0.6
		V105.8"/>
	<path class="st2" d="M35.23,106.81c0-0.55,0.29-1.09,0.82-1.1c-0.05,0.05-0.08,0.12-0.08,0.2c0,0.16,0.12,0.28,0.28,0.28
		c0.16,0,0.28-0.12,0.28-0.28c0-0.24-0.23-0.39-0.49-0.39c-0.36,0-0.66,0.21-0.85,0.61h-0.01v-0.61l-0.9,0.07v0.23
		c0.42,0,0.47,0.04,0.47,0.33v1.51c0,0.26-0.06,0.26-0.47,0.26v0.23c0.15-0.01,0.59-0.02,0.72-0.02c0.31,0,0.72,0.02,0.8,0.02v-0.23
		h-0.13c-0.45,0-0.45-0.06-0.45-0.26V106.81"/>
	<path class="st2" d="M39.18,107.29c0,0.62-0.61,0.72-0.8,0.72c-0.32,0-0.62-0.2-0.62-0.5c0-0.33,0.32-0.77,1.43-0.8V107.29
		 M39.67,106.36c0-0.55-0.57-0.88-1.23-0.88c-0.29,0-0.99,0.03-0.99,0.53c0,0.16,0.11,0.29,0.29,0.29c0.17,0,0.29-0.13,0.29-0.29
		c0-0.11-0.05-0.21-0.15-0.26c0.2-0.09,0.5-0.09,0.55-0.09c0.42,0,0.75,0.25,0.75,0.7v0.15c-0.27,0.01-0.75,0.02-1.19,0.18
		c-0.39,0.14-0.77,0.4-0.77,0.8c0,0.53,0.63,0.69,1.1,0.69c0.5,0,0.8-0.25,0.93-0.48c0.04,0.31,0.24,0.45,0.45,0.45
		c0.02,0,0.66,0,0.66-0.57v-0.33h-0.22v0.32c0,0.06,0,0.33-0.23,0.33c-0.23,0-0.23-0.27-0.23-0.33V106.36z"/>
	<path class="st2" d="M40.85,105.58v0.23c0.39,0,0.45,0.04,0.45,0.33v1.51c0,0.26-0.06,0.26-0.47,0.26v0.23
		c0.17-0.01,0.64-0.02,0.7-0.02c0.06,0,0.51,0.01,0.67,0.02v-0.23c-0.37,0-0.42,0-0.42-0.25v-2.15L40.85,105.58 M41.8,104.47
		c0-0.18-0.15-0.36-0.36-0.36c-0.18,0-0.36,0.14-0.36,0.36c0,0.22,0.17,0.36,0.36,0.36C41.65,104.83,41.8,104.65,41.8,104.47z"/>
	<path class="st2" d="M45.9,106.34c0-0.58-0.33-0.83-0.94-0.83c-0.53,0-0.85,0.27-1.03,0.56v-0.56l-0.92,0.07v0.23
		c0.42,0,0.47,0.04,0.47,0.33v1.51c0,0.26-0.06,0.26-0.47,0.26v0.23c0.04-0.01,0.45-0.02,0.72-0.02c0.27,0,0.66,0.02,0.72,0.02
		v-0.23c-0.41,0-0.47,0-0.47-0.26v-1.05c0-0.66,0.56-0.9,0.93-0.9c0.4,0,0.5,0.25,0.5,0.62v1.33c0,0.26-0.06,0.26-0.47,0.26v0.23
		c0.04-0.01,0.45-0.02,0.71-0.02c0.27,0,0.66,0.02,0.72,0.02v-0.23c-0.41,0-0.47,0-0.47-0.26V106.34"/>
	<path class="st2" d="M47.15,105.58v0.23c0.39,0,0.45,0.04,0.45,0.33v1.51c0,0.26-0.06,0.26-0.47,0.26v0.23
		c0.17-0.01,0.64-0.02,0.7-0.02c0.06,0,0.51,0.01,0.67,0.02v-0.23c-0.37,0-0.42,0-0.42-0.25v-2.15L47.15,105.58 M48.1,104.47
		c0-0.18-0.15-0.36-0.36-0.36c-0.18,0-0.36,0.14-0.36,0.36c0,0.22,0.17,0.36,0.36,0.36C47.95,104.83,48.1,104.65,48.1,104.47z"/>
	<path class="st2" d="M52.1,106.34c0-0.58-0.33-0.83-0.94-0.83c-0.53,0-0.85,0.27-1.03,0.56v-0.56l-0.92,0.07v0.23
		c0.42,0,0.47,0.04,0.47,0.33v1.51c0,0.26-0.06,0.26-0.47,0.26v0.23c0.04-0.01,0.45-0.02,0.72-0.02c0.27,0,0.66,0.02,0.72,0.02
		v-0.23c-0.41,0-0.47,0-0.47-0.26v-1.05c0-0.66,0.56-0.9,0.93-0.9c0.4,0,0.5,0.25,0.5,0.62v1.33c0,0.26-0.06,0.26-0.47,0.26v0.23
		c0.04-0.01,0.45-0.02,0.71-0.02c0.27,0,0.66,0.02,0.72,0.02v-0.23c-0.41,0-0.47,0-0.47-0.26V106.34"/>
	<path class="st2" d="M54.9,108.13c0.18,0,1.01,0.01,1.01,0.46c0,0.29-0.49,0.57-1.16,0.57c-0.64,0-1.16-0.27-1.16-0.58
		c0-0.15,0.14-0.45,0.64-0.45H54.9 M54.57,107.07c-0.49,0-0.62-0.36-0.62-0.68c0-0.11,0-0.68,0.61-0.68c0.53,0,0.62,0.42,0.62,0.68
		C55.18,106.5,55.18,107.07,54.57,107.07z M53.89,107.09c0.14,0.08,0.38,0.18,0.68,0.18c0.66,0,1.12-0.42,1.12-0.88
		c0-0.33-0.25-0.55-0.26-0.57c0.27-0.18,0.52-0.19,0.61-0.19c-0.02,0.02-0.04,0.05-0.04,0.13c0,0.11,0.08,0.2,0.2,0.2
		c0.13,0,0.2-0.1,0.2-0.2c0-0.13-0.11-0.32-0.38-0.32c-0.25,0-0.53,0.1-0.73,0.27c-0.2-0.14-0.47-0.21-0.72-0.21
		c-0.64,0-1.12,0.41-1.12,0.88c0,0.19,0.08,0.4,0.29,0.6c-0.13,0.17-0.17,0.33-0.17,0.48c0,0.33,0.21,0.51,0.24,0.54
		c-0.23,0.07-0.6,0.26-0.6,0.59c0,0.46,0.72,0.77,1.54,0.77c0.76,0,1.54-0.27,1.54-0.78c0-0.15-0.05-0.53-0.52-0.73
		c-0.34-0.14-0.68-0.14-1.24-0.14c-0.14,0-0.38,0-0.42-0.01c-0.15-0.03-0.3-0.17-0.3-0.38C53.81,107.19,53.87,107.11,53.89,107.09z"
		/>
	<path class="st2" d="M41.96,110.54c0-0.1,0-0.17-0.1-0.17c-0.03,0-0.04,0-0.13,0.07c-0.01,0.01-0.02,0.02-0.11,0.09
		c-0.23-0.15-0.53-0.16-0.65-0.16c-0.93,0-1.11,0.47-1.11,0.74c0,0.58,0.7,0.7,1.16,0.77c0.27,0.04,0.79,0.12,0.79,0.52
		c0,0.23-0.18,0.5-0.79,0.5c-0.57,0-0.81-0.33-0.93-0.78c-0.02-0.05-0.03-0.09-0.11-0.09c-0.11,0-0.11,0.05-0.11,0.17v0.72
		c0,0.1,0,0.17,0.1,0.17c0.04,0,0.04-0.01,0.15-0.11l0.14-0.14c0.29,0.26,0.65,0.26,0.77,0.26c0.88,0,1.12-0.48,1.12-0.83
		c0-0.24-0.12-0.42-0.25-0.53c-0.25-0.22-0.49-0.26-0.85-0.32c-0.45-0.07-0.85-0.14-0.85-0.45c0-0.17,0.16-0.42,0.78-0.42
		c0.42,0,0.73,0.16,0.77,0.58c0.01,0.08,0.01,0.12,0.11,0.12c0.11,0,0.11-0.05,0.11-0.17V110.54"/>
	<path class="st2" d="M43.31,111.5c0.07-0.8,0.61-0.94,0.86-0.94c0.77,0,0.81,0.77,0.82,0.94H43.31 M45.24,111.68
		c0.13,0,0.18,0,0.18-0.14c0-0.46-0.26-1.17-1.25-1.17c-0.83,0-1.44,0.64-1.44,1.35c0,0.75,0.69,1.36,1.53,1.36
		c0.86,0,1.16-0.64,1.16-0.78c0-0.03-0.01-0.1-0.11-0.1c-0.08,0-0.09,0.04-0.11,0.11c-0.18,0.44-0.63,0.55-0.9,0.55
		c-0.33,0-0.61-0.15-0.78-0.36c-0.22-0.28-0.22-0.67-0.22-0.83H45.24z"/>
	<path class="st2" d="M46.95,110.69h0.98v-0.23h-0.98v-1.1h-0.22c0,0.53-0.26,1.11-0.86,1.14v0.19h0.59v1.59
		c0,0.63,0.47,0.8,0.88,0.8c0.41,0,0.71-0.33,0.71-0.81v-0.33h-0.22v0.32c0,0.42-0.22,0.61-0.44,0.61c-0.43,0-0.43-0.48-0.43-0.6
		V110.69"/>
</g>
<g>
	<path class="st2" d="M112.93,105.8h0.98v-0.23h-0.98v-1.1h-0.22c0,0.53-0.26,1.11-0.86,1.14v0.19h0.59v1.59
		c0,0.63,0.47,0.8,0.88,0.8c0.41,0,0.71-0.33,0.71-0.81v-0.33h-0.22v0.32c0,0.42-0.22,0.61-0.44,0.61c-0.43,0-0.43-0.48-0.43-0.6
		V105.8"/>
	<path class="st2" d="M115.72,106.81c0-0.55,0.29-1.09,0.82-1.1c-0.05,0.05-0.08,0.12-0.08,0.2c0,0.16,0.12,0.28,0.28,0.28
		c0.16,0,0.28-0.12,0.28-0.28c0-0.24-0.23-0.39-0.49-0.39c-0.36,0-0.66,0.21-0.85,0.61h-0.01v-0.61l-0.9,0.07v0.23
		c0.42,0,0.47,0.04,0.47,0.33v1.51c0,0.26-0.06,0.26-0.47,0.26v0.23c0.15-0.01,0.59-0.02,0.72-0.02c0.31,0,0.72,0.02,0.8,0.02v-0.23
		h-0.13c-0.45,0-0.45-0.06-0.45-0.26V106.81"/>
	<path class="st2" d="M119.67,107.29c0,0.62-0.61,0.72-0.8,0.72c-0.32,0-0.62-0.2-0.62-0.5c0-0.33,0.32-0.77,1.43-0.8V107.29
		 M120.16,106.36c0-0.55-0.57-0.88-1.23-0.88c-0.29,0-0.99,0.03-0.99,0.53c0,0.16,0.11,0.29,0.29,0.29c0.17,0,0.29-0.13,0.29-0.29
		c0-0.11-0.05-0.21-0.15-0.26c0.2-0.09,0.5-0.09,0.55-0.09c0.42,0,0.75,0.25,0.75,0.7v0.15c-0.27,0.01-0.75,0.02-1.19,0.18
		c-0.39,0.14-0.77,0.4-0.77,0.8c0,0.53,0.63,0.69,1.1,0.69c0.5,0,0.8-0.25,0.93-0.48c0.04,0.31,0.24,0.45,0.45,0.45
		c0.02,0,0.66,0,0.66-0.57v-0.33h-0.22v0.32c0,0.06,0,0.33-0.23,0.33c-0.23,0-0.23-0.27-0.23-0.33V106.36z"/>
	<path class="st2" d="M121.33,105.58v0.23c0.39,0,0.45,0.04,0.45,0.33v1.51c0,0.26-0.06,0.26-0.47,0.26v0.23
		c0.17-0.01,0.64-0.02,0.7-0.02c0.06,0,0.51,0.01,0.67,0.02v-0.23c-0.37,0-0.42,0-0.42-0.25v-2.15L121.33,105.58 M122.28,104.47
		c0-0.18-0.15-0.36-0.36-0.36c-0.18,0-0.36,0.14-0.36,0.36c0,0.22,0.17,0.36,0.36,0.36C122.13,104.83,122.28,104.65,122.28,104.47z"
		/>
	<path class="st2" d="M126.39,106.34c0-0.58-0.33-0.83-0.94-0.83c-0.53,0-0.85,0.27-1.03,0.56v-0.56l-0.93,0.07v0.23
		c0.42,0,0.47,0.04,0.47,0.33v1.51c0,0.26-0.06,0.26-0.47,0.26v0.23c0.04-0.01,0.45-0.02,0.72-0.02c0.27,0,0.66,0.02,0.72,0.02
		v-0.23c-0.41,0-0.47,0-0.47-0.26v-1.05c0-0.66,0.56-0.9,0.93-0.9c0.4,0,0.5,0.25,0.5,0.62v1.33c0,0.26-0.06,0.26-0.47,0.26v0.23
		c0.04-0.01,0.45-0.02,0.71-0.02c0.27,0,0.66,0.02,0.72,0.02v-0.23c-0.41,0-0.47,0-0.47-0.26V106.34"/>
	<path class="st2" d="M127.63,105.58v0.23c0.39,0,0.45,0.04,0.45,0.33v1.51c0,0.26-0.06,0.26-0.47,0.26v0.23
		c0.17-0.01,0.64-0.02,0.7-0.02c0.06,0,0.51,0.01,0.67,0.02v-0.23c-0.37,0-0.42,0-0.42-0.25v-2.15L127.63,105.58 M128.58,104.47
		c0-0.18-0.15-0.36-0.36-0.36c-0.18,0-0.36,0.14-0.36,0.36c0,0.22,0.17,0.36,0.36,0.36C128.43,104.83,128.58,104.65,128.58,104.47z"
		/>
	<path class="st2" d="M132.59,106.34c0-0.58-0.33-0.83-0.94-0.83c-0.52,0-0.85,0.27-1.02,0.56v-0.56l-0.93,0.07v0.23
		c0.42,0,0.47,0.04,0.47,0.33v1.51c0,0.26-0.06,0.26-0.47,0.26v0.23c0.04-0.01,0.45-0.02,0.72-0.02c0.27,0,0.66,0.02,0.72,0.02
		v-0.23c-0.41,0-0.47,0-0.47-0.26v-1.05c0-0.66,0.56-0.9,0.93-0.9c0.4,0,0.5,0.25,0.5,0.62v1.33c0,0.26-0.06,0.26-0.47,0.26v0.23
		c0.04-0.01,0.45-0.02,0.71-0.02c0.27,0,0.66,0.02,0.72,0.02v-0.23c-0.41,0-0.47,0-0.47-0.26V106.34"/>
	<path class="st2" d="M135.39,108.13c0.18,0,1.01,0.01,1.01,0.46c0,0.29-0.49,0.57-1.16,0.57c-0.64,0-1.16-0.27-1.16-0.58
		c0-0.15,0.14-0.45,0.64-0.45H135.39 M135.06,107.07c-0.49,0-0.62-0.36-0.62-0.68c0-0.11,0-0.68,0.61-0.68
		c0.53,0,0.62,0.42,0.62,0.68C135.67,106.5,135.67,107.07,135.06,107.07z M134.37,107.09c0.14,0.08,0.38,0.18,0.68,0.18
		c0.66,0,1.12-0.42,1.12-0.88c0-0.33-0.25-0.55-0.26-0.57c0.27-0.18,0.52-0.19,0.61-0.19c-0.02,0.02-0.04,0.05-0.04,0.13
		c0,0.11,0.08,0.2,0.2,0.2c0.13,0,0.2-0.1,0.2-0.2c0-0.13-0.11-0.32-0.38-0.32c-0.25,0-0.53,0.1-0.73,0.27
		c-0.2-0.14-0.47-0.21-0.72-0.21c-0.64,0-1.12,0.41-1.12,0.88c0,0.19,0.08,0.4,0.29,0.6c-0.13,0.17-0.17,0.33-0.17,0.48
		c0,0.33,0.21,0.51,0.24,0.54c-0.23,0.07-0.6,0.26-0.6,0.59c0,0.46,0.72,0.77,1.54,0.77c0.76,0,1.54-0.27,1.54-0.78
		c0-0.15-0.05-0.53-0.52-0.73c-0.34-0.14-0.68-0.14-1.24-0.14c-0.14,0-0.38,0-0.42-0.01c-0.15-0.03-0.3-0.17-0.3-0.38
		C134.3,107.19,134.36,107.11,134.37,107.09z"/>
	<path class="st2" d="M122.45,110.54c0-0.1,0-0.17-0.1-0.17c-0.03,0-0.04,0-0.13,0.07c-0.01,0.01-0.02,0.02-0.11,0.09
		c-0.23-0.15-0.53-0.16-0.65-0.16c-0.93,0-1.11,0.47-1.11,0.74c0,0.58,0.7,0.7,1.16,0.77c0.27,0.04,0.79,0.12,0.79,0.52
		c0,0.23-0.18,0.5-0.79,0.5c-0.57,0-0.81-0.33-0.93-0.78c-0.02-0.05-0.03-0.09-0.11-0.09c-0.11,0-0.11,0.05-0.11,0.17v0.72
		c0,0.1,0,0.17,0.1,0.17c0.04,0,0.04-0.01,0.15-0.11l0.14-0.14c0.29,0.26,0.65,0.26,0.77,0.26c0.88,0,1.12-0.48,1.12-0.83
		c0-0.24-0.12-0.42-0.25-0.53c-0.25-0.22-0.49-0.26-0.85-0.32c-0.45-0.07-0.85-0.14-0.85-0.45c0-0.17,0.16-0.42,0.78-0.42
		c0.42,0,0.73,0.16,0.77,0.58c0.01,0.08,0.01,0.12,0.11,0.12c0.11,0,0.11-0.05,0.11-0.17V110.54"/>
	<path class="st2" d="M123.8,111.5c0.07-0.8,0.61-0.94,0.86-0.94c0.77,0,0.81,0.77,0.82,0.94H123.8 M125.73,111.68
		c0.13,0,0.18,0,0.18-0.14c0-0.46-0.26-1.17-1.25-1.17c-0.83,0-1.44,0.64-1.44,1.35c0,0.75,0.69,1.36,1.53,1.36
		c0.86,0,1.16-0.64,1.16-0.78c0-0.03-0.01-0.1-0.11-0.1c-0.08,0-0.09,0.04-0.11,0.11c-0.18,0.44-0.63,0.55-0.9,0.55
		c-0.33,0-0.61-0.15-0.78-0.36c-0.22-0.28-0.22-0.67-0.22-0.83H125.73z"/>
	<path class="st2" d="M127.43,110.69h0.98v-0.23h-0.98v-1.1h-0.22c0,0.53-0.26,1.11-0.86,1.14v0.19h0.59v1.59
		c0,0.63,0.47,0.8,0.88,0.8c0.41,0,0.71-0.33,0.71-0.81v-0.33h-0.22v0.32c0,0.42-0.22,0.61-0.44,0.61c-0.43,0-0.43-0.48-0.43-0.6
		V110.69"/>
</g>
<g>
	<path class="st2" d="M153.59,105.8h0.98v-0.23h-0.98v-1.1h-0.22c0,0.53-0.26,1.11-0.86,1.14v0.19h0.59v1.59
		c0,0.63,0.47,0.8,0.88,0.8c0.41,0,0.71-0.33,0.71-0.81v-0.33h-0.22v0.32c0,0.42-0.22,0.61-0.44,0.61c-0.43,0-0.43-0.48-0.43-0.6
		V105.8"/>
	<path class="st2" d="M156.37,106.81c0-0.55,0.29-1.09,0.82-1.1c-0.05,0.05-0.08,0.12-0.08,0.2c0,0.16,0.12,0.28,0.28,0.28
		c0.16,0,0.28-0.12,0.28-0.28c0-0.24-0.23-0.39-0.49-0.39c-0.36,0-0.66,0.21-0.85,0.61h-0.01v-0.61l-0.9,0.07v0.23
		c0.42,0,0.47,0.04,0.47,0.33v1.51c0,0.26-0.06,0.26-0.47,0.26v0.23c0.15-0.01,0.59-0.02,0.72-0.02c0.31,0,0.72,0.02,0.8,0.02v-0.23
		h-0.13c-0.45,0-0.45-0.06-0.45-0.26V106.81"/>
	<path class="st2" d="M160.32,107.29c0,0.62-0.61,0.72-0.8,0.72c-0.32,0-0.62-0.2-0.62-0.5c0-0.33,0.32-0.77,1.43-0.8V107.29
		 M160.82,106.36c0-0.55-0.57-0.88-1.23-0.88c-0.29,0-0.99,0.03-0.99,0.53c0,0.16,0.11,0.29,0.29,0.29c0.17,0,0.29-0.13,0.29-0.29
		c0-0.11-0.05-0.21-0.15-0.26c0.2-0.09,0.5-0.09,0.55-0.09c0.42,0,0.75,0.25,0.75,0.7v0.15c-0.27,0.01-0.75,0.02-1.19,0.18
		c-0.39,0.14-0.77,0.4-0.77,0.8c0,0.53,0.63,0.69,1.1,0.69c0.5,0,0.8-0.25,0.93-0.48c0.04,0.31,0.24,0.45,0.45,0.45
		c0.02,0,0.66,0,0.66-0.57v-0.33h-0.22v0.32c0,0.06,0,0.33-0.23,0.33c-0.23,0-0.23-0.27-0.23-0.33V106.36z"/>
	<path class="st2" d="M161.99,105.58v0.23c0.39,0,0.45,0.04,0.45,0.33v1.51c0,0.26-0.06,0.26-0.47,0.26v0.23
		c0.17-0.01,0.64-0.02,0.7-0.02c0.06,0,0.51,0.01,0.67,0.02v-0.23c-0.37,0-0.42,0-0.42-0.25v-2.15L161.99,105.58 M162.94,104.47
		c0-0.18-0.15-0.36-0.36-0.36c-0.18,0-0.36,0.14-0.36,0.36c0,0.22,0.17,0.36,0.36,0.36C162.79,104.83,162.94,104.65,162.94,104.47z"
		/>
	<path class="st2" d="M167.05,106.34c0-0.58-0.33-0.83-0.94-0.83c-0.53,0-0.85,0.27-1.03,0.56v-0.56l-0.93,0.07v0.23
		c0.42,0,0.47,0.04,0.47,0.33v1.51c0,0.26-0.06,0.26-0.47,0.26v0.23c0.04-0.01,0.45-0.02,0.72-0.02c0.27,0,0.66,0.02,0.72,0.02
		v-0.23c-0.41,0-0.47,0-0.47-0.26v-1.05c0-0.66,0.56-0.9,0.93-0.9c0.4,0,0.5,0.25,0.5,0.62v1.33c0,0.26-0.06,0.26-0.47,0.26v0.23
		c0.04-0.01,0.45-0.02,0.71-0.02c0.27,0,0.66,0.02,0.72,0.02v-0.23c-0.41,0-0.47,0-0.47-0.26V106.34"/>
	<path class="st2" d="M168.29,105.58v0.23c0.39,0,0.45,0.04,0.45,0.33v1.51c0,0.26-0.06,0.26-0.47,0.26v0.23
		c0.17-0.01,0.64-0.02,0.7-0.02c0.06,0,0.51,0.01,0.67,0.02v-0.23c-0.37,0-0.42,0-0.42-0.25v-2.15L168.29,105.58 M169.24,104.47
		c0-0.18-0.15-0.36-0.36-0.36c-0.18,0-0.36,0.14-0.36,0.36c0,0.22,0.17,0.36,0.36,0.36C169.09,104.83,169.24,104.65,169.24,104.47z"
		/>
	<path class="st2" d="M173.25,106.34c0-0.58-0.33-0.83-0.94-0.83c-0.53,0-0.85,0.27-1.03,0.56v-0.56l-0.92,0.07v0.23
		c0.42,0,0.47,0.04,0.47,0.33v1.51c0,0.26-0.06,0.26-0.47,0.26v0.23c0.04-0.01,0.45-0.02,0.72-0.02c0.27,0,0.66,0.02,0.72,0.02
		v-0.23c-0.41,0-0.47,0-0.47-0.26v-1.05c0-0.66,0.56-0.9,0.93-0.9c0.4,0,0.5,0.25,0.5,0.62v1.33c0,0.26-0.06,0.26-0.47,0.26v0.23
		c0.04-0.01,0.45-0.02,0.71-0.02c0.27,0,0.66,0.02,0.72,0.02v-0.23c-0.41,0-0.47,0-0.47-0.26V106.34"/>
	<path class="st2" d="M176.05,108.13c0.18,0,1.01,0.01,1.01,0.46c0,0.29-0.49,0.57-1.16,0.57c-0.64,0-1.16-0.27-1.16-0.58
		c0-0.15,0.14-0.45,0.64-0.45H176.05 M175.71,107.07c-0.49,0-0.62-0.36-0.62-0.68c0-0.11,0-0.68,0.61-0.68
		c0.53,0,0.62,0.42,0.62,0.68C176.33,106.5,176.33,107.07,175.71,107.07z M175.03,107.09c0.14,0.08,0.38,0.18,0.68,0.18
		c0.66,0,1.12-0.42,1.12-0.88c0-0.33-0.25-0.55-0.26-0.57c0.27-0.18,0.52-0.19,0.61-0.19c-0.02,0.02-0.04,0.05-0.04,0.13
		c0,0.11,0.08,0.2,0.2,0.2c0.13,0,0.2-0.1,0.2-0.2c0-0.13-0.11-0.32-0.38-0.32c-0.25,0-0.52,0.1-0.73,0.27
		c-0.2-0.14-0.47-0.21-0.72-0.21c-0.64,0-1.12,0.41-1.12,0.88c0,0.19,0.08,0.4,0.29,0.6c-0.13,0.17-0.17,0.33-0.17,0.48
		c0,0.33,0.21,0.51,0.24,0.54c-0.23,0.07-0.6,0.26-0.6,0.59c0,0.46,0.72,0.77,1.54,0.77c0.76,0,1.54-0.27,1.54-0.78
		c0-0.15-0.05-0.53-0.52-0.73c-0.34-0.14-0.68-0.14-1.24-0.14c-0.14,0-0.38,0-0.42-0.01c-0.15-0.03-0.3-0.17-0.3-0.38
		C174.96,107.19,175.01,107.11,175.03,107.09z"/>
	<path class="st2" d="M163.1,110.54c0-0.1,0-0.17-0.1-0.17c-0.03,0-0.04,0-0.13,0.07c-0.01,0.01-0.02,0.02-0.11,0.09
		c-0.23-0.15-0.53-0.16-0.65-0.16c-0.93,0-1.11,0.47-1.11,0.74c0,0.58,0.7,0.7,1.16,0.77c0.27,0.04,0.79,0.12,0.79,0.52
		c0,0.23-0.18,0.5-0.79,0.5c-0.57,0-0.81-0.33-0.93-0.78c-0.02-0.05-0.03-0.09-0.11-0.09c-0.11,0-0.11,0.05-0.11,0.17v0.72
		c0,0.1,0,0.17,0.1,0.17c0.04,0,0.04-0.01,0.15-0.11l0.14-0.14c0.29,0.26,0.65,0.26,0.77,0.26c0.88,0,1.12-0.48,1.12-0.83
		c0-0.24-0.12-0.42-0.25-0.53c-0.25-0.22-0.49-0.26-0.85-0.32c-0.45-0.07-0.85-0.14-0.85-0.45c0-0.17,0.16-0.42,0.78-0.42
		c0.42,0,0.73,0.16,0.77,0.58c0.01,0.08,0.01,0.12,0.11,0.12c0.11,0,0.11-0.05,0.11-0.17V110.54"/>
	<path class="st2" d="M164.45,111.5c0.07-0.8,0.61-0.94,0.86-0.94c0.77,0,0.81,0.77,0.82,0.94H164.45 M166.39,111.68
		c0.13,0,0.18,0,0.18-0.14c0-0.46-0.26-1.17-1.25-1.17c-0.83,0-1.44,0.64-1.44,1.35c0,0.75,0.69,1.36,1.53,1.36
		c0.86,0,1.16-0.64,1.16-0.78c0-0.03-0.01-0.1-0.11-0.1c-0.08,0-0.09,0.04-0.11,0.11c-0.18,0.44-0.63,0.55-0.9,0.55
		c-0.33,0-0.61-0.15-0.77-0.36c-0.22-0.28-0.22-0.67-0.22-0.83H166.39z"/>
	<path class="st2" d="M168.09,110.69h0.98v-0.23h-0.98v-1.1h-0.22c0,0.53-0.26,1.11-0.86,1.14v0.19h0.59v1.59
		c0,0.63,0.47,0.8,0.88,0.8c0.41,0,0.71-0.33,0.71-0.81v-0.33h-0.22v0.32c0,0.42-0.22,0.61-0.44,0.61c-0.43,0-0.43-0.48-0.43-0.6
		V110.69"/>
</g>
<g>
	<path class="st2" d="M72.82,124.42h0.98v-0.23h-0.98v-1.1H72.6c0,0.53-0.26,1.11-0.86,1.14v0.19h0.59v1.59
		c0,0.63,0.47,0.8,0.88,0.8c0.41,0,0.71-0.33,0.71-0.81v-0.33h-0.22v0.32c0,0.42-0.22,0.61-0.44,0.61c-0.43,0-0.43-0.48-0.43-0.6
		V124.42"/>
	<path class="st2" d="M75.61,125.42c0-0.55,0.29-1.09,0.82-1.1c-0.05,0.05-0.08,0.12-0.08,0.2c0,0.16,0.12,0.28,0.28,0.28
		s0.28-0.12,0.28-0.28c0-0.24-0.23-0.39-0.49-0.39c-0.36,0-0.66,0.21-0.85,0.61h-0.01v-0.61l-0.9,0.07v0.23
		c0.42,0,0.47,0.04,0.47,0.33v1.51c0,0.26-0.06,0.26-0.47,0.26v0.23c0.15-0.01,0.59-0.02,0.72-0.02c0.31,0,0.72,0.02,0.8,0.02v-0.23
		h-0.13c-0.45,0-0.45-0.06-0.45-0.26V125.42"/>
	<path class="st2" d="M79.56,125.91c0,0.62-0.61,0.72-0.8,0.72c-0.32,0-0.62-0.2-0.62-0.5c0-0.33,0.32-0.77,1.43-0.8V125.91
		 M80.05,124.98c0-0.55-0.57-0.88-1.23-0.88c-0.29,0-0.99,0.03-0.99,0.53c0,0.16,0.11,0.29,0.29,0.29c0.17,0,0.29-0.13,0.29-0.29
		c0-0.11-0.05-0.21-0.15-0.26c0.2-0.09,0.5-0.09,0.55-0.09c0.42,0,0.75,0.25,0.75,0.7v0.15c-0.27,0.01-0.75,0.02-1.19,0.18
		c-0.39,0.14-0.77,0.4-0.77,0.8c0,0.53,0.63,0.69,1.1,0.69c0.5,0,0.8-0.25,0.93-0.48c0.04,0.31,0.24,0.45,0.45,0.45
		c0.02,0,0.66,0,0.66-0.57v-0.33h-0.22v0.32c0,0.06,0,0.33-0.23,0.33c-0.23,0-0.23-0.27-0.23-0.33V124.98z"/>
	<path class="st2" d="M81.23,124.19v0.23c0.39,0,0.45,0.04,0.45,0.33v1.51c0,0.26-0.06,0.26-0.47,0.26v0.23
		c0.17-0.01,0.64-0.02,0.7-0.02c0.06,0,0.51,0.01,0.67,0.02v-0.23c-0.37,0-0.42,0-0.42-0.25v-2.15L81.23,124.19 M82.18,123.08
		c0-0.18-0.15-0.36-0.36-0.36c-0.18,0-0.36,0.14-0.36,0.36c0,0.22,0.17,0.36,0.36,0.36C82.03,123.44,82.18,123.26,82.18,123.08z"/>
	<path class="st2" d="M86.28,124.95c0-0.58-0.33-0.83-0.94-0.83c-0.53,0-0.85,0.27-1.03,0.56v-0.56l-0.92,0.07v0.23
		c0.42,0,0.47,0.04,0.47,0.33v1.51c0,0.26-0.06,0.26-0.47,0.26v0.23c0.04-0.01,0.45-0.02,0.72-0.02c0.27,0,0.66,0.02,0.72,0.02
		v-0.23c-0.41,0-0.47,0-0.47-0.26v-1.05c0-0.66,0.56-0.9,0.93-0.9c0.4,0,0.5,0.25,0.5,0.62v1.33c0,0.26-0.06,0.26-0.47,0.26v0.23
		c0.04-0.01,0.45-0.02,0.71-0.02c0.27,0,0.66,0.02,0.72,0.02v-0.23c-0.41,0-0.47,0-0.47-0.26V124.95"/>
	<path class="st2" d="M87.53,124.19v0.23c0.39,0,0.45,0.04,0.45,0.33v1.51c0,0.26-0.06,0.26-0.47,0.26v0.23
		c0.17-0.01,0.64-0.02,0.7-0.02c0.06,0,0.51,0.01,0.67,0.02v-0.23c-0.37,0-0.42,0-0.42-0.25v-2.15L87.53,124.19 M88.48,123.08
		c0-0.18-0.15-0.36-0.36-0.36c-0.18,0-0.36,0.14-0.36,0.36c0,0.22,0.17,0.36,0.36,0.36C88.33,123.44,88.48,123.26,88.48,123.08z"/>
	<path class="st2" d="M92.48,124.95c0-0.58-0.33-0.83-0.94-0.83c-0.53,0-0.85,0.27-1.03,0.56v-0.56l-0.93,0.07v0.23
		c0.42,0,0.47,0.04,0.47,0.33v1.51c0,0.26-0.06,0.26-0.47,0.26v0.23c0.04-0.01,0.45-0.02,0.72-0.02c0.27,0,0.66,0.02,0.72,0.02
		v-0.23c-0.41,0-0.47,0-0.47-0.26v-1.05c0-0.66,0.56-0.9,0.93-0.9c0.4,0,0.5,0.25,0.5,0.62v1.33c0,0.26-0.06,0.26-0.47,0.26v0.23
		c0.04-0.01,0.45-0.02,0.71-0.02c0.27,0,0.66,0.02,0.72,0.02v-0.23c-0.41,0-0.47,0-0.47-0.26V124.95"/>
	<path class="st2" d="M95.28,126.75c0.18,0,1.01,0.01,1.01,0.46c0,0.29-0.49,0.57-1.16,0.57c-0.64,0-1.16-0.27-1.16-0.58
		c0-0.15,0.14-0.45,0.64-0.45H95.28 M94.95,125.69c-0.49,0-0.62-0.36-0.62-0.68c0-0.11,0-0.68,0.61-0.68c0.53,0,0.62,0.42,0.62,0.68
		C95.56,125.11,95.56,125.69,94.95,125.69z M94.26,125.7c0.14,0.08,0.38,0.18,0.68,0.18c0.66,0,1.12-0.42,1.12-0.88
		c0-0.33-0.25-0.55-0.26-0.57c0.27-0.18,0.52-0.19,0.61-0.19c-0.02,0.02-0.04,0.05-0.04,0.13c0,0.11,0.08,0.2,0.2,0.2
		c0.13,0,0.2-0.1,0.2-0.2c0-0.13-0.11-0.32-0.38-0.32c-0.25,0-0.53,0.1-0.73,0.27c-0.2-0.14-0.47-0.21-0.72-0.21
		c-0.64,0-1.12,0.41-1.12,0.88c0,0.19,0.08,0.4,0.29,0.6c-0.13,0.17-0.17,0.33-0.17,0.48c0,0.33,0.21,0.51,0.24,0.54
		c-0.23,0.07-0.6,0.26-0.6,0.59c0,0.46,0.72,0.77,1.54,0.77c0.76,0,1.54-0.27,1.54-0.78c0-0.15-0.05-0.53-0.52-0.73
		c-0.34-0.14-0.68-0.14-1.24-0.14c-0.14,0-0.38,0-0.42-0.01c-0.15-0.03-0.3-0.17-0.3-0.38C94.19,125.8,94.25,125.72,94.26,125.7z"/>
	<path class="st2" d="M82.34,129.15c0-0.1,0-0.17-0.1-0.17c-0.03,0-0.04,0-0.13,0.07c-0.01,0.01-0.02,0.02-0.11,0.09
		c-0.23-0.15-0.53-0.16-0.65-0.16c-0.93,0-1.11,0.47-1.11,0.74c0,0.58,0.7,0.7,1.16,0.77c0.27,0.04,0.79,0.12,0.79,0.52
		c0,0.23-0.18,0.5-0.79,0.5c-0.57,0-0.81-0.33-0.93-0.78c-0.02-0.05-0.03-0.09-0.11-0.09c-0.11,0-0.11,0.05-0.11,0.17v0.72
		c0,0.1,0,0.17,0.1,0.17c0.04,0,0.04-0.01,0.15-0.11l0.14-0.14c0.29,0.26,0.65,0.26,0.77,0.26c0.88,0,1.12-0.48,1.12-0.83
		c0-0.24-0.12-0.42-0.25-0.53c-0.25-0.22-0.49-0.26-0.85-0.32c-0.45-0.07-0.85-0.14-0.85-0.45c0-0.17,0.16-0.42,0.78-0.42
		c0.42,0,0.73,0.16,0.77,0.58c0.01,0.08,0.01,0.12,0.11,0.12c0.11,0,0.11-0.05,0.11-0.17V129.15"/>
	<path class="st2" d="M83.69,130.11c0.07-0.8,0.61-0.94,0.86-0.94c0.77,0,0.81,0.77,0.82,0.94H83.69 M85.62,130.29
		c0.13,0,0.18,0,0.18-0.14c0-0.46-0.26-1.17-1.25-1.17c-0.83,0-1.44,0.64-1.44,1.35c0,0.75,0.69,1.36,1.53,1.36
		c0.86,0,1.16-0.64,1.16-0.77c0-0.03-0.01-0.1-0.11-0.1c-0.08,0-0.09,0.04-0.11,0.11c-0.18,0.44-0.63,0.55-0.9,0.55
		c-0.33,0-0.61-0.15-0.78-0.36c-0.22-0.28-0.22-0.67-0.22-0.83H85.62z"/>
	<path class="st2" d="M87.33,129.3h0.98v-0.23h-0.98v-1.1H87.1c0,0.53-0.26,1.11-0.86,1.14v0.19h0.59v1.59c0,0.63,0.47,0.8,0.88,0.8
		c0.41,0,0.71-0.33,0.71-0.81v-0.33H88.2v0.32c0,0.42-0.22,0.61-0.44,0.61c-0.43,0-0.43-0.48-0.43-0.6V129.3"/>
</g>
<g>
	<path class="st2" d="M112.66,124.42h0.98v-0.23h-0.98v-1.1h-0.22c0,0.53-0.26,1.11-0.86,1.14v0.19h0.59v1.59
		c0,0.63,0.47,0.8,0.88,0.8c0.41,0,0.71-0.33,0.71-0.81v-0.33h-0.22v0.32c0,0.42-0.22,0.61-0.44,0.61c-0.43,0-0.43-0.48-0.43-0.6
		V124.42"/>
	<path class="st2" d="M115.45,125.42c0-0.55,0.29-1.09,0.82-1.1c-0.05,0.05-0.08,0.12-0.08,0.2c0,0.16,0.12,0.28,0.28,0.28
		s0.28-0.12,0.28-0.28c0-0.24-0.23-0.39-0.49-0.39c-0.36,0-0.66,0.21-0.85,0.61h-0.01v-0.61l-0.9,0.07v0.23
		c0.42,0,0.47,0.04,0.47,0.33v1.51c0,0.26-0.06,0.26-0.47,0.26v0.23c0.15-0.01,0.59-0.02,0.72-0.02c0.31,0,0.72,0.02,0.8,0.02v-0.23
		h-0.13c-0.45,0-0.45-0.06-0.45-0.26V125.42"/>
	<path class="st2" d="M119.4,125.91c0,0.62-0.61,0.72-0.8,0.72c-0.32,0-0.62-0.2-0.62-0.5c0-0.33,0.32-0.77,1.43-0.8V125.91
		 M119.89,124.98c0-0.55-0.57-0.88-1.23-0.88c-0.29,0-0.99,0.03-0.99,0.53c0,0.16,0.11,0.29,0.29,0.29c0.17,0,0.29-0.13,0.29-0.29
		c0-0.11-0.05-0.21-0.15-0.26c0.2-0.09,0.5-0.09,0.55-0.09c0.42,0,0.75,0.25,0.75,0.7v0.15c-0.27,0.01-0.75,0.02-1.19,0.18
		c-0.39,0.14-0.77,0.4-0.77,0.8c0,0.53,0.63,0.69,1.1,0.69c0.5,0,0.8-0.25,0.93-0.48c0.04,0.31,0.24,0.45,0.45,0.45
		c0.02,0,0.66,0,0.66-0.57v-0.33h-0.22v0.32c0,0.06,0,0.33-0.23,0.33c-0.23,0-0.23-0.27-0.23-0.33V124.98z"/>
	<path class="st2" d="M121.06,124.19v0.23c0.39,0,0.45,0.04,0.45,0.33v1.51c0,0.26-0.06,0.26-0.47,0.26v0.23
		c0.17-0.01,0.64-0.02,0.7-0.02c0.06,0,0.51,0.01,0.67,0.02v-0.23c-0.37,0-0.42,0-0.42-0.25v-2.15L121.06,124.19 M122.01,123.08
		c0-0.18-0.15-0.36-0.36-0.36c-0.18,0-0.36,0.14-0.36,0.36c0,0.22,0.17,0.36,0.36,0.36C121.86,123.44,122.01,123.26,122.01,123.08z"
		/>
	<path class="st2" d="M126.12,124.95c0-0.58-0.33-0.83-0.94-0.83c-0.53,0-0.85,0.27-1.03,0.56v-0.56l-0.92,0.07v0.23
		c0.42,0,0.47,0.04,0.47,0.33v1.51c0,0.26-0.06,0.26-0.47,0.26v0.23c0.04-0.01,0.45-0.02,0.72-0.02c0.27,0,0.66,0.02,0.72,0.02
		v-0.23c-0.41,0-0.47,0-0.47-0.26v-1.05c0-0.66,0.56-0.9,0.93-0.9c0.4,0,0.5,0.25,0.5,0.62v1.33c0,0.26-0.06,0.26-0.47,0.26v0.23
		c0.04-0.01,0.45-0.02,0.71-0.02c0.27,0,0.66,0.02,0.72,0.02v-0.23c-0.41,0-0.47,0-0.47-0.26V124.95"/>
	<path class="st2" d="M127.36,124.19v0.23c0.39,0,0.45,0.04,0.45,0.33v1.51c0,0.26-0.06,0.26-0.47,0.26v0.23
		c0.17-0.01,0.64-0.02,0.7-0.02c0.06,0,0.51,0.01,0.67,0.02v-0.23c-0.37,0-0.42,0-0.42-0.25v-2.15L127.36,124.19 M128.31,123.08
		c0-0.18-0.15-0.36-0.36-0.36c-0.18,0-0.36,0.14-0.36,0.36c0,0.22,0.17,0.36,0.36,0.36C128.16,123.44,128.31,123.26,128.31,123.08z"
		/>
	<path class="st2" d="M132.32,124.95c0-0.58-0.33-0.83-0.94-0.83c-0.53,0-0.85,0.27-1.03,0.56v-0.56l-0.93,0.07v0.23
		c0.42,0,0.47,0.04,0.47,0.33v1.51c0,0.26-0.06,0.26-0.47,0.26v0.23c0.04-0.01,0.45-0.02,0.72-0.02c0.27,0,0.66,0.02,0.72,0.02
		v-0.23c-0.41,0-0.47,0-0.47-0.26v-1.05c0-0.66,0.56-0.9,0.93-0.9c0.4,0,0.5,0.25,0.5,0.62v1.33c0,0.26-0.06,0.26-0.47,0.26v0.23
		c0.04-0.01,0.45-0.02,0.71-0.02c0.27,0,0.66,0.02,0.72,0.02v-0.23c-0.41,0-0.47,0-0.47-0.26V124.95"/>
	<path class="st2" d="M135.12,126.75c0.18,0,1.01,0.01,1.01,0.46c0,0.29-0.49,0.57-1.16,0.57c-0.64,0-1.16-0.27-1.16-0.58
		c0-0.15,0.14-0.45,0.64-0.45H135.12 M134.79,125.69c-0.49,0-0.62-0.36-0.62-0.68c0-0.11,0-0.68,0.61-0.68
		c0.53,0,0.62,0.42,0.62,0.68C135.4,125.11,135.4,125.69,134.79,125.69z M134.1,125.7c0.14,0.08,0.38,0.18,0.68,0.18
		c0.66,0,1.12-0.42,1.12-0.88c0-0.33-0.25-0.55-0.26-0.57c0.27-0.18,0.52-0.19,0.61-0.19c-0.02,0.02-0.04,0.05-0.04,0.13
		c0,0.11,0.08,0.2,0.2,0.2c0.13,0,0.2-0.1,0.2-0.2c0-0.13-0.11-0.32-0.38-0.32c-0.25,0-0.52,0.1-0.73,0.27
		c-0.2-0.14-0.47-0.21-0.72-0.21c-0.64,0-1.12,0.41-1.12,0.88c0,0.19,0.08,0.4,0.29,0.6c-0.13,0.17-0.17,0.33-0.17,0.48
		c0,0.33,0.21,0.51,0.24,0.54c-0.23,0.07-0.6,0.26-0.6,0.59c0,0.46,0.72,0.77,1.54,0.77c0.76,0,1.54-0.27,1.54-0.78
		c0-0.15-0.05-0.53-0.52-0.73c-0.34-0.14-0.68-0.14-1.24-0.14c-0.14,0-0.38,0-0.42-0.01c-0.15-0.03-0.3-0.17-0.3-0.38
		C134.03,125.8,134.09,125.72,134.1,125.7z"/>
	<path class="st2" d="M122.18,129.15c0-0.1,0-0.17-0.1-0.17c-0.03,0-0.04,0-0.13,0.07c-0.01,0.01-0.02,0.02-0.11,0.09
		c-0.23-0.15-0.53-0.16-0.65-0.16c-0.93,0-1.11,0.47-1.11,0.74c0,0.58,0.7,0.7,1.16,0.77c0.27,0.04,0.79,0.12,0.79,0.52
		c0,0.23-0.18,0.5-0.79,0.5c-0.57,0-0.81-0.33-0.93-0.78c-0.02-0.05-0.03-0.09-0.11-0.09c-0.11,0-0.11,0.05-0.11,0.17v0.72
		c0,0.1,0,0.17,0.1,0.17c0.04,0,0.04-0.01,0.15-0.11l0.14-0.14c0.29,0.26,0.65,0.26,0.77,0.26c0.88,0,1.12-0.48,1.12-0.83
		c0-0.24-0.12-0.42-0.25-0.53c-0.25-0.22-0.49-0.26-0.85-0.32c-0.45-0.07-0.85-0.14-0.85-0.45c0-0.17,0.16-0.42,0.78-0.42
		c0.42,0,0.73,0.16,0.77,0.58c0.01,0.08,0.01,0.12,0.11,0.12c0.11,0,0.11-0.05,0.11-0.17V129.15"/>
	<path class="st2" d="M123.53,130.11c0.07-0.8,0.61-0.94,0.86-0.94c0.77,0,0.81,0.77,0.82,0.94H123.53 M125.46,130.29
		c0.13,0,0.18,0,0.18-0.14c0-0.46-0.26-1.17-1.25-1.17c-0.83,0-1.44,0.64-1.44,1.35c0,0.75,0.69,1.36,1.53,1.36
		c0.86,0,1.16-0.64,1.16-0.77c0-0.03-0.01-0.1-0.11-0.1c-0.08,0-0.09,0.04-0.11,0.11c-0.18,0.44-0.63,0.55-0.9,0.55
		c-0.33,0-0.61-0.15-0.78-0.36c-0.22-0.28-0.22-0.67-0.22-0.83H125.46z"/>
	<path class="st2" d="M127.16,129.3h0.98v-0.23h-0.98v-1.1h-0.22c0,0.53-0.26,1.11-0.86,1.14v0.19h0.59v1.59
		c0,0.63,0.47,0.8,0.88,0.8c0.41,0,0.71-0.33,0.71-0.81v-0.33h-0.22v0.32c0,0.42-0.22,0.61-0.44,0.61c-0.43,0-0.43-0.48-0.43-0.6
		V129.3"/>
</g>
<g>
	<path class="st2" d="M153.59,124.47h0.98v-0.23h-0.98v-1.1h-0.22c0,0.53-0.26,1.11-0.86,1.14v0.19h0.59v1.59
		c0,0.63,0.47,0.8,0.88,0.8c0.41,0,0.71-0.33,0.71-0.81v-0.33h-0.22v0.32c0,0.42-0.22,0.61-0.44,0.61c-0.43,0-0.43-0.48-0.43-0.6
		V124.47"/>
	<path class="st2" d="M156.37,125.47c0-0.55,0.29-1.09,0.82-1.1c-0.05,0.05-0.08,0.12-0.08,0.2c0,0.16,0.12,0.28,0.28,0.28
		c0.16,0,0.28-0.12,0.28-0.28c0-0.24-0.23-0.39-0.49-0.39c-0.36,0-0.66,0.21-0.85,0.61h-0.01v-0.61l-0.9,0.07v0.23
		c0.42,0,0.47,0.04,0.47,0.33v1.51c0,0.26-0.06,0.26-0.47,0.26v0.23c0.15-0.01,0.59-0.02,0.72-0.02c0.31,0,0.72,0.02,0.8,0.02v-0.23
		h-0.13c-0.45,0-0.45-0.06-0.45-0.26V125.47"/>
	<path class="st2" d="M160.32,125.96c0,0.62-0.61,0.72-0.8,0.72c-0.32,0-0.62-0.2-0.62-0.5c0-0.33,0.32-0.77,1.43-0.8V125.96
		 M160.82,125.03c0-0.55-0.57-0.88-1.23-0.88c-0.29,0-0.99,0.03-0.99,0.53c0,0.16,0.11,0.29,0.29,0.29c0.17,0,0.29-0.13,0.29-0.29
		c0-0.11-0.05-0.21-0.15-0.26c0.2-0.09,0.5-0.09,0.55-0.09c0.42,0,0.75,0.25,0.75,0.7v0.15c-0.27,0.01-0.75,0.02-1.19,0.18
		c-0.39,0.14-0.77,0.4-0.77,0.8c0,0.53,0.63,0.69,1.1,0.69c0.5,0,0.8-0.25,0.93-0.48c0.04,0.31,0.24,0.45,0.45,0.45
		c0.02,0,0.66,0,0.66-0.57v-0.33h-0.22v0.32c0,0.06,0,0.33-0.23,0.33c-0.23,0-0.23-0.27-0.23-0.33V125.03z"/>
	<path class="st2" d="M161.99,124.24v0.23c0.39,0,0.45,0.04,0.45,0.33v1.51c0,0.26-0.06,0.26-0.47,0.26v0.23
		c0.17-0.01,0.64-0.02,0.7-0.02c0.06,0,0.51,0.01,0.67,0.02v-0.23c-0.37,0-0.42,0-0.42-0.25v-2.15L161.99,124.24 M162.94,123.13
		c0-0.18-0.15-0.36-0.36-0.36c-0.18,0-0.36,0.14-0.36,0.36c0,0.22,0.17,0.36,0.36,0.36C162.79,123.49,162.94,123.31,162.94,123.13z"
		/>
	<path class="st2" d="M167.05,125c0-0.58-0.33-0.83-0.94-0.83c-0.53,0-0.85,0.27-1.03,0.56v-0.56l-0.93,0.07v0.23
		c0.42,0,0.47,0.04,0.47,0.33v1.51c0,0.26-0.06,0.26-0.47,0.26v0.23c0.04-0.01,0.45-0.02,0.72-0.02c0.27,0,0.66,0.02,0.72,0.02
		v-0.23c-0.41,0-0.47,0-0.47-0.26v-1.05c0-0.66,0.56-0.9,0.93-0.9c0.4,0,0.5,0.25,0.5,0.62v1.33c0,0.26-0.06,0.26-0.47,0.26v0.23
		c0.04-0.01,0.45-0.02,0.71-0.02c0.27,0,0.66,0.02,0.72,0.02v-0.23c-0.41,0-0.47,0-0.47-0.26V125"/>
	<path class="st2" d="M168.29,124.24v0.23c0.39,0,0.45,0.04,0.45,0.33v1.51c0,0.26-0.06,0.26-0.47,0.26v0.23
		c0.17-0.01,0.64-0.02,0.7-0.02c0.06,0,0.51,0.01,0.67,0.02v-0.23c-0.37,0-0.42,0-0.42-0.25v-2.15L168.29,124.24 M169.24,123.13
		c0-0.18-0.15-0.36-0.36-0.36c-0.18,0-0.36,0.14-0.36,0.36c0,0.22,0.17,0.36,0.36,0.36C169.09,123.49,169.24,123.31,169.24,123.13z"
		/>
	<path class="st2" d="M173.25,125c0-0.58-0.33-0.83-0.94-0.83c-0.53,0-0.85,0.27-1.03,0.56v-0.56l-0.92,0.07v0.23
		c0.42,0,0.47,0.04,0.47,0.33v1.51c0,0.26-0.06,0.26-0.47,0.26v0.23c0.04-0.01,0.45-0.02,0.72-0.02c0.27,0,0.66,0.02,0.72,0.02
		v-0.23c-0.41,0-0.47,0-0.47-0.26v-1.05c0-0.66,0.56-0.9,0.93-0.9c0.4,0,0.5,0.25,0.5,0.62v1.33c0,0.26-0.06,0.26-0.47,0.26v0.23
		c0.04-0.01,0.45-0.02,0.71-0.02c0.27,0,0.66,0.02,0.72,0.02v-0.23c-0.41,0-0.47,0-0.47-0.26V125"/>
	<path class="st2" d="M176.05,126.8c0.18,0,1.01,0.01,1.01,0.46c0,0.29-0.49,0.57-1.16,0.57c-0.64,0-1.16-0.27-1.16-0.58
		c0-0.15,0.14-0.45,0.64-0.45H176.05 M175.71,125.74c-0.49,0-0.62-0.36-0.62-0.68c0-0.11,0-0.68,0.61-0.68
		c0.53,0,0.62,0.42,0.62,0.68C176.33,125.16,176.33,125.74,175.71,125.74z M175.03,125.75c0.14,0.08,0.38,0.18,0.68,0.18
		c0.66,0,1.12-0.42,1.12-0.88c0-0.33-0.25-0.55-0.26-0.57c0.27-0.18,0.52-0.19,0.61-0.19c-0.02,0.02-0.04,0.05-0.04,0.13
		c0,0.11,0.08,0.2,0.2,0.2c0.13,0,0.2-0.1,0.2-0.2c0-0.13-0.11-0.32-0.38-0.32c-0.25,0-0.52,0.1-0.73,0.27
		c-0.2-0.14-0.47-0.21-0.72-0.21c-0.64,0-1.12,0.41-1.12,0.88c0,0.19,0.08,0.4,0.29,0.6c-0.13,0.17-0.17,0.33-0.17,0.48
		c0,0.33,0.21,0.51,0.24,0.54c-0.23,0.07-0.6,0.26-0.6,0.59c0,0.46,0.72,0.77,1.54,0.77c0.76,0,1.54-0.27,1.54-0.78
		c0-0.15-0.05-0.53-0.52-0.73c-0.34-0.14-0.68-0.14-1.24-0.14c-0.14,0-0.38,0-0.42-0.01c-0.15-0.03-0.3-0.17-0.3-0.38
		C174.96,125.85,175.01,125.77,175.03,125.75z"/>
	<path class="st2" d="M163.1,129.2c0-0.1,0-0.17-0.1-0.17c-0.03,0-0.04,0-0.13,0.07c-0.01,0.01-0.02,0.02-0.11,0.09
		c-0.23-0.15-0.53-0.16-0.65-0.16c-0.93,0-1.11,0.47-1.11,0.74c0,0.58,0.7,0.7,1.16,0.77c0.27,0.04,0.79,0.12,0.79,0.52
		c0,0.23-0.18,0.5-0.79,0.5c-0.57,0-0.81-0.33-0.93-0.78c-0.02-0.05-0.03-0.09-0.11-0.09c-0.11,0-0.11,0.05-0.11,0.17v0.72
		c0,0.1,0,0.17,0.1,0.17c0.04,0,0.04-0.01,0.15-0.11l0.14-0.14c0.29,0.26,0.65,0.26,0.77,0.26c0.88,0,1.12-0.48,1.12-0.83
		c0-0.24-0.12-0.42-0.25-0.53c-0.25-0.22-0.49-0.26-0.85-0.32c-0.45-0.07-0.85-0.14-0.85-0.45c0-0.17,0.16-0.42,0.78-0.42
		c0.42,0,0.73,0.16,0.77,0.58c0.01,0.08,0.01,0.12,0.11,0.12c0.11,0,0.11-0.05,0.11-0.17V129.2"/>
	<path class="st2" d="M164.45,130.16c0.07-0.8,0.61-0.94,0.86-0.94c0.77,0,0.81,0.77,0.82,0.94H164.45 M166.39,130.34
		c0.13,0,0.18,0,0.18-0.14c0-0.46-0.26-1.17-1.25-1.17c-0.83,0-1.44,0.64-1.44,1.35c0,0.75,0.69,1.36,1.53,1.36
		c0.86,0,1.16-0.64,1.16-0.78c0-0.03-0.01-0.1-0.11-0.1c-0.08,0-0.09,0.04-0.11,0.11c-0.18,0.44-0.63,0.55-0.9,0.55
		c-0.33,0-0.61-0.15-0.77-0.36c-0.22-0.28-0.22-0.67-0.22-0.83H166.39z"/>
	<path class="st2" d="M168.09,129.35h0.98v-0.23h-0.98v-1.1h-0.22c0,0.53-0.26,1.11-0.86,1.14v0.19h0.59v1.59
		c0,0.63,0.47,0.8,0.88,0.8c0.41,0,0.71-0.33,0.71-0.81v-0.33h-0.22v0.32c0,0.42-0.22,0.61-0.44,0.61c-0.43,0-0.43-0.48-0.43-0.6
		V129.35"/>
</g>
<g>
	<path class="st2" d="M152.15,68.32c0.14-0.29,0.36-0.36,0.58-0.36v-0.23c-0.01,0-0.27,0.02-0.48,0.02c-0.2,0-0.53-0.02-0.57-0.02
		v0.23c0.26,0.01,0.26,0.2,0.26,0.22c0,0.08-0.03,0.14-0.05,0.18l-0.7,1.44l-0.77-1.6c-0.02-0.03-0.04-0.07-0.04-0.11
		c0-0.13,0.22-0.13,0.32-0.13v-0.23c-0.2,0.01-0.64,0.02-0.71,0.02c-0.12,0-0.48-0.01-0.61-0.02v0.23c0.35,0,0.41,0.02,0.5,0.2
		l0.98,2.05c0.06,0.12,0.12,0.14,0.19,0.14c0.12,0,0.15-0.05,0.19-0.14L152.15,68.32"/>
	<path class="st2" d="M154.97,69.44c0,0.62-0.61,0.72-0.8,0.72c-0.32,0-0.62-0.2-0.62-0.5c0-0.33,0.32-0.77,1.43-0.8V69.44
		 M155.47,68.51c0-0.55-0.57-0.88-1.23-0.88c-0.29,0-0.99,0.03-0.99,0.53c0,0.16,0.11,0.29,0.29,0.29c0.17,0,0.29-0.13,0.29-0.29
		c0-0.11-0.05-0.21-0.15-0.26c0.2-0.09,0.5-0.09,0.55-0.09c0.42,0,0.75,0.25,0.75,0.7v0.15c-0.27,0.01-0.75,0.02-1.19,0.18
		c-0.39,0.14-0.77,0.4-0.77,0.8c0,0.53,0.63,0.69,1.1,0.69c0.5,0,0.8-0.25,0.93-0.48c0.04,0.31,0.24,0.45,0.45,0.45
		c0.02,0,0.66,0,0.66-0.57v-0.33h-0.22v0.32c0,0.06,0,0.33-0.23,0.33c-0.23,0-0.23-0.27-0.23-0.33V68.51z"/>
	<path class="st2" d="M157.56,66.16l-0.94,0.07v0.23c0.42,0,0.47,0.04,0.47,0.33v3.02c0,0.26-0.06,0.26-0.47,0.26v0.23
		c0.18-0.01,0.66-0.02,0.7-0.02c0.24,0,0.47,0.01,0.71,0.02v-0.23c-0.41,0-0.47,0-0.47-0.26V66.16"/>
	<path class="st2" d="M158.84,67.73v0.23c0.39,0,0.45,0.04,0.45,0.33v1.51c0,0.26-0.06,0.26-0.47,0.26v0.23
		c0.17-0.01,0.64-0.02,0.7-0.02c0.06,0,0.51,0.01,0.67,0.02v-0.23c-0.37,0-0.42,0-0.42-0.25v-2.15L158.84,67.73 M159.79,66.62
		c0-0.18-0.15-0.36-0.36-0.36c-0.18,0-0.36,0.14-0.36,0.36c0,0.22,0.17,0.36,0.36,0.36C159.64,66.98,159.79,66.8,159.79,66.62z"/>
	<path class="st2" d="M163.25,69.53c0,0.11,0,0.13-0.1,0.25c-0.29,0.36-0.68,0.38-0.79,0.38c-0.24,0-0.51-0.1-0.71-0.33
		c-0.18-0.23-0.23-0.55-0.23-0.82c0-1.08,0.8-1.16,1.01-1.16c0.2,0,0.5,0.07,0.73,0.33c0.08,0.1,0.08,0.11,0.08,0.23V69.53
		 M162.8,66.22v0.23c0.42,0,0.47,0.04,0.47,0.33V68c-0.26-0.23-0.55-0.33-0.88-0.33c-0.83,0-1.54,0.6-1.54,1.35
		c0,0.74,0.66,1.34,1.47,1.34c0.36,0,0.67-0.13,0.93-0.37v0.37l0.97-0.06v-0.23c-0.42,0-0.47-0.04-0.47-0.33v-3.57L162.8,66.22z"/>
	<path class="st2" d="M166.97,69.44c0,0.62-0.61,0.72-0.8,0.72c-0.32,0-0.62-0.2-0.62-0.5c0-0.33,0.32-0.77,1.43-0.8V69.44
		 M167.47,68.51c0-0.55-0.57-0.88-1.23-0.88c-0.29,0-0.99,0.03-0.99,0.53c0,0.16,0.11,0.29,0.29,0.29c0.17,0,0.29-0.13,0.29-0.29
		c0-0.11-0.05-0.21-0.15-0.26c0.2-0.09,0.5-0.09,0.55-0.09c0.42,0,0.75,0.25,0.75,0.7v0.15c-0.27,0.01-0.75,0.02-1.19,0.18
		c-0.39,0.14-0.77,0.4-0.77,0.8c0,0.53,0.63,0.69,1.1,0.69c0.5,0,0.8-0.25,0.93-0.48c0.04,0.31,0.24,0.45,0.45,0.45
		c0.02,0,0.66,0,0.66-0.57v-0.33h-0.22v0.32c0,0.06,0,0.33-0.23,0.33c-0.23,0-0.23-0.27-0.23-0.33V68.51z"/>
	<path class="st2" d="M169.54,67.96h0.98v-0.23h-0.98v-1.1h-0.22c0,0.53-0.26,1.11-0.86,1.14v0.19h0.59v1.59
		c0,0.63,0.47,0.8,0.88,0.8c0.41,0,0.71-0.33,0.71-0.81v-0.33h-0.22v0.32c0,0.42-0.22,0.61-0.44,0.61c-0.43,0-0.43-0.48-0.43-0.6
		V67.96"/>
	<path class="st2" d="M171.54,67.73v0.23c0.39,0,0.45,0.04,0.45,0.33v1.51c0,0.26-0.06,0.26-0.47,0.26v0.23
		c0.17-0.01,0.64-0.02,0.7-0.02c0.06,0,0.51,0.01,0.67,0.02v-0.23c-0.37,0-0.42,0-0.42-0.25v-2.15L171.54,67.73 M172.49,66.62
		c0-0.18-0.15-0.36-0.36-0.36c-0.18,0-0.36,0.14-0.36,0.36c0,0.22,0.17,0.36,0.36,0.36C172.34,66.98,172.49,66.8,172.49,66.62z"/>
	<path class="st2" d="M175.15,70.14c-0.97,0-0.97-0.89-0.97-1.18c0-0.18,0-0.6,0.22-0.84c0.2-0.21,0.46-0.3,0.74-0.3
		c0.29,0,0.55,0.09,0.75,0.31c0.21,0.25,0.21,0.64,0.21,0.83C176.12,69.25,176.12,70.14,175.15,70.14 M176.69,69.02
		c0-0.75-0.67-1.39-1.53-1.39c-0.87,0-1.53,0.64-1.53,1.39c0,0.73,0.67,1.33,1.53,1.33C176.01,70.35,176.69,69.75,176.69,69.02z"/>
	<path class="st2" d="M180.2,68.49c0-0.58-0.33-0.83-0.94-0.83c-0.52,0-0.85,0.27-1.02,0.56v-0.56l-0.93,0.07v0.23
		c0.42,0,0.47,0.04,0.47,0.33v1.51c0,0.26-0.06,0.26-0.47,0.26v0.23c0.04-0.01,0.45-0.02,0.72-0.02c0.27,0,0.66,0.02,0.72,0.02
		v-0.23c-0.41,0-0.47,0-0.47-0.26v-1.05c0-0.66,0.56-0.9,0.93-0.9c0.4,0,0.5,0.25,0.5,0.62v1.33c0,0.26-0.06,0.26-0.47,0.26v0.23
		c0.04-0.01,0.45-0.02,0.71-0.02c0.27,0,0.66,0.02,0.72,0.02v-0.23c-0.41,0-0.47,0-0.47-0.26V68.49"/>
	<path class="st2" d="M163.23,73.35c0-0.1,0-0.17-0.1-0.17c-0.03,0-0.04,0-0.13,0.07c-0.01,0.01-0.02,0.02-0.11,0.09
		c-0.23-0.15-0.53-0.16-0.65-0.16c-0.93,0-1.11,0.47-1.11,0.74c0,0.58,0.7,0.7,1.16,0.77c0.27,0.04,0.79,0.12,0.79,0.52
		c0,0.23-0.18,0.5-0.79,0.5c-0.57,0-0.81-0.33-0.93-0.78c-0.02-0.05-0.03-0.09-0.11-0.09c-0.11,0-0.11,0.05-0.11,0.17v0.72
		c0,0.1,0,0.17,0.1,0.17c0.04,0,0.04-0.01,0.15-0.11l0.14-0.14c0.29,0.26,0.65,0.26,0.77,0.26c0.88,0,1.12-0.48,1.12-0.83
		c0-0.24-0.12-0.42-0.25-0.53c-0.25-0.22-0.49-0.26-0.85-0.32c-0.45-0.07-0.85-0.14-0.85-0.45c0-0.17,0.16-0.42,0.78-0.42
		c0.42,0,0.73,0.16,0.77,0.58c0.01,0.08,0.01,0.12,0.11,0.12c0.11,0,0.11-0.05,0.11-0.17V73.35"/>
	<path class="st2" d="M164.58,74.31c0.07-0.8,0.61-0.94,0.86-0.94c0.77,0,0.81,0.77,0.82,0.94H164.58 M166.51,74.49
		c0.13,0,0.18,0,0.18-0.14c0-0.46-0.26-1.17-1.25-1.17c-0.83,0-1.44,0.64-1.44,1.35c0,0.75,0.69,1.36,1.53,1.36
		c0.86,0,1.16-0.64,1.16-0.78c0-0.03-0.01-0.1-0.11-0.1c-0.08,0-0.09,0.04-0.11,0.11c-0.18,0.44-0.63,0.55-0.9,0.55
		c-0.33,0-0.61-0.15-0.78-0.36c-0.22-0.28-0.22-0.67-0.22-0.83H166.51z"/>
	<path class="st2" d="M168.32,73.5h0.98v-0.23h-0.98v-1.1h-0.22c0,0.53-0.26,1.11-0.86,1.14v0.19h0.59v1.59
		c0,0.63,0.47,0.8,0.88,0.8c0.41,0,0.71-0.33,0.71-0.81v-0.33h-0.22v0.32c0,0.42-0.22,0.61-0.44,0.61c-0.43,0-0.43-0.48-0.43-0.6
		V73.5"/>
</g>
<g>
	<path class="st2" d="M110.64,87.85c0.14-0.29,0.36-0.36,0.58-0.36v-0.23c-0.01,0-0.27,0.02-0.48,0.02c-0.2,0-0.53-0.02-0.57-0.02
		v0.23c0.26,0.01,0.26,0.2,0.26,0.22c0,0.08-0.03,0.14-0.05,0.18l-0.7,1.44l-0.78-1.6c-0.02-0.03-0.04-0.07-0.04-0.11
		c0-0.13,0.22-0.13,0.32-0.13v-0.23c-0.2,0.01-0.64,0.02-0.71,0.02c-0.12,0-0.48-0.01-0.61-0.02v0.23c0.35,0,0.41,0.02,0.5,0.2
		l0.98,2.05c0.06,0.12,0.12,0.14,0.19,0.14c0.12,0,0.15-0.05,0.19-0.14L110.64,87.85"/>
	<path class="st2" d="M113.46,88.97c0,0.62-0.61,0.72-0.8,0.72c-0.32,0-0.62-0.2-0.62-0.5c0-0.33,0.32-0.77,1.43-0.8V88.97
		 M113.95,88.04c0-0.55-0.57-0.88-1.23-0.88c-0.29,0-0.99,0.03-0.99,0.53c0,0.16,0.11,0.29,0.29,0.29c0.17,0,0.29-0.13,0.29-0.29
		c0-0.11-0.05-0.21-0.15-0.26c0.2-0.09,0.5-0.09,0.55-0.09c0.42,0,0.75,0.25,0.75,0.7v0.15c-0.27,0.01-0.75,0.02-1.19,0.18
		c-0.39,0.14-0.77,0.4-0.77,0.8c0,0.53,0.63,0.69,1.1,0.69c0.5,0,0.8-0.25,0.93-0.48c0.04,0.31,0.24,0.45,0.45,0.45
		c0.02,0,0.66,0,0.66-0.57v-0.33h-0.22v0.32c0,0.06,0,0.33-0.23,0.33c-0.23,0-0.23-0.27-0.23-0.33V88.04z"/>
	<path class="st2" d="M116.04,85.68l-0.94,0.07v0.23c0.42,0,0.47,0.04,0.47,0.33v3.02c0,0.26-0.06,0.26-0.47,0.26v0.23
		c0.18-0.01,0.66-0.02,0.7-0.02c0.24,0,0.47,0.01,0.71,0.02v-0.23c-0.41,0-0.47,0-0.47-0.26V85.68"/>
	<path class="st2" d="M117.32,87.26v0.23c0.39,0,0.45,0.04,0.45,0.33v1.51c0,0.26-0.06,0.26-0.47,0.26v0.23
		c0.17-0.01,0.64-0.02,0.7-0.02c0.06,0,0.51,0.01,0.67,0.02v-0.23c-0.37,0-0.42,0-0.42-0.25v-2.15L117.32,87.26 M118.27,86.15
		c0-0.18-0.15-0.36-0.36-0.36c-0.18,0-0.36,0.14-0.36,0.36c0,0.22,0.17,0.36,0.36,0.36C118.12,86.5,118.27,86.33,118.27,86.15z"/>
	<path class="st2" d="M121.73,89.06c0,0.11,0,0.13-0.1,0.25c-0.29,0.36-0.68,0.38-0.79,0.38c-0.24,0-0.51-0.1-0.71-0.33
		c-0.18-0.23-0.23-0.55-0.23-0.82c0-1.08,0.8-1.16,1.01-1.16c0.2,0,0.5,0.07,0.73,0.33c0.08,0.1,0.08,0.11,0.08,0.23V89.06
		 M121.29,85.75v0.23c0.42,0,0.47,0.04,0.47,0.33v1.21c-0.26-0.23-0.55-0.33-0.88-0.33c-0.83,0-1.54,0.6-1.54,1.35
		c0,0.74,0.66,1.34,1.47,1.34c0.36,0,0.67-0.13,0.92-0.37v0.37l0.97-0.06v-0.23c-0.42,0-0.47-0.04-0.47-0.33v-3.57L121.29,85.75z"/>
	<path class="st2" d="M125.46,88.97c0,0.62-0.61,0.72-0.8,0.72c-0.32,0-0.62-0.2-0.62-0.5c0-0.33,0.32-0.77,1.43-0.8V88.97
		 M125.95,88.04c0-0.55-0.57-0.88-1.23-0.88c-0.29,0-0.99,0.03-0.99,0.53c0,0.16,0.11,0.29,0.29,0.29c0.17,0,0.29-0.13,0.29-0.29
		c0-0.11-0.05-0.21-0.15-0.26c0.2-0.09,0.5-0.09,0.55-0.09c0.42,0,0.75,0.25,0.75,0.7v0.15c-0.27,0.01-0.75,0.02-1.19,0.18
		c-0.39,0.14-0.77,0.4-0.77,0.8c0,0.53,0.63,0.69,1.1,0.69c0.5,0,0.8-0.25,0.93-0.48c0.04,0.31,0.24,0.45,0.45,0.45
		c0.02,0,0.66,0,0.66-0.57v-0.33h-0.22v0.32c0,0.06,0,0.33-0.23,0.33c-0.23,0-0.23-0.27-0.23-0.33V88.04z"/>
	<path class="st2" d="M128.02,87.48H129v-0.23h-0.98v-1.1h-0.22c0,0.53-0.26,1.11-0.86,1.14v0.19h0.59v1.59
		c0,0.63,0.47,0.8,0.88,0.8c0.41,0,0.71-0.33,0.71-0.81v-0.33h-0.22v0.32c0,0.42-0.22,0.61-0.44,0.61c-0.43,0-0.43-0.48-0.43-0.6
		V87.48"/>
	<path class="st2" d="M130.02,87.26v0.23c0.39,0,0.45,0.04,0.45,0.33v1.51c0,0.26-0.06,0.26-0.47,0.26v0.23
		c0.17-0.01,0.64-0.02,0.7-0.02c0.06,0,0.51,0.01,0.67,0.02v-0.23c-0.37,0-0.42,0-0.42-0.25v-2.15L130.02,87.26 M130.97,86.15
		c0-0.18-0.15-0.36-0.36-0.36c-0.18,0-0.36,0.14-0.36,0.36c0,0.22,0.17,0.36,0.36,0.36C130.82,86.5,130.97,86.33,130.97,86.15z"/>
	<path class="st2" d="M133.64,89.67c-0.97,0-0.97-0.89-0.97-1.18c0-0.18,0-0.6,0.22-0.84c0.2-0.21,0.46-0.3,0.74-0.3
		c0.29,0,0.55,0.09,0.75,0.31c0.21,0.25,0.21,0.64,0.21,0.83C134.6,88.78,134.6,89.67,133.64,89.67 M135.17,88.55
		c0-0.75-0.67-1.39-1.53-1.39c-0.87,0-1.53,0.64-1.53,1.39c0,0.73,0.67,1.33,1.53,1.33C134.5,89.88,135.17,89.28,135.17,88.55z"/>
	<path class="st2" d="M138.68,88.02c0-0.58-0.33-0.83-0.94-0.83c-0.52,0-0.85,0.27-1.02,0.56v-0.56l-0.93,0.07v0.23
		c0.42,0,0.47,0.04,0.47,0.33v1.51c0,0.26-0.06,0.26-0.47,0.26v0.23c0.04-0.01,0.45-0.02,0.72-0.02c0.27,0,0.66,0.02,0.72,0.02
		v-0.23c-0.41,0-0.47,0-0.47-0.26v-1.05c0-0.66,0.56-0.9,0.93-0.9c0.4,0,0.5,0.25,0.5,0.62v1.33c0,0.26-0.06,0.26-0.47,0.26v0.23
		c0.04-0.01,0.45-0.02,0.71-0.02c0.27,0,0.66,0.02,0.72,0.02v-0.23c-0.41,0-0.47,0-0.47-0.26V88.02"/>
	<path class="st2" d="M121.72,92.87c0-0.1,0-0.17-0.1-0.17c-0.03,0-0.04,0-0.13,0.07c-0.01,0.01-0.02,0.02-0.11,0.09
		c-0.23-0.15-0.53-0.16-0.65-0.16c-0.93,0-1.11,0.47-1.11,0.74c0,0.58,0.7,0.7,1.16,0.77c0.27,0.04,0.79,0.12,0.79,0.52
		c0,0.23-0.18,0.5-0.79,0.5c-0.57,0-0.81-0.33-0.93-0.78c-0.02-0.05-0.03-0.09-0.11-0.09c-0.11,0-0.11,0.05-0.11,0.17v0.72
		c0,0.1,0,0.17,0.1,0.17c0.04,0,0.04-0.01,0.15-0.11l0.14-0.14c0.29,0.26,0.65,0.26,0.77,0.26c0.88,0,1.12-0.48,1.12-0.83
		c0-0.24-0.12-0.42-0.25-0.53c-0.25-0.22-0.49-0.26-0.85-0.32c-0.45-0.07-0.85-0.14-0.85-0.45c0-0.17,0.16-0.42,0.78-0.42
		c0.42,0,0.73,0.16,0.77,0.58c0.01,0.08,0.01,0.12,0.11,0.12c0.11,0,0.11-0.05,0.11-0.17V92.87"/>
	<path class="st2" d="M123.07,93.84c0.07-0.8,0.61-0.94,0.86-0.94c0.77,0,0.81,0.77,0.82,0.94H123.07 M125,94.02
		c0.13,0,0.18,0,0.18-0.14c0-0.46-0.26-1.17-1.25-1.17c-0.83,0-1.44,0.64-1.44,1.35c0,0.75,0.69,1.36,1.53,1.36
		c0.86,0,1.16-0.64,1.16-0.78c0-0.03-0.01-0.1-0.11-0.1c-0.08,0-0.09,0.04-0.11,0.11c-0.18,0.44-0.63,0.55-0.9,0.55
		c-0.33,0-0.61-0.15-0.78-0.36c-0.22-0.28-0.22-0.67-0.22-0.83H125z"/>
	<path class="st2" d="M126.8,93.03h0.98v-0.23h-0.98v-1.1h-0.22c0,0.53-0.26,1.11-0.86,1.14v0.19h0.59v1.59
		c0,0.63,0.47,0.8,0.88,0.8c0.41,0,0.71-0.33,0.71-0.81v-0.33h-0.22v0.32c0,0.42-0.22,0.61-0.44,0.61c-0.43,0-0.43-0.48-0.43-0.6
		V93.03"/>
</g>
<g>
	<path class="st2" d="M70.82,105.89c0.14-0.29,0.36-0.36,0.58-0.36v-0.23c-0.01,0-0.27,0.02-0.48,0.02c-0.2,0-0.53-0.02-0.57-0.02
		v0.23c0.26,0.01,0.26,0.2,0.26,0.22c0,0.08-0.03,0.14-0.05,0.18l-0.7,1.44l-0.78-1.6c-0.02-0.03-0.04-0.07-0.04-0.11
		c0-0.13,0.22-0.13,0.32-0.13v-0.23c-0.2,0.01-0.64,0.02-0.71,0.02c-0.12,0-0.48-0.01-0.61-0.02v0.23c0.35,0,0.41,0.02,0.5,0.2
		l0.98,2.05c0.06,0.12,0.12,0.14,0.19,0.14c0.12,0,0.15-0.05,0.19-0.14L70.82,105.89"/>
	<path class="st2" d="M73.64,107.02c0,0.62-0.61,0.72-0.8,0.72c-0.32,0-0.62-0.2-0.62-0.5c0-0.33,0.32-0.77,1.43-0.8V107.02
		 M74.14,106.09c0-0.55-0.57-0.88-1.23-0.88c-0.29,0-0.99,0.03-0.99,0.53c0,0.16,0.11,0.29,0.29,0.29c0.17,0,0.29-0.13,0.29-0.29
		c0-0.11-0.05-0.21-0.15-0.26c0.2-0.09,0.5-0.09,0.55-0.09c0.42,0,0.75,0.25,0.75,0.7v0.15c-0.27,0.01-0.75,0.02-1.19,0.18
		c-0.39,0.14-0.77,0.4-0.77,0.8c0,0.53,0.63,0.69,1.1,0.69c0.5,0,0.8-0.25,0.93-0.48c0.04,0.31,0.24,0.45,0.45,0.45
		c0.02,0,0.66,0,0.66-0.57V107H74.6v0.32c0,0.06,0,0.33-0.23,0.33c-0.23,0-0.23-0.27-0.23-0.33V106.09z"/>
	<path class="st2" d="M76.23,103.73l-0.94,0.07v0.23c0.42,0,0.47,0.04,0.47,0.33v3.02c0,0.26-0.06,0.26-0.47,0.26v0.23
		c0.18-0.01,0.66-0.02,0.7-0.02c0.24,0,0.47,0.01,0.71,0.02v-0.23c-0.41,0-0.47,0-0.47-0.26V103.73"/>
	<path class="st2" d="M77.51,105.3v0.23c0.39,0,0.45,0.04,0.45,0.33v1.51c0,0.26-0.06,0.26-0.47,0.26v0.23
		c0.17-0.01,0.64-0.02,0.7-0.02c0.06,0,0.51,0.01,0.67,0.02v-0.23c-0.37,0-0.42,0-0.42-0.25v-2.15L77.51,105.3 M78.46,104.19
		c0-0.18-0.15-0.36-0.36-0.36c-0.18,0-0.36,0.14-0.36,0.36c0,0.22,0.17,0.36,0.36,0.36C78.31,104.55,78.46,104.37,78.46,104.19z"/>
	<path class="st2" d="M81.92,107.1c0,0.11,0,0.13-0.1,0.25c-0.29,0.36-0.68,0.38-0.79,0.38c-0.24,0-0.51-0.1-0.71-0.33
		c-0.18-0.23-0.23-0.55-0.23-0.82c0-1.08,0.8-1.16,1.01-1.16c0.2,0,0.5,0.07,0.73,0.33c0.08,0.1,0.08,0.11,0.08,0.23V107.1
		 M81.47,103.79v0.23c0.42,0,0.47,0.04,0.47,0.33v1.21c-0.26-0.23-0.55-0.33-0.88-0.33c-0.83,0-1.54,0.6-1.54,1.35
		c0,0.74,0.66,1.34,1.47,1.34c0.36,0,0.67-0.13,0.93-0.37v0.37l0.97-0.06v-0.23c-0.42,0-0.47-0.04-0.47-0.33v-3.57L81.47,103.79z"/>
	<path class="st2" d="M85.64,107.02c0,0.62-0.61,0.72-0.8,0.72c-0.32,0-0.62-0.2-0.62-0.5c0-0.33,0.32-0.77,1.43-0.8V107.02
		 M86.14,106.09c0-0.55-0.57-0.88-1.23-0.88c-0.29,0-0.99,0.03-0.99,0.53c0,0.16,0.11,0.29,0.29,0.29c0.17,0,0.29-0.13,0.29-0.29
		c0-0.11-0.05-0.21-0.15-0.26c0.2-0.09,0.5-0.09,0.55-0.09c0.42,0,0.75,0.25,0.75,0.7v0.15c-0.27,0.01-0.75,0.02-1.19,0.18
		c-0.39,0.14-0.77,0.4-0.77,0.8c0,0.53,0.63,0.69,1.1,0.69c0.5,0,0.8-0.25,0.93-0.48c0.04,0.31,0.24,0.45,0.45,0.45
		c0.02,0,0.66,0,0.66-0.57V107H86.6v0.32c0,0.06,0,0.33-0.23,0.33c-0.23,0-0.23-0.27-0.23-0.33V106.09z"/>
	<path class="st2" d="M88.21,105.53h0.98v-0.23h-0.98v-1.1h-0.22c0,0.53-0.26,1.11-0.86,1.14v0.19h0.59v1.59
		c0,0.63,0.47,0.8,0.88,0.8c0.41,0,0.71-0.33,0.71-0.81v-0.33h-0.22v0.32c0,0.42-0.22,0.61-0.44,0.61c-0.43,0-0.43-0.48-0.43-0.6
		V105.53"/>
	<path class="st2" d="M90.21,105.3v0.23c0.39,0,0.45,0.04,0.45,0.33v1.51c0,0.26-0.06,0.26-0.47,0.26v0.23
		c0.17-0.01,0.64-0.02,0.7-0.02c0.06,0,0.51,0.01,0.67,0.02v-0.23c-0.37,0-0.42,0-0.42-0.25v-2.15L90.21,105.3 M91.16,104.19
		c0-0.18-0.15-0.36-0.36-0.36c-0.18,0-0.36,0.14-0.36,0.36c0,0.22,0.17,0.36,0.36,0.36C91.01,104.55,91.16,104.37,91.16,104.19z"/>
	<path class="st2" d="M93.82,107.72c-0.97,0-0.97-0.89-0.97-1.18c0-0.18,0-0.6,0.22-0.84c0.2-0.21,0.46-0.3,0.74-0.3
		c0.29,0,0.55,0.09,0.75,0.31c0.21,0.25,0.21,0.64,0.21,0.83C94.79,106.83,94.79,107.72,93.82,107.72 M95.36,106.6
		c0-0.75-0.67-1.39-1.53-1.39c-0.87,0-1.53,0.64-1.53,1.39c0,0.73,0.67,1.33,1.53,1.33C94.68,107.92,95.36,107.32,95.36,106.6z"/>
	<path class="st2" d="M98.87,106.06c0-0.58-0.33-0.83-0.94-0.83c-0.53,0-0.85,0.27-1.03,0.56v-0.56l-0.92,0.07v0.23
		c0.42,0,0.47,0.04,0.47,0.33v1.51c0,0.26-0.06,0.26-0.47,0.26v0.23c0.04-0.01,0.45-0.02,0.72-0.02c0.27,0,0.66,0.02,0.72,0.02
		v-0.23c-0.41,0-0.47,0-0.47-0.26v-1.05c0-0.66,0.56-0.9,0.93-0.9c0.4,0,0.5,0.25,0.5,0.62v1.33c0,0.26-0.06,0.26-0.47,0.26v0.23
		c0.04-0.01,0.45-0.02,0.71-0.02c0.27,0,0.66,0.02,0.72,0.02v-0.23c-0.41,0-0.47,0-0.47-0.26V106.06"/>
	<path class="st2" d="M81.9,110.92c0-0.1,0-0.17-0.1-0.17c-0.03,0-0.04,0-0.13,0.07c-0.01,0.01-0.02,0.02-0.11,0.09
		c-0.23-0.15-0.53-0.16-0.65-0.16c-0.93,0-1.11,0.47-1.11,0.74c0,0.58,0.7,0.7,1.16,0.77c0.27,0.04,0.79,0.12,0.79,0.52
		c0,0.23-0.18,0.5-0.79,0.5c-0.57,0-0.81-0.33-0.93-0.78c-0.02-0.05-0.03-0.09-0.11-0.09c-0.11,0-0.11,0.05-0.11,0.17v0.72
		c0,0.1,0,0.17,0.1,0.17c0.04,0,0.04-0.01,0.15-0.11l0.14-0.14c0.29,0.26,0.65,0.26,0.77,0.26c0.88,0,1.12-0.48,1.12-0.83
		c0-0.24-0.12-0.42-0.25-0.53c-0.25-0.22-0.49-0.26-0.85-0.32c-0.45-0.07-0.85-0.14-0.85-0.45c0-0.17,0.16-0.42,0.78-0.42
		c0.42,0,0.73,0.16,0.77,0.58c0.01,0.08,0.01,0.12,0.11,0.12c0.11,0,0.11-0.05,0.11-0.17V110.92"/>
	<path class="st2" d="M83.25,111.88c0.07-0.8,0.61-0.94,0.86-0.94c0.77,0,0.81,0.77,0.82,0.94H83.25 M85.19,112.06
		c0.13,0,0.18,0,0.18-0.14c0-0.46-0.26-1.17-1.25-1.17c-0.83,0-1.44,0.64-1.44,1.35c0,0.75,0.69,1.36,1.53,1.36
		c0.86,0,1.16-0.64,1.16-0.77c0-0.03-0.01-0.1-0.11-0.1c-0.08,0-0.09,0.04-0.11,0.11c-0.18,0.44-0.63,0.55-0.9,0.55
		c-0.33,0-0.61-0.15-0.78-0.36c-0.22-0.28-0.22-0.67-0.22-0.83H85.19z"/>
	<path class="st2" d="M86.99,111.07h0.98v-0.23h-0.98v-1.1h-0.22c0,0.53-0.26,1.11-0.86,1.14v0.19h0.59v1.59
		c0,0.63,0.47,0.8,0.88,0.8c0.41,0,0.71-0.33,0.71-0.81v-0.33h-0.22v0.32c0,0.42-0.22,0.61-0.44,0.61c-0.43,0-0.43-0.48-0.43-0.6
		V111.07"/>
</g>
<g>
	<path class="st2" d="M31.48,125.27c0.14-0.29,0.36-0.36,0.58-0.36v-0.23c-0.01,0-0.27,0.02-0.48,0.02c-0.2,0-0.53-0.02-0.57-0.02
		v0.23c0.26,0.01,0.26,0.2,0.26,0.22c0,0.08-0.03,0.14-0.05,0.18l-0.7,1.44l-0.77-1.6c-0.02-0.03-0.04-0.07-0.04-0.11
		c0-0.13,0.22-0.13,0.32-0.13v-0.23c-0.2,0.01-0.64,0.02-0.71,0.02c-0.12,0-0.48-0.01-0.61-0.02v0.23c0.35,0,0.41,0.02,0.5,0.2
		l0.98,2.05c0.06,0.12,0.12,0.14,0.19,0.14c0.12,0,0.15-0.05,0.19-0.14L31.48,125.27"/>
	<path class="st2" d="M34.3,126.39c0,0.62-0.61,0.72-0.8,0.72c-0.32,0-0.62-0.2-0.62-0.5c0-0.33,0.32-0.77,1.43-0.8V126.39
		 M34.79,125.46c0-0.55-0.57-0.88-1.23-0.88c-0.29,0-0.99,0.03-0.99,0.53c0,0.16,0.11,0.29,0.29,0.29c0.17,0,0.29-0.13,0.29-0.29
		c0-0.11-0.05-0.21-0.15-0.26c0.2-0.09,0.5-0.09,0.55-0.09c0.42,0,0.75,0.25,0.75,0.7v0.15c-0.27,0.01-0.75,0.02-1.19,0.18
		c-0.39,0.14-0.77,0.4-0.77,0.8c0,0.53,0.63,0.69,1.1,0.69c0.5,0,0.8-0.25,0.93-0.48c0.04,0.31,0.24,0.45,0.45,0.45
		c0.02,0,0.66,0,0.66-0.57v-0.33h-0.22v0.32c0,0.06,0,0.33-0.23,0.33c-0.23,0-0.23-0.27-0.23-0.33V125.46z"/>
	<path class="st2" d="M36.89,123.1l-0.94,0.07v0.23c0.42,0,0.47,0.04,0.47,0.33v3.02c0,0.26-0.06,0.26-0.47,0.26v0.23
		c0.18-0.01,0.66-0.02,0.7-0.02c0.24,0,0.47,0.01,0.71,0.02v-0.23c-0.41,0-0.47,0-0.47-0.26V123.1"/>
	<path class="st2" d="M38.17,124.68v0.23c0.39,0,0.45,0.04,0.45,0.33v1.51c0,0.26-0.06,0.26-0.47,0.26v0.23
		c0.17-0.01,0.64-0.02,0.7-0.02c0.06,0,0.51,0.01,0.67,0.02v-0.23c-0.37,0-0.42,0-0.42-0.25v-2.15L38.17,124.68 M39.12,123.57
		c0-0.18-0.15-0.36-0.36-0.36c-0.18,0-0.36,0.14-0.36,0.36c0,0.22,0.17,0.36,0.36,0.36C38.97,123.93,39.12,123.75,39.12,123.57z"/>
	<path class="st2" d="M42.58,126.48c0,0.11,0,0.13-0.1,0.25c-0.29,0.36-0.68,0.38-0.79,0.38c-0.24,0-0.51-0.1-0.71-0.33
		c-0.18-0.23-0.23-0.55-0.23-0.82c0-1.08,0.8-1.16,1.01-1.16c0.2,0,0.5,0.07,0.73,0.33c0.08,0.1,0.08,0.11,0.08,0.23V126.48
		 M42.13,123.17v0.23c0.42,0,0.47,0.04,0.47,0.33v1.21c-0.26-0.23-0.55-0.33-0.88-0.33c-0.83,0-1.54,0.6-1.54,1.35
		c0,0.74,0.66,1.34,1.47,1.34c0.36,0,0.67-0.13,0.93-0.37v0.37l0.97-0.06v-0.23c-0.42,0-0.47-0.04-0.47-0.33v-3.57L42.13,123.17z"/>
	<path class="st2" d="M46.3,126.39c0,0.62-0.61,0.72-0.8,0.72c-0.32,0-0.62-0.2-0.62-0.5c0-0.33,0.32-0.77,1.43-0.8V126.39
		 M46.79,125.46c0-0.55-0.57-0.88-1.23-0.88c-0.29,0-0.99,0.03-0.99,0.53c0,0.16,0.11,0.29,0.29,0.29c0.17,0,0.29-0.13,0.29-0.29
		c0-0.11-0.05-0.21-0.15-0.26c0.2-0.09,0.5-0.09,0.55-0.09c0.42,0,0.75,0.25,0.75,0.7v0.15c-0.27,0.01-0.75,0.02-1.19,0.18
		c-0.39,0.14-0.77,0.4-0.77,0.8c0,0.53,0.63,0.69,1.1,0.69c0.5,0,0.8-0.25,0.93-0.48c0.04,0.31,0.24,0.45,0.45,0.45
		c0.02,0,0.66,0,0.66-0.57v-0.33h-0.22v0.32c0,0.06,0,0.33-0.23,0.33c-0.23,0-0.23-0.27-0.23-0.33V125.46z"/>
	<path class="st2" d="M48.86,124.9h0.98v-0.23h-0.98v-1.1h-0.22c0,0.53-0.26,1.11-0.86,1.14v0.19h0.59v1.59
		c0,0.63,0.47,0.8,0.88,0.8c0.41,0,0.71-0.33,0.71-0.81v-0.33h-0.22v0.32c0,0.42-0.22,0.61-0.44,0.61c-0.43,0-0.43-0.48-0.43-0.6
		V124.9"/>
	<path class="st2" d="M50.87,124.68v0.23c0.39,0,0.45,0.04,0.45,0.33v1.51c0,0.26-0.06,0.26-0.47,0.26v0.23
		c0.17-0.01,0.64-0.02,0.7-0.02c0.06,0,0.51,0.01,0.67,0.02v-0.23c-0.37,0-0.42,0-0.42-0.25v-2.15L50.87,124.68 M51.82,123.57
		c0-0.18-0.15-0.36-0.36-0.36c-0.18,0-0.36,0.14-0.36,0.36c0,0.22,0.17,0.36,0.36,0.36C51.67,123.93,51.82,123.75,51.82,123.57z"/>
	<path class="st2" d="M54.48,127.09c-0.97,0-0.97-0.89-0.97-1.18c0-0.18,0-0.6,0.22-0.84c0.2-0.21,0.46-0.3,0.74-0.3
		c0.29,0,0.55,0.09,0.75,0.31c0.21,0.25,0.21,0.64,0.21,0.83C55.45,126.2,55.45,127.09,54.48,127.09 M56.01,125.97
		c0-0.75-0.67-1.39-1.53-1.39c-0.87,0-1.53,0.64-1.53,1.39c0,0.73,0.67,1.33,1.53,1.33C55.34,127.3,56.01,126.7,56.01,125.97z"/>
	<path class="st2" d="M59.52,125.44c0-0.58-0.33-0.83-0.94-0.83c-0.53,0-0.85,0.27-1.03,0.56v-0.56l-0.92,0.07v0.23
		c0.42,0,0.47,0.04,0.47,0.33v1.51c0,0.26-0.06,0.26-0.47,0.26v0.23c0.04-0.01,0.45-0.02,0.72-0.02c0.27,0,0.66,0.02,0.72,0.02
		v-0.23c-0.41,0-0.47,0-0.47-0.26v-1.05c0-0.66,0.56-0.9,0.93-0.9c0.4,0,0.5,0.25,0.5,0.62v1.33c0,0.26-0.06,0.26-0.47,0.26v0.23
		c0.04-0.01,0.45-0.02,0.71-0.02c0.27,0,0.66,0.02,0.72,0.02v-0.23c-0.41,0-0.47,0-0.47-0.26V125.44"/>
	<path class="st2" d="M42.56,130.29c0-0.1,0-0.17-0.1-0.17c-0.03,0-0.04,0-0.13,0.07c-0.01,0.01-0.02,0.02-0.11,0.09
		c-0.23-0.15-0.53-0.16-0.65-0.16c-0.93,0-1.11,0.47-1.11,0.74c0,0.58,0.7,0.7,1.16,0.77c0.27,0.04,0.79,0.12,0.79,0.52
		c0,0.23-0.18,0.5-0.79,0.5c-0.57,0-0.81-0.33-0.93-0.78c-0.02-0.05-0.03-0.09-0.11-0.09c-0.11,0-0.11,0.05-0.11,0.17v0.72
		c0,0.1,0,0.17,0.1,0.17c0.04,0,0.04-0.01,0.15-0.11l0.14-0.14c0.29,0.26,0.65,0.26,0.77,0.26c0.88,0,1.12-0.48,1.12-0.83
		c0-0.24-0.12-0.42-0.25-0.53c-0.25-0.22-0.49-0.26-0.85-0.32c-0.45-0.07-0.85-0.14-0.85-0.45c0-0.17,0.16-0.42,0.78-0.42
		c0.42,0,0.73,0.16,0.77,0.58c0.01,0.08,0.01,0.12,0.11,0.12c0.11,0,0.11-0.05,0.11-0.17V130.29"/>
	<path class="st2" d="M43.91,131.26c0.07-0.8,0.61-0.94,0.86-0.94c0.77,0,0.81,0.77,0.82,0.94H43.91 M45.84,131.44
		c0.13,0,0.18,0,0.18-0.14c0-0.46-0.26-1.17-1.25-1.17c-0.83,0-1.44,0.64-1.44,1.35c0,0.75,0.69,1.36,1.53,1.36
		c0.86,0,1.16-0.64,1.16-0.78c0-0.03-0.01-0.1-0.11-0.1c-0.08,0-0.09,0.04-0.11,0.11c-0.18,0.44-0.63,0.55-0.9,0.55
		c-0.33,0-0.61-0.15-0.78-0.36c-0.22-0.28-0.22-0.67-0.22-0.83H45.84z"/>
	<path class="st2" d="M47.65,130.45h0.98v-0.23h-0.98v-1.1h-0.22c0,0.53-0.26,1.11-0.86,1.14v0.19h0.59v1.59
		c0,0.63,0.47,0.8,0.88,0.8c0.41,0,0.71-0.33,0.71-0.81v-0.33h-0.22v0.32c0,0.42-0.22,0.61-0.44,0.61c-0.43,0-0.43-0.48-0.43-0.6
		V130.45"/>
</g>
<rect x="23.82" y="24.84" class="st1" width="40.11" height="18.61"/>
<rect x="63.93" y="24.84" class="st1" width="40.11" height="18.61"/>
<rect x="104.04" y="24.84" class="st1" width="40.11" height="18.61"/>
<rect x="144.15" y="24.84" class="st1" width="40.11" height="18.61"/>
<path class="st2" d="M1.07,71.4c0-0.55,0.29-1.09,0.82-1.1c-0.05,0.05-0.08,0.12-0.08,0.2c0,0.16,0.12,0.28,0.28,0.28
	s0.28-0.12,0.28-0.28c0-0.24-0.23-0.39-0.49-0.39c-0.36,0-0.66,0.21-0.85,0.61H1.03v-0.61l-0.9,0.07v0.23
	c0.42,0,0.47,0.04,0.47,0.33v1.51c0,0.26-0.06,0.26-0.47,0.26v0.23c0.15-0.01,0.59-0.02,0.72-0.02c0.31,0,0.72,0.02,0.8,0.02V72.5
	H1.52c-0.45,0-0.45-0.06-0.45-0.26V71.4"/>
<path class="st2" d="M4.98,70.17v0.23c0.42,0,0.47,0.04,0.47,0.33v1c0,0.54-0.38,0.87-0.83,0.87c-0.57,0-0.59-0.25-0.59-0.54v-1.95
	l-0.97,0.07v0.23c0.47,0,0.47,0.05,0.47,0.4v0.93c0,0.4,0,0.67,0.27,0.86c0.23,0.17,0.53,0.19,0.78,0.19c0.38,0,0.69-0.15,0.9-0.49
	v0.49l0.94-0.06V72.5c-0.42,0-0.47-0.04-0.47-0.33v-2.06L4.98,70.17"/>
<path class="st2" d="M10.04,70.94c0-0.58-0.33-0.83-0.94-0.83c-0.53,0-0.85,0.27-1.03,0.56v-0.56l-0.93,0.07v0.23
	c0.42,0,0.47,0.04,0.47,0.33v1.51c0,0.26-0.06,0.26-0.47,0.26v0.23c0.04-0.01,0.45-0.02,0.72-0.02c0.27,0,0.66,0.02,0.72,0.02V72.5
	c-0.41,0-0.47,0-0.47-0.26V71.2c0-0.66,0.56-0.9,0.93-0.9c0.4,0,0.5,0.25,0.5,0.62v1.33c0,0.26-0.06,0.26-0.47,0.26v0.23
	c0.04-0.01,0.45-0.02,0.71-0.02c0.27,0,0.66,0.02,0.72,0.02V72.5c-0.41,0-0.47,0-0.47-0.26V70.94"/>
<path class="st2" d="M15.42,68.95c0-0.18-0.02-0.18-0.2-0.18c-0.39,0.38-1,0.38-1.22,0.38v0.23c0.15,0,0.55,0,0.9-0.17v3.01
	c0,0.2,0,0.27-0.61,0.27h-0.26v0.23c0.33-0.02,0.79-0.02,1.13-0.02c0.33,0,0.8,0,1.13,0.02V72.5h-0.26c-0.61,0-0.61-0.08-0.61-0.27
	V68.95"/>
<path class="st2" d="M0.97,89.6c0-0.55,0.29-1.09,0.82-1.1c-0.05,0.05-0.08,0.12-0.08,0.2c0,0.16,0.12,0.28,0.28,0.28
	c0.16,0,0.28-0.12,0.28-0.28c0-0.24-0.23-0.39-0.49-0.39c-0.36,0-0.66,0.21-0.85,0.61H0.93V88.3l-0.9,0.07v0.23
	c0.42,0,0.47,0.04,0.47,0.33v1.51c0,0.26-0.06,0.26-0.47,0.26v0.23c0.15-0.01,0.59-0.02,0.72-0.02c0.31,0,0.72,0.02,0.8,0.02V90.7
	H1.43c-0.45,0-0.45-0.06-0.45-0.26V89.6"/>
<path class="st2" d="M4.88,88.37v0.23c0.42,0,0.47,0.04,0.47,0.33v1c0,0.54-0.38,0.87-0.83,0.87c-0.57,0-0.59-0.25-0.59-0.54V88.3
	l-0.97,0.07v0.23c0.47,0,0.47,0.05,0.47,0.4v0.93c0,0.4,0,0.67,0.27,0.86c0.23,0.17,0.53,0.19,0.78,0.19c0.38,0,0.69-0.15,0.9-0.49
	v0.49l0.94-0.06V90.7c-0.42,0-0.47-0.04-0.47-0.33V88.3L4.88,88.37"/>
<path class="st2" d="M9.95,89.13c0-0.58-0.33-0.83-0.94-0.83c-0.53,0-0.85,0.27-1.03,0.56V88.3l-0.92,0.07v0.23
	c0.42,0,0.47,0.04,0.47,0.33v1.51c0,0.26-0.06,0.26-0.47,0.26v0.23c0.04-0.01,0.45-0.02,0.72-0.02c0.27,0,0.66,0.02,0.72,0.02V90.7
	c-0.41,0-0.47,0-0.47-0.26v-1.05c0-0.66,0.56-0.9,0.93-0.9c0.4,0,0.5,0.25,0.5,0.62v1.33c0,0.26-0.06,0.26-0.47,0.26v0.23
	c0.04-0.01,0.45-0.02,0.71-0.02c0.27,0,0.66,0.02,0.72,0.02V90.7c-0.41,0-0.47,0-0.47-0.26V89.13"/>
<path class="st2" d="M16.39,89.82h-0.22c-0.01,0.08-0.07,0.48-0.16,0.54c-0.04,0.04-0.52,0.04-0.61,0.04h-1.11l0.76-0.62
	c0.2-0.16,0.73-0.54,0.92-0.72c0.18-0.18,0.42-0.48,0.42-0.9c0-0.75-0.67-1.18-1.47-1.18c-0.77,0-1.3,0.51-1.3,1.07
	c0,0.3,0.26,0.34,0.32,0.34c0.15,0,0.32-0.11,0.32-0.32c0-0.13-0.08-0.32-0.34-0.32c0.14-0.3,0.5-0.53,0.91-0.53
	c0.62,0,0.96,0.47,0.96,0.95c0,0.42-0.28,0.86-0.7,1.24l-1.41,1.29c-0.06,0.06-0.07,0.07-0.07,0.25h2.59L16.39,89.82"/>
<path class="st2" d="M0.95,108.59c0-0.55,0.29-1.09,0.82-1.1c-0.05,0.05-0.08,0.12-0.08,0.2c0,0.16,0.12,0.28,0.28,0.28
	c0.16,0,0.28-0.12,0.28-0.28c0-0.24-0.23-0.39-0.49-0.39c-0.36,0-0.66,0.21-0.85,0.61H0.9v-0.61L0,107.37v0.23
	c0.42,0,0.47,0.04,0.47,0.33v1.51c0,0.26-0.06,0.26-0.47,0.26v0.23c0.15-0.01,0.59-0.02,0.72-0.02c0.31,0,0.72,0.02,0.8,0.02v-0.23
	H1.4c-0.45,0-0.45-0.06-0.45-0.26V108.59"/>
<path class="st2" d="M4.85,107.37v0.23c0.42,0,0.47,0.04,0.47,0.33v1c0,0.54-0.38,0.87-0.83,0.87c-0.57,0-0.59-0.25-0.59-0.54v-1.95
	l-0.97,0.07v0.23c0.47,0,0.47,0.05,0.47,0.4v0.93c0,0.4,0,0.67,0.27,0.86c0.23,0.17,0.53,0.19,0.78,0.19c0.38,0,0.69-0.15,0.9-0.49
	v0.49l0.94-0.06v-0.23c-0.42,0-0.47-0.04-0.47-0.33v-2.06L4.85,107.37"/>
<path class="st2" d="M9.92,108.13c0-0.58-0.33-0.83-0.94-0.83c-0.53,0-0.85,0.27-1.03,0.56v-0.56l-0.92,0.07v0.23
	c0.42,0,0.47,0.04,0.47,0.33v1.51c0,0.26-0.06,0.26-0.47,0.26v0.23c0.04-0.01,0.45-0.02,0.72-0.02c0.27,0,0.66,0.02,0.72,0.02v-0.23
	c-0.41,0-0.47,0-0.47-0.26v-1.05c0-0.66,0.56-0.9,0.93-0.9c0.4,0,0.5,0.25,0.5,0.62v1.33c0,0.26-0.06,0.26-0.47,0.26v0.23
	c0.04-0.01,0.45-0.02,0.71-0.02c0.27,0,0.66,0.02,0.72,0.02v-0.23c-0.41,0-0.47,0-0.47-0.26V108.13"/>
<path class="st2" d="M14.91,107.95c0.51,0,0.85,0.34,0.85,0.95c0,0.66-0.39,0.94-0.83,0.94c-0.16,0-0.78-0.04-1.04-0.38
	c0.23-0.03,0.33-0.18,0.33-0.34c0-0.2-0.14-0.34-0.34-0.34c-0.16,0-0.34,0.1-0.34,0.35c0,0.59,0.66,0.92,1.41,0.92
	c0.88,0,1.47-0.57,1.47-1.16c0-0.43-0.33-0.89-1.04-1.07c0.47-0.15,0.85-0.54,0.85-1.03c0-0.48-0.56-0.83-1.27-0.83
	c-0.7,0-1.23,0.32-1.23,0.81c0,0.26,0.2,0.33,0.32,0.33c0.15,0,0.32-0.11,0.32-0.32c0-0.19-0.13-0.29-0.29-0.32
	c0.28-0.31,0.82-0.31,0.88-0.31c0.3,0,0.68,0.14,0.68,0.64c0,0.33-0.18,0.9-0.78,0.94c-0.11,0.01-0.27,0.02-0.32,0.02
	c-0.06,0.01-0.13,0.01-0.13,0.1c0,0.1,0.07,0.1,0.17,0.1H14.91"/>
<path class="st2" d="M0.94,127.96c0-0.55,0.29-1.09,0.82-1.1c-0.05,0.05-0.08,0.12-0.08,0.2c0,0.16,0.12,0.28,0.28,0.28
	s0.28-0.12,0.28-0.28c0-0.24-0.23-0.39-0.49-0.39c-0.36,0-0.66,0.21-0.85,0.61H0.9v-0.61L0,126.74v0.23c0.42,0,0.47,0.04,0.47,0.33
	v1.51c0,0.26-0.06,0.26-0.47,0.26v0.23c0.15-0.01,0.59-0.02,0.72-0.02c0.31,0,0.72,0.02,0.8,0.02v-0.23H1.4
	c-0.45,0-0.45-0.06-0.45-0.26V127.96"/>
<path class="st2" d="M4.85,126.74v0.23c0.42,0,0.47,0.04,0.47,0.33v1c0,0.54-0.38,0.87-0.83,0.87c-0.57,0-0.59-0.25-0.59-0.54v-1.95
	l-0.97,0.07v0.23c0.47,0,0.47,0.05,0.47,0.4v0.93c0,0.4,0,0.67,0.27,0.86c0.23,0.17,0.53,0.19,0.78,0.19c0.38,0,0.69-0.15,0.9-0.49
	v0.49l0.94-0.06v-0.23c-0.42,0-0.47-0.04-0.47-0.33v-2.06L4.85,126.74"/>
<path class="st2" d="M9.92,127.5c0-0.58-0.33-0.83-0.94-0.83c-0.53,0-0.85,0.27-1.03,0.56v-0.56l-0.92,0.07v0.23
	c0.42,0,0.47,0.04,0.47,0.33v1.51c0,0.26-0.06,0.26-0.47,0.26v0.23c0.04-0.01,0.45-0.02,0.72-0.02s0.66,0.02,0.72,0.02v-0.23
	c-0.41,0-0.47,0-0.47-0.26v-1.05c0-0.66,0.56-0.9,0.93-0.9c0.4,0,0.5,0.25,0.5,0.62v1.33c0,0.26-0.06,0.26-0.47,0.26v0.23
	c0.04-0.01,0.45-0.02,0.71-0.02c0.27,0,0.66,0.02,0.72,0.02v-0.23c-0.41,0-0.47,0-0.47-0.26V127.5"/>
<path class="st2" d="M15.32,125.93v2.16h-1.64L15.32,125.93z M16.52,128.32v-0.23h-0.7v-2.63c0-0.14,0-0.18-0.15-0.18
	c-0.11,0-0.12,0.02-0.17,0.09l-2.07,2.72v0.23h1.85v0.48c0,0.2,0,0.27-0.5,0.27h-0.17v0.23c0.12-0.01,0.68-0.02,0.94-0.02
	c0.26,0,0.82,0.02,0.94,0.02v-0.23h-0.17c-0.5,0-0.5-0.07-0.5-0.27v-0.48H16.52z"/>
<path class="st2" d="M99.58,3.37c0,0.11,0,0.13-0.1,0.25C99.2,3.98,98.81,4,98.69,4c-0.24,0-0.51-0.1-0.71-0.33
	c-0.18-0.23-0.23-0.55-0.23-0.82c0-1.08,0.8-1.16,1.01-1.16c0.2,0,0.5,0.07,0.73,0.33c0.08,0.1,0.08,0.11,0.08,0.23V3.37
	 M99.14,0.07V0.3c0.42,0,0.47,0.04,0.47,0.33v1.21c-0.26-0.23-0.55-0.33-0.88-0.33c-0.83,0-1.54,0.6-1.54,1.35
	c0,0.74,0.66,1.34,1.47,1.34c0.36,0,0.67-0.13,0.93-0.37V4.2l0.97-0.06V3.9c-0.42,0-0.47-0.04-0.47-0.33V0L99.14,0.07z"/>
<path class="st2" d="M103.21,3.29c0,0.62-0.61,0.72-0.8,0.72c-0.32,0-0.62-0.2-0.62-0.5c0-0.33,0.32-0.77,1.43-0.8V3.29 M103.7,2.36
	c0-0.55-0.57-0.88-1.23-0.88c-0.29,0-0.99,0.03-0.99,0.53c0,0.16,0.11,0.29,0.29,0.29c0.17,0,0.29-0.13,0.29-0.29
	c0-0.11-0.05-0.21-0.15-0.26c0.2-0.09,0.5-0.09,0.55-0.09c0.42,0,0.75,0.25,0.75,0.7v0.15c-0.27,0.01-0.75,0.02-1.19,0.18
	c-0.39,0.14-0.77,0.4-0.77,0.8c0,0.53,0.63,0.69,1.1,0.69c0.5,0,0.8-0.25,0.93-0.48c0.04,0.31,0.24,0.45,0.45,0.45
	c0.02,0,0.66,0,0.66-0.57V3.27h-0.22v0.32c0,0.06,0,0.33-0.23,0.33c-0.23,0-0.23-0.27-0.23-0.33V2.36z"/>
<path class="st2" d="M105.77,1.8h0.98V1.57h-0.98v-1.1h-0.22c0,0.53-0.26,1.11-0.86,1.14V1.8h0.59v1.59c0,0.63,0.47,0.8,0.88,0.8
	c0.41,0,0.71-0.33,0.71-0.81V3.06h-0.22v0.32c0,0.42-0.22,0.61-0.44,0.61c-0.43,0-0.43-0.48-0.43-0.6V1.8"/>
<path class="st2" d="M109.71,3.29c0,0.62-0.61,0.72-0.8,0.72c-0.32,0-0.62-0.2-0.62-0.5c0-0.33,0.32-0.77,1.43-0.8V3.29 M110.2,2.36
	c0-0.55-0.57-0.88-1.23-0.88c-0.29,0-0.99,0.03-0.99,0.53c0,0.16,0.11,0.29,0.29,0.29c0.17,0,0.29-0.13,0.29-0.29
	c0-0.11-0.05-0.21-0.15-0.26c0.2-0.09,0.5-0.09,0.55-0.09c0.42,0,0.75,0.25,0.75,0.7v0.15c-0.27,0.01-0.75,0.02-1.19,0.18
	c-0.39,0.14-0.77,0.4-0.77,0.8c0,0.53,0.63,0.69,1.1,0.69c0.5,0,0.8-0.25,0.93-0.48c0.04,0.31,0.24,0.45,0.45,0.45
	c0.02,0,0.66,0,0.66-0.57V3.27h-0.22v0.32c0,0.06,0,0.33-0.23,0.33c-0.23,0-0.23-0.27-0.23-0.33V2.36z"/>
<g>
	<g>
		<polyline class="st1" points="184.26,17.08 184.26,12.19 23.82,12.19 23.82,17.08 		"/>
		<g>
			<path class="st2" d="M184.26,20.1c0.53-1.42,1.43-3.18,2.38-4.27l-2.38,0.86l-2.38-0.86C182.83,16.92,183.73,18.68,184.26,20.1z"
				/>
		</g>
		<g>
			<path class="st2" d="M23.82,20.1c-0.53-1.42-1.43-3.18-2.38-4.27l2.38,0.86l2.38-0.86C25.25,16.92,24.35,18.68,23.82,20.1z"/>
		</g>
	</g>
</g>
<line class="st1" x1="104.04" y1="12.19" x2="104.04" y2="6.75"/>
</svg>
