<?xml version="1.0" encoding="utf-8"?>
<!-- Generator: Adobe Illustrator 26.0.2, SVG Export Plug-In . SVG Version: 6.00 Build 0)  -->
<svg version="1.1" id="Layer_1" xmlns="http://www.w3.org/2000/svg" xmlns:xlink="http://www.w3.org/1999/xlink" x="0px" y="0px"
	 viewBox="0 0 163.62 72.03" style="enable-background:new 0 0 163.62 72.03;" xml:space="preserve">
<style type="text/css">
	.st0{fill:#486AFB;}
	.st1{fill:#FD46FC;}
</style>
<g>
	<g>
		<path class="st0" d="M0.96,38.98c1.38-1.36,2.75-2.72,4.13-4.07c0.68-0.67,1.37-1.33,2.04-2c0.34-0.34,0.68-0.67,1.01-1.02
			c0.33-0.35,0.71-0.67,0.87-1.14c0.11-0.32-0.24-0.66-0.55-0.55C8,30.37,7.7,30.71,7.35,31.03c-0.35,0.33-0.69,0.66-1.02,1
			c-0.7,0.69-1.38,1.39-2.07,2.09c-1.36,1.37-2.73,2.74-4.09,4.1C-0.35,38.74,0.44,39.49,0.96,38.98L0.96,38.98z"/>
	</g>
</g>
<g>
	<g>
		<path class="st0" d="M1.67,31.88c0.83,1.77,1.85,3.45,3.05,5C5.89,38.4,7.27,40,8.96,40.97c0.58,0.34,1.16-0.45,0.72-0.93
			c-0.63-0.7-1.34-1.31-2-1.98c-0.66-0.67-1.3-1.36-1.9-2.09c-1.19-1.45-2.19-3.04-3.01-4.73C2.42,30.53,1.33,31.17,1.67,31.88
			L1.67,31.88z"/>
	</g>
</g>
<g>
	<g>
		<path class="st0" d="M63.61,31.78c-0.72,1.3-1.44,2.61-2.14,3.93c-0.35,0.66-0.69,1.32-1.03,1.99c-0.34,0.67-0.71,1.35-0.8,2.1
			c-0.07,0.56,0.68,0.71,1.02,0.4c0.55-0.5,0.88-1.23,1.23-1.88c0.35-0.63,0.69-1.27,1.02-1.9c0.69-1.29,1.38-2.59,2.08-3.87
			C65.49,31.63,64.1,30.89,63.61,31.78L63.61,31.78z"/>
	</g>
</g>
<g>
	<g>
		<path class="st0" d="M61.1,35c-0.57-0.99-1.15-1.97-1.72-2.96c-0.28-0.48-0.56-0.97-0.85-1.45c-0.3-0.5-0.6-1.04-1.05-1.42
			c-0.38-0.31-0.93,0-0.84,0.49c0.1,0.58,0.43,1.11,0.72,1.61c0.27,0.49,0.56,0.97,0.84,1.45c0.58,0.98,1.15,1.97,1.73,2.95
			C60.35,36.42,61.52,35.74,61.1,35L61.1,35z"/>
	</g>
</g>
<g>
	<g>
		<path class="st0" d="M14.6,32.66c8.53-3.43,18.06-4.41,27.11-2.81c2.55,0.45,4.99,1.24,7.49,1.88c0.3,0.08,0.54-0.39,0.23-0.53
			c-2.09-0.95-4.4-1.48-6.63-1.94c-2.31-0.47-4.65-0.77-6.99-0.9c-4.66-0.27-9.37,0.14-13.92,1.2c-2.58,0.6-5.09,1.45-7.53,2.47
			C13.98,32.18,14.23,32.81,14.6,32.66L14.6,32.66z"/>
	</g>
</g>
<g>
	<g>
		<path class="st0" d="M49.69,30.62c-0.14-0.38-0.28-0.76-0.42-1.15c-0.07-0.19-0.14-0.38-0.21-0.57c-0.1-0.27-0.26-0.66-0.64-0.56
			c-0.19,0.05-0.29,0.23-0.3,0.41c-0.01,0.12,0.04,0.26,0.08,0.38c0.06,0.19,0.14,0.38,0.21,0.57c0.14,0.38,0.28,0.76,0.42,1.15
			c0.08,0.22,0.3,0.38,0.54,0.31C49.57,31.09,49.78,30.85,49.69,30.62L49.69,30.62z"/>
	</g>
</g>
<g>
	<g>
		<path class="st0" d="M48.7,31.54c-0.4,0.2-0.77,0.47-1.08,0.79c-0.16,0.17-0.31,0.34-0.44,0.54c-0.06,0.09-0.11,0.18-0.16,0.28
			c-0.03,0.06-0.06,0.12-0.07,0.19c-0.01,0.07-0.02,0.14-0.03,0.21c-0.02,0.11,0.08,0.22,0.17,0.25c0.11,0.04,0.23,0.02,0.31-0.06
			c0.09-0.09,0.17-0.17,0.24-0.27c0.03-0.04-0.04,0.05,0,0c0.03-0.04,0.06-0.08,0.09-0.12c0.02-0.02,0.05-0.09,0.01-0.01
			c0.01-0.02,0.03-0.04,0.04-0.05c0.13-0.15,0.26-0.31,0.4-0.45c0.07-0.07,0.14-0.14,0.22-0.2c0.04-0.03,0.07-0.06,0.11-0.09
			c0.01-0.01,0.02-0.02,0.03-0.02c-0.05,0.03-0.06,0.04-0.03,0.02c0.02-0.01,0.04-0.03,0.05-0.04c0.17-0.12,0.34-0.22,0.52-0.32
			c0.18-0.09,0.26-0.36,0.15-0.53C49.12,31.49,48.9,31.44,48.7,31.54L48.7,31.54z"/>
	</g>
</g>
<g>
	<g>
		<path class="st1" d="M19.7,53.31c-0.46-0.7-1.06-1.45-1.98-1.34c-0.38,0.05-0.73,0.23-0.93,0.57c-0.26,0.44-0.15,1.03-0.12,1.52
			c0.07,1.13,0.21,2.26,0.42,3.37c0.1,0.55,0.22,1.1,0.37,1.64c0.14,0.5,0.27,1.2,0.66,1.56c0.16,0.15,0.47,0.08,0.52-0.15
			c0.09-0.38-0.03-0.78-0.11-1.15c-0.09-0.42-0.19-0.84-0.28-1.27c-0.19-0.87-0.34-1.75-0.47-2.63c-0.06-0.44-0.11-0.88-0.16-1.32
			c-0.03-0.28-0.19-0.94-0.02-1.18c0.15-0.21,0.48-0.17,0.68-0.07c0.33,0.17,0.55,0.52,0.75,0.82C19.3,54.1,19.97,53.72,19.7,53.31
			L19.7,53.31z"/>
	</g>
</g>
<g>
	<g>
		<path class="st1" d="M16.15,57.32c0.79,0.18,1.61,0.24,2.42,0.14c0.78-0.1,1.71-0.3,2.3-0.84c0.11-0.1,0.13-0.27,0.06-0.39
			c-0.08-0.14-0.22-0.17-0.37-0.15c-0.35,0.05-0.68,0.17-1.02,0.26c-0.34,0.08-0.68,0.14-1.03,0.17c-0.7,0.07-1.4,0.02-2.09-0.14
			C15.81,56.21,15.52,57.17,16.15,57.32L16.15,57.32z"/>
	</g>
</g>
<g>
	<g>
		<path class="st1" d="M21.81,53.87c-0.11,1.2-0.16,2.41-0.12,3.62c0.02,0.58,0.04,1.16,0.1,1.74c0.06,0.56,0.07,1.33,0.38,1.81
			c0.2,0.3,0.68,0.25,0.78-0.11c0.14-0.52-0.01-1.17-0.06-1.7c-0.05-0.6-0.11-1.2-0.13-1.81c-0.05-1.18-0.03-2.37,0.07-3.55
			C22.89,53.2,21.87,53.24,21.81,53.87L21.81,53.87z"/>
	</g>
</g>
<g>
	<g>
		<path class="st1" d="M24.49,57.57c-0.47,0.61-0.46,1.47-0.15,2.14c0.16,0.34,0.44,0.63,0.76,0.81c0.21,0.12,0.46,0.2,0.7,0.18
			c0.3-0.02,0.55-0.18,0.76-0.39c0.63-0.64,0.98-1.63,0.71-2.51c-0.25-0.82-0.95-1.47-1.81-1.55c-0.5-0.05-0.99,0.15-1.37,0.47
			c-0.39,0.33-0.67,0.9-0.52,1.4c0.13,0.44,0.76,0.42,0.89-0.01c0.01-0.03,0.02-0.06,0.03-0.09c-0.04,0.11,0.03-0.06,0.04-0.11
			c0.01-0.03,0.02-0.06,0.03-0.09c0-0.01,0.04-0.1,0.02-0.05c-0.02,0.06,0.02-0.03,0.03-0.05c0.02-0.03,0.04-0.07,0.06-0.1
			c-0.01,0.02-0.07,0.07,0,0c0.03-0.03,0.05-0.06,0.08-0.09c0.02-0.02,0.18-0.15,0.09-0.09c0.05-0.04,0.11-0.07,0.17-0.1
			c0.03-0.02,0.06-0.03,0.09-0.04c-0.02,0.01-0.09,0.03,0.01,0c0.03-0.01,0.06-0.02,0.09-0.03c0.01,0,0.15-0.02,0.06-0.01
			c0.06,0,0.13,0,0.19,0c-0.08-0.01,0,0,0.01,0c0.03,0.01,0.06,0.01,0.09,0.02c0.02,0,0.18,0.07,0.11,0.03
			c0.07,0.03,0.14,0.07,0.21,0.12c0.08,0.05,0.04,0.02,0.02,0.01c0.03,0.02,0.05,0.04,0.07,0.06c0.05,0.05,0.11,0.1,0.16,0.16
			c0.01,0.01,0.07,0.09,0.04,0.04c-0.03-0.04,0.03,0.04,0.03,0.05c0.04,0.07,0.08,0.14,0.12,0.22c0.03,0.07-0.02-0.06,0.01,0.02
			c0.01,0.03,0.02,0.06,0.03,0.09c0.02,0.07,0.04,0.15,0.05,0.23c0.01,0.06,0,0.3-0.01,0.36c-0.05,0.31-0.15,0.55-0.33,0.8
			c-0.06,0.09-0.16,0.2-0.23,0.27c0.03-0.03-0.07,0.04-0.02,0.02c0.04-0.02-0.04,0.01-0.04,0.01c-0.02,0-0.09-0.04-0.13-0.06
			c-0.03-0.01-0.05-0.03-0.07-0.04c-0.01-0.01-0.08-0.06-0.04-0.02c0.05,0.04-0.02-0.02-0.03-0.03c-0.03-0.02-0.05-0.05-0.08-0.07
			c-0.02-0.02-0.12-0.15-0.06-0.06c-0.04-0.06-0.08-0.12-0.12-0.18c-0.01-0.02-0.03-0.05-0.04-0.08c-0.01-0.01-0.05-0.12-0.03-0.06
			c0.02,0.06-0.01-0.03-0.01-0.04c-0.01-0.04-0.03-0.08-0.04-0.12c-0.02-0.06-0.03-0.13-0.04-0.19c0.01,0.08,0,0.01,0-0.01
			c0-0.04,0-0.09,0-0.13c0-0.03,0-0.06,0-0.09c0-0.01,0.02-0.15,0-0.05c0.01-0.07,0.03-0.14,0.05-0.21
			c0.01-0.03,0.02-0.05,0.03-0.08c-0.02,0.06,0,0.01,0.01-0.02c0.04-0.07,0.08-0.14,0.13-0.2c0.15-0.2,0.04-0.52-0.17-0.64
			C24.9,57.25,24.65,57.37,24.49,57.57L24.49,57.57z"/>
	</g>
</g>
<g>
	<g>
		<path class="st1" d="M27.58,57.98c-0.44,0.89-0.04,2.17,1.01,2.4c0.99,0.22,2.18-0.84,1.76-1.87c-0.08-0.21-0.25-0.35-0.49-0.32
			c-0.2,0.03-0.42,0.21-0.4,0.44c0.07,0.69,0.15,1.49,0.87,1.81c0.61,0.27,1.37,0.11,1.83-0.37c0.53-0.54,0.67-1.3,0.5-2.02
			c-0.09-0.37-0.26-0.73-0.47-1.05c-0.21-0.33-0.44-0.65-0.77-0.88c-0.23-0.15-0.54,0.11-0.47,0.36c0.15,0.53,0.54,0.96,0.7,1.49
			c0.13,0.42,0.17,0.94-0.05,1.34c-0.16,0.29-0.53,0.44-0.85,0.33c-0.12-0.04-0.24-0.17-0.3-0.34c-0.08-0.22-0.09-0.46-0.09-0.69
			c-0.3,0.04-0.59,0.08-0.89,0.12c0.06,0.2,0,0.36-0.15,0.5c-0.03,0.02-0.05,0.05-0.08,0.07c0.04-0.03-0.01,0-0.02,0.01
			c-0.03,0.02-0.06,0.04-0.09,0.05c0.05-0.02,0,0-0.02,0.01c-0.11,0.03-0.16,0.03-0.24,0.01c0.04,0.01-0.04-0.02-0.05-0.03
			c-0.03-0.02-0.06-0.03-0.08-0.05c-0.07-0.04,0.05,0.05-0.01-0.01c-0.02-0.02-0.05-0.04-0.07-0.07c-0.01-0.01-0.07-0.08-0.04-0.04
			c0.03,0.04-0.03-0.04-0.03-0.05c-0.02-0.03-0.03-0.06-0.05-0.09c0-0.01-0.04-0.1-0.03-0.05c0.02,0.05-0.01-0.05-0.02-0.06
			c-0.01-0.03-0.02-0.07-0.02-0.1c0-0.01-0.02-0.1-0.01-0.06c0,0.04,0-0.05,0-0.06c0-0.03,0-0.07,0-0.1c0.01-0.08-0.02,0.06,0-0.02
			c0.01-0.03,0.02-0.07,0.03-0.1c0-0.02,0.05-0.11,0.01-0.04c0.12-0.25,0.07-0.56-0.19-0.7C28.06,57.65,27.7,57.73,27.58,57.98
			L27.58,57.98z"/>
	</g>
</g>
<g>
	<g>
		<path class="st1" d="M39.07,57.19c-0.87,0.31-1.3,1.25-1.15,2.14c0.16,0.93,1.07,1.6,1.94,1.82c0.55,0.14,1.16,0.05,1.53-0.41
			c0.3-0.37,0.42-0.85,0.43-1.32c0.02-0.84-0.18-1.93-1.03-2.33c-0.43-0.21-0.97-0.21-1.39,0.02c-0.19,0.1-0.39,0.27-0.49,0.46
			c-0.11,0.21-0.13,0.48-0.07,0.71c0.09,0.37,0.66,0.36,0.75-0.01c0.01-0.02,0.04-0.11,0-0.02c0.01-0.02,0.03-0.07,0.04-0.08
			c-0.09,0.06-0.04,0.04-0.02,0.03c0.02-0.01,0.05-0.04,0.07-0.06c0.02-0.02,0.04-0.04,0.06-0.06c0.04-0.04,0.02,0.02-0.04,0.03
			c0.02,0,0.06-0.04,0.08-0.05c0.02-0.01,0.04-0.02,0.06-0.03c-0.08,0.03-0.1,0.04-0.06,0.03c0.06-0.01,0.11-0.04,0.17-0.05
			c0,0,0.06-0.01,0.06-0.01c-0.03,0.04-0.11,0.01-0.01,0c0.04,0,0.13,0.02,0.16,0c-0.06,0.03-0.1-0.02-0.01,0.01
			c0.02,0,0.15,0.04,0.06,0.01c-0.08-0.02,0.01,0.01,0.02,0.02c0.01,0.01,0.02,0.01,0.03,0.02c0.05,0.03,0.04,0.02-0.03-0.03
			c0.05,0.01,0.12,0.11,0.15,0.14c0.1,0.09-0.06-0.1,0.01,0.01c0.02,0.03,0.04,0.06,0.06,0.09c0.02,0.03,0.03,0.06,0.05,0.09
			c0.01,0.02,0.02,0.05,0.04,0.07c0.02,0.06,0.02,0.05-0.01-0.02c0.04,0.04,0.05,0.15,0.06,0.2c0.02,0.07,0.03,0.14,0.04,0.21
			c0,0.02,0.02,0.17,0.01,0.03c0,0.04,0.01,0.07,0.01,0.11c0.01,0.09,0.01,0.19,0,0.28c0,0.07-0.01,0.14-0.01,0.2
			c0,0.01,0,0.03,0,0.04c-0.01,0.06-0.01,0.05,0.01-0.03c0,0.02-0.01,0.06-0.01,0.08c-0.02,0.08-0.04,0.16-0.06,0.23
			c-0.01,0.02-0.02,0.05-0.03,0.07c-0.02,0.06-0.02,0.05,0.02-0.03c-0.01,0.02-0.02,0.05-0.03,0.07c-0.03,0.05-0.07,0.1-0.1,0.16
			c0.08-0.14,0.05-0.06,0-0.02c-0.01,0.01-0.04,0.03-0.05,0.05c0.02-0.02,0.05-0.04,0.07-0.06c-0.02,0.01-0.04,0.03-0.06,0.04
			c-0.1,0.06,0.16-0.03,0-0.01c-0.12,0.02-0.02,0,0,0c-0.03,0-0.07,0-0.1,0c0.07,0.01,0.06,0.01,0,0c-0.08-0.02-0.16-0.03-0.24-0.06
			c-0.04-0.01-0.08-0.03-0.12-0.04c-0.14-0.04,0.08,0.04,0,0c-0.15-0.07-0.3-0.14-0.44-0.23c-0.03-0.02-0.15-0.08-0.02-0.01
			c-0.02-0.01-0.05-0.04-0.07-0.05c-0.06-0.05-0.12-0.1-0.17-0.16c-0.02-0.03-0.05-0.05-0.07-0.08c-0.09-0.1,0.06,0.1-0.01-0.02
			c-0.04-0.07-0.09-0.15-0.13-0.22c-0.07-0.12,0.03,0.1-0.01-0.02c-0.01-0.04-0.03-0.07-0.04-0.11c-0.01-0.04-0.02-0.07-0.03-0.11
			c-0.01-0.06-0.02-0.1-0.01-0.02c-0.01-0.09,0-0.18,0-0.27c0,0.02-0.02,0.1,0,0.01c0.01-0.05,0.02-0.1,0.04-0.15
			c0.01-0.02,0.02-0.05,0.02-0.07c0.02-0.05,0.02-0.05-0.01,0.01c0.01-0.02,0.02-0.05,0.03-0.07c0.02-0.03,0.04-0.07,0.06-0.1
			c0.02-0.03,0.09-0.1,0.01-0.02c0.05-0.05,0.1-0.11,0.16-0.15c-0.1,0.08,0,0.01,0.02-0.01c0.04-0.03,0.09-0.05,0.13-0.07
			c0.21-0.09,0.28-0.38,0.2-0.57C39.53,57.25,39.28,57.11,39.07,57.19L39.07,57.19z"/>
	</g>
</g>
<g>
	<g>
		<path class="st1" d="M46.36,55.62c-0.22-0.61-0.62-1.09-1.2-1.37c-0.38-0.18-0.75,0.13-0.69,0.53c0.16,1.13,0.23,2.27,0.22,3.41
			c0,0.56-0.03,1.11-0.08,1.67c-0.05,0.57-0.14,1.15-0.09,1.72c0.03,0.32,0.52,0.53,0.68,0.17c0.48-1.08,0.47-2.41,0.48-3.57
			c0.01-1.22-0.1-2.44-0.3-3.64c-0.23,0.18-0.46,0.35-0.69,0.53c0.36,0.16,0.64,0.43,0.78,0.81C45.66,56.42,46.56,56.17,46.36,55.62
			L46.36,55.62z"/>
	</g>
</g>
<g>
	<g>
		<path class="st1" d="M44.04,58.51c0.64,0.04,1.29-0.01,1.92-0.14c0.3-0.06,0.6-0.14,0.89-0.24c0.34-0.12,0.72-0.23,0.95-0.53
			c0.09-0.12,0.07-0.3,0-0.42c-0.08-0.14-0.22-0.19-0.37-0.21c-0.16-0.02-0.32,0.05-0.47,0.1c-0.14,0.05-0.27,0.09-0.41,0.13
			c-0.28,0.08-0.56,0.14-0.84,0.19c-0.23,0.04-0.52,0.06-0.79,0.07c-0.29,0.01-0.58,0-0.86-0.02c-0.28-0.02-0.56,0.27-0.56,0.54
			C43.51,58.28,43.74,58.49,44.04,58.51L44.04,58.51z"/>
	</g>
</g>
<g>
	<g>
		<path class="st1" d="M12.17,67.74c-0.03,0.38-0.07,0.76-0.1,1.15c-0.03,0.4-0.09,0.82,0.03,1.2c0.05,0.15,0.17,0.26,0.33,0.28
			c0.15,0.02,0.33-0.06,0.4-0.2c0.2-0.4,0.22-0.84,0.26-1.28c0.04-0.39,0.07-0.78,0.11-1.17c0.02-0.27-0.25-0.52-0.51-0.51
			C12.4,67.24,12.19,67.45,12.17,67.74L12.17,67.74z"/>
	</g>
</g>
<g>
	<g>
		<path class="st1" d="M12.8,66.26c0.07-0.02,0.14-0.05,0.21-0.09c0.1-0.07,0.16-0.13,0.23-0.22c0.04-0.06,0.07-0.12,0.09-0.19
			c0.02-0.04,0.03-0.08,0.03-0.11c0.03-0.15,0.03-0.29,0-0.43c-0.03-0.14-0.1-0.26-0.2-0.38c-0.15-0.18-0.44-0.27-0.64-0.12
			c-0.07,0.05-0.14,0.12-0.16,0.21c-0.02,0.09-0.01,0.17,0.03,0.26c0,0.01,0.01,0.01,0.01,0.02c-0.01-0.03-0.02-0.06-0.04-0.09
			c0.01,0.04,0.03,0.08,0.05,0.11c0.04,0.07,0.1,0.11,0.16,0.15c-0.03-0.02-0.05-0.04-0.08-0.06c0.04,0.03,0.07,0.06,0.1,0.1
			c-0.02-0.03-0.04-0.06-0.06-0.08c0.02,0.03,0.04,0.06,0.06,0.1c-0.01-0.03-0.03-0.07-0.04-0.1c0.02,0.05,0.03,0.1,0.04,0.15
			c0-0.03-0.01-0.07-0.01-0.1c0,0.05,0,0.1,0,0.14c0.01-0.03,0.01-0.07,0.02-0.1c-0.01,0.04-0.02,0.09-0.04,0.13
			c0.01-0.03,0.03-0.06,0.04-0.1c-0.02,0.03-0.03,0.07-0.06,0.1c0.02-0.03,0.04-0.06,0.07-0.09c-0.02,0.02-0.04,0.04-0.06,0.06
			c0.03-0.02,0.06-0.05,0.09-0.07c-0.02,0.02-0.05,0.03-0.08,0.04c0.04-0.01,0.07-0.03,0.11-0.04c-0.02,0.01-0.03,0.01-0.05,0.02
			c-0.11,0.03-0.21,0.11-0.26,0.2c-0.05,0.09-0.08,0.21-0.05,0.31c0.03,0.1,0.1,0.2,0.2,0.25C12.58,66.27,12.7,66.29,12.8,66.26
			L12.8,66.26z"/>
	</g>
</g>
<g>
	<g>
		<path class="st1" d="M14.56,69.77c-0.01-0.26-0.02-0.53-0.01-0.79c0-0.07,0.01-0.13,0.01-0.2c0-0.03,0.01-0.06,0.01-0.09
			c0.01-0.08-0.02,0.1,0.01-0.04c0.03-0.13,0.06-0.25,0.1-0.38c0.01-0.03,0.02-0.05,0.03-0.08c-0.03,0.06,0.01-0.01,0.02-0.03
			c0.02-0.05,0.05-0.09,0.08-0.14c0.01-0.02,0.03-0.04,0.04-0.06c-0.01,0.01-0.06,0.07-0.01,0.01c0.04-0.04,0.08-0.09,0.13-0.12
			c0.02-0.01,0.04-0.03,0.05-0.05c-0.09,0.05-0.03,0.02-0.01,0.01c0.05-0.03,0.09-0.06,0.13-0.08c0.02-0.01,0.06-0.04,0.08-0.04
			c-0.01,0-0.11,0.04-0.02,0.01c0.05-0.02,0.11-0.03,0.16-0.05c0.09-0.02-0.02,0-0.02,0c0.01-0.01,0.05,0,0.07,0
			c0.03,0,0.06,0,0.08,0c0.02,0,0.08,0.02,0.02,0c-0.08-0.03,0.09,0.04,0.1,0.03c-0.01,0.01-0.1-0.05-0.02-0.01
			c0.03,0.01,0.05,0.03,0.08,0.04c0.02,0.01,0.03,0.02,0.05,0.03c0.07,0.04-0.03-0.01-0.03-0.02c0.01,0.02,0.08,0.07,0.09,0.09
			c0.02,0.02,0.03,0.04,0.05,0.05c-0.01-0.01-0.07-0.1-0.03-0.03c0.02,0.04,0.05,0.08,0.07,0.12c0.01,0.01,0.01,0.04,0.02,0.05
			c-0.05-0.07-0.03-0.09-0.02-0.04c0.01,0.04,0.03,0.08,0.04,0.13c0.01,0.04,0.02,0.09,0.03,0.13c0.01,0.07-0.02-0.01,0-0.04
			c-0.01,0.02,0.01,0.08,0.01,0.09c0,0.09,0,0.18,0,0.27c0,0.05-0.01,0.1-0.01,0.15c0,0.02,0,0.04-0.01,0.07c0,0.01,0,0.02,0,0.03
			c-0.01,0.06-0.01,0.04,0.01-0.03c-0.01,0.01-0.02,0.11-0.02,0.13c-0.01,0.04-0.02,0.09-0.03,0.13c-0.03,0.13-0.06,0.27-0.06,0.41
			c0.01,0.21,0.07,0.4,0.26,0.51c0.25,0.16,0.55-0.03,0.69-0.24c0.14-0.23,0.17-0.5,0.2-0.76c0.02-0.2,0.03-0.39,0.01-0.59
			c-0.04-0.45-0.16-0.89-0.48-1.23c-0.35-0.37-0.91-0.49-1.39-0.35c-0.54,0.16-0.99,0.58-1.22,1.09c-0.26,0.6-0.27,1.25-0.24,1.9
			c0.01,0.23,0.19,0.45,0.44,0.44C14.33,70.2,14.58,70.02,14.56,69.77L14.56,69.77z"/>
	</g>
</g>
<g>
	<g>
		<path class="st1" d="M21.13,65.13c-0.21-0.23-0.42-0.45-0.63-0.68c-0.31-0.33-0.84-0.04-0.86,0.36c-0.07,1.04-0.18,2.08-0.27,3.12
			c-0.04,0.52-0.08,1.04-0.12,1.56c-0.04,0.49-0.09,1.06,0.06,1.54c0.1,0.31,0.59,0.42,0.75,0.09c0.22-0.46,0.26-1.01,0.3-1.52
			c0.04-0.54,0.08-1.08,0.11-1.62c0.07-1.06,0.11-2.12,0.19-3.17c-0.29,0.12-0.57,0.24-0.86,0.36c0.21,0.23,0.42,0.45,0.62,0.68
			C20.84,66.32,21.57,65.6,21.13,65.13L21.13,65.13z"/>
	</g>
</g>
<g>
	<g>
		<path class="st1" d="M19.07,67.94c0.98-0.13,1.99-0.23,2.92-0.58c0.42-0.15,0.37-0.72-0.09-0.76c-0.94-0.09-1.88,0.06-2.81,0.19
			c-0.3,0.04-0.6,0.24-0.6,0.58C18.5,67.65,18.75,67.98,19.07,67.94L19.07,67.94z"/>
	</g>
</g>
<g>
	<g>
		<path class="st1" d="M22.77,67.77c-0.04,0.69-0.03,1.43,0.29,2.07c0.35,0.71,1.13,1.1,1.9,0.94c0.72-0.15,1.31-0.84,1.44-1.55
			c0.14-0.78-0.19-1.51-0.82-1.97c-0.3-0.22-0.66-0.36-1.02-0.43c-0.2-0.04-0.4-0.06-0.6-0.05c-0.22,0.01-0.47,0.03-0.66,0.17
			c-0.15,0.11-0.27,0.29-0.21,0.49c0.06,0.2,0.22,0.29,0.42,0.32c-0.14-0.01,0.06,0.01,0.11,0.01c0.05,0,0.12-0.02,0.18-0.02
			c0.03,0,0.11-0.01,0.01,0c0.03,0,0.06-0.01,0.09-0.01c0.07,0,0.14-0.01,0.2,0c0.02,0,0.05,0,0.07,0c0.02,0,0.05,0,0.07,0.01
			c-0.05-0.01-0.06-0.01-0.03,0c0.13,0.03,0.25,0.05,0.38,0.09c0.08,0.03,0.01,0-0.01,0c0.03,0.01,0.07,0.03,0.1,0.05
			c0.07,0.03,0.13,0.07,0.19,0.11c0.02,0.01,0.04,0.03,0.06,0.04c0.1,0.06-0.07-0.07,0.02,0.01c0.05,0.04,0.09,0.08,0.14,0.12
			c0.04,0.04,0.09,0.08,0.12,0.13c0.01,0.01,0.07,0.1,0.03,0.03c-0.04-0.07,0.03,0.05,0.04,0.07c0.03,0.05,0.06,0.1,0.09,0.16
			c0.06,0.11-0.03-0.1,0.01,0.01c0.01,0.02,0.02,0.05,0.02,0.07c0.02,0.06,0.03,0.12,0.04,0.18c-0.02-0.12,0-0.01,0,0.02
			c0,0.04,0,0.07-0.01,0.11c0.01-0.13-0.01,0.04-0.02,0.08c-0.01,0.03-0.02,0.07-0.03,0.1c-0.03,0.1,0.01-0.02,0.01-0.02
			c0,0.04-0.07,0.14-0.09,0.17c-0.02,0.03-0.03,0.05-0.05,0.08c-0.06,0.1,0.07-0.08,0,0c-0.04,0.05-0.09,0.1-0.14,0.14
			c-0.02,0.02-0.05,0.04-0.07,0.06c-0.09,0.08,0.09-0.05,0.02-0.02c-0.06,0.03-0.11,0.07-0.17,0.1c-0.02,0.01-0.04,0.02-0.06,0.03
			c-0.02,0.01-0.04,0.02-0.06,0.03c-0.06,0.03-0.04,0.02,0.05-0.02c-0.05,0.01-0.11,0.04-0.16,0.05c-0.01,0-0.06,0.01-0.07,0.01
			c0.03,0,0.05-0.01,0.08-0.01c-0.02,0-0.05,0-0.07,0.01c-0.02,0-0.05,0-0.07,0c-0.13,0,0-0.02,0.01,0c0,0-0.06-0.01-0.07-0.01
			c-0.02-0.01-0.05-0.01-0.07-0.02c0.08,0.03,0.09,0.03,0.03,0.01c-0.05-0.03-0.11-0.06-0.16-0.09c-0.1-0.06,0.06,0.07,0.01,0.01
			c-0.02-0.02-0.05-0.04-0.07-0.06c-0.03-0.03-0.08-0.11-0.12-0.13c0.02,0.02,0.03,0.04,0.05,0.06c-0.01-0.02-0.03-0.04-0.04-0.06
			c-0.02-0.03-0.04-0.06-0.05-0.09c-0.01-0.03-0.03-0.05-0.04-0.08c-0.01-0.02-0.02-0.03-0.02-0.05c-0.02-0.06-0.02-0.04,0.01,0.04
			c0,0-0.07-0.2-0.07-0.21c-0.04-0.15-0.08-0.3-0.1-0.45c0-0.03-0.01-0.05-0.01-0.08c-0.01-0.06-0.01-0.05,0,0.02
			c0-0.03-0.01-0.05-0.01-0.08c-0.01-0.08-0.01-0.16-0.02-0.23c-0.01-0.15-0.01-0.31-0.01-0.46c0-0.27-0.23-0.52-0.51-0.51
			C23.01,67.27,22.79,67.48,22.77,67.77L22.77,67.77z"/>
	</g>
</g>
<g>
	<g>
		<path class="st1" d="M28.21,69.31c-0.02-0.02-0.14-0.14-0.04-0.04c-0.03-0.03-0.06-0.08-0.08-0.12c-0.03-0.04-0.05-0.09-0.07-0.13
			C28,69,27.99,68.97,27.98,68.95c-0.02-0.05-0.02-0.05,0.01,0.02c-0.05-0.06-0.07-0.21-0.08-0.29c-0.01-0.03-0.02-0.08-0.02-0.11
			c-0.01,0.13,0-0.03,0-0.06c0-0.09-0.01-0.21,0.01-0.3c-0.04,0.13,0.01-0.03,0.01-0.05c0.01-0.05,0.03-0.1,0.04-0.14
			c0.01-0.03,0.02-0.08,0.04-0.1c-0.08,0.11,0.01-0.02,0.03-0.05c0.02-0.04,0.05-0.09,0.08-0.13c0.01-0.02,0.03-0.04,0.04-0.06
			c0.03-0.05,0.03-0.04-0.01,0.02c0.02-0.07,0.15-0.16,0.2-0.21c0.02-0.02,0.04-0.03,0.05-0.05c-0.05,0.04-0.07,0.05-0.03,0.03
			c0.03-0.02,0.07-0.05,0.11-0.07c0.04-0.03,0.08-0.05,0.13-0.07c0.02-0.01,0.17-0.07,0.05-0.03c0.09-0.03,0.18-0.06,0.28-0.09
			c0.02,0,0.17-0.03,0.07-0.02c0.04,0,0.07-0.01,0.11-0.01c0.1-0.01,0.19,0,0.29,0c0.05,0,0.05,0,0,0c0.02,0,0.05,0.01,0.07,0.01
			c0.05,0.01,0.09,0.02,0.14,0.03c0.09,0.02,0.18,0.05,0.27,0.08c0.31,0.11,0.59-0.35,0.34-0.57c-0.63-0.53-1.57-0.51-2.28-0.14
			c-0.77,0.41-1.14,1.29-1.05,2.13c0.06,0.49,0.26,0.94,0.6,1.3c0.19,0.2,0.55,0.18,0.73-0.02C28.4,69.82,28.41,69.52,28.21,69.31
			L28.21,69.31z"/>
	</g>
</g>
<g>
	<g>
		<path class="st1" d="M31.26,69.52c-0.15-1.01,0.25-2.05,0.99-2.73c-0.18-0.02-0.35-0.04-0.53-0.06c0.36,0.82,0.51,1.78,0.44,2.67
			c-0.04,0.48,0.75,0.56,0.84,0.1c0.08-0.41,0-0.84-0.02-1.25c-0.02-0.31-0.01-0.64,0.2-0.89c0.42-0.52,0.99,0.16,1.2,0.54
			c0.14,0.26,0.22,0.55,0.23,0.85c0.01,0.27-0.08,0.51-0.13,0.77c-0.05,0.28-0.09,0.59,0,0.86c0.12,0.37,0.49,0.63,0.88,0.47
			c0.17-0.07,0.31-0.18,0.34-0.38c0.02-0.17-0.05-0.36-0.22-0.45c-0.01-0.01-0.07-0.04-0.01,0c0.08,0.06-0.09-0.07-0.08-0.06
			c-0.07-0.04,0.03,0.03,0.05,0.06c-0.05-0.06,0,0.06-0.02-0.03c-0.01-0.03-0.03-0.13-0.03-0.12c-0.02-0.21,0.04-0.42,0.07-0.65
			c0.06-0.56-0.07-1.15-0.33-1.64c-0.28-0.5-0.77-1.02-1.36-1.11c-0.56-0.09-1.04,0.28-1.3,0.76c-0.16,0.31-0.23,0.64-0.26,0.98
			c-0.03,0.39-0.03,0.79-0.04,1.19c0.29,0,0.57-0.01,0.86-0.01c-0.07-1.06-0.29-2.02-0.71-3c-0.09-0.21-0.39-0.19-0.53-0.06
			c-0.94,0.85-1.37,2.13-1.2,3.38c0.03,0.19,0.26,0.29,0.43,0.24C31.2,69.89,31.29,69.71,31.26,69.52L31.26,69.52z"/>
	</g>
</g>
<g>
	<g>
		<path class="st1" d="M38.32,67.45c-0.09-0.58-0.81-0.8-1.3-0.59c-0.56,0.24-0.9,0.9-1.14,1.42c-0.27,0.61-0.33,1.3,0.11,1.84
			c0.41,0.51,1.14,0.54,1.67,0.18c0.32-0.22,0.54-0.52,0.67-0.89c0.12-0.33,0.09-0.67,0.15-1.01c0.04-0.23-0.06-0.46-0.3-0.52
			c-0.22-0.06-0.49,0.08-0.54,0.31c-0.19,0.77,0.1,1.54,0.65,2.09c0.56,0.56,1.46,0.83,2.19,0.43c0.37-0.2,0.21-0.75-0.2-0.76
			c-0.07,0-0.14-0.01-0.22-0.02c-0.04,0-0.07,0-0.11,0c0.03,0.01,0.02,0.01-0.01,0c-0.06-0.01-0.12-0.02-0.18-0.04
			c-0.04-0.01-0.07-0.02-0.1-0.03c0.04,0.02,0.03,0.01-0.03-0.01c-0.13-0.05-0.17-0.07-0.11-0.05c0.03,0.01,0.02,0.01-0.04-0.02
			c-0.07-0.03-0.13-0.07-0.19-0.1c-0.13-0.08-0.17-0.1-0.26-0.17c-0.37-0.32-0.57-0.71-0.53-1.22c-0.29,0-0.58,0.01-0.88,0.01
			c-0.01,0.24-0.08,0.49-0.16,0.72c-0.06,0.17-0.17,0.33-0.27,0.41c-0.1,0.07-0.12,0.08-0.22,0.1c0.05-0.01-0.09,0-0.09,0
			c0.06,0-0.08-0.03-0.02-0.01c-0.06-0.02-0.02-0.01-0.05-0.03c-0.02-0.01-0.09-0.08-0.05-0.04c-0.08-0.1-0.09-0.13-0.11-0.23
			c-0.1-0.4,0.19-0.89,0.39-1.25c0.05-0.1,0.11-0.19,0.19-0.27c0.02-0.03,0.05-0.05,0.07-0.07c0.02-0.01,0.12-0.05,0.06-0.04
			c0.04-0.01,0.09-0.01,0.11,0c0.05,0.02,0.03,0,0.06,0.04c-0.02-0.02-0.03-0.07-0.01,0.02c0.04,0.21,0.29,0.33,0.49,0.28
			C38.25,67.87,38.35,67.66,38.32,67.45L38.32,67.45z"/>
	</g>
</g>
<g>
	<g>
		<path class="st1" d="M41,65.27c0.15,0.97,0.25,1.94,0.3,2.91c0.03,0.5,0.05,0.99,0.08,1.49c0.03,0.47-0.01,1.04,0.2,1.48
			c0.15,0.3,0.61,0.26,0.77-0.01c0.25-0.45,0.23-1.08,0.24-1.59c0.01-0.49,0-0.99-0.03-1.49c-0.07-1.04-0.19-2.08-0.37-3.11
			c-0.06-0.33-0.45-0.5-0.75-0.42C41.1,64.62,40.94,64.94,41,65.27L41,65.27z"/>
	</g>
</g>
<g>
	<g>
		<path class="st1" d="M40.51,67.5c0.55,0.11,1.11,0.16,1.67,0.15c0.29-0.01,0.58-0.03,0.86-0.09c0.28-0.05,0.56-0.11,0.8-0.25
			c0.14-0.08,0.22-0.26,0.18-0.42c-0.04-0.17-0.19-0.26-0.36-0.27c-0.24-0.02-0.49,0.03-0.73,0.04c-0.25,0.01-0.49,0.02-0.74,0.02
			c-0.49-0.01-0.9-0.07-1.39-0.2c-0.27-0.07-0.6,0.1-0.66,0.38C40.08,67.13,40.22,67.44,40.51,67.5L40.51,67.5z"/>
	</g>
</g>
<g>
	<g>
		<path class="st1" d="M44.84,67.93c0.19,0.52,0.32,1.08,0.4,1.63c0.04,0.28,0.07,0.5,0.09,0.72c0.02,0.28,0.02,0.57,0.04,0.85
			c0.01,0.17,0.11,0.32,0.28,0.36c0.16,0.04,0.36-0.03,0.43-0.18c0.28-0.56,0.41-1.24,0.42-1.86c0.01-0.64-0.11-1.27-0.32-1.88
			c-0.12-0.34-0.46-0.59-0.83-0.47C45.03,67.19,44.71,67.57,44.84,67.93L44.84,67.93z"/>
	</g>
</g>
<g>
	<g>
		<path class="st1" d="M45.63,64.98c0.01-0.01,0.02-0.02,0.03-0.02c0.33-0.28-0.02-0.73-0.38-0.66c-0.18,0.03-0.28,0.16-0.34,0.32
			c-0.1,0.25,0.14,0.46,0.37,0.48c0.1,0.01,0.18-0.03,0.27-0.07c-0.18-0.18-0.37-0.36-0.55-0.54c-0.01,0.01-0.01,0.02-0.02,0.03
			C44.7,64.91,45.31,65.25,45.63,64.98L45.63,64.98z"/>
	</g>
</g>
<g>
	<g>
		<path class="st1" d="M48.68,67.15c-0.39,0.25-0.77,0.53-1.05,0.9c-0.28,0.37-0.37,0.83-0.29,1.28c0.16,0.83,1.01,1.54,1.86,1.48
			c0.83-0.06,1.51-0.7,1.7-1.5c0.18-0.75-0.05-1.59-0.68-2.07c-0.38-0.29-0.82-0.44-1.3-0.47c-0.46-0.03-1.06,0.11-1.31,0.54
			c-0.15,0.25,0.04,0.55,0.32,0.55c0.09,0,0.18-0.01,0.27-0.03c0.03-0.01,0.07-0.01,0.1-0.02c0.12-0.02-0.1,0,0.02,0
			c0.07,0,0.13-0.01,0.2-0.03c0.01,0,0.02,0,0.04-0.01c0.05-0.01,0.05-0.01-0.02,0c0.05-0.03,0.16-0.01,0.21-0.02
			c0.07,0,0.14,0,0.21,0.01c0.12,0.01-0.1-0.02,0.01,0c0.04,0.01,0.07,0.01,0.11,0.02c0.06,0.01,0.12,0.03,0.17,0.05
			c0.03,0.01,0.07,0.02,0.1,0.03c-0.12-0.06,0.02,0.01,0.04,0.02c0.06,0.03,0.13,0.06,0.18,0.1c0.03,0.02,0.12,0.05,0.01,0.01
			c0.03,0.01,0.06,0.05,0.08,0.07c0.04,0.04,0.09,0.08,0.12,0.12c0.01,0.01,0.02,0.02,0.02,0.03c0.03,0.04,0.03,0.04-0.01-0.02
			c0.03,0.02,0.06,0.09,0.08,0.12c0.02,0.03,0.03,0.06,0.05,0.09c0,0.01,0.01,0.02,0.01,0.03c0.02,0.05,0.02,0.04-0.01-0.02
			c0.03,0.02,0.04,0.13,0.05,0.16c0,0.01,0,0.02,0.01,0.03c0.01,0.05,0.01,0.04,0-0.02c0.01,0.02,0,0.08,0.01,0.1
			c0,0.06,0.02,0.18-0.01,0.23c0-0.02,0.01-0.04,0.01-0.06c0,0.02-0.01,0.04-0.01,0.07c-0.01,0.03-0.01,0.05-0.02,0.08
			c-0.02,0.06-0.04,0.12-0.06,0.18c-0.04,0.11,0.05-0.1,0,0c-0.02,0.03-0.03,0.06-0.05,0.09c-0.02,0.05-0.12,0.15-0.13,0.19
			c0-0.06,0.07-0.08,0.01-0.02c-0.02,0.02-0.04,0.04-0.06,0.06c-0.02,0.02-0.05,0.05-0.07,0.07c-0.01,0.01-0.02,0.01-0.02,0.02
			c-0.05,0.04-0.03,0.03,0.04-0.03c-0.05,0.02-0.11,0.08-0.17,0.1c-0.01,0-0.02,0.01-0.03,0.01c-0.05,0.02-0.04,0.02,0.04-0.02
			c-0.03,0-0.07,0.02-0.09,0.03c-0.03,0.01-0.06,0.02-0.1,0.02c-0.12,0.03,0.12,0,0,0c-0.04,0-0.07,0-0.11,0c-0.13,0,0-0.01,0,0
			c0,0-0.19-0.04-0.21-0.05c-0.1-0.03,0.04,0.01,0.03,0.02c-0.01,0.01-0.12-0.05-0.13-0.06c-0.03-0.02-0.06-0.03-0.09-0.05
			c-0.01-0.01-0.02-0.01-0.03-0.02c-0.05-0.03-0.04-0.03,0.03,0.02c-0.01,0.01-0.15-0.13-0.16-0.14c-0.01-0.01-0.11-0.14-0.12-0.13
			c0.02-0.01,0.08,0.11,0,0c-0.03-0.04-0.05-0.08-0.07-0.12c0-0.01-0.04-0.09-0.05-0.09c0.03,0.08,0.04,0.09,0.02,0.03
			c-0.01-0.02-0.01-0.04-0.02-0.07c-0.01-0.03-0.01-0.07-0.02-0.1c-0.02-0.1,0,0.1,0,0c0-0.03,0-0.07,0-0.1c0-0.02,0-0.05,0.01-0.07
			c-0.01,0.07-0.01,0.08,0,0.02c0.01-0.04,0.02-0.07,0.03-0.11c0.02-0.05,0.02-0.05,0,0c0.01-0.03,0.02-0.05,0.04-0.07
			c0.02-0.04,0.04-0.07,0.07-0.11c0.02-0.02,0.03-0.05,0.05-0.07c-0.03,0.04-0.04,0.05-0.01,0.02c0.06-0.07,0.13-0.13,0.19-0.2
			c0.03-0.03,0.07-0.06,0.1-0.08c0.02-0.02,0.04-0.04,0.07-0.05c-0.05,0.04-0.05,0.04,0,0c0.08-0.06,0.16-0.12,0.25-0.17
			c0.2-0.14,0.33-0.41,0.18-0.64C49.2,67.1,48.9,67.01,48.68,67.15L48.68,67.15z"/>
	</g>
</g>
<g>
	<g>
		<path class="st1" d="M52.36,70.24c-0.08-0.7,0.02-1.45,0.29-2.1c0.11-0.26,0.27-0.65,0.52-0.81c0.19-0.12,0.36-0.07,0.53,0.06
			c0.52,0.38,0.68,1.07,0.79,1.68c0.13,0.78,0.04,1.57,0.13,2.34c0.05,0.41,0.67,0.41,0.84,0.1c0.39-0.72,0.37-1.6,0.23-2.39
			c-0.12-0.7-0.35-1.42-0.8-1.99c-0.41-0.53-1.05-0.95-1.74-0.79c-0.74,0.17-1.11,0.94-1.35,1.59c-0.29,0.77-0.42,1.6-0.34,2.43
			C51.52,71.02,52.43,70.89,52.36,70.24L52.36,70.24z"/>
	</g>
</g>
<g>
	<g>
		<path class="st0" d="M6.19,0.74C5.98,2.39,5.87,4.05,5.87,5.71c0,0.81,0.03,1.63,0.09,2.44C6,8.91,5.99,9.83,6.37,10.51
			c0.18,0.31,0.66,0.22,0.76-0.11c0.21-0.74,0.02-1.6-0.03-2.35C7.05,7.24,7.02,6.42,7.01,5.61C6.99,3.98,7.06,2.35,7.23,0.73
			C7.3,0.06,6.27,0.11,6.19,0.74L6.19,0.74z"/>
	</g>
</g>
<g>
	<g>
		<path class="st0" d="M6.41,1.56C7.33,0.7,8.76,0.51,9.89,1.05c1.36,0.65,1.88,2.21,1.83,3.63c-0.03,0.87-0.27,1.72-0.55,2.54
			c-0.22,0.65-0.47,1.33-0.92,1.86C9.76,9.65,9.13,9.8,8.41,9.77C7.66,9.75,6.78,9.52,6.09,9.89c-0.37,0.2-0.31,0.79,0.11,0.89
			c0.34,0.08,0.69,0.06,1.04,0.07c0.38,0.02,0.77,0.06,1.15,0.07c0.71,0.02,1.42-0.09,2.01-0.51c1.13-0.81,1.57-2.33,1.91-3.62
			c0.37-1.43,0.5-2.97-0.07-4.36c-0.48-1.18-1.45-2.08-2.71-2.35C8.24-0.18,6.86,0.16,5.91,1.08C5.58,1.4,6.08,1.87,6.41,1.56
			L6.41,1.56z"/>
	</g>
</g>
<g>
	<g>
		<path class="st0" d="M12.8,9.89c0.71,0.17,1.45,0.35,2.18,0.24c0.58-0.09,1.15-0.37,1.52-0.83c0.34-0.42,0.53-1,0.35-1.53
			c-0.15-0.45-0.5-0.77-0.92-0.96c-0.44-0.19-0.93-0.27-1.4-0.14C14,6.82,13.58,7.2,13.28,7.64c-0.62,0.93-0.75,2.37-0.15,3.34
			c0.87,1.41,2.73,0.97,3.9,0.24c0.42-0.26,0.18-0.98-0.33-0.81c-0.47,0.15-0.94,0.34-1.43,0.42c-0.38,0.06-0.74,0.03-1.08-0.2
			c-0.13-0.09-0.25-0.24-0.35-0.4c-0.11-0.19-0.17-0.4-0.21-0.63c-0.07-0.4-0.04-0.82,0.08-1.21c0.22-0.72,0.83-1.33,1.63-1.2
			c0.74,0.12,1.22,0.85,0.79,1.53c-0.67,1.04-2.15,0.69-3.13,0.45C12.54,9.05,12.32,9.78,12.8,9.89L12.8,9.89z"/>
	</g>
</g>
<g>
	<g>
		<path class="st0" d="M18.16,8.81c0.02,1.37,0.01,2.74,0,4.12c-0.01,1.35-0.1,2.75,0.2,4.07c0.11,0.48,0.79,0.42,0.93-0.01
			c0.41-1.31,0.39-2.72,0.4-4.08c0.01-1.37-0.03-2.74-0.08-4.11C19.57,7.87,18.14,7.9,18.16,8.81L18.16,8.81z"/>
	</g>
</g>
<g>
	<g>
		<path class="st0" d="M19.01,8.51c0.48-0.47,0.97-0.97,1.62-1.2c0.47-0.17,1.08-0.19,1.5,0.12c0.44,0.32,0.46,0.92,0.27,1.4
			c-0.22,0.56-0.75,0.96-1.23,1.27c-0.3,0.2-0.65,0.48-1.02,0.51c-0.15,0.01-0.47-0.08-0.48-0.3c-0.02-0.42-0.58-0.47-0.71-0.08
			c-0.16,0.46,0.08,0.91,0.46,1.16c0.45,0.31,1.01,0.23,1.48,0.02c0.43-0.19,0.81-0.48,1.18-0.76c0.36-0.28,0.67-0.6,0.93-0.97
			c0.47-0.71,0.62-1.73,0.13-2.47c-0.48-0.71-1.35-0.93-2.16-0.78c-0.98,0.18-1.73,0.97-2.4,1.65C18.25,8.37,18.71,8.8,19.01,8.51
			L19.01,8.51z"/>
	</g>
</g>
<g>
	<g>
		<path class="st0" d="M24.78,9.79c0.67,0.1,1.36,0.2,2.03,0.02c0.52-0.14,0.98-0.45,1.28-0.89c0.63-0.93,0.05-2.12-0.95-2.45
			c-1.04-0.35-2.11,0.38-2.46,1.35c-0.37,1.04,0.09,2.29,0.92,2.97c0.46,0.38,1.01,0.63,1.6,0.72c0.65,0.1,1.26,0.02,1.86-0.27
			c0.21-0.1,0.3-0.39,0.21-0.59c-0.1-0.22-0.32-0.32-0.56-0.27c-0.68,0.15-1.4,0.08-1.99-0.21c-0.61-0.3-1.17-0.86-1.26-1.62
			c-0.07-0.65,0.38-1.38,1.06-1.46c0.62-0.07,1.25,0.63,0.93,1.22c-0.44,0.8-1.61,0.64-2.4,0.52c-0.27-0.04-0.54,0.08-0.62,0.36
			C24.37,9.43,24.52,9.75,24.78,9.79L24.78,9.79z"/>
	</g>
</g>
<g>
	<g>
		<path class="st0" d="M30.42,10.94c-0.09-0.72-0.09-1.46-0.02-2.18c0.03-0.33,0.07-0.67,0.15-1c0.06-0.22,0.14-0.45,0.36-0.55
			c0.42-0.19,0.9,0.06,1.16,0.4c0.37,0.48,0.49,1.15,0.58,1.73c0.06,0.4,0.08,0.79,0.1,1.19c0.02,0.43-0.03,0.92,0.18,1.31
			c0.13,0.24,0.54,0.31,0.73,0.08c0.31-0.39,0.34-0.88,0.33-1.36c-0.01-0.47-0.09-0.94-0.2-1.4c-0.19-0.77-0.47-1.59-1.02-2.18
			c-0.47-0.51-1.2-0.77-1.88-0.59c-0.8,0.21-1.07,0.93-1.2,1.67c-0.19,0.99-0.24,2-0.16,3C29.58,11.71,30.5,11.57,30.42,10.94
			L30.42,10.94z"/>
	</g>
</g>
<g>
	<g>
		<path class="st0" d="M35.69,7.78c-0.63,0.78-1.09,1.86-0.72,2.86c0.3,0.84,1.18,1.46,2.09,1.35c0.97-0.12,1.49-1,1.56-1.9
			c0.07-0.93-0.27-1.88-0.68-2.7c-0.25-0.5-0.56-0.96-0.91-1.39c-0.34-0.42-0.79-0.98-1.34-1.11c-0.35-0.08-0.62,0.28-0.46,0.59
			c0.21,0.42,0.67,0.72,0.98,1.07c0.31,0.36,0.57,0.75,0.79,1.16c0.39,0.73,0.77,1.67,0.62,2.52c-0.05,0.3-0.2,0.64-0.51,0.74
			c-0.29,0.1-0.63-0.04-0.85-0.22c-0.74-0.6-0.43-1.7,0.08-2.34c0.15-0.19,0.19-0.45,0-0.64C36.17,7.6,35.84,7.59,35.69,7.78
			L35.69,7.78z"/>
	</g>
</g>
<g>
	<g>
		<path class="st0" d="M40.16,9.8c1.13,0.25,2.54,0.47,3.42-0.49c0.35-0.39,0.57-0.89,0.51-1.42c-0.06-0.46-0.35-0.85-0.75-1.07
			c-0.91-0.5-1.98-0.14-2.63,0.61c-0.66,0.76-1.3,2.12-0.48,2.99c0.22,0.24,0.52,0.38,0.82,0.51c0.34,0.15,0.68,0.27,1.04,0.37
			c0.7,0.19,1.41,0.29,2.14,0.23c0.24-0.02,0.45-0.17,0.48-0.42c0.03-0.21-0.1-0.48-0.34-0.51c-0.99-0.13-1.97-0.28-2.92-0.6
			c-0.33-0.11-0.71-0.23-0.75-0.63C40.64,9,40.81,8.61,40.97,8.29c0.33-0.61,0.91-1.2,1.66-1.02c0.27,0.06,0.54,0.23,0.65,0.49
			c0.13,0.29,0.02,0.62-0.17,0.85c-0.66,0.81-1.82,0.53-2.7,0.31C39.85,8.78,39.58,9.66,40.16,9.8L40.16,9.8z"/>
	</g>
</g>
<g>
	<g>
		<path class="st0" d="M45.78,10.72c-0.35-0.84-0.15-1.89,0.45-2.58c0.15-0.17,0.33-0.31,0.53-0.42c0.08-0.05,0.19-0.12,0.3-0.12
			c0.06,0,0.02-0.01,0.06,0.01c0.03,0.01,0.07,0.06,0.11,0.11c0.02,0.02,0.04,0.05,0.07,0.11c0.03,0.05,0.06,0.1,0.09,0.15
			c0.08,0.16,0.16,0.31,0.23,0.47c0.11,0.26,0.22,0.55,0.31,0.84c0.11,0.34,0.19,0.7,0.26,1.05c0.07,0.39,0.08,0.98,0.49,1.18
			c0.23,0.11,0.44,0.06,0.63-0.09c0.39-0.32,0.22-1,0.11-1.42c-0.09-0.36-0.2-0.72-0.34-1.07c-0.16-0.4-0.33-0.78-0.55-1.15
			c-0.19-0.32-0.39-0.67-0.71-0.89c-0.67-0.48-1.45,0.02-1.92,0.54c-0.4,0.45-0.7,0.98-0.83,1.57c-0.15,0.68-0.1,1.36,0.19,2
			c0.07,0.15,0.28,0.18,0.41,0.1C45.82,11.04,45.85,10.88,45.78,10.72L45.78,10.72z"/>
	</g>
</g>
<g>
	<g>
		<path class="st0" d="M51.34,5.21c0.13,1.04,0.22,2.08,0.26,3.12c0.02,0.53,0.03,1.05,0.05,1.58c0.02,0.52,0.01,1.08,0.25,1.56
			c0.15,0.3,0.63,0.27,0.78-0.01c0.27-0.5,0.26-1.12,0.26-1.68c0-0.53-0.03-1.06-0.07-1.58c-0.08-1.1-0.21-2.2-0.37-3.3
			c-0.05-0.32-0.44-0.49-0.72-0.41C51.44,4.58,51.3,4.89,51.34,5.21L51.34,5.21z"/>
	</g>
</g>
<g>
	<g>
		<path class="st0" d="M50.22,7.36c0.86-0.03,1.72-0.04,2.59-0.03c0.43,0.01,0.86,0.02,1.29,0.02c0.44,0,0.89,0.02,1.32-0.08
			c0.36-0.09,0.52-0.69,0.13-0.86c-0.42-0.17-0.87-0.22-1.32-0.26c-0.45-0.04-0.9-0.06-1.34-0.07C52,6.08,51.12,6.1,50.24,6.16
			c-0.33,0.02-0.62,0.27-0.62,0.61C49.61,7.09,49.89,7.37,50.22,7.36L50.22,7.36z"/>
	</g>
</g>
<g>
	<g>
		<path class="st0" d="M103.84,2.9c1.14,0,2.27,0,3.41,0c0.56,0,1.12,0,1.67,0c0.5,0,1.23,0.11,1.66-0.2
			c0.15-0.11,0.27-0.38,0.08-0.53c-0.44-0.34-1.12-0.24-1.65-0.24c-0.56,0-1.12,0-1.67,0c-1.16,0-2.32,0-3.48,0
			C103.23,1.92,103.19,2.9,103.84,2.9L103.84,2.9z"/>
	</g>
</g>
<g>
	<g>
		<path class="st0" d="M105.94,3.85c0.16,1,0.22,2.02,0.18,3.04c-0.02,0.51-0.05,1.02-0.1,1.52c-0.05,0.52-0.18,1.06-0.06,1.58
			c0.12,0.5,0.73,0.45,0.98,0.11c0.34-0.44,0.41-1.05,0.49-1.59c0.09-0.56,0.15-1.13,0.16-1.7c0.04-1.12-0.05-2.24-0.23-3.35
			c-0.06-0.39-0.54-0.6-0.89-0.5C106.08,3.07,105.88,3.45,105.94,3.85L105.94,3.85z"/>
	</g>
</g>
<g>
	<g>
		<path class="st0" d="M103.84,10.57c1.35-0.16,2.7-0.23,4.05-0.19c0.57,0.01,1.17,0.01,1.73,0.11c0.4,0.06,0.84,0.18,1.08,0.54
			c0.29,0.44,0.97,0.15,0.87-0.36c-0.26-1.33-1.98-1.34-3.03-1.37c-1.56-0.05-3.13,0.03-4.69,0.21c-0.29,0.03-0.54,0.22-0.55,0.54
			C103.3,10.31,103.55,10.61,103.84,10.57L103.84,10.57z"/>
	</g>
</g>
<g>
	<g>
		<path class="st0" d="M112.87,11.03c-0.25-0.96-0.6-2.43,0.54-2.97c0.34-0.16,0.68-0.13,0.9,0.16c0.17,0.23,0.28,0.52,0.39,0.78
			c0.12,0.3,0.22,0.6,0.31,0.91c0.1,0.36,0.18,0.72,0.25,1.08c0.03,0.17,0.06,0.35,0.11,0.52c0.06,0.19,0.12,0.43,0.24,0.59
			c0.17,0.23,0.56,0.29,0.71-0.01c0.2-0.38,0.17-0.89,0.09-1.3c-0.07-0.39-0.18-0.77-0.31-1.15c-0.25-0.71-0.55-1.55-1.09-2.1
			c-0.49-0.5-1.2-0.56-1.82-0.29c-0.58,0.25-1,0.77-1.18,1.36c-0.25,0.84-0.06,1.76,0.13,2.59
			C112.26,11.68,112.98,11.48,112.87,11.03L112.87,11.03z"/>
	</g>
</g>
<g>
	<g>
		<path class="st0" d="M119.23,8.13c-0.45,0.82-1.41,1.45-1.14,2.52c0.26,1.03,1.54,1.11,2.29,0.57c1.79-1.29,0.92-3.81-0.01-5.35
			c-0.52-0.86-1.4-1.76-2.48-1.3c-0.36,0.15-0.18,0.7,0.18,0.7c0.83,0,1.34,0.75,1.69,1.42c0.42,0.8,0.89,1.75,0.72,2.68
			c-0.06,0.35-0.22,0.71-0.48,0.96c-0.2,0.19-0.57,0.4-0.85,0.26c-0.33-0.16-0.15-0.65-0.01-0.88c0.25-0.42,0.61-0.74,0.84-1.18
			C120.23,8.05,119.5,7.65,119.23,8.13L119.23,8.13z"/>
	</g>
</g>
<g>
	<g>
		<path class="st0" d="M123.16,10.04c0.73,0.69,1.99,0.8,2.75,0.1c0.43-0.4,0.62-1.08,0.45-1.65c-0.13-0.41-0.43-0.76-0.82-0.96
			c-0.84-0.44-1.9-0.26-2.47,0.52c-0.62,0.83-0.48,2.08,0.13,2.87c0.82,1.06,2.51,1.28,3.6,0.5c0.17-0.12,0.27-0.31,0.18-0.52
			c-0.08-0.2-0.28-0.28-0.49-0.24c-0.11,0.02-0.21,0.04-0.32,0.06c-0.03,0.01-0.14,0.02-0.05,0.01c-0.06,0.01-0.12,0.01-0.18,0.02
			c-0.21,0.02-0.43,0.02-0.65,0.01c-0.02,0-0.05,0-0.07-0.01c-0.08,0,0.09,0.02,0.01,0c-0.05-0.01-0.11-0.02-0.16-0.03
			c-0.11-0.02-0.21-0.04-0.31-0.07c-0.05-0.01-0.1-0.03-0.15-0.05c-0.06-0.02,0.02,0.01,0.03,0.01c-0.03-0.01-0.06-0.02-0.08-0.04
			c-0.1-0.04-0.19-0.09-0.29-0.14c-0.05-0.03-0.09-0.06-0.14-0.09c-0.05-0.03,0.01,0.01,0.02,0.01c-0.02-0.01-0.04-0.03-0.05-0.04
			c-0.08-0.07-0.15-0.14-0.22-0.22c-0.01-0.01-0.05-0.06-0.01-0.01c0.04,0.05-0.01-0.02-0.02-0.03c-0.02-0.03-0.05-0.07-0.07-0.1
			c-0.05-0.09-0.1-0.18-0.14-0.27c0.03,0.08-0.01-0.03-0.02-0.06c-0.01-0.04-0.02-0.08-0.04-0.12c-0.01-0.05-0.02-0.09-0.03-0.14
			c0-0.03-0.01-0.05-0.01-0.08c0.01,0.05,0,0.01,0-0.01c0-0.09-0.01-0.18,0-0.27c0-0.02,0.01-0.13,0.01-0.08
			c0.01-0.05,0.02-0.11,0.03-0.16c0.01-0.05,0.03-0.09,0.04-0.13c0.01-0.02,0.01-0.04,0.02-0.06c0,0.01-0.02,0.04,0,0
			c0.04-0.09,0.09-0.18,0.15-0.26c-0.02,0.03,0.05-0.05,0.06-0.06c0.03-0.03,0.05-0.05,0.08-0.08c0.01-0.01,0.06-0.05,0.03-0.03
			c-0.03,0.02,0.01-0.01,0.02-0.01c0.04-0.02,0.08-0.05,0.12-0.07c0.02-0.01,0.03-0.02,0.05-0.02c0.05-0.03-0.05,0.02,0.01,0
			c0.03-0.01,0.07-0.02,0.1-0.03c0.04-0.01,0.08-0.02,0.12-0.03c0.02,0,0.03-0.01,0.05-0.01c0.03-0.01-0.03,0,0.03,0
			c0.17-0.02,0.3-0.01,0.44,0.02c0.16,0.04,0.25,0.07,0.4,0.17c0.01,0.01,0.08,0.05,0.04,0.03c0.03,0.02,0.06,0.05,0.09,0.08
			c0.03,0.03,0.06,0.05,0.08,0.08c0.01,0.01,0.02,0.03,0.03,0.04c0.02,0.03-0.02-0.03,0.01,0.02c0.02,0.03,0.03,0.06,0.05,0.09
			c0.01,0.02,0.02,0.04,0.03,0.06c0-0.01-0.02-0.05,0-0.01c0.03,0.08,0.05,0.16,0.05,0.25c0.01,0.22-0.05,0.41-0.16,0.6
			c0,0-0.05,0.07-0.02,0.03c0.02-0.03-0.04,0.05-0.04,0.05c-0.03,0.03-0.06,0.06-0.1,0.09c-0.05,0.04,0.05-0.03,0,0
			c-0.02,0.01-0.04,0.03-0.06,0.04c-0.04,0.03-0.09,0.05-0.13,0.07c-0.04,0.02,0.01,0,0.02-0.01c-0.03,0.01-0.06,0.02-0.09,0.03
			c-0.05,0.02-0.1,0.03-0.15,0.04c-0.02,0-0.04,0.01-0.06,0.01c0.04-0.01,0.03,0,0,0c-0.05,0.01-0.1,0.01-0.15,0.01
			c-0.05,0-0.1,0-0.16,0c-0.03,0-0.05,0-0.08-0.01c0.04,0,0.02,0-0.01,0c-0.1-0.02-0.2-0.04-0.31-0.08c0,0-0.06-0.02-0.02-0.01
			c0.04,0.02-0.06-0.03-0.06-0.03c-0.04-0.02-0.08-0.04-0.12-0.06c-0.02-0.01-0.04-0.03-0.07-0.04c-0.01,0-0.07-0.05-0.04-0.02
			c0.03,0.03-0.02-0.01-0.02-0.02c-0.03-0.03-0.06-0.05-0.09-0.08C123.37,9.08,122.76,9.67,123.16,10.04L123.16,10.04z"/>
	</g>
</g>
<g>
	<g>
		<path class="st0" d="M128.07,9.1c0.07,1.62,0.14,3.23,0.22,4.84c0.04,0.79,0.07,1.59,0.16,2.38c0.07,0.62,0.49,1.18,1.16,0.87
			c0.36-0.17,0.26-0.72-0.1-0.81c0.17,0.2,0.2,0.21,0.1,0.01c0-0.02-0.01-0.04-0.01-0.06c-0.02-0.13,0-0.27,0-0.41
			c-0.01-0.33-0.03-0.67-0.04-1c-0.03-0.64-0.07-1.28-0.11-1.92c-0.08-1.31-0.16-2.61-0.24-3.92C129.16,8.36,128.03,8.38,128.07,9.1
			L128.07,9.1z"/>
	</g>
</g>
<g>
	<g>
		<path class="st0" d="M128.27,7.97c0.84-0.28,1.84,0.02,2.38,0.73c0.29,0.37,0.47,0.9,0.29,1.35c-0.16,0.4-0.53,0.66-0.89,0.82
			c-0.27,0.12-0.61,0.18-0.92,0.21c-0.37,0.03-0.76-0.02-1.12,0.07c-0.38,0.1-0.38,0.63-0.01,0.74c0.35,0.1,0.79,0.07,1.15,0.04
			c0.38-0.03,0.76-0.09,1.12-0.22c0.6-0.23,1.15-0.66,1.41-1.26c0.55-1.28-0.46-2.59-1.64-3.02c-0.6-0.22-1.29-0.24-1.9,0
			c-0.14,0.06-0.25,0.19-0.21,0.35C127.96,7.92,128.13,8.02,128.27,7.97L128.27,7.97z"/>
	</g>
</g>
<g>
	<g>
		<path class="st0" d="M133.21,10.35c1.22,0.16,2.62,0.24,3.42-0.87c0.29-0.41,0.42-0.96,0.24-1.43c-0.16-0.43-0.51-0.74-0.93-0.92
			c-0.42-0.18-0.91-0.23-1.36-0.09c-0.5,0.16-0.91,0.52-1.18,0.96c-0.56,0.89-0.78,2.35-0.05,3.21c0.43,0.5,1.14,0.66,1.77,0.65
			c0.37-0.01,0.73-0.07,1.09-0.14c0.17-0.03,0.34-0.06,0.52-0.08c0.21-0.02,0.41-0.02,0.62-0.07c0.36-0.08,0.43-0.58,0.11-0.76
			c-0.51-0.3-1.24-0.14-1.79-0.05c-0.42,0.07-0.84,0.11-1.22,0.01c-0.35-0.1-0.57-0.32-0.66-0.73c-0.09-0.39-0.08-0.82,0.03-1.21
			c0.18-0.69,0.73-1.31,1.49-1.23c0.63,0.07,1.19,0.62,0.89,1.27c-0.47,1.04-1.86,0.89-2.77,0.77c-0.2-0.03-0.41,0.06-0.47,0.27
			C132.9,10.07,133.01,10.32,133.21,10.35L133.21,10.35z"/>
	</g>
</g>
<g>
	<g>
		<path class="st0" d="M138.74,10.68c-0.13-0.49-0.11-1,0.05-1.48c0.08-0.23,0.19-0.45,0.33-0.65c0.11-0.16,0.27-0.37,0.45-0.44
			c0.2-0.07,0.41,0.12,0.55,0.25c0.17,0.17,0.28,0.31,0.41,0.53c0.21,0.38,0.33,0.82,0.41,1.3c0.04,0.26,0.06,0.48,0.07,0.78
			c0.01,0.29-0.02,0.67,0.13,0.93c0.13,0.22,0.45,0.25,0.62,0.07c0.24-0.25,0.29-0.68,0.31-1.01c0.02-0.33,0-0.65-0.04-0.97
			c-0.08-0.6-0.31-1.21-0.67-1.7c-0.41-0.55-1.07-1.14-1.82-1c-0.63,0.13-1.1,0.83-1.34,1.38c-0.31,0.7-0.39,1.47-0.2,2.22
			C138.11,11.37,138.86,11.15,138.74,10.68L138.74,10.68z"/>
	</g>
</g>
<g>
	<g>
		<path class="st0" d="M144.74,8.51c-0.49,0.9-0.64,1.92-0.43,2.92c0.04,0.17,0.18,0.31,0.35,0.35c0.69,0.16,1.39-0.22,1.72-0.83
			c0.36-0.66,0.25-1.44,0.07-2.13c-0.19-0.71-0.45-1.4-0.77-2.07c-0.3-0.63-0.65-1.42-1.24-1.82c-0.24-0.16-0.57,0.12-0.5,0.38
			c0.14,0.54,0.53,1.01,0.78,1.51c0.25,0.51,0.46,1.04,0.62,1.58c0.16,0.52,0.34,1.1,0.29,1.65c-0.03,0.34-0.26,0.87-0.69,0.78
			c0.12,0.12,0.23,0.23,0.35,0.35c-0.17-0.75-0.08-1.53,0.27-2.22C145.83,8.42,145.03,7.98,144.74,8.51L144.74,8.51z"/>
	</g>
</g>
<g>
	<g>
		<path class="st0" d="M148.18,10.28c0.78,0.17,1.57,0.33,2.37,0.18c0.63-0.11,1.24-0.47,1.61-0.99c0.79-1.1,0.08-2.56-1.08-3.02
			c-1.05-0.41-2.35-0.07-3.06,0.8c-0.79,0.97-0.85,2.41-0.22,3.48c0.73,1.23,2.4,1.92,3.77,1.43c0.21-0.08,0.37-0.26,0.34-0.5
			c-0.03-0.22-0.21-0.39-0.44-0.39c-0.9,0.01-1.81-0.15-2.47-0.76c-0.64-0.59-0.9-1.53-0.62-2.37c0.27-0.81,1.1-1.28,1.94-1.18
			c0.41,0.05,0.81,0.23,1.06,0.56c0.26,0.34,0.4,0.82,0.21,1.22c-0.2,0.44-0.67,0.7-1.13,0.79c-0.67,0.14-1.37-0.03-2.03-0.18
			C147.85,9.23,147.57,10.15,148.18,10.28L148.18,10.28z"/>
	</g>
</g>
<g>
	<g>
		<path class="st0" d="M153.91,11.25c-0.28-0.98-0.68-2.42,0.34-3.12c0.36-0.25,0.79-0.2,1.12,0.05c0.42,0.33,0.6,0.77,0.7,1.26
			c0.08,0.36,0.11,0.73,0.15,1.1c0.04,0.38,0.11,0.85,0.41,1.11c0.19,0.16,0.55,0.17,0.68-0.1c0.19-0.41,0.1-0.86,0.04-1.28
			c-0.06-0.38-0.12-0.75-0.24-1.11c-0.22-0.68-0.6-1.29-1.21-1.68c-0.56-0.36-1.27-0.4-1.85-0.09c-0.55,0.29-0.93,0.88-1.06,1.47
			c-0.2,0.87,0.01,1.73,0.25,2.56C153.36,11.84,154.02,11.66,153.91,11.25L153.91,11.25z"/>
	</g>
</g>
<g>
	<g>
		<path class="st0" d="M158.68,6.1c0.1,0.9,0.19,1.81,0.3,2.71c0.1,0.87,0.13,1.8,0.49,2.61c0.18,0.4,0.87,0.27,0.95-0.14
			c0.17-0.86,0.01-1.75-0.08-2.61c-0.09-0.86-0.18-1.72-0.28-2.58c-0.04-0.37-0.28-0.68-0.68-0.68
			C159.05,5.41,158.64,5.73,158.68,6.1L158.68,6.1z"/>
	</g>
</g>
<g>
	<g>
		<path class="st0" d="M157.68,7.65c0.58,0.04,1.15,0.08,1.73,0.13c0.58,0.04,1.22,0.16,1.79,0c0.37-0.11,0.53-0.69,0.13-0.88
			c-0.31-0.15-0.62-0.19-0.96-0.22c-0.3-0.03-0.6-0.06-0.9-0.08c-0.59-0.05-1.17-0.1-1.76-0.15c-0.32-0.03-0.63,0.3-0.63,0.61
			C157.08,7.4,157.34,7.62,157.68,7.65L157.68,7.65z"/>
	</g>
</g>
<g>
	<g>
		<path class="st0" d="M49.19,38.24c-8.53,3.43-18.06,4.41-27.11,2.81c-2.55-0.45-4.99-1.24-7.49-1.88
			c-0.3-0.08-0.54,0.39-0.23,0.53c2.09,0.95,4.4,1.48,6.63,1.94c2.31,0.47,4.65,0.77,6.99,0.9c4.66,0.27,9.37-0.14,13.92-1.2
			c2.58-0.6,5.09-1.45,7.53-2.47C49.81,38.72,49.56,38.09,49.19,38.24L49.19,38.24z"/>
	</g>
</g>
<g>
	<g>
		<path class="st0" d="M14.1,40.28c0.14,0.38,0.28,0.76,0.42,1.15c0.07,0.19,0.14,0.38,0.21,0.57c0.1,0.27,0.26,0.66,0.64,0.56
			c0.19-0.05,0.29-0.23,0.3-0.41c0.01-0.12-0.04-0.26-0.08-0.38c-0.06-0.19-0.14-0.38-0.21-0.57c-0.14-0.38-0.28-0.76-0.42-1.15
			c-0.08-0.22-0.3-0.38-0.54-0.31C14.22,39.81,14.01,40.05,14.1,40.28L14.1,40.28z"/>
	</g>
</g>
<g>
	<g>
		<path class="st0" d="M15.09,39.36c0.4-0.2,0.77-0.47,1.08-0.79c0.16-0.17,0.31-0.34,0.44-0.54c0.06-0.09,0.11-0.18,0.16-0.28
			c0.03-0.06,0.06-0.12,0.07-0.19c0.01-0.07,0.02-0.14,0.03-0.21c0.02-0.11-0.08-0.22-0.17-0.25c-0.11-0.04-0.23-0.02-0.31,0.06
			c-0.09,0.09-0.17,0.17-0.24,0.27c-0.03,0.04,0.04-0.05,0,0c-0.03,0.04-0.06,0.08-0.09,0.12c-0.02,0.02-0.05,0.09-0.01,0.01
			c-0.01,0.02-0.03,0.04-0.04,0.05c-0.13,0.15-0.26,0.31-0.4,0.45c-0.07,0.07-0.14,0.14-0.22,0.2c-0.04,0.03-0.07,0.06-0.11,0.09
			c-0.01,0.01-0.02,0.02-0.03,0.02c0.05-0.03,0.06-0.04,0.03-0.02c-0.02,0.01-0.04,0.03-0.05,0.04c-0.17,0.12-0.34,0.22-0.52,0.32
			c-0.18,0.09-0.26,0.36-0.15,0.53C14.67,39.41,14.9,39.46,15.09,39.36L15.09,39.36z"/>
	</g>
</g>
<g>
	<g>
		<path class="st0" d="M99.48,38.53c1.38-1.36,2.75-2.72,4.13-4.07c0.68-0.67,1.37-1.33,2.04-2c0.34-0.34,0.68-0.67,1.01-1.02
			c0.33-0.35,0.7-0.67,0.87-1.13c0.12-0.31-0.24-0.66-0.55-0.55c-0.45,0.17-0.75,0.49-1.1,0.82c-0.35,0.33-0.69,0.66-1.02,1
			c-0.7,0.69-1.38,1.39-2.07,2.09c-1.36,1.37-2.73,2.74-4.09,4.1C98.18,38.28,98.96,39.03,99.48,38.53L99.48,38.53z"/>
	</g>
</g>
<g>
	<g>
		<path class="st0" d="M100.19,31.43c0.83,1.77,1.85,3.45,3.05,5c1.18,1.52,2.55,3.12,4.24,4.09c0.58,0.33,1.16-0.45,0.72-0.93
			c-0.63-0.7-1.34-1.31-2-1.98c-0.66-0.67-1.3-1.36-1.9-2.09c-1.19-1.45-2.19-3.04-3.01-4.73C100.94,30.08,99.86,30.72,100.19,31.43
			L100.19,31.43z"/>
	</g>
</g>
<g>
	<g>
		<path class="st0" d="M162.13,31.33c-0.72,1.3-1.44,2.61-2.14,3.93c-0.35,0.66-0.69,1.32-1.03,1.99c-0.34,0.67-0.71,1.35-0.8,2.1
			c-0.07,0.56,0.67,0.71,1.01,0.4c0.55-0.5,0.88-1.23,1.23-1.88c0.35-0.63,0.69-1.27,1.02-1.9c0.69-1.29,1.38-2.59,2.08-3.87
			C164.01,31.18,162.62,30.44,162.13,31.33L162.13,31.33z"/>
	</g>
</g>
<g>
	<g>
		<path class="st0" d="M159.61,34.55c-0.57-0.99-1.15-1.97-1.72-2.96c-0.28-0.48-0.56-0.97-0.85-1.45c-0.3-0.5-0.6-1.04-1.05-1.42
			c-0.38-0.31-0.93,0-0.84,0.48c0.1,0.58,0.43,1.11,0.72,1.61c0.27,0.49,0.56,0.97,0.84,1.45c0.58,0.98,1.15,1.97,1.73,2.95
			C158.87,35.96,160.04,35.28,159.61,34.55L159.61,34.55z"/>
	</g>
</g>
<g>
	<g>
		<path class="st0" d="M113.12,32.2c8.53-3.43,18.06-4.41,27.11-2.81c2.55,0.45,4.99,1.24,7.49,1.88c0.3,0.08,0.54-0.39,0.23-0.53
			c-2.09-0.95-4.4-1.48-6.63-1.94c-2.31-0.47-4.65-0.77-6.99-0.9c-4.66-0.27-9.37,0.14-13.92,1.2c-2.58,0.6-5.09,1.45-7.53,2.47
			C112.5,31.72,112.75,32.35,113.12,32.2L113.12,32.2z"/>
	</g>
</g>
<g>
	<g>
		<path class="st0" d="M148.22,30.17c-0.14-0.38-0.28-0.76-0.42-1.15c-0.07-0.19-0.14-0.38-0.21-0.57c-0.1-0.27-0.26-0.66-0.64-0.56
			c-0.19,0.05-0.29,0.23-0.3,0.41c-0.01,0.12,0.04,0.26,0.08,0.38c0.06,0.19,0.14,0.38,0.21,0.57c0.14,0.38,0.28,0.76,0.42,1.15
			c0.08,0.22,0.3,0.38,0.54,0.31C148.1,30.64,148.3,30.4,148.22,30.17L148.22,30.17z"/>
	</g>
</g>
<g>
	<g>
		<path class="st0" d="M147.22,31.09c-0.4,0.2-0.77,0.47-1.08,0.79c-0.16,0.17-0.31,0.34-0.44,0.54c-0.06,0.09-0.11,0.18-0.16,0.28
			c-0.03,0.06-0.06,0.12-0.07,0.19c-0.01,0.07-0.02,0.14-0.03,0.21c-0.02,0.11,0.08,0.22,0.17,0.25c0.11,0.04,0.23,0.02,0.31-0.06
			c0.09-0.09,0.17-0.17,0.24-0.27c0.03-0.04-0.04,0.05,0,0c0.03-0.04,0.06-0.08,0.09-0.12c0.02-0.02,0.05-0.09,0.01-0.01
			c0.01-0.02,0.03-0.04,0.04-0.05c0.13-0.15,0.26-0.31,0.4-0.45c0.07-0.07,0.14-0.14,0.22-0.2c0.04-0.03,0.07-0.06,0.11-0.09
			c0.01-0.01,0.02-0.02,0.03-0.02c-0.05,0.03-0.06,0.04-0.03,0.02c0.02-0.01,0.04-0.03,0.05-0.04c0.17-0.12,0.34-0.22,0.52-0.32
			c0.18-0.09,0.26-0.36,0.15-0.53C147.64,31.03,147.42,30.99,147.22,31.09L147.22,31.09z"/>
	</g>
</g>
<g>
	<g>
		<path class="st1" d="M126.71,53.02c-0.46-0.7-1.06-1.45-1.98-1.34c-0.38,0.05-0.73,0.23-0.93,0.57c-0.26,0.44-0.15,1.03-0.12,1.52
			c0.07,1.13,0.21,2.26,0.42,3.37c0.1,0.55,0.22,1.1,0.37,1.64c0.14,0.5,0.27,1.2,0.66,1.56c0.16,0.15,0.47,0.08,0.52-0.15
			c0.09-0.38-0.03-0.78-0.11-1.15c-0.09-0.42-0.19-0.84-0.28-1.27c-0.19-0.87-0.34-1.75-0.47-2.63c-0.06-0.44-0.11-0.88-0.16-1.32
			c-0.03-0.28-0.19-0.94-0.02-1.18c0.15-0.21,0.48-0.17,0.68-0.07c0.33,0.17,0.55,0.52,0.75,0.82
			C126.31,53.8,126.98,53.43,126.71,53.02L126.71,53.02z"/>
	</g>
</g>
<g>
	<g>
		<path class="st1" d="M123.16,57.02c0.79,0.18,1.61,0.24,2.42,0.14c0.78-0.1,1.71-0.3,2.3-0.84c0.11-0.1,0.13-0.27,0.06-0.39
			c-0.08-0.14-0.22-0.17-0.37-0.15c-0.35,0.05-0.68,0.17-1.02,0.26c-0.34,0.08-0.68,0.14-1.03,0.17c-0.7,0.07-1.4,0.02-2.09-0.14
			C122.82,55.91,122.52,56.88,123.16,57.02L123.16,57.02z"/>
	</g>
</g>
<g>
	<g>
		<path class="st1" d="M128.82,53.57c-0.11,1.2-0.16,2.41-0.12,3.62c0.02,0.58,0.04,1.16,0.1,1.74c0.06,0.56,0.07,1.33,0.38,1.81
			c0.2,0.3,0.68,0.25,0.78-0.11c0.14-0.52-0.01-1.17-0.06-1.7c-0.05-0.6-0.11-1.2-0.13-1.81c-0.05-1.18-0.03-2.37,0.07-3.55
			C129.9,52.9,128.88,52.94,128.82,53.57L128.82,53.57z"/>
	</g>
</g>
<g>
	<g>
		<path class="st1" d="M131.5,57.27c-0.47,0.61-0.46,1.47-0.15,2.14c0.16,0.34,0.44,0.63,0.76,0.81c0.21,0.12,0.46,0.2,0.7,0.18
			c0.3-0.02,0.55-0.18,0.76-0.39c0.63-0.64,0.98-1.63,0.71-2.51c-0.25-0.82-0.95-1.47-1.81-1.55c-0.5-0.05-0.99,0.15-1.37,0.47
			c-0.39,0.33-0.67,0.9-0.52,1.4c0.13,0.44,0.76,0.42,0.89-0.01c0.01-0.03,0.02-0.06,0.03-0.09c-0.04,0.11,0.03-0.06,0.04-0.11
			c0.01-0.03,0.02-0.06,0.03-0.09c0-0.01,0.04-0.1,0.02-0.05c-0.02,0.06,0.02-0.03,0.03-0.05c0.02-0.03,0.04-0.07,0.06-0.1
			c-0.01,0.02-0.07,0.07,0,0c0.03-0.03,0.05-0.06,0.08-0.09c0.02-0.02,0.18-0.15,0.09-0.09c0.05-0.04,0.11-0.07,0.17-0.1
			c0.03-0.02,0.06-0.03,0.09-0.04c-0.02,0.01-0.09,0.03,0.01,0c0.03-0.01,0.06-0.02,0.09-0.03c0.01,0,0.15-0.02,0.06-0.01
			c0.06,0,0.13,0,0.19,0c-0.08-0.01,0,0,0.01,0c0.03,0.01,0.06,0.01,0.09,0.02c0.02,0,0.18,0.07,0.11,0.03
			c0.07,0.03,0.14,0.07,0.21,0.12c0.08,0.05,0.04,0.02,0.02,0.01c0.03,0.02,0.05,0.04,0.07,0.06c0.05,0.05,0.11,0.1,0.16,0.16
			c0.01,0.01,0.07,0.09,0.04,0.04c-0.03-0.04,0.03,0.04,0.03,0.05c0.04,0.07,0.08,0.14,0.12,0.22c0.03,0.07-0.02-0.06,0.01,0.02
			c0.01,0.03,0.02,0.06,0.03,0.09c0.02,0.07,0.04,0.15,0.05,0.23c0.01,0.06,0,0.3-0.01,0.36c-0.05,0.31-0.15,0.55-0.33,0.8
			c-0.06,0.09-0.16,0.2-0.23,0.27c0.03-0.03-0.07,0.04-0.02,0.02c0.04-0.02-0.04,0.01-0.04,0.01c-0.02,0-0.09-0.04-0.13-0.06
			c-0.03-0.01-0.05-0.03-0.07-0.04c-0.01-0.01-0.08-0.06-0.04-0.02c0.05,0.04-0.02-0.02-0.03-0.03c-0.03-0.02-0.05-0.05-0.08-0.07
			c-0.02-0.02-0.12-0.15-0.06-0.06c-0.04-0.06-0.08-0.12-0.12-0.18c-0.01-0.02-0.03-0.05-0.04-0.08c-0.01-0.01-0.05-0.12-0.03-0.06
			c0.02,0.06-0.01-0.03-0.01-0.04c-0.01-0.04-0.03-0.08-0.04-0.12c-0.02-0.06-0.03-0.13-0.04-0.19c0.01,0.08,0,0.01,0-0.01
			c0-0.04,0-0.09,0-0.13c0-0.03,0-0.06,0-0.09c0-0.01,0.02-0.15,0-0.05c0.01-0.07,0.03-0.14,0.05-0.21
			c0.01-0.03,0.02-0.05,0.03-0.08c-0.02,0.06,0,0.01,0.01-0.02c0.04-0.07,0.08-0.14,0.13-0.2c0.15-0.2,0.04-0.52-0.17-0.64
			C131.91,56.95,131.66,57.07,131.5,57.27L131.5,57.27z"/>
	</g>
</g>
<g>
	<g>
		<path class="st1" d="M134.59,57.69c-0.44,0.89-0.04,2.17,1.01,2.4c0.99,0.22,2.18-0.84,1.76-1.87c-0.08-0.21-0.25-0.35-0.49-0.32
			c-0.2,0.03-0.42,0.21-0.4,0.44c0.07,0.69,0.15,1.49,0.87,1.81c0.61,0.27,1.37,0.11,1.83-0.37c0.53-0.54,0.67-1.3,0.5-2.02
			c-0.09-0.37-0.26-0.73-0.47-1.05c-0.21-0.33-0.44-0.65-0.77-0.88c-0.23-0.15-0.54,0.11-0.47,0.36c0.15,0.53,0.54,0.96,0.7,1.49
			c0.13,0.42,0.17,0.94-0.05,1.34c-0.16,0.29-0.53,0.44-0.85,0.33c-0.12-0.04-0.24-0.17-0.3-0.34c-0.08-0.22-0.09-0.46-0.09-0.69
			c-0.3,0.04-0.59,0.08-0.89,0.12c0.06,0.2,0,0.36-0.15,0.5c-0.03,0.02-0.05,0.05-0.08,0.07c0.04-0.03-0.01,0-0.02,0.01
			c-0.03,0.02-0.06,0.04-0.09,0.05c0.05-0.02,0,0-0.02,0.01c-0.11,0.03-0.16,0.03-0.24,0.01c0.04,0.01-0.04-0.02-0.05-0.03
			c-0.03-0.02-0.06-0.03-0.08-0.05c-0.07-0.04,0.05,0.05-0.01-0.01c-0.02-0.02-0.05-0.04-0.07-0.07c-0.01-0.01-0.07-0.08-0.04-0.04
			c0.03,0.04-0.03-0.04-0.03-0.05c-0.02-0.03-0.03-0.06-0.05-0.09c0-0.01-0.04-0.1-0.03-0.05c0.02,0.05-0.01-0.05-0.02-0.06
			c-0.01-0.03-0.02-0.07-0.02-0.1c0-0.01-0.02-0.1-0.01-0.06c0,0.04,0-0.05,0-0.06c0-0.03,0-0.07,0-0.1c0.01-0.08-0.02,0.06,0-0.02
			c0.01-0.03,0.02-0.07,0.03-0.1c0-0.02,0.05-0.11,0.01-0.04c0.12-0.25,0.07-0.56-0.19-0.7C135.07,57.36,134.71,57.44,134.59,57.69
			L134.59,57.69z"/>
	</g>
</g>
<g>
	<g>
		<path class="st1" d="M146.08,56.89c-0.87,0.31-1.3,1.25-1.15,2.14c0.16,0.93,1.07,1.6,1.94,1.82c0.55,0.14,1.16,0.05,1.53-0.41
			c0.3-0.37,0.42-0.85,0.43-1.32c0.02-0.84-0.18-1.93-1.03-2.33c-0.43-0.21-0.97-0.21-1.39,0.02c-0.19,0.1-0.39,0.27-0.49,0.46
			c-0.11,0.21-0.13,0.48-0.07,0.71c0.09,0.37,0.66,0.36,0.75-0.01c0.01-0.02,0.04-0.11,0-0.02c0.01-0.02,0.03-0.07,0.04-0.08
			c-0.09,0.06-0.04,0.04-0.02,0.03c0.02-0.01,0.05-0.04,0.07-0.06c0.02-0.02,0.04-0.04,0.06-0.06c0.04-0.04,0.02,0.02-0.04,0.03
			c0.02,0,0.06-0.04,0.08-0.05c0.02-0.01,0.04-0.02,0.06-0.03c-0.08,0.03-0.1,0.04-0.06,0.03c0.06-0.01,0.11-0.04,0.17-0.05
			c0,0,0.06-0.01,0.06-0.01c-0.03,0.04-0.11,0.01-0.01,0c0.04,0,0.13,0.02,0.16,0c-0.06,0.03-0.1-0.02-0.01,0.01
			c0.02,0,0.15,0.04,0.06,0.01c-0.08-0.02,0.01,0.01,0.02,0.02c0.01,0.01,0.02,0.01,0.03,0.02c0.05,0.03,0.04,0.02-0.03-0.03
			c0.05,0.01,0.12,0.11,0.15,0.14c0.1,0.09-0.06-0.1,0.01,0.01c0.02,0.03,0.04,0.06,0.06,0.09c0.02,0.03,0.03,0.06,0.05,0.09
			c0.01,0.02,0.02,0.05,0.04,0.07c0.02,0.06,0.02,0.05-0.01-0.02c0.04,0.04,0.05,0.15,0.06,0.2c0.02,0.07,0.03,0.14,0.04,0.21
			c0,0.02,0.02,0.17,0.01,0.03c0,0.04,0.01,0.07,0.01,0.11c0.01,0.09,0.01,0.19,0,0.28c0,0.07-0.01,0.14-0.01,0.2
			c0,0.01,0,0.03,0,0.04c-0.01,0.06-0.01,0.05,0.01-0.03c0,0.02-0.01,0.06-0.01,0.08c-0.02,0.08-0.04,0.16-0.06,0.23
			c-0.01,0.02-0.02,0.05-0.03,0.07c-0.02,0.06-0.02,0.05,0.02-0.03c-0.01,0.02-0.02,0.05-0.03,0.07c-0.03,0.05-0.07,0.1-0.1,0.16
			c0.08-0.14,0.05-0.06,0-0.02c-0.01,0.01-0.04,0.03-0.05,0.05c0.02-0.02,0.05-0.04,0.07-0.06c-0.02,0.01-0.04,0.03-0.06,0.04
			c-0.1,0.06,0.16-0.03,0-0.01c-0.12,0.02-0.02,0,0,0c-0.03,0-0.07,0-0.1,0c0.07,0.01,0.06,0.01,0,0c-0.08-0.02-0.16-0.03-0.24-0.06
			c-0.04-0.01-0.08-0.03-0.12-0.04c-0.14-0.04,0.08,0.04,0,0c-0.15-0.07-0.3-0.14-0.44-0.23c-0.03-0.02-0.15-0.08-0.02-0.01
			c-0.02-0.01-0.05-0.04-0.07-0.05c-0.06-0.05-0.12-0.1-0.17-0.16c-0.02-0.03-0.05-0.05-0.07-0.08c-0.09-0.1,0.06,0.1-0.01-0.02
			c-0.04-0.07-0.09-0.15-0.13-0.22c-0.07-0.12,0.03,0.1-0.01-0.02c-0.01-0.04-0.03-0.07-0.04-0.11c-0.01-0.04-0.02-0.07-0.03-0.11
			c-0.01-0.06-0.02-0.1-0.01-0.02c-0.01-0.09,0-0.18,0-0.27c0,0.02-0.02,0.1,0,0.01c0.01-0.05,0.02-0.1,0.04-0.15
			c0.01-0.02,0.02-0.05,0.02-0.07c0.02-0.05,0.02-0.05-0.01,0.01c0.01-0.02,0.02-0.05,0.03-0.07c0.02-0.03,0.04-0.07,0.06-0.1
			c0.02-0.03,0.09-0.1,0.01-0.02c0.05-0.05,0.1-0.11,0.16-0.15c-0.1,0.08,0,0.01,0.02-0.01c0.04-0.03,0.09-0.05,0.13-0.07
			c0.21-0.09,0.28-0.38,0.2-0.57C146.53,56.96,146.29,56.82,146.08,56.89L146.08,56.89z"/>
	</g>
</g>
<g>
	<g>
		<path class="st1" d="M153.37,55.32c-0.22-0.61-0.62-1.09-1.2-1.37c-0.38-0.18-0.75,0.13-0.69,0.53c0.16,1.13,0.23,2.27,0.22,3.41
			c0,0.56-0.03,1.11-0.08,1.67c-0.05,0.57-0.14,1.15-0.09,1.72c0.03,0.32,0.52,0.53,0.68,0.17c0.48-1.08,0.47-2.41,0.48-3.57
			c0.01-1.22-0.1-2.44-0.3-3.64c-0.23,0.18-0.46,0.35-0.69,0.53c0.36,0.16,0.64,0.43,0.78,0.81
			C152.67,56.12,153.57,55.87,153.37,55.32L153.37,55.32z"/>
	</g>
</g>
<g>
	<g>
		<path class="st1" d="M151.05,58.21c0.64,0.04,1.29-0.01,1.92-0.14c0.3-0.06,0.6-0.14,0.89-0.24c0.34-0.12,0.72-0.23,0.95-0.53
			c0.09-0.12,0.07-0.3,0-0.42c-0.08-0.14-0.22-0.19-0.37-0.21c-0.16-0.02-0.32,0.05-0.47,0.1c-0.14,0.05-0.27,0.09-0.41,0.13
			c-0.28,0.08-0.56,0.14-0.84,0.19c-0.23,0.04-0.52,0.06-0.79,0.07c-0.29,0.01-0.58,0-0.86-0.02c-0.28-0.02-0.56,0.27-0.56,0.54
			C150.52,57.99,150.75,58.19,151.05,58.21L151.05,58.21z"/>
	</g>
</g>
<g>
	<g>
		<path class="st1" d="M112.05,68.04c-0.03,0.38-0.07,0.76-0.1,1.15c-0.03,0.4-0.09,0.82,0.03,1.2c0.05,0.15,0.17,0.26,0.33,0.28
			c0.15,0.02,0.33-0.06,0.4-0.2c0.2-0.4,0.22-0.84,0.26-1.28c0.04-0.39,0.07-0.78,0.11-1.17c0.02-0.27-0.25-0.52-0.51-0.51
			C112.29,67.54,112.08,67.75,112.05,68.04L112.05,68.04z"/>
	</g>
</g>
<g>
	<g>
		<path class="st1" d="M112.69,66.56c0.07-0.02,0.14-0.05,0.21-0.09c0.1-0.07,0.16-0.13,0.23-0.22c0.04-0.06,0.07-0.12,0.09-0.19
			c0.02-0.04,0.03-0.08,0.03-0.11c0.03-0.15,0.03-0.29,0-0.43c-0.03-0.14-0.1-0.26-0.2-0.38c-0.15-0.18-0.44-0.27-0.64-0.12
			c-0.07,0.05-0.14,0.12-0.16,0.21c-0.02,0.09-0.01,0.17,0.03,0.26c0,0.01,0.01,0.01,0.01,0.02c-0.01-0.03-0.02-0.06-0.04-0.09
			c0.01,0.04,0.03,0.08,0.05,0.11c0.04,0.07,0.1,0.11,0.16,0.15c-0.03-0.02-0.05-0.04-0.08-0.06c0.04,0.03,0.07,0.06,0.1,0.1
			c-0.02-0.03-0.04-0.06-0.06-0.08c0.02,0.03,0.04,0.06,0.06,0.1c-0.01-0.03-0.03-0.07-0.04-0.1c0.02,0.05,0.03,0.1,0.04,0.15
			c0-0.03-0.01-0.07-0.01-0.1c0,0.05,0,0.1,0,0.14c0.01-0.03,0.01-0.07,0.02-0.1c-0.01,0.04-0.02,0.09-0.04,0.13
			c0.01-0.03,0.03-0.06,0.04-0.1c-0.02,0.03-0.03,0.07-0.06,0.1c0.02-0.03,0.04-0.06,0.07-0.09c-0.02,0.02-0.04,0.04-0.06,0.06
			c0.03-0.02,0.06-0.05,0.09-0.07c-0.02,0.02-0.05,0.03-0.08,0.04c0.04-0.01,0.07-0.03,0.11-0.04c-0.02,0.01-0.03,0.01-0.05,0.02
			c-0.11,0.03-0.21,0.11-0.26,0.2c-0.05,0.09-0.08,0.21-0.05,0.31c0.03,0.1,0.1,0.2,0.2,0.25
			C112.47,66.57,112.58,66.59,112.69,66.56L112.69,66.56z"/>
	</g>
</g>
<g>
	<g>
		<path class="st1" d="M114.45,70.06c-0.01-0.26-0.02-0.53-0.01-0.79c0-0.07,0.01-0.13,0.01-0.2c0-0.03,0.01-0.06,0.01-0.09
			c0.01-0.08-0.02,0.1,0.01-0.04c0.03-0.13,0.06-0.25,0.1-0.38c0.01-0.03,0.02-0.05,0.03-0.08c-0.03,0.06,0.01-0.01,0.02-0.03
			c0.02-0.05,0.05-0.09,0.08-0.14c0.01-0.02,0.03-0.04,0.04-0.06c-0.01,0.01-0.06,0.07-0.01,0.01c0.04-0.04,0.08-0.09,0.13-0.12
			c0.02-0.01,0.04-0.03,0.05-0.05c-0.09,0.05-0.03,0.02-0.01,0.01c0.05-0.03,0.09-0.06,0.13-0.08c0.02-0.01,0.06-0.04,0.08-0.04
			c-0.01,0-0.11,0.04-0.02,0.01c0.05-0.02,0.11-0.03,0.16-0.05c0.09-0.02-0.02,0-0.02,0c0.01-0.01,0.05,0,0.07,0
			c0.03,0,0.06,0,0.08,0c0.02,0,0.08,0.02,0.02,0c-0.08-0.03,0.09,0.04,0.1,0.03c-0.01,0.01-0.1-0.05-0.02-0.01
			c0.03,0.01,0.05,0.03,0.08,0.04c0.02,0.01,0.03,0.02,0.05,0.03c0.07,0.04-0.03-0.01-0.03-0.02c0.01,0.02,0.08,0.07,0.09,0.09
			c0.02,0.02,0.03,0.04,0.05,0.05c-0.01-0.01-0.07-0.1-0.03-0.03c0.02,0.04,0.05,0.08,0.07,0.12c0.01,0.01,0.01,0.04,0.02,0.05
			c-0.05-0.07-0.03-0.09-0.02-0.04c0.01,0.04,0.03,0.08,0.04,0.13c0.01,0.04,0.02,0.09,0.03,0.13c0.01,0.07-0.02-0.01,0-0.04
			c-0.01,0.02,0.01,0.08,0.01,0.09c0,0.09,0,0.18,0,0.27c0,0.05-0.01,0.1-0.01,0.15c0,0.02,0,0.04-0.01,0.07c0,0.01,0,0.02,0,0.03
			c-0.01,0.06-0.01,0.04,0.01-0.03c-0.01,0.01-0.02,0.11-0.02,0.13c-0.01,0.04-0.02,0.09-0.03,0.13c-0.03,0.13-0.06,0.27-0.06,0.41
			c0.01,0.21,0.07,0.4,0.26,0.51c0.25,0.16,0.55-0.03,0.69-0.24c0.14-0.23,0.17-0.5,0.2-0.76c0.02-0.2,0.03-0.39,0.01-0.59
			c-0.04-0.45-0.16-0.89-0.48-1.23c-0.35-0.37-0.91-0.49-1.39-0.35c-0.54,0.16-0.99,0.58-1.22,1.09c-0.26,0.6-0.27,1.25-0.24,1.9
			c0.01,0.23,0.19,0.45,0.44,0.44C114.22,70.5,114.46,70.31,114.45,70.06L114.45,70.06z"/>
	</g>
</g>
<g>
	<g>
		<path class="st1" d="M121.02,65.42c-0.21-0.23-0.42-0.45-0.63-0.68c-0.31-0.33-0.84-0.04-0.86,0.36
			c-0.07,1.04-0.18,2.08-0.27,3.12c-0.04,0.52-0.08,1.04-0.12,1.56c-0.04,0.49-0.09,1.06,0.06,1.54c0.1,0.31,0.59,0.42,0.75,0.09
			c0.22-0.46,0.26-1.01,0.3-1.52c0.04-0.54,0.08-1.08,0.11-1.62c0.07-1.06,0.11-2.12,0.19-3.17c-0.29,0.12-0.57,0.24-0.86,0.36
			c0.21,0.23,0.42,0.45,0.62,0.68C120.73,66.61,121.46,65.89,121.02,65.42L121.02,65.42z"/>
	</g>
</g>
<g>
	<g>
		<path class="st1" d="M118.96,68.23c0.98-0.13,1.99-0.23,2.92-0.58c0.42-0.15,0.37-0.72-0.09-0.76c-0.94-0.09-1.88,0.06-2.81,0.19
			c-0.3,0.04-0.6,0.24-0.6,0.58C118.39,67.95,118.64,68.28,118.96,68.23L118.96,68.23z"/>
	</g>
</g>
<g>
	<g>
		<path class="st1" d="M122.66,68.06c-0.04,0.69-0.03,1.43,0.29,2.07c0.35,0.71,1.13,1.1,1.9,0.94c0.72-0.15,1.31-0.84,1.44-1.55
			c0.14-0.78-0.19-1.51-0.82-1.97c-0.3-0.22-0.66-0.36-1.02-0.43c-0.2-0.04-0.4-0.06-0.6-0.05c-0.22,0.01-0.47,0.03-0.66,0.17
			c-0.15,0.11-0.27,0.29-0.21,0.49c0.06,0.2,0.22,0.29,0.42,0.32c-0.14-0.01,0.06,0.01,0.11,0.01c0.05,0,0.12-0.02,0.18-0.02
			c0.03,0,0.11-0.01,0.01,0c0.03,0,0.06-0.01,0.09-0.01c0.07,0,0.14-0.01,0.2,0c0.02,0,0.05,0,0.07,0c0.02,0,0.05,0,0.07,0.01
			c-0.05-0.01-0.06-0.01-0.03,0c0.13,0.03,0.25,0.05,0.38,0.09c0.08,0.03,0.01,0-0.01,0c0.03,0.01,0.07,0.03,0.1,0.05
			c0.07,0.03,0.13,0.07,0.19,0.11c0.02,0.01,0.04,0.03,0.06,0.04c0.1,0.06-0.07-0.07,0.02,0.01c0.05,0.04,0.09,0.08,0.14,0.12
			c0.04,0.04,0.09,0.08,0.12,0.13c0.01,0.01,0.07,0.1,0.03,0.03c-0.04-0.07,0.03,0.05,0.04,0.07c0.03,0.05,0.06,0.1,0.09,0.16
			c0.06,0.11-0.03-0.1,0.01,0.01c0.01,0.02,0.02,0.05,0.02,0.07c0.02,0.06,0.03,0.12,0.04,0.18c-0.02-0.12,0-0.01,0,0.02
			c0,0.04,0,0.07-0.01,0.11c0.01-0.13-0.01,0.04-0.02,0.08c-0.01,0.03-0.02,0.07-0.03,0.1c-0.03,0.1,0.01-0.02,0.01-0.02
			c0,0.04-0.07,0.14-0.09,0.17c-0.02,0.03-0.03,0.05-0.05,0.08c-0.06,0.1,0.07-0.08,0,0c-0.04,0.05-0.09,0.1-0.14,0.14
			c-0.02,0.02-0.05,0.04-0.07,0.06c-0.09,0.08,0.09-0.05,0.02-0.02c-0.06,0.03-0.11,0.07-0.17,0.1c-0.02,0.01-0.04,0.02-0.06,0.03
			c-0.02,0.01-0.04,0.02-0.06,0.03c-0.06,0.03-0.04,0.02,0.05-0.02c-0.05,0.01-0.11,0.04-0.16,0.05c-0.01,0-0.06,0.01-0.07,0.01
			c0.03,0,0.05-0.01,0.08-0.01c-0.02,0-0.05,0-0.07,0.01c-0.02,0-0.05,0-0.07,0c-0.13,0,0-0.02,0.01,0c0,0-0.06-0.01-0.07-0.01
			c-0.02-0.01-0.05-0.01-0.07-0.02c0.08,0.03,0.09,0.03,0.03,0.01c-0.05-0.03-0.11-0.06-0.16-0.09c-0.1-0.06,0.06,0.07,0.01,0.01
			c-0.02-0.02-0.05-0.04-0.07-0.06c-0.03-0.03-0.08-0.11-0.12-0.13c0.02,0.02,0.03,0.04,0.05,0.06c-0.01-0.02-0.03-0.04-0.04-0.06
			c-0.02-0.03-0.04-0.06-0.05-0.09c-0.01-0.03-0.03-0.05-0.04-0.08c-0.01-0.02-0.02-0.03-0.02-0.05c-0.02-0.06-0.02-0.04,0.01,0.04
			c0,0-0.07-0.2-0.07-0.21c-0.04-0.15-0.08-0.3-0.1-0.45c0-0.03-0.01-0.05-0.01-0.08c-0.01-0.06-0.01-0.05,0,0.02
			c0-0.03-0.01-0.05-0.01-0.08c-0.01-0.08-0.01-0.16-0.02-0.23c-0.01-0.15-0.01-0.31-0.01-0.46c0-0.27-0.23-0.52-0.51-0.51
			C122.9,67.56,122.67,67.77,122.66,68.06L122.66,68.06z"/>
	</g>
</g>
<g>
	<g>
		<path class="st1" d="M128.1,69.6c-0.02-0.02-0.14-0.14-0.04-0.04c-0.03-0.03-0.06-0.08-0.08-0.12c-0.03-0.04-0.05-0.09-0.07-0.13
			c-0.01-0.02-0.02-0.04-0.03-0.07c-0.02-0.05-0.02-0.05,0.01,0.02c-0.05-0.06-0.07-0.21-0.08-0.29c-0.01-0.03-0.02-0.08-0.02-0.11
			c-0.01,0.13,0-0.03,0-0.06c0-0.09-0.01-0.21,0.01-0.3c-0.04,0.13,0.01-0.03,0.01-0.05c0.01-0.05,0.03-0.1,0.04-0.14
			c0.01-0.03,0.02-0.08,0.04-0.1c-0.08,0.11,0.01-0.02,0.03-0.05c0.02-0.04,0.05-0.09,0.08-0.13c0.01-0.02,0.03-0.04,0.04-0.06
			c0.03-0.05,0.03-0.04-0.01,0.02c0.02-0.07,0.15-0.16,0.2-0.21c0.02-0.02,0.04-0.03,0.05-0.05c-0.05,0.04-0.07,0.05-0.03,0.03
			c0.03-0.02,0.07-0.05,0.11-0.07c0.04-0.03,0.08-0.05,0.13-0.07c0.02-0.01,0.17-0.07,0.05-0.03c0.09-0.03,0.18-0.06,0.28-0.09
			c0.02,0,0.17-0.03,0.07-0.02c0.04,0,0.07-0.01,0.11-0.01c0.1-0.01,0.19,0,0.29,0c0.05,0,0.05,0,0,0c0.02,0,0.05,0.01,0.07,0.01
			c0.05,0.01,0.09,0.02,0.14,0.03c0.09,0.02,0.18,0.05,0.27,0.08c0.31,0.11,0.59-0.35,0.34-0.57c-0.63-0.53-1.57-0.51-2.28-0.14
			c-0.77,0.41-1.14,1.29-1.05,2.13c0.06,0.49,0.26,0.94,0.6,1.3c0.19,0.2,0.55,0.18,0.73-0.02C128.28,70.11,128.29,69.81,128.1,69.6
			L128.1,69.6z"/>
	</g>
</g>
<g>
	<g>
		<path class="st1" d="M131.14,69.81c-0.15-1.01,0.25-2.05,0.99-2.73c-0.18-0.02-0.35-0.04-0.53-0.06c0.36,0.82,0.51,1.78,0.44,2.67
			c-0.04,0.48,0.75,0.56,0.84,0.1c0.08-0.41,0-0.84-0.02-1.25c-0.02-0.31-0.01-0.64,0.2-0.89c0.42-0.52,0.99,0.16,1.2,0.54
			c0.14,0.26,0.22,0.55,0.23,0.85c0.01,0.27-0.08,0.51-0.13,0.77c-0.05,0.28-0.09,0.59,0,0.86c0.12,0.37,0.49,0.63,0.88,0.47
			c0.17-0.07,0.31-0.18,0.34-0.38c0.02-0.17-0.05-0.36-0.22-0.45c-0.01-0.01-0.07-0.04-0.01,0c0.08,0.06-0.09-0.07-0.08-0.06
			c-0.07-0.04,0.03,0.03,0.05,0.06c-0.05-0.06,0,0.06-0.02-0.03c-0.01-0.03-0.03-0.13-0.03-0.12c-0.02-0.21,0.04-0.42,0.07-0.65
			c0.06-0.56-0.07-1.15-0.33-1.64c-0.28-0.5-0.77-1.02-1.36-1.11c-0.56-0.09-1.04,0.28-1.3,0.76c-0.16,0.31-0.23,0.64-0.26,0.98
			c-0.03,0.39-0.03,0.79-0.04,1.19c0.29,0,0.57-0.01,0.86-0.01c-0.07-1.06-0.29-2.02-0.71-3c-0.09-0.21-0.39-0.19-0.53-0.06
			c-0.94,0.85-1.37,2.13-1.2,3.38c0.03,0.19,0.26,0.29,0.43,0.24C131.08,70.19,131.17,70,131.14,69.81L131.14,69.81z"/>
	</g>
</g>
<g>
	<g>
		<path class="st1" d="M138.21,67.74c-0.09-0.58-0.81-0.8-1.3-0.59c-0.56,0.24-0.9,0.9-1.14,1.42c-0.27,0.61-0.33,1.3,0.11,1.84
			c0.41,0.51,1.14,0.54,1.67,0.18c0.32-0.22,0.54-0.52,0.67-0.89c0.12-0.33,0.09-0.67,0.15-1.01c0.04-0.23-0.06-0.46-0.3-0.52
			c-0.22-0.06-0.49,0.08-0.54,0.31c-0.19,0.77,0.1,1.54,0.65,2.09c0.56,0.56,1.46,0.83,2.19,0.43c0.37-0.2,0.21-0.75-0.2-0.76
			c-0.07,0-0.14-0.01-0.22-0.02c-0.04,0-0.07,0-0.11,0c0.03,0.01,0.02,0.01-0.01,0c-0.06-0.01-0.12-0.02-0.18-0.04
			c-0.04-0.01-0.07-0.02-0.1-0.03c0.04,0.02,0.03,0.01-0.03-0.01c-0.13-0.05-0.17-0.07-0.11-0.05c0.03,0.01,0.02,0.01-0.04-0.02
			c-0.07-0.03-0.13-0.07-0.19-0.1c-0.13-0.08-0.17-0.1-0.26-0.17c-0.37-0.32-0.57-0.71-0.53-1.22c-0.29,0-0.58,0.01-0.88,0.01
			c-0.01,0.24-0.08,0.49-0.16,0.72c-0.06,0.17-0.17,0.33-0.27,0.41c-0.1,0.07-0.12,0.08-0.22,0.1c0.05-0.01-0.09,0-0.09,0
			c0.06,0-0.08-0.03-0.02-0.01c-0.06-0.02-0.02-0.01-0.05-0.03c-0.02-0.01-0.09-0.08-0.05-0.04c-0.08-0.1-0.09-0.13-0.11-0.23
			c-0.1-0.4,0.19-0.89,0.39-1.25c0.05-0.1,0.11-0.19,0.19-0.27c0.02-0.03,0.05-0.05,0.07-0.07c0.02-0.01,0.12-0.05,0.06-0.04
			c0.04-0.01,0.09-0.01,0.11,0c0.05,0.02,0.03,0,0.06,0.04c-0.02-0.02-0.03-0.07-0.01,0.02c0.04,0.21,0.29,0.33,0.49,0.28
			C138.13,68.17,138.24,67.96,138.21,67.74L138.21,67.74z"/>
	</g>
</g>
<g>
	<g>
		<path class="st1" d="M140.88,65.57c0.15,0.97,0.25,1.94,0.3,2.91c0.03,0.5,0.05,0.99,0.08,1.49c0.03,0.47-0.01,1.04,0.2,1.48
			c0.15,0.3,0.61,0.26,0.77-0.01c0.25-0.45,0.23-1.08,0.24-1.59c0.01-0.49,0-0.99-0.03-1.49c-0.07-1.04-0.19-2.08-0.37-3.11
			c-0.06-0.33-0.45-0.5-0.75-0.42C140.99,64.91,140.83,65.24,140.88,65.57L140.88,65.57z"/>
	</g>
</g>
<g>
	<g>
		<path class="st1" d="M140.4,67.79c0.55,0.11,1.11,0.16,1.67,0.15c0.29-0.01,0.58-0.03,0.86-0.09c0.28-0.05,0.56-0.11,0.8-0.25
			c0.14-0.08,0.22-0.26,0.18-0.42c-0.04-0.17-0.19-0.26-0.36-0.27c-0.24-0.02-0.49,0.03-0.73,0.04c-0.25,0.01-0.49,0.02-0.74,0.02
			c-0.49-0.01-0.9-0.07-1.39-0.2c-0.27-0.07-0.6,0.1-0.66,0.38C139.96,67.42,140.1,67.74,140.4,67.79L140.4,67.79z"/>
	</g>
</g>
<g>
	<g>
		<path class="st1" d="M144.73,68.22c0.19,0.52,0.32,1.08,0.4,1.63c0.04,0.28,0.07,0.5,0.09,0.72c0.02,0.28,0.02,0.57,0.04,0.85
			c0.01,0.17,0.11,0.32,0.28,0.36c0.16,0.04,0.36-0.03,0.43-0.18c0.28-0.56,0.41-1.24,0.42-1.86c0.01-0.64-0.11-1.27-0.32-1.88
			c-0.12-0.34-0.46-0.59-0.83-0.47C144.91,67.49,144.59,67.86,144.73,68.22L144.73,68.22z"/>
	</g>
</g>
<g>
	<g>
		<path class="st1" d="M145.52,65.28c0.01-0.01,0.02-0.02,0.03-0.02c0.33-0.28-0.02-0.73-0.38-0.66c-0.18,0.03-0.28,0.16-0.34,0.32
			c-0.1,0.25,0.14,0.46,0.37,0.48c0.1,0.01,0.18-0.03,0.27-0.07c-0.18-0.18-0.37-0.36-0.55-0.54c-0.01,0.01-0.01,0.02-0.02,0.03
			C144.59,65.2,145.2,65.55,145.52,65.28L145.52,65.28z"/>
	</g>
</g>
<g>
	<g>
		<path class="st1" d="M148.57,67.45c-0.39,0.25-0.77,0.53-1.05,0.9c-0.28,0.37-0.37,0.83-0.29,1.28c0.16,0.83,1.01,1.54,1.86,1.48
			c0.83-0.06,1.51-0.7,1.7-1.5c0.18-0.75-0.05-1.59-0.68-2.07c-0.38-0.29-0.82-0.44-1.3-0.47c-0.46-0.03-1.06,0.11-1.31,0.54
			c-0.15,0.25,0.04,0.55,0.32,0.55c0.09,0,0.18-0.01,0.27-0.03c0.03-0.01,0.07-0.01,0.1-0.02c0.12-0.02-0.1,0,0.02,0
			c0.07,0,0.13-0.01,0.2-0.03c0.01,0,0.02,0,0.04-0.01c0.05-0.01,0.05-0.01-0.02,0c0.05-0.03,0.16-0.01,0.21-0.02
			c0.07,0,0.14,0,0.21,0.01c0.12,0.01-0.1-0.02,0.01,0c0.04,0.01,0.07,0.01,0.11,0.02c0.06,0.01,0.12,0.03,0.17,0.05
			c0.03,0.01,0.07,0.02,0.1,0.03c-0.12-0.06,0.02,0.01,0.04,0.02c0.06,0.03,0.13,0.06,0.18,0.1c0.03,0.02,0.12,0.05,0.01,0.01
			c0.03,0.01,0.06,0.05,0.08,0.07c0.04,0.04,0.09,0.08,0.12,0.12c0.01,0.01,0.02,0.02,0.02,0.03c0.03,0.04,0.03,0.04-0.01-0.02
			c0.03,0.02,0.06,0.09,0.08,0.12c0.02,0.03,0.03,0.06,0.05,0.09c0,0.01,0.01,0.02,0.01,0.03c0.02,0.05,0.02,0.04-0.01-0.02
			c0.03,0.02,0.04,0.13,0.05,0.16c0,0.01,0,0.02,0.01,0.03c0.01,0.05,0.01,0.04,0-0.02c0.01,0.02,0,0.08,0.01,0.1
			c0,0.06,0.02,0.18-0.01,0.23c0-0.02,0.01-0.04,0.01-0.06c0,0.02-0.01,0.04-0.01,0.07c-0.01,0.03-0.01,0.05-0.02,0.08
			c-0.02,0.06-0.04,0.12-0.06,0.18c-0.04,0.11,0.05-0.1,0,0c-0.02,0.03-0.03,0.06-0.05,0.09c-0.02,0.05-0.12,0.15-0.13,0.19
			c0-0.06,0.07-0.08,0.01-0.02c-0.02,0.02-0.04,0.04-0.06,0.06c-0.02,0.02-0.05,0.05-0.07,0.07c-0.01,0.01-0.02,0.01-0.02,0.02
			c-0.05,0.04-0.03,0.03,0.04-0.03c-0.05,0.02-0.11,0.08-0.17,0.1c-0.01,0-0.02,0.01-0.03,0.01c-0.05,0.02-0.04,0.02,0.04-0.02
			c-0.03,0-0.07,0.02-0.09,0.03c-0.03,0.01-0.06,0.02-0.1,0.02c-0.12,0.03,0.12,0,0,0c-0.04,0-0.07,0-0.11,0c-0.13,0,0-0.01,0,0
			c0,0-0.19-0.04-0.21-0.05c-0.1-0.03,0.04,0.01,0.03,0.02c-0.01,0.01-0.12-0.05-0.13-0.06c-0.03-0.02-0.06-0.03-0.09-0.05
			c-0.01-0.01-0.02-0.01-0.03-0.02c-0.05-0.03-0.04-0.03,0.03,0.02c-0.01,0.01-0.15-0.13-0.16-0.14c-0.01-0.01-0.11-0.14-0.12-0.13
			c0.02-0.01,0.08,0.11,0,0c-0.03-0.04-0.05-0.08-0.07-0.12c0-0.01-0.04-0.09-0.05-0.09c0.03,0.08,0.04,0.09,0.02,0.03
			c-0.01-0.02-0.01-0.04-0.02-0.07c-0.01-0.03-0.01-0.07-0.02-0.1c-0.02-0.1,0,0.1,0,0c0-0.03,0-0.07,0-0.1c0-0.02,0-0.05,0.01-0.07
			c-0.01,0.07-0.01,0.08,0,0.02c0.01-0.04,0.02-0.07,0.03-0.11c0.02-0.05,0.02-0.05,0,0c0.01-0.03,0.02-0.05,0.04-0.07
			c0.02-0.04,0.04-0.07,0.07-0.11c0.02-0.02,0.03-0.05,0.05-0.07c-0.03,0.04-0.04,0.05-0.01,0.02c0.06-0.07,0.13-0.13,0.19-0.2
			c0.03-0.03,0.07-0.06,0.1-0.08c0.02-0.02,0.04-0.04,0.07-0.05c-0.05,0.04-0.05,0.04,0,0c0.08-0.06,0.16-0.12,0.25-0.17
			c0.2-0.14,0.33-0.41,0.18-0.64C149.08,67.4,148.79,67.31,148.57,67.45L148.57,67.45z"/>
	</g>
</g>
<g>
	<g>
		<path class="st1" d="M152.25,70.54c-0.08-0.7,0.02-1.45,0.29-2.1c0.11-0.26,0.27-0.65,0.52-0.81c0.19-0.12,0.36-0.07,0.53,0.06
			c0.52,0.38,0.68,1.07,0.79,1.68c0.13,0.78,0.04,1.57,0.13,2.34c0.05,0.41,0.67,0.41,0.84,0.1c0.39-0.72,0.37-1.6,0.23-2.39
			c-0.12-0.7-0.35-1.42-0.8-1.99c-0.41-0.53-1.05-0.95-1.74-0.79c-0.74,0.17-1.11,0.94-1.35,1.59c-0.29,0.77-0.42,1.6-0.34,2.43
			C151.41,71.32,152.32,71.18,152.25,70.54L152.25,70.54z"/>
	</g>
</g>
<g>
	<g>
		<path class="st1" d="M111.79,60.16c-0.05-0.38-0.01-0.77,0.12-1.14c0.05-0.14,0.17-0.34,0.25-0.43c0.05-0.06,0.15-0.16,0.18-0.17
			c-0.02,0.01,0.06-0.04,0.08-0.05c0.02-0.01,0.04-0.02,0.06-0.03c0,0,0.1-0.05,0.07-0.03c0.33-0.14,0.71-0.04,1.04,0.19
			c-0.04-0.03,0.05,0.05,0.07,0.06c0.05,0.04,0.09,0.08,0.14,0.13c0.04,0.04,0.07,0.08,0.11,0.12c0.04,0.05,0.01,0.01,0,0
			c0.03,0.04,0.05,0.07,0.08,0.11c0.14,0.22,0.2,0.37,0.27,0.62c0.04,0.15,0.08,0.3,0.1,0.45c0.03,0.17,0.04,0.3,0.06,0.42
			c0.04,0.31,0.01,0.81,0.32,1.05c0.18,0.14,0.44,0.17,0.62-0.01c0.29-0.3,0.25-0.73,0.21-1.12c-0.04-0.36-0.1-0.71-0.22-1.06
			c-0.22-0.65-0.6-1.2-1.18-1.58c-0.5-0.32-1.17-0.46-1.74-0.24c-0.52,0.2-0.89,0.6-1.11,1.1c-0.24,0.57-0.3,1.19-0.23,1.8
			c0.02,0.2,0.28,0.3,0.45,0.26C111.73,60.56,111.82,60.36,111.79,60.16L111.79,60.16z"/>
	</g>
</g>
<g>
	<g>
		<path class="st1" d="M115.56,58.96c-0.06,0.55-0.06,1.15,0.22,1.65c0.32,0.57,1.01,0.87,1.64,0.65c0.56-0.2,1.01-0.65,1.18-1.22
			c0.18-0.61-0.05-1.22-0.43-1.7c-0.19-0.24-0.43-0.44-0.7-0.59c-0.15-0.09-0.31-0.16-0.48-0.22c-0.2-0.07-0.44-0.15-0.65-0.06
			c-0.19,0.08-0.33,0.18-0.39,0.38c-0.05,0.19,0,0.37,0.14,0.52c0.12,0.13,0.28,0.17,0.44,0.22c0.03,0.01,0.13,0.03,0.14,0.05
			c-0.02-0.03-0.1-0.04-0.03-0.01c0.03,0.01,0.07,0.03,0.1,0.04c0.09,0.04,0.17,0.08,0.25,0.13c0.04,0.03,0.09,0.05,0.13,0.08
			c0.02,0.01,0.08,0.06,0.02,0.01c-0.07-0.06,0.02,0.01,0.03,0.03c0.08,0.06,0.14,0.13,0.21,0.2c0.07,0.07-0.01-0.01-0.02-0.03
			c0.01,0.02,0.03,0.04,0.04,0.06c0.03,0.05,0.06,0.1,0.09,0.15c0.01,0.02,0.02,0.05,0.03,0.06c-0.01-0.01-0.04-0.12-0.01-0.03
			c0.01,0.05,0.03,0.09,0.04,0.14c0,0.02,0,0.06,0.01,0.07c-0.01-0.01,0-0.12-0.01-0.03c0,0.04,0,0.09,0,0.13
			c0,0.09,0-0.04,0.01-0.04c0,0-0.01,0.05-0.01,0.06c-0.01,0.02-0.01,0.04-0.02,0.06c-0.02,0.09,0.01-0.03,0.02-0.04
			c-0.03,0.03-0.04,0.09-0.06,0.12c-0.01,0.02-0.02,0.04-0.04,0.06c-0.01,0.01-0.02,0.03-0.03,0.04c-0.03,0.04-0.01,0.02,0.04-0.05
			c-0.03,0.02-0.06,0.07-0.09,0.1c-0.03,0.03-0.08,0.06-0.1,0.09c0.01-0.01,0.13-0.09,0.05-0.04c-0.02,0.01-0.04,0.02-0.05,0.04
			c-0.04,0.03-0.09,0.05-0.13,0.07c-0.07,0.04,0.13-0.04,0.06-0.03c-0.02,0.01-0.04,0.01-0.06,0.02c-0.03,0.01-0.07,0.01-0.11,0.02
			c0.13-0.05,0.12-0.01,0.07-0.01c-0.02,0-0.04,0-0.06,0c-0.02,0-0.04,0-0.06,0c0.14-0.01,0.1,0.02,0.04,0
			c-0.02,0-0.04-0.01-0.06-0.02c-0.06-0.02,0-0.04,0.06,0.02c-0.02-0.02-0.09-0.06-0.11-0.06c0.02,0,0.11,0.1,0.04,0.03
			c-0.02-0.02-0.03-0.03-0.05-0.05c-0.02-0.02-0.03-0.03-0.05-0.05c-0.07-0.07,0.06,0.1,0.03,0.03c-0.02-0.04-0.05-0.09-0.08-0.13
			c-0.05-0.08,0.02,0.04,0.02,0.05c0-0.03-0.03-0.07-0.03-0.1c-0.03-0.1-0.04-0.21-0.06-0.32c0,0.01,0.01,0.14,0.01,0.04
			c0-0.03,0-0.06-0.01-0.09c0-0.06,0-0.11,0-0.17c0-0.12,0.01-0.24,0.01-0.37c0.02-0.31-0.27-0.59-0.58-0.58
			C115.82,58.39,115.59,58.63,115.56,58.96L115.56,58.96z"/>
	</g>
</g>
<g>
	<g>
		<path class="st0" d="M147.71,37.79c-8.53,3.43-18.06,4.41-27.11,2.81c-2.55-0.45-4.99-1.24-7.49-1.88
			c-0.3-0.08-0.54,0.39-0.23,0.53c2.09,0.95,4.4,1.48,6.63,1.94c2.31,0.47,4.65,0.77,6.99,0.9c4.66,0.27,9.37-0.14,13.92-1.2
			c2.58-0.6,5.09-1.45,7.53-2.47C148.33,38.27,148.08,37.64,147.71,37.79L147.71,37.79z"/>
	</g>
</g>
<g>
	<g>
		<path class="st0" d="M112.62,39.83c0.14,0.38,0.28,0.76,0.42,1.15c0.07,0.19,0.14,0.38,0.21,0.57c0.1,0.27,0.26,0.66,0.64,0.56
			c0.19-0.05,0.29-0.23,0.3-0.41c0.01-0.12-0.04-0.26-0.08-0.38c-0.06-0.19-0.14-0.38-0.21-0.57c-0.14-0.38-0.28-0.76-0.42-1.15
			c-0.08-0.22-0.3-0.38-0.54-0.31C112.74,39.36,112.53,39.59,112.62,39.83L112.62,39.83z"/>
	</g>
</g>
<g>
	<g>
		<path class="st0" d="M113.61,38.91c0.4-0.2,0.77-0.47,1.08-0.79c0.16-0.17,0.31-0.34,0.44-0.54c0.06-0.09,0.11-0.18,0.16-0.28
			c0.03-0.06,0.06-0.12,0.07-0.19c0.01-0.07,0.02-0.14,0.03-0.21c0.02-0.11-0.08-0.22-0.17-0.25c-0.11-0.04-0.23-0.02-0.31,0.06
			c-0.09,0.09-0.17,0.17-0.24,0.27c-0.03,0.04,0.04-0.05,0,0c-0.03,0.04-0.06,0.08-0.09,0.12c-0.02,0.02-0.05,0.09-0.01,0.01
			c-0.01,0.02-0.03,0.04-0.04,0.05c-0.13,0.15-0.26,0.31-0.4,0.45c-0.07,0.07-0.14,0.14-0.22,0.2c-0.04,0.03-0.07,0.06-0.11,0.09
			c-0.01,0.01-0.02,0.02-0.03,0.02c0.05-0.03,0.06-0.04,0.03-0.02c-0.02,0.01-0.04,0.03-0.05,0.04c-0.17,0.12-0.34,0.22-0.52,0.32
			c-0.18,0.09-0.26,0.36-0.15,0.53C113.2,38.96,113.42,39,113.61,38.91L113.61,38.91z"/>
	</g>
</g>
<g>
	<g>
		<path class="st1" d="M115.99,47.42c7.92-6.38,15.94-12.63,24.07-18.74c2.27-1.71,4.58-3.38,6.77-5.19
			c0.31-0.26-0.09-0.77-0.43-0.55c-4.23,2.79-8.2,6.02-12.21,9.11c-4.02,3.11-8,6.26-11.96,9.44c-2.25,1.81-4.49,3.63-6.71,5.46
			C115.17,47.24,115.65,47.69,115.99,47.42L115.99,47.42z"/>
	</g>
</g>
<g>
	<g>
		<path class="st1" d="M118.49,25.39c7.58,6.54,15.36,12.84,23.38,18.81c2.26,1.68,4.56,3.31,6.91,4.86c0.31,0.2,0.72-0.3,0.42-0.54
			c-7.91-6.07-15.98-11.91-23.68-18.25c-2.18-1.79-4.34-3.61-6.48-5.44C118.68,24.52,118.11,25.06,118.49,25.39L118.49,25.39z"/>
	</g>
</g>
</svg>
