<?xml version="1.0" encoding="utf-8" standalone="no"?>
<!DOCTYPE svg PUBLIC "-//W3C//DTD SVG 1.1//EN"
  "http://www.w3.org/Graphics/SVG/1.1/DTD/svg11.dtd">
<svg xmlns:xlink="http://www.w3.org/1999/xlink" width="460.8pt" height="345.6pt" viewBox="0 0 460.8 345.6" xmlns="http://www.w3.org/2000/svg" version="1.1">
 <metadata>
  <rdf:RDF xmlns:dc="http://purl.org/dc/elements/1.1/" xmlns:cc="http://creativecommons.org/ns#" xmlns:rdf="http://www.w3.org/1999/02/22-rdf-syntax-ns#">
   <cc:Work>
    <dc:type rdf:resource="http://purl.org/dc/dcmitype/StillImage"/>
    <dc:date>2023-11-08T11:06:02.279301</dc:date>
    <dc:format>image/svg+xml</dc:format>
    <dc:creator>
     <cc:Agent>
      <dc:title>Matplotlib v3.7.1, https://matplotlib.org/</dc:title>
     </cc:Agent>
    </dc:creator>
   </cc:Work>
  </rdf:RDF>
 </metadata>
 <defs>
  <style type="text/css">*{stroke-linejoin: round; stroke-linecap: butt}</style>
 </defs>
 <g id="figure_1">
  <g id="patch_1">
   <path d="M 0 345.6 
L 460.8 345.6 
L 460.8 0 
L 0 0 
z
" style="fill: #ffffff"/>
  </g>
  <g id="axes_1">
   <g id="patch_2">
    <path d="M 47.72 303.64 
L 450 303.64 
L 450 26.88 
L 47.72 26.88 
z
" style="fill: #ffffff"/>
   </g>
   <g id="matplotlib.axis_1">
    <g id="xtick_1">
     <g id="line2d_1">
      <defs>
       <path id="m9cf64afd09" d="M 0 0 
L 0 3.5 
" style="stroke: #000000; stroke-width: 0.8"/>
      </defs>
      <g>
       <use xlink:href="#m9cf64afd09" x="66.005455" y="303.64" style="stroke: #000000; stroke-width: 0.8"/>
      </g>
     </g>
     <g id="text_1">
      <!-- 0 -->
      <g transform="translate(62.824205 318.238437) scale(0.1 -0.1)">
       <defs>
        <path id="DejaVuSans-30" d="M 2034 4250 
Q 1547 4250 1301 3770 
Q 1056 3291 1056 2328 
Q 1056 1369 1301 889 
Q 1547 409 2034 409 
Q 2525 409 2770 889 
Q 3016 1369 3016 2328 
Q 3016 3291 2770 3770 
Q 2525 4250 2034 4250 
z
M 2034 4750 
Q 2819 4750 3233 4129 
Q 3647 3509 3647 2328 
Q 3647 1150 3233 529 
Q 2819 -91 2034 -91 
Q 1250 -91 836 529 
Q 422 1150 422 2328 
Q 422 3509 836 4129 
Q 1250 4750 2034 4750 
z
" transform="scale(0.015625)"/>
       </defs>
       <use xlink:href="#DejaVuSans-30"/>
      </g>
     </g>
    </g>
    <g id="xtick_2">
     <g id="line2d_2">
      <g>
       <use xlink:href="#m9cf64afd09" x="149.121157" y="303.64" style="stroke: #000000; stroke-width: 0.8"/>
      </g>
     </g>
     <g id="text_2">
      <!-- 20 -->
      <g transform="translate(142.758657 318.238437) scale(0.1 -0.1)">
       <defs>
        <path id="DejaVuSans-32" d="M 1228 531 
L 3431 531 
L 3431 0 
L 469 0 
L 469 531 
Q 828 903 1448 1529 
Q 2069 2156 2228 2338 
Q 2531 2678 2651 2914 
Q 2772 3150 2772 3378 
Q 2772 3750 2511 3984 
Q 2250 4219 1831 4219 
Q 1534 4219 1204 4116 
Q 875 4013 500 3803 
L 500 4441 
Q 881 4594 1212 4672 
Q 1544 4750 1819 4750 
Q 2544 4750 2975 4387 
Q 3406 4025 3406 3419 
Q 3406 3131 3298 2873 
Q 3191 2616 2906 2266 
Q 2828 2175 2409 1742 
Q 1991 1309 1228 531 
z
" transform="scale(0.015625)"/>
       </defs>
       <use xlink:href="#DejaVuSans-32"/>
       <use xlink:href="#DejaVuSans-30" x="63.623047"/>
      </g>
     </g>
    </g>
    <g id="xtick_3">
     <g id="line2d_3">
      <g>
       <use xlink:href="#m9cf64afd09" x="232.23686" y="303.64" style="stroke: #000000; stroke-width: 0.8"/>
      </g>
     </g>
     <g id="text_3">
      <!-- 40 -->
      <g transform="translate(225.87436 318.238437) scale(0.1 -0.1)">
       <defs>
        <path id="DejaVuSans-34" d="M 2419 4116 
L 825 1625 
L 2419 1625 
L 2419 4116 
z
M 2253 4666 
L 3047 4666 
L 3047 1625 
L 3713 1625 
L 3713 1100 
L 3047 1100 
L 3047 0 
L 2419 0 
L 2419 1100 
L 313 1100 
L 313 1709 
L 2253 4666 
z
" transform="scale(0.015625)"/>
       </defs>
       <use xlink:href="#DejaVuSans-34"/>
       <use xlink:href="#DejaVuSans-30" x="63.623047"/>
      </g>
     </g>
    </g>
    <g id="xtick_4">
     <g id="line2d_4">
      <g>
       <use xlink:href="#m9cf64afd09" x="315.352562" y="303.64" style="stroke: #000000; stroke-width: 0.8"/>
      </g>
     </g>
     <g id="text_4">
      <!-- 60 -->
      <g transform="translate(308.990062 318.238437) scale(0.1 -0.1)">
       <defs>
        <path id="DejaVuSans-36" d="M 2113 2584 
Q 1688 2584 1439 2293 
Q 1191 2003 1191 1497 
Q 1191 994 1439 701 
Q 1688 409 2113 409 
Q 2538 409 2786 701 
Q 3034 994 3034 1497 
Q 3034 2003 2786 2293 
Q 2538 2584 2113 2584 
z
M 3366 4563 
L 3366 3988 
Q 3128 4100 2886 4159 
Q 2644 4219 2406 4219 
Q 1781 4219 1451 3797 
Q 1122 3375 1075 2522 
Q 1259 2794 1537 2939 
Q 1816 3084 2150 3084 
Q 2853 3084 3261 2657 
Q 3669 2231 3669 1497 
Q 3669 778 3244 343 
Q 2819 -91 2113 -91 
Q 1303 -91 875 529 
Q 447 1150 447 2328 
Q 447 3434 972 4092 
Q 1497 4750 2381 4750 
Q 2619 4750 2861 4703 
Q 3103 4656 3366 4563 
z
" transform="scale(0.015625)"/>
       </defs>
       <use xlink:href="#DejaVuSans-36"/>
       <use xlink:href="#DejaVuSans-30" x="63.623047"/>
      </g>
     </g>
    </g>
    <g id="xtick_5">
     <g id="line2d_5">
      <g>
       <use xlink:href="#m9cf64afd09" x="398.468264" y="303.64" style="stroke: #000000; stroke-width: 0.8"/>
      </g>
     </g>
     <g id="text_5">
      <!-- 80 -->
      <g transform="translate(392.105764 318.238437) scale(0.1 -0.1)">
       <defs>
        <path id="DejaVuSans-38" d="M 2034 2216 
Q 1584 2216 1326 1975 
Q 1069 1734 1069 1313 
Q 1069 891 1326 650 
Q 1584 409 2034 409 
Q 2484 409 2743 651 
Q 3003 894 3003 1313 
Q 3003 1734 2745 1975 
Q 2488 2216 2034 2216 
z
M 1403 2484 
Q 997 2584 770 2862 
Q 544 3141 544 3541 
Q 544 4100 942 4425 
Q 1341 4750 2034 4750 
Q 2731 4750 3128 4425 
Q 3525 4100 3525 3541 
Q 3525 3141 3298 2862 
Q 3072 2584 2669 2484 
Q 3125 2378 3379 2068 
Q 3634 1759 3634 1313 
Q 3634 634 3220 271 
Q 2806 -91 2034 -91 
Q 1263 -91 848 271 
Q 434 634 434 1313 
Q 434 1759 690 2068 
Q 947 2378 1403 2484 
z
M 1172 3481 
Q 1172 3119 1398 2916 
Q 1625 2713 2034 2713 
Q 2441 2713 2670 2916 
Q 2900 3119 2900 3481 
Q 2900 3844 2670 4047 
Q 2441 4250 2034 4250 
Q 1625 4250 1398 4047 
Q 1172 3844 1172 3481 
z
" transform="scale(0.015625)"/>
       </defs>
       <use xlink:href="#DejaVuSans-38"/>
       <use xlink:href="#DejaVuSans-30" x="63.623047"/>
      </g>
     </g>
    </g>
    <g id="text_6">
     <!-- number of reviews -->
     <g transform="translate(202.21 331.916562) scale(0.1 -0.1)">
      <defs>
       <path id="DejaVuSans-6e" d="M 3513 2113 
L 3513 0 
L 2938 0 
L 2938 2094 
Q 2938 2591 2744 2837 
Q 2550 3084 2163 3084 
Q 1697 3084 1428 2787 
Q 1159 2491 1159 1978 
L 1159 0 
L 581 0 
L 581 3500 
L 1159 3500 
L 1159 2956 
Q 1366 3272 1645 3428 
Q 1925 3584 2291 3584 
Q 2894 3584 3203 3211 
Q 3513 2838 3513 2113 
z
" transform="scale(0.015625)"/>
       <path id="DejaVuSans-75" d="M 544 1381 
L 544 3500 
L 1119 3500 
L 1119 1403 
Q 1119 906 1312 657 
Q 1506 409 1894 409 
Q 2359 409 2629 706 
Q 2900 1003 2900 1516 
L 2900 3500 
L 3475 3500 
L 3475 0 
L 2900 0 
L 2900 538 
Q 2691 219 2414 64 
Q 2138 -91 1772 -91 
Q 1169 -91 856 284 
Q 544 659 544 1381 
z
M 1991 3584 
L 1991 3584 
z
" transform="scale(0.015625)"/>
       <path id="DejaVuSans-6d" d="M 3328 2828 
Q 3544 3216 3844 3400 
Q 4144 3584 4550 3584 
Q 5097 3584 5394 3201 
Q 5691 2819 5691 2113 
L 5691 0 
L 5113 0 
L 5113 2094 
Q 5113 2597 4934 2840 
Q 4756 3084 4391 3084 
Q 3944 3084 3684 2787 
Q 3425 2491 3425 1978 
L 3425 0 
L 2847 0 
L 2847 2094 
Q 2847 2600 2669 2842 
Q 2491 3084 2119 3084 
Q 1678 3084 1418 2786 
Q 1159 2488 1159 1978 
L 1159 0 
L 581 0 
L 581 3500 
L 1159 3500 
L 1159 2956 
Q 1356 3278 1631 3431 
Q 1906 3584 2284 3584 
Q 2666 3584 2933 3390 
Q 3200 3197 3328 2828 
z
" transform="scale(0.015625)"/>
       <path id="DejaVuSans-62" d="M 3116 1747 
Q 3116 2381 2855 2742 
Q 2594 3103 2138 3103 
Q 1681 3103 1420 2742 
Q 1159 2381 1159 1747 
Q 1159 1113 1420 752 
Q 1681 391 2138 391 
Q 2594 391 2855 752 
Q 3116 1113 3116 1747 
z
M 1159 2969 
Q 1341 3281 1617 3432 
Q 1894 3584 2278 3584 
Q 2916 3584 3314 3078 
Q 3713 2572 3713 1747 
Q 3713 922 3314 415 
Q 2916 -91 2278 -91 
Q 1894 -91 1617 61 
Q 1341 213 1159 525 
L 1159 0 
L 581 0 
L 581 4863 
L 1159 4863 
L 1159 2969 
z
" transform="scale(0.015625)"/>
       <path id="DejaVuSans-65" d="M 3597 1894 
L 3597 1613 
L 953 1613 
Q 991 1019 1311 708 
Q 1631 397 2203 397 
Q 2534 397 2845 478 
Q 3156 559 3463 722 
L 3463 178 
Q 3153 47 2828 -22 
Q 2503 -91 2169 -91 
Q 1331 -91 842 396 
Q 353 884 353 1716 
Q 353 2575 817 3079 
Q 1281 3584 2069 3584 
Q 2775 3584 3186 3129 
Q 3597 2675 3597 1894 
z
M 3022 2063 
Q 3016 2534 2758 2815 
Q 2500 3097 2075 3097 
Q 1594 3097 1305 2825 
Q 1016 2553 972 2059 
L 3022 2063 
z
" transform="scale(0.015625)"/>
       <path id="DejaVuSans-72" d="M 2631 2963 
Q 2534 3019 2420 3045 
Q 2306 3072 2169 3072 
Q 1681 3072 1420 2755 
Q 1159 2438 1159 1844 
L 1159 0 
L 581 0 
L 581 3500 
L 1159 3500 
L 1159 2956 
Q 1341 3275 1631 3429 
Q 1922 3584 2338 3584 
Q 2397 3584 2469 3576 
Q 2541 3569 2628 3553 
L 2631 2963 
z
" transform="scale(0.015625)"/>
       <path id="DejaVuSans-20" transform="scale(0.015625)"/>
       <path id="DejaVuSans-6f" d="M 1959 3097 
Q 1497 3097 1228 2736 
Q 959 2375 959 1747 
Q 959 1119 1226 758 
Q 1494 397 1959 397 
Q 2419 397 2687 759 
Q 2956 1122 2956 1747 
Q 2956 2369 2687 2733 
Q 2419 3097 1959 3097 
z
M 1959 3584 
Q 2709 3584 3137 3096 
Q 3566 2609 3566 1747 
Q 3566 888 3137 398 
Q 2709 -91 1959 -91 
Q 1206 -91 779 398 
Q 353 888 353 1747 
Q 353 2609 779 3096 
Q 1206 3584 1959 3584 
z
" transform="scale(0.015625)"/>
       <path id="DejaVuSans-66" d="M 2375 4863 
L 2375 4384 
L 1825 4384 
Q 1516 4384 1395 4259 
Q 1275 4134 1275 3809 
L 1275 3500 
L 2222 3500 
L 2222 3053 
L 1275 3053 
L 1275 0 
L 697 0 
L 697 3053 
L 147 3053 
L 147 3500 
L 697 3500 
L 697 3744 
Q 697 4328 969 4595 
Q 1241 4863 1831 4863 
L 2375 4863 
z
" transform="scale(0.015625)"/>
       <path id="DejaVuSans-76" d="M 191 3500 
L 800 3500 
L 1894 563 
L 2988 3500 
L 3597 3500 
L 2284 0 
L 1503 0 
L 191 3500 
z
" transform="scale(0.015625)"/>
       <path id="DejaVuSans-69" d="M 603 3500 
L 1178 3500 
L 1178 0 
L 603 0 
L 603 3500 
z
M 603 4863 
L 1178 4863 
L 1178 4134 
L 603 4134 
L 603 4863 
z
" transform="scale(0.015625)"/>
       <path id="DejaVuSans-77" d="M 269 3500 
L 844 3500 
L 1563 769 
L 2278 3500 
L 2956 3500 
L 3675 769 
L 4391 3500 
L 4966 3500 
L 4050 0 
L 3372 0 
L 2619 2869 
L 1863 0 
L 1184 0 
L 269 3500 
z
" transform="scale(0.015625)"/>
       <path id="DejaVuSans-73" d="M 2834 3397 
L 2834 2853 
Q 2591 2978 2328 3040 
Q 2066 3103 1784 3103 
Q 1356 3103 1142 2972 
Q 928 2841 928 2578 
Q 928 2378 1081 2264 
Q 1234 2150 1697 2047 
L 1894 2003 
Q 2506 1872 2764 1633 
Q 3022 1394 3022 966 
Q 3022 478 2636 193 
Q 2250 -91 1575 -91 
Q 1294 -91 989 -36 
Q 684 19 347 128 
L 347 722 
Q 666 556 975 473 
Q 1284 391 1588 391 
Q 1994 391 2212 530 
Q 2431 669 2431 922 
Q 2431 1156 2273 1281 
Q 2116 1406 1581 1522 
L 1381 1569 
Q 847 1681 609 1914 
Q 372 2147 372 2553 
Q 372 3047 722 3315 
Q 1072 3584 1716 3584 
Q 2034 3584 2315 3537 
Q 2597 3491 2834 3397 
z
" transform="scale(0.015625)"/>
      </defs>
      <use xlink:href="#DejaVuSans-6e"/>
      <use xlink:href="#DejaVuSans-75" x="63.378906"/>
      <use xlink:href="#DejaVuSans-6d" x="126.757812"/>
      <use xlink:href="#DejaVuSans-62" x="224.169922"/>
      <use xlink:href="#DejaVuSans-65" x="287.646484"/>
      <use xlink:href="#DejaVuSans-72" x="349.169922"/>
      <use xlink:href="#DejaVuSans-20" x="390.283203"/>
      <use xlink:href="#DejaVuSans-6f" x="422.070312"/>
      <use xlink:href="#DejaVuSans-66" x="483.251953"/>
      <use xlink:href="#DejaVuSans-20" x="518.457031"/>
      <use xlink:href="#DejaVuSans-72" x="550.244141"/>
      <use xlink:href="#DejaVuSans-65" x="589.107422"/>
      <use xlink:href="#DejaVuSans-76" x="650.630859"/>
      <use xlink:href="#DejaVuSans-69" x="709.810547"/>
      <use xlink:href="#DejaVuSans-65" x="737.59375"/>
      <use xlink:href="#DejaVuSans-77" x="799.117188"/>
      <use xlink:href="#DejaVuSans-73" x="880.904297"/>
     </g>
    </g>
   </g>
   <g id="matplotlib.axis_2">
    <g id="ytick_1">
     <g id="line2d_6">
      <defs>
       <path id="m7ea4ccca4c" d="M 0 0 
L -3.5 0 
" style="stroke: #000000; stroke-width: 0.8"/>
      </defs>
      <g>
       <use xlink:href="#m7ea4ccca4c" x="47.72" y="303.64" style="stroke: #000000; stroke-width: 0.8"/>
      </g>
     </g>
     <g id="text_7">
      <!-- 0.0 -->
      <g transform="translate(24.816875 307.439219) scale(0.1 -0.1)">
       <defs>
        <path id="DejaVuSans-2e" d="M 684 794 
L 1344 794 
L 1344 0 
L 684 0 
L 684 794 
z
" transform="scale(0.015625)"/>
       </defs>
       <use xlink:href="#DejaVuSans-30"/>
       <use xlink:href="#DejaVuSans-2e" x="63.623047"/>
       <use xlink:href="#DejaVuSans-30" x="95.410156"/>
      </g>
     </g>
    </g>
    <g id="ytick_2">
     <g id="line2d_7">
      <g>
       <use xlink:href="#m7ea4ccca4c" x="47.72" y="248.288" style="stroke: #000000; stroke-width: 0.8"/>
      </g>
     </g>
     <g id="text_8">
      <!-- 0.2 -->
      <g transform="translate(24.816875 252.087219) scale(0.1 -0.1)">
       <use xlink:href="#DejaVuSans-30"/>
       <use xlink:href="#DejaVuSans-2e" x="63.623047"/>
       <use xlink:href="#DejaVuSans-32" x="95.410156"/>
      </g>
     </g>
    </g>
    <g id="ytick_3">
     <g id="line2d_8">
      <g>
       <use xlink:href="#m7ea4ccca4c" x="47.72" y="192.936" style="stroke: #000000; stroke-width: 0.8"/>
      </g>
     </g>
     <g id="text_9">
      <!-- 0.4 -->
      <g transform="translate(24.816875 196.735219) scale(0.1 -0.1)">
       <use xlink:href="#DejaVuSans-30"/>
       <use xlink:href="#DejaVuSans-2e" x="63.623047"/>
       <use xlink:href="#DejaVuSans-34" x="95.410156"/>
      </g>
     </g>
    </g>
    <g id="ytick_4">
     <g id="line2d_9">
      <g>
       <use xlink:href="#m7ea4ccca4c" x="47.72" y="137.584" style="stroke: #000000; stroke-width: 0.8"/>
      </g>
     </g>
     <g id="text_10">
      <!-- 0.6 -->
      <g transform="translate(24.816875 141.383219) scale(0.1 -0.1)">
       <use xlink:href="#DejaVuSans-30"/>
       <use xlink:href="#DejaVuSans-2e" x="63.623047"/>
       <use xlink:href="#DejaVuSans-36" x="95.410156"/>
      </g>
     </g>
    </g>
    <g id="ytick_5">
     <g id="line2d_10">
      <g>
       <use xlink:href="#m7ea4ccca4c" x="47.72" y="82.232" style="stroke: #000000; stroke-width: 0.8"/>
      </g>
     </g>
     <g id="text_11">
      <!-- 0.8 -->
      <g transform="translate(24.816875 86.031219) scale(0.1 -0.1)">
       <use xlink:href="#DejaVuSans-30"/>
       <use xlink:href="#DejaVuSans-2e" x="63.623047"/>
       <use xlink:href="#DejaVuSans-38" x="95.410156"/>
      </g>
     </g>
    </g>
    <g id="ytick_6">
     <g id="line2d_11">
      <g>
       <use xlink:href="#m7ea4ccca4c" x="47.72" y="26.88" style="stroke: #000000; stroke-width: 0.8"/>
      </g>
     </g>
     <g id="text_12">
      <!-- 1.0 -->
      <g transform="translate(24.816875 30.679219) scale(0.1 -0.1)">
       <defs>
        <path id="DejaVuSans-31" d="M 794 531 
L 1825 531 
L 1825 4091 
L 703 3866 
L 703 4441 
L 1819 4666 
L 2450 4666 
L 2450 531 
L 3481 531 
L 3481 0 
L 794 0 
L 794 531 
z
" transform="scale(0.015625)"/>
       </defs>
       <use xlink:href="#DejaVuSans-31"/>
       <use xlink:href="#DejaVuSans-2e" x="63.623047"/>
       <use xlink:href="#DejaVuSans-30" x="95.410156"/>
      </g>
     </g>
    </g>
    <g id="text_13">
     <!-- probability -->
     <g transform="translate(18.737188 191.935781) rotate(-90) scale(0.1 -0.1)">
      <defs>
       <path id="DejaVuSans-70" d="M 1159 525 
L 1159 -1331 
L 581 -1331 
L 581 3500 
L 1159 3500 
L 1159 2969 
Q 1341 3281 1617 3432 
Q 1894 3584 2278 3584 
Q 2916 3584 3314 3078 
Q 3713 2572 3713 1747 
Q 3713 922 3314 415 
Q 2916 -91 2278 -91 
Q 1894 -91 1617 61 
Q 1341 213 1159 525 
z
M 3116 1747 
Q 3116 2381 2855 2742 
Q 2594 3103 2138 3103 
Q 1681 3103 1420 2742 
Q 1159 2381 1159 1747 
Q 1159 1113 1420 752 
Q 1681 391 2138 391 
Q 2594 391 2855 752 
Q 3116 1113 3116 1747 
z
" transform="scale(0.015625)"/>
       <path id="DejaVuSans-61" d="M 2194 1759 
Q 1497 1759 1228 1600 
Q 959 1441 959 1056 
Q 959 750 1161 570 
Q 1363 391 1709 391 
Q 2188 391 2477 730 
Q 2766 1069 2766 1631 
L 2766 1759 
L 2194 1759 
z
M 3341 1997 
L 3341 0 
L 2766 0 
L 2766 531 
Q 2569 213 2275 61 
Q 1981 -91 1556 -91 
Q 1019 -91 701 211 
Q 384 513 384 1019 
Q 384 1609 779 1909 
Q 1175 2209 1959 2209 
L 2766 2209 
L 2766 2266 
Q 2766 2663 2505 2880 
Q 2244 3097 1772 3097 
Q 1472 3097 1187 3025 
Q 903 2953 641 2809 
L 641 3341 
Q 956 3463 1253 3523 
Q 1550 3584 1831 3584 
Q 2591 3584 2966 3190 
Q 3341 2797 3341 1997 
z
" transform="scale(0.015625)"/>
       <path id="DejaVuSans-6c" d="M 603 4863 
L 1178 4863 
L 1178 0 
L 603 0 
L 603 4863 
z
" transform="scale(0.015625)"/>
       <path id="DejaVuSans-74" d="M 1172 4494 
L 1172 3500 
L 2356 3500 
L 2356 3053 
L 1172 3053 
L 1172 1153 
Q 1172 725 1289 603 
Q 1406 481 1766 481 
L 2356 481 
L 2356 0 
L 1766 0 
Q 1100 0 847 248 
Q 594 497 594 1153 
L 594 3053 
L 172 3053 
L 172 3500 
L 594 3500 
L 594 4494 
L 1172 4494 
z
" transform="scale(0.015625)"/>
       <path id="DejaVuSans-79" d="M 2059 -325 
Q 1816 -950 1584 -1140 
Q 1353 -1331 966 -1331 
L 506 -1331 
L 506 -850 
L 844 -850 
Q 1081 -850 1212 -737 
Q 1344 -625 1503 -206 
L 1606 56 
L 191 3500 
L 800 3500 
L 1894 763 
L 2988 3500 
L 3597 3500 
L 2059 -325 
z
" transform="scale(0.015625)"/>
      </defs>
      <use xlink:href="#DejaVuSans-70"/>
      <use xlink:href="#DejaVuSans-72" x="63.476562"/>
      <use xlink:href="#DejaVuSans-6f" x="102.339844"/>
      <use xlink:href="#DejaVuSans-62" x="163.521484"/>
      <use xlink:href="#DejaVuSans-61" x="226.998047"/>
      <use xlink:href="#DejaVuSans-62" x="288.277344"/>
      <use xlink:href="#DejaVuSans-69" x="351.753906"/>
      <use xlink:href="#DejaVuSans-6c" x="379.537109"/>
      <use xlink:href="#DejaVuSans-69" x="407.320312"/>
      <use xlink:href="#DejaVuSans-74" x="435.103516"/>
      <use xlink:href="#DejaVuSans-79" x="474.3125"/>
     </g>
    </g>
   </g>
   <g id="line2d_12">
    <path d="M 66.005455 303.64 
L 66.005455 240.586409 
L 70.16124 240.586409 
L 70.16124 240.480151 
L 70.16124 214.765676 
L 74.317025 214.765676 
L 74.317025 214.659418 
L 74.317025 198.168152 
L 78.47281 198.168152 
L 78.47281 198.061894 
L 78.47281 185.884709 
L 82.628595 185.884709 
L 82.628595 185.77845 
L 82.628595 176.193965 
L 86.78438 176.193965 
L 86.78438 176.087706 
L 86.78438 168.139596 
L 90.940165 168.139596 
L 90.940165 168.033338 
L 90.940165 161.211564 
L 95.09595 161.211564 
L 95.09595 161.105306 
L 95.09595 154.559803 
L 99.251736 154.559803 
L 99.251736 154.453545 
L 99.251736 148.375579 
L 103.407521 148.375579 
L 103.407521 148.26932 
L 103.407521 142.871406 
L 107.563306 142.871406 
L 107.563306 142.765148 
L 107.563306 137.728511 
L 111.719091 137.728511 
L 111.719091 137.622253 
L 111.719091 132.946894 
L 115.874876 132.946894 
L 115.874876 132.840636 
L 115.874876 129.036594 
L 120.030661 129.036594 
L 120.030661 128.930336 
L 120.030661 124.616254 
L 124.186446 124.616254 
L 124.186446 124.509996 
L 124.186446 120.897219 
L 128.342231 120.897219 
L 128.342231 120.790961 
L 128.342231 117.369448 
L 132.498017 117.369448 
L 132.498017 117.26319 
L 132.498017 114.479226 
L 136.653802 114.479226 
L 136.653802 114.372968 
L 136.653802 110.972707 
L 140.809587 110.972707 
L 140.809587 110.866449 
L 140.809587 107.699955 
L 144.965372 107.699955 
L 144.965372 107.593697 
L 144.965372 105.086005 
L 149.121157 105.086005 
L 149.121157 104.979747 
L 149.121157 102.663319 
L 153.276942 102.663319 
L 153.276942 102.557061 
L 153.276942 100.325639 
L 157.432727 100.325639 
L 157.432727 100.219381 
L 157.432727 97.669185 
L 161.588512 97.669185 
L 161.588512 97.562927 
L 161.588512 94.970228 
L 165.744298 94.970228 
L 165.744298 94.86397 
L 165.744298 92.483787 
L 169.900083 92.483787 
L 169.900083 92.377529 
L 169.900083 90.124856 
L 174.055868 90.124856 
L 174.055868 90.018598 
L 174.055868 87.95719 
L 178.211653 87.95719 
L 178.211653 87.850931 
L 178.211653 85.640762 
L 182.367438 85.640762 
L 182.367438 85.534504 
L 182.367438 83.53685 
L 186.523223 83.53685 
L 186.523223 83.430592 
L 186.523223 81.666707 
L 190.679008 81.666707 
L 190.679008 81.560448 
L 190.679008 79.796563 
L 194.834793 79.796563 
L 194.834793 79.690305 
L 194.834793 78.223942 
L 198.990579 78.223942 
L 198.990579 78.117684 
L 198.990579 76.013773 
L 203.146364 76.013773 
L 203.146364 75.907514 
L 203.146364 74.122377 
L 207.302149 74.122377 
L 207.302149 74.016119 
L 207.302149 72.018466 
L 211.457934 72.018466 
L 211.457934 71.912208 
L 211.457934 70.233329 
L 215.613719 70.233329 
L 215.613719 70.127071 
L 215.613719 68.724463 
L 219.769504 68.724463 
L 219.769504 68.618205 
L 219.769504 67.38561 
L 223.925289 67.38561 
L 223.925289 67.279352 
L 223.925289 65.983002 
L 228.081074 65.983002 
L 228.081074 65.876744 
L 228.081074 64.38913 
L 232.23686 64.38913 
L 232.23686 64.282872 
L 232.23686 62.986522 
L 236.392645 62.986522 
L 236.392645 62.880264 
L 236.392645 61.583915 
L 240.54843 61.583915 
L 240.54843 61.477656 
L 240.54843 60.287565 
L 244.704215 60.287565 
L 244.704215 60.181307 
L 244.704215 58.863706 
L 248.86 58.863706 
L 248.86 58.757448 
L 248.86 57.779873 
L 253.015785 57.779873 
L 253.015785 57.673614 
L 253.015785 56.504775 
L 257.17157 56.504775 
L 257.17157 56.398516 
L 257.17157 55.335935 
L 261.327355 55.335935 
L 261.327355 55.229677 
L 261.327355 54.35836 
L 265.48314 54.35836 
L 265.48314 54.252102 
L 265.48314 53.380785 
L 269.638926 53.380785 
L 269.638926 53.274527 
L 269.638926 52.40321 
L 273.794711 52.40321 
L 273.794711 52.296952 
L 273.794711 51.149363 
L 277.950496 51.149363 
L 277.950496 51.043105 
L 277.950496 50.32055 
L 282.106281 50.32055 
L 282.106281 50.214292 
L 282.106281 49.15171 
L 286.262066 49.15171 
L 286.262066 49.045452 
L 286.262066 48.23789 
L 290.417851 48.23789 
L 290.417851 48.131632 
L 290.417851 47.515334 
L 294.573636 47.515334 
L 294.573636 47.409076 
L 294.573636 46.814031 
L 298.729421 46.814031 
L 298.729421 46.707772 
L 298.729421 46.15523 
L 302.885207 46.15523 
L 302.885207 46.048972 
L 302.885207 45.36892 
L 307.040992 45.36892 
L 307.040992 45.262661 
L 307.040992 44.476351 
L 311.196777 44.476351 
L 311.196777 44.370093 
L 311.196777 43.477524 
L 315.352562 43.477524 
L 315.352562 43.371266 
L 315.352562 42.648711 
L 319.508347 42.648711 
L 319.508347 42.542453 
L 319.508347 41.841149 
L 323.664132 41.841149 
L 323.664132 41.734891 
L 323.664132 41.182348 
L 327.819917 41.182348 
L 327.819917 41.07609 
L 327.819917 40.608554 
L 331.975702 40.608554 
L 331.975702 40.502296 
L 331.975702 39.864747 
L 336.131488 39.864747 
L 336.131488 39.758489 
L 336.131488 39.24845 
L 340.287273 39.24845 
L 340.287273 39.142192 
L 340.287273 38.547146 
L 344.443058 38.547146 
L 344.443058 38.440888 
L 344.443058 37.845842 
L 348.598843 37.845842 
L 348.598843 37.739584 
L 348.598843 37.208293 
L 352.754628 37.208293 
L 352.754628 37.102035 
L 352.754628 36.613247 
L 356.910413 36.613247 
L 356.910413 36.506989 
L 356.910413 35.954447 
L 361.066198 35.954447 
L 361.066198 35.848189 
L 361.066198 35.189388 
L 365.221983 35.189388 
L 365.221983 35.08313 
L 365.221983 34.445581 
L 369.377769 34.445581 
L 369.377769 34.339323 
L 369.377769 33.850535 
L 373.533554 33.850535 
L 373.533554 33.744277 
L 373.533554 33.361748 
L 377.689339 33.361748 
L 377.689339 33.25549 
L 377.689339 32.766702 
L 381.845124 32.766702 
L 381.845124 32.660444 
L 381.845124 32.192908 
L 386.000909 32.192908 
L 386.000909 32.08665 
L 386.000909 31.767875 
L 390.156694 31.767875 
L 390.156694 31.661617 
L 390.156694 31.427849 
L 394.312479 31.427849 
L 394.312479 31.321591 
L 394.312479 30.875307 
L 398.468264 30.875307 
L 398.468264 30.769049 
L 398.468264 30.259009 
L 402.62405 30.259009 
L 402.62405 30.152751 
L 402.62405 29.833977 
L 406.779835 29.833977 
L 406.779835 29.727719 
L 406.779835 29.408944 
L 410.93562 29.408944 
L 410.93562 29.302686 
L 410.93562 29.047666 
L 415.091405 29.047666 
L 415.091405 28.941408 
L 415.091405 28.70764 
L 419.24719 28.70764 
L 419.24719 28.601382 
L 419.24719 28.218853 
L 423.402975 28.218853 
L 423.402975 28.112595 
L 423.402975 27.772569 
L 427.55876 27.772569 
L 427.55876 27.66631 
L 427.55876 27.432542 
L 431.714545 27.432542 
L 431.714545 27.326284 
L 431.714545 26.88 
L 431.714545 26.88 
" clip-path="url(#p38f674afca)" style="fill: none; stroke: #1f77b4; stroke-width: 1.5; stroke-linecap: square"/>
   </g>
   <g id="line2d_13">
    <path d="M 66.005455 285.678047 
L 66.005455 268.88184 
L 70.16124 268.88184 
L 70.16124 253.17572 
L 74.317025 253.17572 
L 74.317025 238.488941 
L 78.47281 238.488941 
L 78.47281 224.755345 
L 82.628595 224.755345 
L 82.628595 211.913072 
L 86.78438 211.913072 
L 86.78438 199.904272 
L 90.940165 199.904272 
L 90.940165 188.674854 
L 95.09595 188.674854 
L 95.09595 178.174234 
L 99.251736 178.174234 
L 99.251736 168.355113 
L 103.407521 168.355113 
L 103.407521 159.173261 
L 107.563306 159.173261 
L 107.563306 150.587319 
L 111.719091 150.587319 
L 111.719091 142.558612 
L 115.874876 142.558612 
L 115.874876 135.050974 
L 120.030661 135.050974 
L 120.030661 128.030588 
L 124.186446 128.030588 
L 124.186446 121.465832 
L 128.342231 121.465832 
L 128.342231 115.327133 
L 132.498017 115.327133 
L 132.498017 109.586841 
L 136.653802 109.586841 
L 136.653802 104.219098 
L 140.809587 104.219098 
L 140.809587 99.199727 
L 144.965372 99.199727 
L 144.965372 94.506117 
L 149.121157 94.506117 
L 149.121157 90.117126 
L 153.276942 90.117126 
L 153.276942 86.012984 
L 157.432727 86.012984 
L 157.432727 82.175205 
L 161.588512 82.175205 
L 161.588512 78.5865 
L 165.744298 78.5865 
L 165.744298 75.230705 
L 169.900083 75.230705 
L 169.900083 72.092705 
L 174.055868 72.092705 
L 174.055868 69.158363 
L 178.211653 69.158363 
L 178.211653 66.414462 
L 182.367438 66.414462 
L 182.367438 63.848643 
L 186.523223 63.848643 
L 186.523223 61.449347 
L 190.679008 61.449347 
L 190.679008 59.205768 
L 194.834793 59.205768 
L 194.834793 57.107799 
L 198.990579 57.107799 
L 198.990579 55.14599 
L 203.146364 55.14599 
L 203.146364 53.311504 
L 207.302149 53.311504 
L 207.302149 51.596077 
L 211.457934 51.596077 
L 211.457934 49.991983 
L 215.613719 49.991983 
L 215.613719 48.491996 
L 219.769504 48.491996 
L 219.769504 47.08936 
L 223.925289 47.08936 
L 223.925289 45.777756 
L 228.081074 45.777756 
L 228.081074 44.551276 
L 232.23686 44.551276 
L 232.23686 43.404395 
L 236.392645 43.404395 
L 236.392645 42.331948 
L 240.54843 42.331948 
L 240.54843 41.329104 
L 244.704215 41.329104 
L 244.704215 40.391345 
L 248.86 40.391345 
L 248.86 39.514448 
L 253.015785 39.514448 
L 253.015785 38.694462 
L 257.17157 38.694462 
L 257.17157 37.927693 
L 261.327355 37.927693 
L 261.327355 37.210689 
L 265.48314 37.210689 
L 265.48314 36.540219 
L 269.638926 36.540219 
L 269.638926 35.913263 
L 273.794711 35.913263 
L 273.794711 35.326996 
L 277.950496 35.326996 
L 277.950496 34.778779 
L 282.106281 34.778779 
L 282.106281 34.266142 
L 286.262066 34.266142 
L 286.262066 33.786775 
L 290.417851 33.786775 
L 290.417851 33.33852 
L 294.573636 33.33852 
L 294.573636 32.919357 
L 298.729421 32.919357 
L 298.729421 32.527397 
L 302.885207 32.527397 
L 302.885207 32.160877 
L 307.040992 32.160877 
L 307.040992 31.818143 
L 311.196777 31.818143 
L 311.196777 31.497654 
L 315.352562 31.497654 
L 315.352562 31.197964 
L 319.508347 31.197964 
L 319.508347 30.917725 
L 323.664132 30.917725 
L 323.664132 30.655673 
L 327.819917 30.655673 
L 327.819917 30.410629 
L 331.975702 30.410629 
L 331.975702 30.181488 
L 336.131488 30.181488 
L 336.131488 29.967219 
L 340.287273 29.967219 
L 340.287273 29.766856 
L 344.443058 29.766856 
L 344.443058 29.579496 
L 348.598843 29.579496 
L 348.598843 29.404297 
L 352.754628 29.404297 
L 352.754628 29.240468 
L 356.910413 29.240468 
L 356.910413 29.087272 
L 361.066198 29.087272 
L 361.066198 28.944018 
L 365.221983 28.944018 
L 365.221983 28.810061 
L 369.377769 28.810061 
L 369.377769 28.684799 
L 373.533554 28.684799 
L 373.533554 28.567666 
L 381.845124 28.458135 
L 381.845124 28.355713 
L 390.156694 28.259938 
L 390.156694 28.170379 
L 398.468264 28.086632 
L 398.468264 28.008321 
L 406.779835 27.935092 
L 406.779835 27.866615 
L 415.091405 27.802583 
L 415.091405 27.742707 
L 427.55876 27.63436 
L 427.55876 27.585401 
L 431.714545 27.585401 
L 431.714545 27.585401 
" clip-path="url(#p38f674afca)" style="fill: none; stroke: #ff7f0e; stroke-width: 1.5; stroke-linecap: square"/>
   </g>
   <g id="patch_3">
    <path d="M 47.72 303.64 
L 47.72 26.88 
" style="fill: none; stroke: #000000; stroke-width: 0.8; stroke-linejoin: miter; stroke-linecap: square"/>
   </g>
   <g id="patch_4">
    <path d="M 450 303.64 
L 450 26.88 
" style="fill: none; stroke: #000000; stroke-width: 0.8; stroke-linejoin: miter; stroke-linecap: square"/>
   </g>
   <g id="patch_5">
    <path d="M 47.72 303.64 
L 450 303.64 
" style="fill: none; stroke: #000000; stroke-width: 0.8; stroke-linejoin: miter; stroke-linecap: square"/>
   </g>
   <g id="patch_6">
    <path d="M 47.72 26.88 
L 450 26.88 
" style="fill: none; stroke: #000000; stroke-width: 0.8; stroke-linejoin: miter; stroke-linecap: square"/>
   </g>
   <g id="text_14">
    <!-- Geometric model checking (CDFs) -->
    <g transform="translate(146.209375 20.88) scale(0.12 -0.12)">
     <defs>
      <path id="DejaVuSans-47" d="M 3809 666 
L 3809 1919 
L 2778 1919 
L 2778 2438 
L 4434 2438 
L 4434 434 
Q 4069 175 3628 42 
Q 3188 -91 2688 -91 
Q 1594 -91 976 548 
Q 359 1188 359 2328 
Q 359 3472 976 4111 
Q 1594 4750 2688 4750 
Q 3144 4750 3555 4637 
Q 3966 4525 4313 4306 
L 4313 3634 
Q 3963 3931 3569 4081 
Q 3175 4231 2741 4231 
Q 1884 4231 1454 3753 
Q 1025 3275 1025 2328 
Q 1025 1384 1454 906 
Q 1884 428 2741 428 
Q 3075 428 3337 486 
Q 3600 544 3809 666 
z
" transform="scale(0.015625)"/>
      <path id="DejaVuSans-63" d="M 3122 3366 
L 3122 2828 
Q 2878 2963 2633 3030 
Q 2388 3097 2138 3097 
Q 1578 3097 1268 2742 
Q 959 2388 959 1747 
Q 959 1106 1268 751 
Q 1578 397 2138 397 
Q 2388 397 2633 464 
Q 2878 531 3122 666 
L 3122 134 
Q 2881 22 2623 -34 
Q 2366 -91 2075 -91 
Q 1284 -91 818 406 
Q 353 903 353 1747 
Q 353 2603 823 3093 
Q 1294 3584 2113 3584 
Q 2378 3584 2631 3529 
Q 2884 3475 3122 3366 
z
" transform="scale(0.015625)"/>
      <path id="DejaVuSans-64" d="M 2906 2969 
L 2906 4863 
L 3481 4863 
L 3481 0 
L 2906 0 
L 2906 525 
Q 2725 213 2448 61 
Q 2172 -91 1784 -91 
Q 1150 -91 751 415 
Q 353 922 353 1747 
Q 353 2572 751 3078 
Q 1150 3584 1784 3584 
Q 2172 3584 2448 3432 
Q 2725 3281 2906 2969 
z
M 947 1747 
Q 947 1113 1208 752 
Q 1469 391 1925 391 
Q 2381 391 2643 752 
Q 2906 1113 2906 1747 
Q 2906 2381 2643 2742 
Q 2381 3103 1925 3103 
Q 1469 3103 1208 2742 
Q 947 2381 947 1747 
z
" transform="scale(0.015625)"/>
      <path id="DejaVuSans-68" d="M 3513 2113 
L 3513 0 
L 2938 0 
L 2938 2094 
Q 2938 2591 2744 2837 
Q 2550 3084 2163 3084 
Q 1697 3084 1428 2787 
Q 1159 2491 1159 1978 
L 1159 0 
L 581 0 
L 581 4863 
L 1159 4863 
L 1159 2956 
Q 1366 3272 1645 3428 
Q 1925 3584 2291 3584 
Q 2894 3584 3203 3211 
Q 3513 2838 3513 2113 
z
" transform="scale(0.015625)"/>
      <path id="DejaVuSans-6b" d="M 581 4863 
L 1159 4863 
L 1159 1991 
L 2875 3500 
L 3609 3500 
L 1753 1863 
L 3688 0 
L 2938 0 
L 1159 1709 
L 1159 0 
L 581 0 
L 581 4863 
z
" transform="scale(0.015625)"/>
      <path id="DejaVuSans-67" d="M 2906 1791 
Q 2906 2416 2648 2759 
Q 2391 3103 1925 3103 
Q 1463 3103 1205 2759 
Q 947 2416 947 1791 
Q 947 1169 1205 825 
Q 1463 481 1925 481 
Q 2391 481 2648 825 
Q 2906 1169 2906 1791 
z
M 3481 434 
Q 3481 -459 3084 -895 
Q 2688 -1331 1869 -1331 
Q 1566 -1331 1297 -1286 
Q 1028 -1241 775 -1147 
L 775 -588 
Q 1028 -725 1275 -790 
Q 1522 -856 1778 -856 
Q 2344 -856 2625 -561 
Q 2906 -266 2906 331 
L 2906 616 
Q 2728 306 2450 153 
Q 2172 0 1784 0 
Q 1141 0 747 490 
Q 353 981 353 1791 
Q 353 2603 747 3093 
Q 1141 3584 1784 3584 
Q 2172 3584 2450 3431 
Q 2728 3278 2906 2969 
L 2906 3500 
L 3481 3500 
L 3481 434 
z
" transform="scale(0.015625)"/>
      <path id="DejaVuSans-28" d="M 1984 4856 
Q 1566 4138 1362 3434 
Q 1159 2731 1159 2009 
Q 1159 1288 1364 580 
Q 1569 -128 1984 -844 
L 1484 -844 
Q 1016 -109 783 600 
Q 550 1309 550 2009 
Q 550 2706 781 3412 
Q 1013 4119 1484 4856 
L 1984 4856 
z
" transform="scale(0.015625)"/>
      <path id="DejaVuSans-43" d="M 4122 4306 
L 4122 3641 
Q 3803 3938 3442 4084 
Q 3081 4231 2675 4231 
Q 1875 4231 1450 3742 
Q 1025 3253 1025 2328 
Q 1025 1406 1450 917 
Q 1875 428 2675 428 
Q 3081 428 3442 575 
Q 3803 722 4122 1019 
L 4122 359 
Q 3791 134 3420 21 
Q 3050 -91 2638 -91 
Q 1578 -91 968 557 
Q 359 1206 359 2328 
Q 359 3453 968 4101 
Q 1578 4750 2638 4750 
Q 3056 4750 3426 4639 
Q 3797 4528 4122 4306 
z
" transform="scale(0.015625)"/>
      <path id="DejaVuSans-44" d="M 1259 4147 
L 1259 519 
L 2022 519 
Q 2988 519 3436 956 
Q 3884 1394 3884 2338 
Q 3884 3275 3436 3711 
Q 2988 4147 2022 4147 
L 1259 4147 
z
M 628 4666 
L 1925 4666 
Q 3281 4666 3915 4102 
Q 4550 3538 4550 2338 
Q 4550 1131 3912 565 
Q 3275 0 1925 0 
L 628 0 
L 628 4666 
z
" transform="scale(0.015625)"/>
      <path id="DejaVuSans-46" d="M 628 4666 
L 3309 4666 
L 3309 4134 
L 1259 4134 
L 1259 2759 
L 3109 2759 
L 3109 2228 
L 1259 2228 
L 1259 0 
L 628 0 
L 628 4666 
z
" transform="scale(0.015625)"/>
      <path id="DejaVuSans-29" d="M 513 4856 
L 1013 4856 
Q 1481 4119 1714 3412 
Q 1947 2706 1947 2009 
Q 1947 1309 1714 600 
Q 1481 -109 1013 -844 
L 513 -844 
Q 928 -128 1133 580 
Q 1338 1288 1338 2009 
Q 1338 2731 1133 3434 
Q 928 4138 513 4856 
z
" transform="scale(0.015625)"/>
     </defs>
     <use xlink:href="#DejaVuSans-47"/>
     <use xlink:href="#DejaVuSans-65" x="77.490234"/>
     <use xlink:href="#DejaVuSans-6f" x="139.013672"/>
     <use xlink:href="#DejaVuSans-6d" x="200.195312"/>
     <use xlink:href="#DejaVuSans-65" x="297.607422"/>
     <use xlink:href="#DejaVuSans-74" x="359.130859"/>
     <use xlink:href="#DejaVuSans-72" x="398.339844"/>
     <use xlink:href="#DejaVuSans-69" x="439.453125"/>
     <use xlink:href="#DejaVuSans-63" x="467.236328"/>
     <use xlink:href="#DejaVuSans-20" x="522.216797"/>
     <use xlink:href="#DejaVuSans-6d" x="554.003906"/>
     <use xlink:href="#DejaVuSans-6f" x="651.416016"/>
     <use xlink:href="#DejaVuSans-64" x="712.597656"/>
     <use xlink:href="#DejaVuSans-65" x="776.074219"/>
     <use xlink:href="#DejaVuSans-6c" x="837.597656"/>
     <use xlink:href="#DejaVuSans-20" x="865.380859"/>
     <use xlink:href="#DejaVuSans-63" x="897.167969"/>
     <use xlink:href="#DejaVuSans-68" x="952.148438"/>
     <use xlink:href="#DejaVuSans-65" x="1015.527344"/>
     <use xlink:href="#DejaVuSans-63" x="1077.050781"/>
     <use xlink:href="#DejaVuSans-6b" x="1132.03125"/>
     <use xlink:href="#DejaVuSans-69" x="1189.941406"/>
     <use xlink:href="#DejaVuSans-6e" x="1217.724609"/>
     <use xlink:href="#DejaVuSans-67" x="1281.103516"/>
     <use xlink:href="#DejaVuSans-20" x="1344.580078"/>
     <use xlink:href="#DejaVuSans-28" x="1376.367188"/>
     <use xlink:href="#DejaVuSans-43" x="1415.380859"/>
     <use xlink:href="#DejaVuSans-44" x="1485.205078"/>
     <use xlink:href="#DejaVuSans-46" x="1562.207031"/>
     <use xlink:href="#DejaVuSans-73" x="1619.726562"/>
     <use xlink:href="#DejaVuSans-29" x="1671.826172"/>
    </g>
   </g>
   <g id="legend_1">
    <g id="patch_7">
     <path d="M 54.72 64.23625 
L 161.154375 64.23625 
Q 163.154375 64.23625 163.154375 62.23625 
L 163.154375 33.88 
Q 163.154375 31.88 161.154375 31.88 
L 54.72 31.88 
Q 52.72 31.88 52.72 33.88 
L 52.72 62.23625 
Q 52.72 64.23625 54.72 64.23625 
z
" style="fill: #ffffff; opacity: 0.8; stroke: #cccccc; stroke-linejoin: miter"/>
    </g>
    <g id="line2d_14">
     <path d="M 56.72 39.978437 
L 66.72 39.978437 
L 66.72 39.978437 
L 76.72 39.978437 
L 76.72 39.978437 
" style="fill: none; stroke: #1f77b4; stroke-width: 1.5; stroke-linecap: square"/>
    </g>
    <g id="text_15">
     <!-- ECDF -->
     <g transform="translate(84.72 43.478437) scale(0.1 -0.1)">
      <defs>
       <path id="DejaVuSans-45" d="M 628 4666 
L 3578 4666 
L 3578 4134 
L 1259 4134 
L 1259 2753 
L 3481 2753 
L 3481 2222 
L 1259 2222 
L 1259 531 
L 3634 531 
L 3634 0 
L 628 0 
L 628 4666 
z
" transform="scale(0.015625)"/>
      </defs>
      <use xlink:href="#DejaVuSans-45"/>
      <use xlink:href="#DejaVuSans-43" x="63.183594"/>
      <use xlink:href="#DejaVuSans-44" x="133.007812"/>
      <use xlink:href="#DejaVuSans-46" x="210.009766"/>
     </g>
    </g>
    <g id="line2d_15">
     <path d="M 56.72 54.656563 
L 56.72 54.656563 
L 66.72 54.656563 
L 66.72 54.656563 
L 76.72 54.656563 
" style="fill: none; stroke: #ff7f0e; stroke-width: 1.5; stroke-linecap: square"/>
    </g>
    <g id="text_16">
     <!-- geometric CDF -->
     <g transform="translate(84.72 58.156563) scale(0.1 -0.1)">
      <use xlink:href="#DejaVuSans-67"/>
      <use xlink:href="#DejaVuSans-65" x="63.476562"/>
      <use xlink:href="#DejaVuSans-6f" x="125"/>
      <use xlink:href="#DejaVuSans-6d" x="186.181641"/>
      <use xlink:href="#DejaVuSans-65" x="283.59375"/>
      <use xlink:href="#DejaVuSans-74" x="345.117188"/>
      <use xlink:href="#DejaVuSans-72" x="384.326172"/>
      <use xlink:href="#DejaVuSans-69" x="425.439453"/>
      <use xlink:href="#DejaVuSans-63" x="453.222656"/>
      <use xlink:href="#DejaVuSans-20" x="508.203125"/>
      <use xlink:href="#DejaVuSans-43" x="539.990234"/>
      <use xlink:href="#DejaVuSans-44" x="609.814453"/>
      <use xlink:href="#DejaVuSans-46" x="686.816406"/>
     </g>
    </g>
   </g>
  </g>
 </g>
 <defs>
  <clipPath id="p38f674afca">
   <rect x="47.72" y="26.88" width="402.28" height="276.76"/>
  </clipPath>
 </defs>
</svg>
