<?xml version="1.0" encoding="utf-8"?>
<!-- Generator: Adobe Illustrator 26.0.2, SVG Export Plug-In . SVG Version: 6.00 Build 0)  -->
<svg version="1.1" id="Layer_1" xmlns="http://www.w3.org/2000/svg" xmlns:xlink="http://www.w3.org/1999/xlink" x="0px" y="0px"
	 viewBox="0 0 124.8 57.9" style="enable-background:new 0 0 124.8 57.9;" xml:space="preserve">
<style type="text/css">
	.st0{opacity:0.2;fill:#486AFB;stroke:#486AFB;stroke-miterlimit:10;enable-background:new    ;}
	.st1{fill:none;stroke:#486AFB;stroke-miterlimit:10;}
	.st2{fill:#486AFB;}
	.st3{fill:#FD46FC;}
</style>
<g>
	<circle class="st0" cx="113.3" cy="46.4" r="11"/>
	<circle class="st1" cx="113.3" cy="46.4" r="11"/>
</g>
<circle class="st0" cx="49.2" cy="46.4" r="11"/>
<g>
	<circle class="st0" cx="11.5" cy="46.3" r="11"/>
	<circle class="st1" cx="11.5" cy="46.3" r="11"/>
</g>
<circle class="st1" cx="49.2" cy="46.4" r="11"/>
<path class="st2" d="M78.6,46.4c0-0.3-0.2-0.5-0.5-0.5s-0.5,0.2-0.5,0.5s0.2,0.5,0.5,0.5C78.4,47,78.6,46.7,78.6,46.4"/>
<path class="st2" d="M83,46.4c0-0.3-0.2-0.5-0.5-0.5S82,46.1,82,46.4s0.2,0.5,0.5,0.5C82.8,47,83,46.7,83,46.4"/>
<path class="st2" d="M87.4,46.4c0-0.3-0.2-0.5-0.5-0.5s-0.5,0.2-0.5,0.5s0.2,0.5,0.5,0.5C87.2,47,87.4,46.7,87.4,46.4"/>
<g>
	<g>
		<line class="st1" x1="67.6" y1="9.2" x2="25.2" y2="31.5"/>
		<g>
			<path class="st2" d="M22.5,32.9c1-1.1,2.1-2.7,2.7-4.1l0.3,2.5l1.9,1.7C26,32.7,24,32.8,22.5,32.9z"/>
		</g>
	</g>
</g>
<g>
	<g>
		<line class="st1" x1="67.6" y1="9.2" x2="51.1" y2="29.7"/>
		<g>
			<path class="st2" d="M49.2,32c0.5-1.4,0.9-3.4,0.8-4.8l1.3,2.2l2.4,0.8C52.3,30.4,50.5,31.3,49.2,32z"/>
		</g>
	</g>
</g>
<g>
	<g>
		<line class="st1" x1="67.6" y1="9.2" x2="103.9" y2="30.2"/>
		<g>
			<path class="st2" d="M106.5,31.7c-1.5-0.3-3.5-0.4-4.9-0.1l1.9-1.6l0.5-2.5C104.5,28.9,105.5,30.6,106.5,31.7z"/>
		</g>
	</g>
</g>
<path class="st3" d="M69.2,3.7c-0.1,0.5-0.3,1.3-0.7,2c-0.3,0.7-0.7,1.2-1.2,1.2c-0.3,0-0.5-0.3-0.5-1.2c0-0.4,0.1-1,0.3-2L69.2,3.7
	 M67.2,3.4C67.4,2.8,67.6,2,68,1.3c0.3-0.5,0.6-1,1.1-1s0.5,0.6,0.5,1.2c0,0.5-0.1,1-0.3,2L67.2,3.4L67.2,3.4z M70.3,2
	c0-0.7-0.2-2-1.2-2c-1.4,0-2.9,2.8-2.9,5.1c0,0.9,0.3,2,1.2,2C68.8,7.1,70.3,4.3,70.3,2z"/>
<path class="st3" d="M13.2,43.4l0.1-0.1c0.3-0.3,0.6-0.6,1.3-0.7c0.1,0,0.2,0,0.2-0.2c0-0.1,0-0.1-0.1-0.1c-0.3,0-0.5,0-0.8,0
	c-0.3,0-0.7,0-1,0c-0.1,0-0.2,0-0.2,0.2c0,0.1,0.1,0.1,0.1,0.1c0.1,0,0.4,0,0.4,0.2c0,0.2-0.2,0.4-0.3,0.5l-2.3,2.7l-1.1-3
	c-0.1-0.1-0.1-0.2-0.1-0.2c0-0.2,0.5-0.2,0.6-0.2c0.1,0,0.2,0,0.2-0.2c0-0.1-0.1-0.1-0.1-0.1c-0.3,0-1,0-1.3,0c-0.2,0-0.9,0-1.1,0
	c-0.1,0-0.2,0-0.2,0.2c0,0.1,0.1,0.1,0.2,0.1c0.6,0,0.6,0.1,0.7,0.3l1.2,3.3c0,0,0,0.1,0,0.2c0,0-0.4,1.6-0.4,1.8
	c-0.1,0.5-0.1,0.6-0.9,0.6c-0.2,0-0.3,0-0.3,0.2c0,0.1,0.1,0.1,0.1,0.1c0.3,0,1,0,1.3,0c0.3,0,1,0,1.3,0c0.1,0,0.2,0,0.2-0.2
	c0-0.1-0.1-0.1-0.3-0.1c0,0-0.2,0-0.4,0c-0.2,0-0.3,0-0.3-0.2c0-0.1,0.1-0.4,0.1-0.6l0.3-1.4c0-0.2,0.1-0.2,0.1-0.3L13.2,43.4"/>
<path class="st3" d="M15.4,46.1c0-0.2,0-0.2-0.2-0.2c-0.5,0.4-1.1,0.4-1.4,0.4v0.3c0.2,0,0.6,0,1-0.2V50c0,0.2,0,0.3-0.7,0.3h-0.3
	v0.3c0.1,0,1,0,1.3,0c0.2,0,1.1,0,1.3,0v-0.3h-0.3c-0.7,0-0.7-0.1-0.7-0.3V46.1"/>
<path class="st3" d="M51.1,43.9l0.1-0.1c0.3-0.3,0.6-0.6,1.3-0.7c0.1,0,0.2,0,0.2-0.2c0-0.1,0-0.1-0.1-0.1c-0.3,0-0.5,0-0.8,0
	c-0.3,0-0.7,0-1,0c-0.1,0-0.2,0-0.2,0.2c0,0.1,0.1,0.1,0.1,0.1c0.1,0,0.4,0,0.4,0.2c0,0.2-0.2,0.4-0.3,0.5l-2.3,2.7l-1.1-3
	c-0.1-0.1-0.1-0.2-0.1-0.2c0-0.2,0.5-0.2,0.6-0.2c0.1,0,0.2,0,0.2-0.2c0-0.1-0.1-0.1-0.1-0.1c-0.3,0-1,0-1.3,0c-0.2,0-0.9,0-1.1,0
	c-0.1,0-0.2,0-0.2,0.2c0,0.1,0.1,0.1,0.2,0.1c0.6,0,0.6,0.1,0.7,0.3l1.2,3.3c0,0,0,0.1,0,0.2c0,0-0.4,1.6-0.4,1.8
	c-0.1,0.5-0.1,0.6-0.9,0.6c-0.2,0-0.3,0-0.3,0.2c0,0.1,0.1,0.1,0.1,0.1c0.3,0,1,0,1.3,0c0.3,0,1,0,1.3,0c0.1,0,0.2,0,0.2-0.2
	c0-0.1-0.1-0.1-0.3-0.1c0,0-0.2,0-0.4,0c-0.2,0-0.3,0-0.3-0.2c0-0.1,0.1-0.4,0.1-0.6l0.3-1.4c0-0.2,0.1-0.2,0.1-0.3L51.1,43.9"/>
<path class="st3" d="M54.6,49.8h-0.2c0,0.2-0.1,0.6-0.2,0.6c-0.1,0-0.6,0-0.7,0h-1.3c0.7-0.7,1-0.9,1.4-1.2c0.5-0.4,1-0.9,1-1.5
	c0-0.9-0.7-1.4-1.6-1.4c-0.9,0-1.5,0.6-1.5,1.3c0,0.4,0.3,0.4,0.4,0.4c0.2,0,0.4-0.1,0.4-0.4c0-0.1,0-0.4-0.4-0.4
	c0.2-0.5,0.7-0.7,1-0.7c0.7,0,1.1,0.5,1.1,1.1c0,0.6-0.4,1.1-0.7,1.3l-1.7,1.7c-0.1,0.1-0.1,0.1-0.1,0.3h2.9L54.6,49.8"/>
<path class="st3" d="M114.2,43.9l0.1-0.1c0.3-0.3,0.6-0.6,1.3-0.7c0.1,0,0.2,0,0.2-0.2c0-0.1,0-0.1-0.1-0.1c-0.3,0-0.5,0-0.8,0
	c-0.3,0-0.7,0-1,0c-0.1,0-0.2,0-0.2,0.2c0,0.1,0.1,0.1,0.1,0.1c0.1,0,0.4,0,0.4,0.2c0,0.2-0.2,0.4-0.3,0.5l-2.3,2.7l-1.1-3
	c-0.1-0.1-0.1-0.2-0.1-0.2c0-0.2,0.5-0.2,0.6-0.2c0.1,0,0.2,0,0.2-0.2c0-0.1-0.1-0.1-0.2-0.1c-0.3,0-1,0-1.3,0c-0.2,0-0.9,0-1.1,0
	c-0.1,0-0.2,0-0.2,0.2c0,0.1,0.1,0.1,0.2,0.1c0.6,0,0.6,0.1,0.7,0.3l1.2,3.3c0,0,0,0.1,0,0.2c0,0-0.4,1.6-0.4,1.8
	c-0.1,0.5-0.1,0.6-0.9,0.6c-0.2,0-0.3,0-0.3,0.2c0,0.1,0.1,0.1,0.1,0.1c0.3,0,1,0,1.3,0s1,0,1.3,0c0.1,0,0.2,0,0.2-0.2
	c0-0.1-0.1-0.1-0.3-0.1c0,0-0.2,0-0.4,0c-0.2,0-0.3,0-0.3-0.2c0-0.1,0.1-0.4,0.1-0.6l0.3-1.4c0.1-0.2,0.1-0.2,0.1-0.3L114.2,43.9"/>
<path class="st3" d="M117.1,50.5c0,0.1-0.1,0.4-0.1,0.4c0,0.2,0.1,0.2,0.2,0.2c0.1,0,0.2-0.1,0.3-0.2c0-0.1,0.1-0.3,0.1-0.4
	c0-0.1,0.1-0.5,0.2-0.6c0-0.2,0.1-0.3,0.1-0.5c0.1-0.3,0.1-0.3,0.2-0.5c0.2-0.3,0.6-0.7,1.1-0.7c0.4,0,0.4,0.3,0.4,0.5
	c0,0.4-0.3,1.2-0.4,1.5c-0.1,0.2-0.1,0.3-0.1,0.4c0,0.4,0.3,0.6,0.7,0.6c0.7,0,1-1,1-1.1c0-0.1-0.1-0.1-0.1-0.1
	c-0.1,0-0.1,0-0.1,0.1c-0.2,0.6-0.5,0.9-0.7,0.9c-0.1,0-0.2-0.1-0.2-0.2c0-0.2,0-0.3,0.2-0.6c0.1-0.2,0.4-1,0.4-1.4
	c0-0.1,0-0.4-0.3-0.6c-0.1-0.1-0.3-0.2-0.7-0.2c-0.6,0-1,0.4-1.2,0.7c-0.1-0.6-0.6-0.7-0.9-0.7c-0.6,0-1,0.4-1.2,0.6
	c0-0.5-0.5-0.6-0.8-0.6c-0.3,0-0.5,0.2-0.6,0.4c-0.2,0.3-0.3,0.7-0.3,0.7c0,0.1,0.1,0.1,0.1,0.1c0.1,0,0.1,0,0.2-0.2
	c0.1-0.4,0.2-0.8,0.5-0.8c0.2,0,0.2,0.2,0.2,0.3c0,0.1-0.1,0.4-0.1,0.6c-0.1,0.2-0.1,0.5-0.2,0.6l-0.2,0.9c0,0.1-0.1,0.3-0.1,0.3
	c0,0.2,0.1,0.2,0.2,0.2c0.1,0,0.2-0.1,0.3-0.2c0-0.1,0.1-0.3,0.1-0.4c0-0.1,0.1-0.5,0.2-0.6c0-0.2,0.1-0.3,0.1-0.5
	c0.1-0.3,0.1-0.3,0.3-0.6c0.2-0.3,0.5-0.6,1.1-0.6c0.4,0,0.4,0.4,0.4,0.5c0,0.2,0,0.3-0.1,0.7L117.1,50.5"/>
</svg>
