<?xml version="1.0" encoding="utf-8"?>
<!-- Generator: Adobe Illustrator 26.0.2, SVG Export Plug-In . SVG Version: 6.00 Build 0)  -->
<svg version="1.1" id="Layer_1" xmlns="http://www.w3.org/2000/svg" xmlns:xlink="http://www.w3.org/1999/xlink" x="0px" y="0px"
	 viewBox="0 0 130.32 58.07" style="enable-background:new 0 0 130.32 58.07;" xml:space="preserve">
<style type="text/css">
	.st0{fill:none;stroke:#486AFB;stroke-miterlimit:10;}
	.st1{fill:#486AFB;}
	.st2{opacity:0.4;fill:#486AFB;stroke:#486AFB;stroke-miterlimit:10;}
	.st3{fill:#FD46FC;}
</style>
<g>
	<g>
		<line class="st0" x1="103.24" y1="11.11" x2="95.08" y2="29.84"/>
		<g>
			<path class="st1" d="M93.87,32.61c0.08-1.51-0.04-3.49-0.47-4.87l1.84,1.74l2.52,0.16C96.45,30.26,94.92,31.52,93.87,32.61z"/>
		</g>
	</g>
</g>
<g>
	<g>
		<line class="st0" x1="80.33" y1="11.03" x2="88.49" y2="29.76"/>
		<g>
			<path class="st1" d="M89.7,32.53c-1.05-1.09-2.58-2.35-3.89-2.97l2.52-0.16l1.84-1.74C89.73,29.04,89.61,31.01,89.7,32.53z"/>
		</g>
	</g>
</g>
<circle class="st2" cx="91.8" cy="46.57" r="11"/>
<g>
	<g>
		<line class="st0" x1="56.3" y1="46.4" x2="74.78" y2="46.4"/>
		<g>
			<path class="st1" d="M77.8,46.4c-1.42,0.53-3.18,1.43-4.27,2.38l0.86-2.38l-0.86-2.38C74.61,44.98,76.38,45.88,77.8,46.4z"/>
		</g>
	</g>
</g>
<circle class="st0" cx="42.3" cy="46.4" r="11"/>
<circle class="st0" cx="91.8" cy="46.57" r="11"/>
<g>
	<g>
		<line class="st0" x1="6.46" y1="46.56" x2="24.94" y2="46.56"/>
		<g>
			<path class="st1" d="M27.96,46.56c-1.42,0.53-3.18,1.43-4.27,2.38l0.86-2.38l-0.86-2.38C24.77,45.14,26.54,46.04,27.96,46.56z"/>
		</g>
	</g>
</g>
<path class="st3" d="M92.23,45.77l-0.83-1.98c-0.03-0.08-0.05-0.12-0.05-0.13c0-0.06,0.17-0.25,0.59-0.29
	c0.1-0.01,0.2-0.02,0.2-0.19c0-0.12-0.12-0.12-0.15-0.12c-0.41,0-0.83,0.03-1.25,0.03c-0.25,0-0.86-0.03-1.11-0.03
	c-0.06,0-0.18,0-0.18,0.2c0,0.11,0.1,0.11,0.23,0.11c0.6,0,0.66,0.1,0.75,0.32l1.17,2.77l-2.1,2.25l-0.13,0.11
	c-0.49,0.53-0.95,0.69-1.46,0.72c-0.13,0.01-0.22,0.01-0.22,0.2c0,0.01,0,0.11,0.13,0.11c0.3,0,0.63-0.03,0.93-0.03
	c0.37,0,0.75,0.03,1.11,0.03c0.06,0,0.18,0,0.18-0.2c0-0.1-0.1-0.11-0.12-0.11c-0.09-0.01-0.4-0.03-0.4-0.31
	c0-0.16,0.15-0.32,0.27-0.45l1.01-1.07l0.89-0.97l1,2.38c0.04,0.11,0.05,0.12,0.05,0.14c0,0.08-0.19,0.25-0.58,0.29
	c-0.11,0.01-0.2,0.02-0.2,0.19c0,0.12,0.11,0.12,0.15,0.12c0.28,0,0.97-0.03,1.25-0.03c0.25,0,0.85,0.03,1.1,0.03
	c0.07,0,0.19,0,0.19-0.19c0-0.12-0.1-0.12-0.18-0.12c-0.67-0.01-0.69-0.04-0.85-0.44c-0.39-0.92-1.05-2.47-1.28-3.07
	c0.68-0.7,1.72-1.88,2.04-2.16c0.29-0.24,0.67-0.48,1.26-0.51c0.13-0.01,0.22-0.01,0.22-0.2c0-0.01,0-0.11-0.13-0.11
	c-0.3,0-0.63,0.03-0.93,0.03c-0.37,0-0.75-0.03-1.1-0.03c-0.06,0-0.19,0-0.19,0.2c0,0.07,0.05,0.1,0.12,0.11
	c0.09,0.01,0.4,0.03,0.4,0.31c0,0.14-0.11,0.27-0.19,0.36L92.23,45.77"/>
<path class="st3" d="M45.8,42.71c0.01-0.04,0.03-0.09,0.03-0.15c0-0.09-0.05-0.09-0.25-0.09h-4.19c-0.24,0-0.25,0.01-0.31,0.2
	l-0.55,1.79c-0.02,0.05-0.03,0.12-0.03,0.14c0,0.01,0,0.11,0.12,0.11c0.09,0,0.11-0.07,0.13-0.1c0.38-1.17,0.89-1.83,2.44-1.83h1.62
	l-5.55,6.21c0,0.01-0.04,0.15-0.04,0.18c0,0.09,0.07,0.09,0.25,0.09h4.32c0.24,0,0.25-0.01,0.31-0.2l0.71-2.2
	c0.01-0.04,0.04-0.11,0.04-0.15c0-0.05-0.04-0.11-0.13-0.11c-0.09,0-0.1,0.04-0.17,0.25c-0.44,1.35-0.91,2.07-2.6,2.07h-1.7
	L45.8,42.71"/>
<path class="st3" d="M57.44,4.51c0.05-0.21,0.15-0.59,0.15-0.63c0-0.17-0.12-0.27-0.29-0.27c-0.03,0-0.31,0.01-0.4,0.36l-1.43,5.75
	c-0.03,0.12-0.03,0.14-0.03,0.16c0,0.15,0.11,0.27,0.28,0.27c0.21,0,0.33-0.18,0.35-0.21c0.04-0.09,0.17-0.61,0.55-2.14
	c0.32,0.27,0.76,0.31,0.96,0.31c0.7,0,1.08-0.45,1.32-0.72c0.09,0.45,0.46,0.72,0.89,0.72c0.35,0,0.58-0.23,0.74-0.55
	c0.17-0.36,0.3-0.96,0.3-0.98c0-0.1-0.09-0.1-0.12-0.1c-0.1,0-0.11,0.04-0.14,0.18c-0.17,0.65-0.35,1.23-0.75,1.23
	c-0.27,0-0.3-0.26-0.3-0.46c0-0.22,0.12-0.69,0.2-1.03l0.28-1.07c0.03-0.15,0.13-0.53,0.17-0.68c0.05-0.23,0.15-0.6,0.15-0.66
	c0-0.18-0.14-0.27-0.29-0.27c-0.05,0-0.31,0.01-0.39,0.35l-0.47,1.86c-0.12,0.5-0.23,0.91-0.26,1.01c-0.01,0.05-0.49,0.95-1.29,0.95
	c-0.5,0-0.73-0.33-0.73-0.86c0-0.29,0.07-0.57,0.14-0.84L57.44,4.51"/>
<path class="st3" d="M63.14,9.44c-0.32,0-0.75-0.19-0.89-0.77c-0.1-0.42-0.1-0.99-0.1-1.51c0-0.51,0-1.05,0.11-1.43
	c0.15-0.55,0.6-0.7,0.89-0.7c0.38,0,0.75,0.23,0.87,0.64c0.11,0.38,0.12,0.89,0.12,1.5c0,0.52,0,1.04-0.09,1.48
	C63.9,9.28,63.42,9.44,63.14,9.44 M64.77,7.25c0-0.77-0.09-1.33-0.42-1.82c-0.22-0.32-0.65-0.6-1.22-0.6
	c-1.63,0-1.63,1.92-1.63,2.43s0,2.38,1.63,2.38S64.77,7.76,64.77,7.25z"/>
<path class="st3" d="M79.37,4.87c0.05-0.21,0.15-0.59,0.15-0.63c0-0.17-0.12-0.27-0.29-0.27c-0.03,0-0.31,0.01-0.4,0.36l-1.43,5.75
	c-0.03,0.12-0.03,0.14-0.03,0.16c0,0.15,0.11,0.27,0.28,0.27c0.21,0,0.33-0.18,0.35-0.21c0.04-0.09,0.17-0.61,0.55-2.14
	c0.32,0.27,0.76,0.31,0.96,0.31c0.7,0,1.08-0.45,1.32-0.72c0.09,0.45,0.46,0.72,0.89,0.72c0.35,0,0.58-0.23,0.74-0.55
	c0.17-0.36,0.3-0.96,0.3-0.98c0-0.1-0.09-0.1-0.12-0.1c-0.1,0-0.11,0.04-0.14,0.18c-0.17,0.65-0.35,1.23-0.75,1.23
	c-0.27,0-0.3-0.26-0.3-0.46c0-0.22,0.12-0.69,0.2-1.03l0.28-1.07c0.03-0.15,0.13-0.53,0.17-0.68c0.05-0.23,0.15-0.6,0.15-0.66
	c0-0.18-0.14-0.27-0.29-0.27c-0.05,0-0.31,0.01-0.39,0.35L81.1,6.28c-0.12,0.5-0.23,0.91-0.26,1.01c-0.01,0.05-0.49,0.95-1.29,0.95
	c-0.5,0-0.73-0.33-0.73-0.86c0-0.29,0.07-0.57,0.14-0.84L79.37,4.87"/>
<path class="st3" d="M85.43,5.38c0-0.19-0.01-0.2-0.21-0.2c-0.45,0.44-1.09,0.45-1.38,0.45v0.25c0.17,0,0.63,0,1.02-0.2v3.59
	c0,0.23,0,0.32-0.7,0.32h-0.27v0.25c0.13-0.01,0.99-0.03,1.25-0.03c0.22,0,1.1,0.02,1.26,0.03V9.6h-0.27c-0.7,0-0.7-0.09-0.7-0.32
	V5.38"/>
<path class="st3" d="M122.65,8.76c-0.49,0-0.88-0.36-0.88-1.07c0-0.3,0.12-1.11,0.47-1.7c0.42-0.68,1.01-0.82,1.35-0.82
	c0.83,0,0.91,0.65,0.91,0.96c0,0.47-0.2,1.28-0.54,1.79C123.57,8.5,123.04,8.76,122.65,8.76 M125.92,5.16c0.13,0,0.49,0,0.49-0.34
	c0-0.24-0.21-0.24-0.39-0.24h-2.27c-1.5,0-2.6,1.64-2.6,2.82c0,0.88,0.59,1.57,1.49,1.57c1.17,0,2.49-1.2,2.49-2.73
	c0-0.17,0-0.65-0.31-1.08H125.92z"/>
<path class="st3" d="M130.32,3.39h-0.24c-0.02,0.15-0.09,0.57-0.18,0.64c-0.06,0.04-0.6,0.04-0.7,0.04h-1.29
	c0.74-0.65,0.98-0.85,1.41-1.18c0.52-0.42,1-0.85,1-1.52c0-0.85-0.75-1.37-1.65-1.37c-0.87,0-1.46,0.61-1.46,1.26
	c0,0.36,0.3,0.39,0.37,0.39c0.17,0,0.37-0.12,0.37-0.37c0-0.13-0.05-0.37-0.41-0.37c0.22-0.5,0.7-0.65,1.03-0.65
	c0.7,0,1.07,0.55,1.07,1.12c0,0.61-0.44,1.1-0.66,1.35l-1.7,1.67c-0.07,0.06-0.07,0.08-0.07,0.27h2.9L130.32,3.39"/>
<path class="st3" d="M128.73,6.8c0-0.19-0.01-0.2-0.21-0.2c-0.45,0.44-1.09,0.45-1.38,0.45V7.3c0.17,0,0.63,0,1.02-0.2v3.59
	c0,0.23,0,0.32-0.7,0.32h-0.27v0.25c0.13-0.01,0.99-0.03,1.25-0.03c0.22,0,1.1,0.02,1.26,0.03v-0.25h-0.27c-0.7,0-0.7-0.09-0.7-0.32
	V6.8"/>
<path class="st3" d="M102.16,8.76c-0.49,0-0.88-0.36-0.88-1.07c0-0.3,0.12-1.11,0.47-1.7c0.42-0.68,1.01-0.82,1.35-0.82
	c0.83,0,0.91,0.65,0.91,0.96c0,0.47-0.2,1.28-0.54,1.79C103.09,8.5,102.55,8.76,102.16,8.76 M105.43,5.16c0.13,0,0.49,0,0.49-0.34
	c0-0.24-0.21-0.24-0.39-0.24h-2.27c-1.5,0-2.6,1.64-2.6,2.82c0,0.88,0.59,1.57,1.49,1.57c1.17,0,2.49-1.2,2.49-2.73
	c0-0.17,0-0.65-0.31-1.08H105.43z"/>
<path class="st3" d="M109.84,3.39h-0.24c-0.02,0.15-0.09,0.57-0.18,0.64c-0.06,0.04-0.6,0.04-0.7,0.04h-1.29
	c0.74-0.65,0.98-0.85,1.41-1.18c0.52-0.42,1-0.85,1-1.52c0-0.85-0.75-1.37-1.65-1.37c-0.87,0-1.46,0.61-1.46,1.26
	c0,0.36,0.3,0.39,0.37,0.39c0.17,0,0.37-0.12,0.37-0.37c0-0.13-0.05-0.37-0.41-0.37c0.22-0.5,0.7-0.65,1.03-0.65
	c0.7,0,1.07,0.55,1.07,1.12c0,0.61-0.44,1.1-0.66,1.35l-1.7,1.67c-0.07,0.06-0.07,0.08-0.07,0.27h2.9L109.84,3.39"/>
<path class="st3" d="M107.88,11.21c-0.32,0-0.75-0.19-0.89-0.77c-0.1-0.42-0.1-0.99-0.1-1.51c0-0.51,0-1.05,0.11-1.43
	c0.15-0.55,0.6-0.7,0.89-0.7c0.38,0,0.75,0.23,0.87,0.64c0.11,0.38,0.12,0.89,0.12,1.5c0,0.52,0,1.04-0.09,1.48
	C108.64,11.06,108.16,11.21,107.88,11.21 M109.51,9.03c0-0.77-0.09-1.33-0.42-1.82c-0.22-0.32-0.65-0.6-1.22-0.6
	c-1.63,0-1.63,1.92-1.63,2.43c0,0.51,0,2.38,1.63,2.38C109.51,11.41,109.51,9.53,109.51,9.03z"/>
<g>
	<g>
		<line class="st0" x1="62.05" y1="11.65" x2="80.86" y2="30.58"/>
		<g>
			<path class="st1" d="M82.99,32.72c-1.37-0.64-3.25-1.25-4.7-1.35l2.29-1.07l1.08-2.29C81.76,29.46,82.36,31.34,82.99,32.72z"/>
		</g>
	</g>
</g>
<g>
	<g>
		<line class="st0" x1="122.78" y1="11.43" x2="103.97" y2="30.36"/>
		<g>
			<path class="st1" d="M101.84,32.5c0.63-1.38,1.23-3.26,1.33-4.71l1.08,2.29l2.29,1.07C105.09,31.25,103.21,31.86,101.84,32.5z"/>
		</g>
	</g>
</g>
<path class="st3" d="M3.04,47.02c-0.11,0.46-0.32,1.3-0.7,2.02C2,49.71,1.62,50.2,1.19,50.2c-0.33,0-0.54-0.29-0.54-1.21
	c0-0.42,0.06-0.99,0.32-1.97H3.04 M1.05,46.7c0.17-0.64,0.37-1.43,0.76-2.14c0.27-0.49,0.64-1.04,1.08-1.04
	c0.49,0,0.55,0.64,0.55,1.2c0,0.49-0.08,0.99-0.32,1.98H1.05z M4.1,45.34c0-0.65-0.18-2.04-1.19-2.04C1.53,43.3,0,46.1,0,48.38
	c0,0.93,0.29,2.04,1.19,2.04C2.59,50.42,4.1,47.56,4.1,45.34z"/>
</svg>
