<?xml version="1.0" encoding="utf-8"?>
<!-- Generator: Adobe Illustrator 26.0.2, SVG Export Plug-In . SVG Version: 6.00 Build 0)  -->
<svg version="1.1" id="Layer_1" xmlns="http://www.w3.org/2000/svg" xmlns:xlink="http://www.w3.org/1999/xlink" x="0px" y="0px"
	 viewBox="0 0 127.07 119.52" style="enable-background:new 0 0 127.07 119.52;" xml:space="preserve">
<style type="text/css">
	.st0{opacity:0.4;fill:#486AFB;stroke:#486AFB;stroke-miterlimit:10;enable-background:new    ;}
	.st1{fill:none;stroke:#486AFB;stroke-miterlimit:10;}
	.st2{fill:#486AFB;}
	.st3{fill:#FD46FC;}
</style>
<circle class="st0" cx="63.51" cy="58.13" r="11"/>
<circle class="st1" cx="63.51" cy="58.13" r="11"/>
<circle class="st0" cx="111.51" cy="58.13" r="11"/>
<circle class="st1" cx="111.51" cy="58.13" r="11"/>
<g>
	<g>
		<line class="st1" x1="76.51" y1="58.13" x2="95" y2="58.13"/>
		<g>
			<path class="st2" d="M98.01,58.13c-1.42,0.53-3.18,1.43-4.27,2.38l0.86-2.38l-0.86-2.38C94.83,56.71,96.59,57.6,98.01,58.13z"/>
		</g>
	</g>
</g>
<path class="st3" d="M114.07,55.6l0.14-0.14c0.3-0.3,0.63-0.64,1.3-0.69c0.11-0.01,0.2-0.01,0.2-0.19c0-0.08-0.05-0.12-0.13-0.12
	c-0.26,0-0.55,0.03-0.81,0.03c-0.33,0-0.68-0.03-0.99-0.03c-0.06,0-0.19,0-0.19,0.19c0,0.11,0.1,0.12,0.15,0.12
	c0.07,0,0.36,0.02,0.36,0.23c0,0.17-0.23,0.43-0.27,0.48l-2.3,2.65l-1.09-2.95c-0.06-0.14-0.06-0.16-0.06-0.17
	c0-0.24,0.49-0.24,0.59-0.24c0.14,0,0.24,0,0.24-0.2c0-0.11-0.12-0.11-0.15-0.11c-0.28,0-0.97,0.03-1.25,0.03
	c-0.25,0-0.86-0.03-1.11-0.03c-0.06,0-0.19,0-0.19,0.2c0,0.11,0.1,0.11,0.23,0.11c0.6,0,0.64,0.09,0.72,0.34l1.22,3.27
	c0.01,0.03,0.04,0.14,0.04,0.17c0,0.03-0.4,1.63-0.45,1.81c-0.13,0.55-0.14,0.58-0.93,0.59c-0.19,0-0.27,0-0.27,0.2
	c0,0.11,0.12,0.11,0.14,0.11c0.28,0,0.97-0.03,1.25-0.03s0.99,0.03,1.27,0.03c0.07,0,0.19,0,0.19-0.2c0-0.11-0.09-0.11-0.28-0.11
	c-0.02,0-0.21,0-0.38-0.02c-0.21-0.02-0.27-0.04-0.27-0.16c0-0.07,0.09-0.42,0.14-0.62l0.35-1.4c0.05-0.19,0.06-0.22,0.14-0.31
	L114.07,55.6"/>
<path class="st3" d="M114.68,61.93c-0.03,0.09-0.06,0.17-0.06,0.3c0,0.33,0.28,0.6,0.67,0.6c0.7,0,1.01-0.97,1.01-1.08
	c0-0.09-0.09-0.09-0.11-0.09c-0.1,0-0.11,0.04-0.13,0.12c-0.16,0.56-0.47,0.85-0.75,0.85c-0.14,0-0.17-0.09-0.17-0.25
	s0.05-0.3,0.11-0.45c0.07-0.19,0.15-0.38,0.22-0.56c0.06-0.17,0.32-0.81,0.34-0.89c0.02-0.07,0.04-0.15,0.04-0.23
	c0-0.33-0.28-0.6-0.67-0.6c-0.7,0-1.02,0.96-1.02,1.08c0,0.09,0.1,0.09,0.12,0.09c0.1,0,0.1-0.04,0.13-0.11
	c0.18-0.6,0.49-0.86,0.75-0.86c0.11,0,0.18,0.06,0.18,0.25c0,0.16-0.04,0.27-0.22,0.7L114.68,61.93 M116.11,58.36
	c0-0.11-0.08-0.27-0.28-0.27c-0.19,0-0.39,0.18-0.39,0.39c0,0.12,0.09,0.27,0.28,0.27C115.92,58.74,116.11,58.55,116.11,58.36z"/>
<path class="st3" d="M64.33,57.42l1.67-2.2c0.11-0.14,0.12-0.15,0.47-0.18c0.24-0.03,0.3-0.03,0.58-0.03h0.29v-0.46
	c-0.42,0.03-0.9,0.03-1.33,0.03c-0.39,0-1.15,0-1.51-0.03v0.47c0.18,0,0.57,0,0.91,0.11c-0.01,0.02-0.06,0.08-0.08,0.11l-1.31,1.74
	l-1.42-1.96h0.83v-0.47c-0.41,0.03-1.35,0.03-1.8,0.03c-0.4,0-1.26,0-1.61-0.03v0.47h0.97l2.2,3.05l-2.01,2.63
	c-0.09,0.12-0.11,0.14-0.43,0.17c-0.2,0.02-0.41,0.03-0.6,0.03h-0.29v0.47c0.42-0.03,0.9-0.03,1.33-0.03c0.39,0,1.15,0,1.51,0.03
	V60.9c-0.18,0-0.57,0-0.91-0.11c0.01-0.02,0.06-0.08,0.08-0.11l1.64-2.18l1.73,2.39h-0.82v0.47c0.41-0.03,1.35-0.03,1.8-0.03
	c0.4,0,1.26,0,1.61,0.03v-0.47h-0.97L64.33,57.42"/>
<path class="st3" d="M69.07,62.04c-0.03,0.09-0.06,0.17-0.06,0.3c0,0.33,0.28,0.6,0.67,0.6c0.7,0,1.01-0.97,1.01-1.08
	c0-0.09-0.09-0.09-0.11-0.09c-0.1,0-0.11,0.04-0.13,0.12c-0.16,0.56-0.47,0.85-0.75,0.85c-0.14,0-0.17-0.09-0.17-0.25
	s0.05-0.3,0.11-0.45c0.07-0.19,0.15-0.38,0.23-0.56c0.06-0.17,0.32-0.81,0.34-0.89c0.02-0.07,0.04-0.15,0.04-0.23
	c0-0.33-0.28-0.6-0.67-0.6c-0.7,0-1.02,0.96-1.02,1.08c0,0.09,0.1,0.09,0.12,0.09c0.1,0,0.1-0.04,0.13-0.11
	c0.18-0.6,0.49-0.86,0.75-0.86c0.11,0,0.18,0.06,0.18,0.25c0,0.16-0.04,0.27-0.22,0.7L69.07,62.04 M70.5,58.47
	c0-0.11-0.08-0.27-0.28-0.27c-0.19,0-0.39,0.18-0.39,0.39c0,0.12,0.09,0.27,0.28,0.27C70.31,58.86,70.5,58.66,70.5,58.47z"/>
<path class="st3" d="M43.63,113.43c0.12-0.29,0.12-0.31,0.22-0.58c0.08-0.2,0.13-0.34,0.13-0.53c0-0.45-0.32-0.81-0.81-0.81
	c-0.93,0-1.31,1.44-1.31,1.53c0,0.1,0.1,0.1,0.12,0.1c0.1,0,0.11-0.02,0.16-0.18c0.27-0.93,0.67-1.23,1-1.23
	c0.08,0,0.25,0,0.25,0.32c0,0.21-0.07,0.42-0.11,0.52c-0.08,0.26-0.53,1.41-0.69,1.84c-0.1,0.26-0.23,0.59-0.23,0.8
	c0,0.47,0.34,0.81,0.81,0.81c0.93,0,1.3-1.44,1.3-1.53c0-0.1-0.09-0.1-0.12-0.1c-0.1,0-0.1,0.03-0.15,0.18
	c-0.18,0.62-0.51,1.23-1.01,1.23c-0.17,0-0.24-0.1-0.24-0.33c0-0.25,0.06-0.39,0.29-0.99L43.63,113.43 M44.39,109.69
	c0-0.2-0.14-0.36-0.37-0.36c-0.27,0-0.54,0.26-0.54,0.53c0,0.19,0.14,0.36,0.38,0.36C44.09,110.22,44.39,109.99,44.39,109.69z"/>
<path class="st3" d="M54.5,114.58c0.14,0,0.33,0,0.33-0.2c0-0.2-0.19-0.2-0.34-0.2h-5.93c-0.15,0-0.34,0-0.34,0.2
	c0,0.2,0.19,0.2,0.33,0.2H54.5 M54.49,112.65c0.15,0,0.34,0,0.34-0.2c0-0.2-0.19-0.2-0.33-0.2h-5.95c-0.14,0-0.33,0-0.33,0.2
	c0,0.2,0.19,0.2,0.34,0.2H54.49z"/>
<path class="st3" d="M61.09,109.54c0-0.24,0-0.26-0.23-0.26c-0.62,0.64-1.49,0.64-1.81,0.64v0.31c0.2,0,0.78,0,1.3-0.26v5.15
	c0,0.36-0.03,0.48-0.92,0.48h-0.32v0.31c0.35-0.03,1.21-0.03,1.61-0.03s1.26,0,1.61,0.03v-0.31h-0.32c-0.89,0-0.92-0.11-0.92-0.48
	L61.09,109.54"/>
<path class="st3" d="M65.29,115.89c0-0.66-0.25-1.04-0.64-1.04c-0.33,0-0.53,0.25-0.53,0.53c0,0.27,0.2,0.53,0.53,0.53
	c0.12,0,0.25-0.04,0.35-0.13c0.03-0.02,0.04-0.03,0.05-0.03c0.01,0,0.02,0.01,0.02,0.15c0,0.73-0.35,1.33-0.68,1.66
	c-0.11,0.11-0.11,0.13-0.11,0.16c0,0.07,0.05,0.11,0.1,0.11C64.49,117.82,65.29,117.05,65.29,115.89"/>
<path class="st3" d="M69.58,115.37c0-0.29-0.24-0.53-0.53-0.53s-0.53,0.24-0.53,0.53s0.24,0.53,0.53,0.53S69.58,115.66,69.58,115.37
	"/>
<path class="st3" d="M74.08,115.37c0-0.29-0.24-0.53-0.53-0.53s-0.53,0.24-0.53,0.53s0.24,0.53,0.53,0.53S74.08,115.66,74.08,115.37
	"/>
<path class="st3" d="M78.48,115.37c0-0.29-0.24-0.53-0.53-0.53s-0.53,0.24-0.53,0.53s0.24,0.53,0.53,0.53S78.48,115.66,78.48,115.37
	"/>
<path class="st3" d="M82.89,115.89c0-0.66-0.25-1.04-0.64-1.04c-0.33,0-0.53,0.25-0.53,0.53c0,0.27,0.2,0.53,0.53,0.53
	c0.12,0,0.25-0.04,0.35-0.13c0.03-0.02,0.04-0.03,0.05-0.03s0.02,0.01,0.02,0.15c0,0.73-0.35,1.33-0.68,1.66
	c-0.11,0.11-0.11,0.13-0.11,0.16c0,0.07,0.05,0.11,0.1,0.11C82.09,117.82,82.89,117.05,82.89,115.89"/>
<path class="st3" d="M86.24,115.31c-0.03,0.15-0.09,0.38-0.09,0.43c0,0.18,0.14,0.27,0.29,0.27c0.12,0,0.3-0.08,0.37-0.28
	c0.01-0.02,0.13-0.49,0.19-0.74l0.22-0.89c0.06-0.22,0.12-0.44,0.17-0.67c0.04-0.17,0.12-0.46,0.13-0.5
	c0.15-0.31,0.68-1.21,1.62-1.21c0.45,0,0.54,0.37,0.54,0.7c0,0.25-0.07,0.53-0.15,0.83l-0.28,1.15l-0.2,0.75
	c-0.04,0.2-0.13,0.54-0.13,0.59c0,0.18,0.14,0.27,0.29,0.27c0.31,0,0.37-0.25,0.45-0.57c0.14-0.56,0.51-2.01,0.6-2.4
	c0.03-0.13,0.56-1.32,1.64-1.32c0.43,0,0.54,0.34,0.54,0.7c0,0.57-0.42,1.7-0.62,2.22c-0.09,0.24-0.13,0.35-0.13,0.55
	c0,0.47,0.35,0.81,0.81,0.81c0.93,0,1.3-1.45,1.3-1.53c0-0.1-0.09-0.1-0.12-0.1c-0.1,0-0.1,0.03-0.15,0.18
	c-0.15,0.53-0.47,1.23-1.01,1.23c-0.17,0-0.24-0.1-0.24-0.33c0-0.25,0.09-0.49,0.18-0.7c0.19-0.52,0.61-1.62,0.61-2.19
	c0-0.65-0.4-1.06-1.14-1.06c-0.75,0-1.25,0.44-1.62,0.96c-0.01-0.13-0.04-0.47-0.32-0.71c-0.25-0.21-0.57-0.26-0.81-0.26
	c-0.9,0-1.38,0.64-1.55,0.86c-0.05-0.57-0.47-0.86-0.91-0.86c-0.46,0-0.65,0.39-0.74,0.57c-0.18,0.35-0.31,0.93-0.31,0.96
	c0,0.1,0.1,0.1,0.12,0.1c0.1,0,0.11-0.01,0.17-0.23c0.17-0.7,0.37-1.18,0.72-1.18c0.16,0,0.31,0.08,0.31,0.46
	c0,0.21-0.03,0.32-0.16,0.83L86.24,115.31"/>
<path class="st3" d="M63.84,19.21c-0.62,2.66-1.45,2.93-1.8,2.93c-0.14,0-0.35-0.04-0.49-0.35c-0.12-0.27-0.12-0.65-0.12-0.66
	c0-0.57,0.22-1.49,0.33-1.92H63.84 M61.88,18.73c0.14-0.57,0.4-1.48,0.7-2c0.23-0.41,0.64-0.93,1.11-0.93c0.42,0,0.6,0.44,0.6,1.02
	c0,0.62-0.22,1.49-0.33,1.91H61.88z M65.35,17.55c0-1.75-1.03-2.11-1.64-2.11c-0.79,0-1.78,0.52-2.52,1.87
	c-0.51,0.93-0.82,2.28-0.82,3.09c0,1.44,0.76,2.1,1.65,2.1c0.67,0,1.54-0.39,2.23-1.4C65.08,19.88,65.35,18.3,65.35,17.55z"/>
<path class="st3" d="M12.23,92.66c0.85,0.05,1.38,0.42,1.38,1.22c0,0.28-0.11,1.19-0.63,1.85c-0.35,0.44-0.92,0.78-1.74,0.84
	L12.23,92.66 M10.77,96.57c-0.85-0.05-1.38-0.42-1.38-1.22c0-0.28,0.11-1.19,0.62-1.85c0.35-0.44,0.92-0.78,1.74-0.85L10.77,96.57z
	 M12.84,90.21c0.03-0.12,0.03-0.14,0.03-0.15c0-0.14-0.14-0.14-0.23-0.14c-0.2,0-0.21,0.02-0.26,0.23l-0.5,1.97
	c-0.04,0.13-0.04,0.14-0.05,0.15c-0.02,0.01-0.03,0.02-0.2,0.03c-2.05,0.12-3.27,1.53-3.27,2.79c0,1.06,0.85,1.79,2.31,1.84
	l-0.43,1.76c0,0.14,0.14,0.14,0.23,0.14c0.16,0,0.21-0.01,0.25-0.18l0.35-1.39c0.07-0.29,0.08-0.3,0.09-0.31
	c0.02-0.01,0.04-0.01,0.2-0.02c2.02-0.12,3.27-1.51,3.27-2.79c0-1.06-0.85-1.79-2.32-1.84L12.84,90.21z"/>
<circle class="st1" cx="11.5" cy="57.96" r="11"/>
<path class="st3" d="M14.43,55.25c0-0.22,0.01-0.23,0.29-0.26c0.24-0.03,0.26-0.03,0.54-0.03h0.25V54.5
	c-0.38,0.03-0.94,0.03-1.33,0.03c-0.42,0-0.93,0-1.34-0.03v0.47h0.25c0.18,0,0.35,0.01,0.53,0.03c0.29,0.03,0.3,0.04,0.3,0.26V59
	c0,1.47-1.08,1.96-2.17,1.96c-1.74,0-1.76-1.3-1.76-1.86v-4.13h1.07V54.5c-0.38,0.03-1.35,0.03-1.78,0.03c-0.43,0-1.4,0-1.78-0.03
	v0.47h1.07v4.05c0,1.32,1.07,2.4,3.13,2.4c1.89,0,2.73-1.16,2.73-2.38V55.25"/>
<g>
	<circle class="st0" cx="87.16" cy="94.53" r="11"/>
	<circle class="st1" cx="87.16" cy="94.53" r="11"/>
</g>
<path class="st3" d="M89.25,90.86c0.08-0.12,0.08-0.13,0.08-0.24c0-0.25-0.11-0.25-0.32-0.25h-5.11l-0.12,2.39h0.47
	c0.08-1.32,0.75-1.93,2.14-1.93h1.29l-3.97,5.83c-0.08,0.12-0.08,0.15-0.08,0.26c0,0.26,0.1,0.26,0.32,0.26h5.28l0.18-2.82h-0.47
	c-0.08,1.1-0.22,2.32-2.25,2.32h-1.39L89.25,90.86"/>
<path class="st3" d="M90.49,95.58v0.39c0.4,0,0.45,0,0.45,0.27v2.05h-0.47v0.39c0.01,0,0.57-0.03,0.89-0.03
	c0.29,0,0.57,0.01,0.86,0.03v-0.39h-0.43v-2.77L90.49,95.58 M91.84,94.38c0-0.34-0.28-0.58-0.57-0.58c-0.34,0-0.58,0.28-0.58,0.57
	c0,0.34,0.27,0.58,0.57,0.58C91.6,94.95,91.84,94.67,91.84,94.38z"/>
<circle class="st1" cx="111.51" cy="11.5" r="11"/>
<path class="st3" d="M116.22,8.76c0.06-0.17,0.07-0.19,0.38-0.22c0.2-0.02,0.41-0.02,0.57-0.02V8.05c-0.27,0.01-0.62,0.03-1.06,0.03
	c-0.38,0-0.99,0-1.35-0.03v0.47c0.25,0,0.73,0,1.01,0.11l-1.71,4.44l-1.76-4.55h0.95V8.05c-0.38,0.03-1.31,0.03-1.74,0.03
	c-0.39,0-1.17,0-1.52-0.03v0.47h0.85l0.41,1.05l-1.35,3.5l-1.76-4.55h0.95V8.05c-0.38,0.03-1.31,0.03-1.74,0.03
	c-0.39,0-1.17,0-1.52-0.03v0.47h0.85l2.38,6.17c0.06,0.16,0.1,0.26,0.35,0.26s0.29-0.1,0.35-0.26l1.73-4.47l1.73,4.47
	c0.06,0.16,0.1,0.26,0.35,0.26c0.25,0,0.29-0.1,0.35-0.26L116.22,8.76"/>
<g>
	<g>
		<line class="st1" x1="70.16" y1="69.13" x2="77.74" y2="80.46"/>
		<g>
			<path class="st2" d="M79.42,82.97c-1.23-0.89-2.95-1.85-4.35-2.23l2.45-0.61l1.5-2.04C78.84,79.53,79.07,81.5,79.42,82.97z"/>
		</g>
	</g>
</g>
<g>
	<g>
		<line class="st1" x1="26.75" y1="58.13" x2="45.24" y2="58.13"/>
		<g>
			<path class="st2" d="M48.25,58.13c-1.42,0.53-3.18,1.43-4.27,2.38l0.86-2.38l-0.86-2.38C45.07,56.71,46.83,57.6,48.25,58.13z"/>
		</g>
	</g>
</g>
<g>
	<g>
		<line class="st1" x1="111.51" y1="44.26" x2="111.51" y2="28.38"/>
		<g>
			<path class="st2" d="M111.51,25.37c0.53,1.42,1.43,3.18,2.38,4.27l-2.38-0.86l-2.38,0.86C110.08,28.55,110.98,26.79,111.51,25.37
				z"/>
		</g>
	</g>
</g>
<path class="st1" d="M37.72,55.75"/>
<line class="st1" x1="37.72" y1="92.66" x2="37.72" y2="60.51"/>
<path class="st1" d="M37.72,92.66"/>
<polyline class="st1" points="113.51,36.17 126.57,36.17 126.57,119.02 37.72,119.02 37.72,97.19 "/>
<line class="st1" x1="65.35" y1="36.17" x2="109.09" y2="36.17"/>
<polyline class="st1" points="37.72,55.75 37.72,36.17 60.69,36.17 "/>
<g>
	<g>
		<line class="st1" x1="69.58" y1="94.95" x2="17.26" y2="94.95"/>
		<g>
			<path class="st2" d="M72.6,94.95c-1.42-0.53-3.18-1.43-4.27-2.38l0.86,2.38l-0.86,2.38C69.42,96.37,71.18,95.47,72.6,94.95z"/>
		</g>
	</g>
</g>
<g>
	<g>
		<line class="st1" x1="62.86" y1="25.37" x2="62.86" y2="41.25"/>
		<g>
			<path class="st2" d="M62.86,44.26c-0.53-1.42-1.43-3.18-2.38-4.27l2.38,0.86l2.38-0.86C64.29,41.08,63.39,42.84,62.86,44.26z"/>
		</g>
	</g>
</g>
</svg>
