<?xml version="1.0" encoding="utf-8"?>
<!-- Generator: Adobe Illustrator 26.0.2, SVG Export Plug-In . SVG Version: 6.00 Build 0)  -->
<svg version="1.1" id="Layer_1" xmlns="http://www.w3.org/2000/svg" xmlns:xlink="http://www.w3.org/1999/xlink" x="0px" y="0px"
	 viewBox="0 0 121.51 23.17" style="enable-background:new 0 0 121.51 23.17;" xml:space="preserve">
<style type="text/css">
	.st0{fill:none;stroke:#486AFB;stroke-miterlimit:10;}
	.st1{fill:#486AFB;}
	.st2{fill:#FD46FC;}
</style>
<path class="st0" d="M34.76,10.04"/>
<circle class="st0" cx="110.01" cy="11.67" r="11"/>
<g>
	<g>
		<line class="st0" x1="25.51" y1="11.5" x2="43.99" y2="11.5"/>
		<g>
			<path class="st1" d="M47.01,11.5c-1.42,0.53-3.18,1.43-4.27,2.38l0.86-2.38l-0.86-2.38C43.83,10.07,45.59,10.97,47.01,11.5z"/>
		</g>
	</g>
</g>
<circle class="st0" cx="11.51" cy="11.5" r="11"/>
<circle class="st0" cx="61.01" cy="11.67" r="11"/>
<g>
	<g>
		<line class="st0" x1="74.67" y1="11.66" x2="93.15" y2="11.66"/>
		<g>
			<path class="st1" d="M96.17,11.66c-1.42,0.53-3.18,1.43-4.27,2.38l0.86-2.38L91.9,9.28C92.99,10.24,94.75,11.13,96.17,11.66z"/>
		</g>
	</g>
</g>
<path class="st2" d="M12.04,10.53L11.2,8.55c-0.03-0.08-0.05-0.12-0.05-0.13c0-0.06,0.17-0.25,0.59-0.29c0.1-0.01,0.2-0.02,0.2-0.19
	c0-0.12-0.12-0.12-0.15-0.12c-0.41,0-0.83,0.03-1.25,0.03c-0.25,0-0.86-0.03-1.11-0.03c-0.06,0-0.18,0-0.18,0.2
	c0,0.11,0.1,0.11,0.23,0.11c0.6,0,0.66,0.1,0.75,0.32l1.17,2.77l-2.1,2.25l-0.13,0.11c-0.49,0.53-0.95,0.69-1.46,0.72
	c-0.13,0.01-0.22,0.01-0.22,0.2c0,0.01,0,0.11,0.13,0.11c0.3,0,0.63-0.03,0.93-0.03c0.37,0,0.75,0.03,1.11,0.03
	c0.06,0,0.18,0,0.18-0.2c0-0.1-0.1-0.11-0.12-0.11c-0.09-0.01-0.4-0.03-0.4-0.31c0-0.16,0.15-0.32,0.27-0.45l1.01-1.07l0.89-0.97
	l1,2.38c0.04,0.11,0.05,0.12,0.05,0.14c0,0.08-0.19,0.25-0.58,0.29c-0.11,0.01-0.2,0.02-0.2,0.19c0,0.12,0.11,0.12,0.15,0.12
	c0.28,0,0.98-0.03,1.25-0.03c0.25,0,0.85,0.03,1.1,0.03c0.07,0,0.19,0,0.19-0.19c0-0.12-0.1-0.12-0.18-0.12
	c-0.67-0.01-0.69-0.04-0.85-0.44c-0.39-0.92-1.05-2.47-1.28-3.07c0.67-0.7,1.72-1.88,2.04-2.16c0.29-0.24,0.67-0.48,1.26-0.51
	c0.13-0.01,0.22-0.01,0.22-0.2c0-0.01,0-0.11-0.13-0.11c-0.3,0-0.63,0.03-0.93,0.03c-0.37,0-0.75-0.03-1.1-0.03
	c-0.06,0-0.19,0-0.19,0.2c0,0.07,0.05,0.1,0.12,0.11c0.09,0.01,0.4,0.03,0.4,0.31c0,0.14-0.11,0.27-0.19,0.36L12.04,10.53"/>
<path class="st2" d="M63.69,9.4l0.14-0.14c0.3-0.3,0.63-0.64,1.3-0.69c0.11-0.01,0.2-0.01,0.2-0.19c0-0.08-0.05-0.12-0.13-0.12
	c-0.26,0-0.55,0.03-0.81,0.03c-0.33,0-0.68-0.03-0.99-0.03c-0.06,0-0.19,0-0.19,0.19c0,0.11,0.1,0.12,0.15,0.12
	c0.07,0,0.36,0.02,0.36,0.23c0,0.17-0.23,0.43-0.27,0.48l-2.3,2.65l-1.09-2.95c-0.06-0.14-0.06-0.16-0.06-0.17
	c0-0.24,0.49-0.24,0.59-0.24c0.14,0,0.24,0,0.24-0.2c0-0.11-0.12-0.11-0.15-0.11c-0.28,0-0.97,0.03-1.25,0.03
	c-0.25,0-0.86-0.03-1.11-0.03c-0.06,0-0.19,0-0.19,0.2c0,0.11,0.1,0.11,0.23,0.11c0.6,0,0.64,0.09,0.72,0.34l1.22,3.27
	c0.01,0.03,0.04,0.14,0.04,0.17c0,0.03-0.4,1.63-0.45,1.81c-0.13,0.55-0.14,0.58-0.93,0.59c-0.19,0-0.27,0-0.27,0.2
	c0,0.11,0.12,0.11,0.14,0.11c0.28,0,0.97-0.03,1.25-0.03c0.28,0,0.99,0.03,1.27,0.03c0.07,0,0.19,0,0.19-0.2
	c0-0.11-0.09-0.11-0.28-0.11c-0.02,0-0.21,0-0.38-0.02c-0.21-0.02-0.27-0.04-0.27-0.16c0-0.07,0.09-0.42,0.14-0.62l0.35-1.4
	c0.05-0.19,0.06-0.22,0.14-0.31L63.69,9.4"/>
<path class="st2" d="M113.28,8.51c0.01-0.04,0.03-0.09,0.03-0.15c0-0.09-0.05-0.09-0.25-0.09h-4.19c-0.24,0-0.25,0.01-0.31,0.2
	l-0.55,1.79c-0.02,0.05-0.03,0.12-0.03,0.14c0,0.01,0,0.11,0.12,0.11c0.09,0,0.11-0.07,0.13-0.1c0.38-1.17,0.89-1.83,2.44-1.83h1.62
	l-5.55,6.21c0,0.01-0.04,0.15-0.04,0.18c0,0.09,0.07,0.09,0.25,0.09h4.32c0.24,0,0.25-0.01,0.31-0.2l0.71-2.2
	c0.01-0.04,0.04-0.11,0.04-0.15c0-0.05-0.04-0.11-0.13-0.11c-0.09,0-0.1,0.04-0.17,0.25c-0.44,1.35-0.91,2.07-2.6,2.07h-1.7
	L113.28,8.51"/>
</svg>
