<?xml version="1.0" encoding="utf-8"?>
<!-- Generator: Adobe Illustrator 26.0.2, SVG Export Plug-In . SVG Version: 6.00 Build 0)  -->
<svg version="1.1" id="Layer_1" xmlns="http://www.w3.org/2000/svg" xmlns:xlink="http://www.w3.org/1999/xlink" x="0px" y="0px"
	 viewBox="0 0 73.71 52.75" style="enable-background:new 0 0 73.71 52.75;" xml:space="preserve">
<style type="text/css">
	.st0{opacity:0.4;fill:#486AFB;stroke:#486AFB;stroke-miterlimit:10;}
	.st1{fill:none;stroke:#486AFB;stroke-miterlimit:10;}
	.st2{fill:#FD46FC;}
	.st3{fill:#486AFB;}
</style>
<circle class="st0" cx="11.5" cy="40.88" r="11"/>
<circle class="st1" cx="11.5" cy="40.88" r="11"/>
<circle class="st0" cx="61.76" cy="41.25" r="11"/>
<path class="st2" d="M14.69,38.99l0.14-0.14c0.3-0.3,0.63-0.64,1.3-0.69c0.11-0.01,0.2-0.01,0.2-0.19c0-0.08-0.05-0.12-0.13-0.12
	c-0.26,0-0.55,0.03-0.81,0.03c-0.33,0-0.68-0.03-0.99-0.03c-0.06,0-0.19,0-0.19,0.19c0,0.11,0.1,0.12,0.15,0.12
	c0.07,0,0.36,0.02,0.36,0.23c0,0.17-0.23,0.43-0.27,0.48l-2.3,2.65l-1.09-2.95c-0.06-0.14-0.06-0.16-0.06-0.17
	c0-0.24,0.49-0.24,0.59-0.24c0.14,0,0.24,0,0.24-0.2c0-0.11-0.12-0.11-0.15-0.11c-0.28,0-0.97,0.03-1.25,0.03
	c-0.25,0-0.86-0.03-1.11-0.03c-0.06,0-0.19,0-0.19,0.2c0,0.11,0.1,0.11,0.23,0.11c0.6,0,0.64,0.09,0.72,0.34l1.22,3.27
	c0.01,0.03,0.04,0.14,0.04,0.17c0,0.03-0.4,1.63-0.45,1.81c-0.13,0.55-0.14,0.58-0.93,0.59c-0.19,0-0.27,0-0.27,0.2
	c0,0.11,0.12,0.11,0.14,0.11c0.28,0,0.97-0.03,1.25-0.03c0.28,0,0.99,0.03,1.27,0.03c0.07,0,0.19,0,0.19-0.2
	c0-0.11-0.09-0.11-0.28-0.11c-0.02,0-0.21,0-0.38-0.02c-0.21-0.02-0.27-0.04-0.27-0.16c0-0.07,0.09-0.42,0.14-0.62l0.35-1.4
	c0.05-0.19,0.06-0.22,0.14-0.31L14.69,38.99"/>
<circle class="st1" cx="61.76" cy="41.25" r="11"/>
<g>
	<g>
		<line class="st1" x1="26.76" y1="41.25" x2="45.24" y2="41.25"/>
		<g>
			<path class="st3" d="M48.26,41.25c-1.42,0.53-3.18,1.43-4.27,2.38l0.86-2.38l-0.86-2.38C45.08,39.82,46.84,40.72,48.26,41.25z"/>
		</g>
	</g>
</g>
<g>
	<g>
		<line class="st1" x1="54.07" y1="10.6" x2="57.51" y2="25.69"/>
		<g>
			<path class="st3" d="M58.19,28.63c-0.83-1.27-2.1-2.78-3.27-3.64l2.51,0.31l2.13-1.37C58.87,25.21,58.38,27.13,58.19,28.63z"/>
		</g>
	</g>
</g>
<g>
	<g>
		<line class="st1" x1="68.03" y1="10.68" x2="64.58" y2="25.76"/>
		<g>
			<path class="st3" d="M63.91,28.7c-0.2-1.5-0.68-3.42-1.37-4.7l2.13,1.37l2.51-0.31C66.01,25.92,64.74,27.44,63.91,28.7z"/>
		</g>
	</g>
</g>
<path class="st2" d="M62.76,40.71l1.67-2.2c0.11-0.14,0.12-0.15,0.47-0.18c0.24-0.03,0.3-0.03,0.58-0.03h0.29v-0.47
	c-0.42,0.03-0.9,0.03-1.33,0.03c-0.39,0-1.15,0-1.51-0.03v0.47c0.18,0,0.57,0,0.91,0.11c-0.01,0.02-0.06,0.08-0.08,0.11l-1.31,1.74
	l-1.42-1.96h0.83v-0.47c-0.41,0.03-1.35,0.03-1.8,0.03c-0.4,0-1.26,0-1.61-0.03v0.47h0.97l2.2,3.05l-2.01,2.63
	c-0.09,0.12-0.11,0.14-0.43,0.17c-0.2,0.02-0.41,0.03-0.6,0.03h-0.29v0.47c0.42-0.03,0.9-0.03,1.33-0.03c0.39,0,1.15,0,1.51,0.03
	v-0.47c-0.18,0-0.57,0-0.91-0.11c0.01-0.02,0.06-0.08,0.08-0.11l1.64-2.18l1.73,2.39h-0.83v0.47c0.41-0.03,1.35-0.03,1.8-0.03
	c0.4,0,1.26,0,1.61,0.03v-0.47h-0.97L62.76,40.71"/>
<g>
	<g>
		<line class="st1" x1="11.5" y1="25.28" x2="11.5" y2="11.41"/>
		<g>
			<path class="st3" d="M11.5,28.3c0.53-1.42,1.43-3.18,2.38-4.27l-2.38,0.86l-2.38-0.86C10.07,25.11,10.97,26.88,11.5,28.3z"/>
		</g>
	</g>
</g>
<path class="st2" d="M12.99,0.26c0.01-0.04,0.03-0.1,0.03-0.15c0-0.1-0.07-0.11-0.12-0.11c-0.1,0-0.11,0.02-0.15,0.2L11.1,6.76
	c-0.75-0.09-1.13-0.46-1.13-1.11c0-0.2,0-0.46,0.54-1.85c0.04-0.12,0.11-0.29,0.11-0.49c0-0.45-0.32-0.81-0.81-0.81
	c-0.94,0-1.31,1.44-1.31,1.53c0,0.1,0.1,0.1,0.12,0.1c0.1,0,0.11-0.02,0.16-0.18c0.27-0.94,0.67-1.23,1-1.23
	c0.08,0,0.25,0,0.25,0.32c0,0.26-0.1,0.51-0.23,0.85C9.31,5.15,9.31,5.4,9.31,5.57c0,0.94,0.77,1.35,1.73,1.41
	c-0.08,0.36-0.08,0.38-0.22,0.9C10.79,8,10.6,8.8,10.6,8.83c0,0.01,0,0.1,0.12,0.1c0.02,0,0.07,0,0.09-0.04
	c0.03-0.02,0.09-0.27,0.12-0.41L11.3,7c0.37,0,1.24,0,2.17-1.06c0.41-0.46,0.62-0.9,0.73-1.19c0.09-0.25,0.31-1.11,0.31-1.55
	c0-0.56-0.27-0.7-0.44-0.7c-0.25,0-0.5,0.26-0.5,0.48c0,0.13,0.06,0.19,0.15,0.27c0.11,0.11,0.36,0.37,0.36,0.84
	c0,0.64-0.52,1.45-0.86,1.81c-0.88,0.88-1.51,0.88-1.87,0.88L12.99,0.26"/>
<path class="st2" d="M52.69,4.97c-0.62,2.66-1.45,2.93-1.8,2.93c-0.14,0-0.35-0.04-0.49-0.35c-0.12-0.27-0.12-0.65-0.12-0.66
	c0-0.57,0.22-1.49,0.33-1.92H52.69 M50.73,4.49c0.14-0.58,0.4-1.48,0.7-2c0.23-0.41,0.64-0.93,1.11-0.93c0.42,0,0.6,0.44,0.6,1.02
	c0,0.62-0.22,1.49-0.33,1.91H50.73z M54.2,3.31c0-1.75-1.03-2.11-1.64-2.11c-0.79,0-1.78,0.52-2.52,1.87
	c-0.51,0.93-0.82,2.28-0.82,3.09c0,1.44,0.76,2.1,1.65,2.1c0.67,0,1.54-0.39,2.23-1.4C53.93,5.64,54.2,4.06,54.2,3.31z"/>
<path class="st2" d="M56.66,9.62c-0.32,0-0.75-0.19-0.89-0.77c-0.1-0.42-0.1-0.99-0.1-1.51c0-0.51,0-1.05,0.11-1.43
	c0.15-0.55,0.6-0.7,0.89-0.7c0.38,0,0.75,0.23,0.87,0.64c0.11,0.38,0.12,0.89,0.12,1.5c0,0.52,0,1.04-0.09,1.48
	C57.42,9.47,56.94,9.62,56.66,9.62 M58.29,7.44c0-0.77-0.09-1.33-0.42-1.82c-0.22-0.32-0.65-0.6-1.22-0.6
	c-1.63,0-1.63,1.92-1.63,2.43s0,2.38,1.63,2.38C58.29,9.82,58.29,7.94,58.29,7.44z"/>
<path class="st2" d="M68.31,4.74c-0.62,2.66-1.45,2.93-1.8,2.93c-0.14,0-0.35-0.04-0.49-0.35c-0.12-0.27-0.12-0.65-0.12-0.66
	c0-0.57,0.22-1.49,0.33-1.92H68.31 M66.35,4.26c0.14-0.58,0.4-1.48,0.7-2c0.23-0.41,0.64-0.93,1.11-0.93c0.42,0,0.6,0.44,0.6,1.02
	c0,0.62-0.22,1.49-0.33,1.91H66.35z M69.82,3.08c0-1.75-1.03-2.11-1.64-2.11c-0.79,0-1.78,0.52-2.52,1.87
	c-0.51,0.93-0.82,2.28-0.82,3.09c0,1.44,0.76,2.1,1.65,2.1c0.67,0,1.54-0.39,2.22-1.4C69.55,5.4,69.82,3.82,69.82,3.08z"/>
<path class="st2" d="M72.74,4.98c0-0.19-0.01-0.2-0.21-0.2c-0.45,0.44-1.09,0.45-1.38,0.45v0.25c0.17,0,0.63,0,1.02-0.2v3.59
	c0,0.23,0,0.32-0.7,0.32H71.2v0.25c0.13-0.01,0.99-0.03,1.25-0.03c0.22,0,1.1,0.02,1.26,0.03V9.19h-0.27c-0.7,0-0.7-0.09-0.7-0.32
	V4.98"/>
</svg>
