<?xml version="1.0" encoding="utf-8"?>
<!-- Generator: Adobe Illustrator 26.0.2, SVG Export Plug-In . SVG Version: 6.00 Build 0)  -->
<svg version="1.1" id="Layer_1" xmlns="http://www.w3.org/2000/svg" xmlns:xlink="http://www.w3.org/1999/xlink" x="0px" y="0px"
	 viewBox="0 0 157.22 113.36" style="enable-background:new 0 0 157.22 113.36;" xml:space="preserve">
<style type="text/css">
	.st0{opacity:0.4;fill:#486AFB;stroke:#486AFB;stroke-miterlimit:10;}
	.st1{fill:none;stroke:#486AFB;stroke-miterlimit:10;}
	.st2{fill:#FD46FC;}
	.st3{fill:#486AFB;}
</style>
<circle class="st0" cx="11.92" cy="83.05" r="11"/>
<circle class="st1" cx="11.92" cy="83.05" r="11"/>
<circle class="st0" cx="78.3" cy="34.44" r="11"/>
<circle class="st1" cx="78.3" cy="34.44" r="11"/>
<path class="st2" d="M81.21,31.98l0.14-0.14c0.3-0.3,0.63-0.64,1.3-0.69c0.11-0.01,0.2-0.01,0.2-0.19c0-0.08-0.05-0.12-0.13-0.12
	c-0.26,0-0.55,0.03-0.81,0.03c-0.33,0-0.68-0.03-0.99-0.03c-0.06,0-0.19,0-0.19,0.19c0,0.11,0.1,0.12,0.15,0.12
	c0.07,0,0.36,0.02,0.36,0.23c0,0.17-0.23,0.43-0.27,0.48l-2.3,2.65l-1.09-2.95c-0.06-0.14-0.06-0.16-0.06-0.17
	c0-0.24,0.49-0.24,0.59-0.24c0.14,0,0.24,0,0.24-0.2c0-0.11-0.12-0.11-0.15-0.11c-0.28,0-0.97,0.03-1.25,0.03
	c-0.25,0-0.86-0.03-1.11-0.03c-0.06,0-0.19,0-0.19,0.2c0,0.11,0.1,0.11,0.23,0.11c0.6,0,0.64,0.09,0.72,0.34l1.22,3.27
	c0.01,0.03,0.04,0.14,0.04,0.17c0,0.03-0.4,1.63-0.45,1.81c-0.13,0.55-0.14,0.58-0.93,0.59c-0.19,0-0.27,0-0.27,0.2
	c0,0.11,0.12,0.11,0.14,0.11c0.28,0,0.97-0.03,1.25-0.03c0.28,0,0.99,0.03,1.27,0.03c0.07,0,0.19,0,0.19-0.2
	c0-0.11-0.09-0.11-0.28-0.11c-0.02,0-0.21,0-0.38-0.02c-0.21-0.02-0.27-0.04-0.27-0.16c0-0.07,0.09-0.42,0.14-0.62l0.35-1.4
	c0.05-0.19,0.06-0.22,0.14-0.31L81.21,31.98"/>
<circle class="st0" cx="38.68" cy="82.77" r="11"/>
<circle class="st1" cx="38.68" cy="82.77" r="11"/>
<circle class="st0" cx="65.44" cy="82.34" r="11"/>
<circle class="st1" cx="65.44" cy="82.34" r="11"/>
<circle class="st0" cx="92.2" cy="81.92" r="11"/>
<circle class="st1" cx="92.2" cy="81.92" r="11"/>
<circle class="st0" cx="118.96" cy="81.49" r="11"/>
<circle class="st1" cx="118.96" cy="81.49" r="11"/>
<circle class="st0" cx="145.72" cy="81.07" r="11"/>
<circle class="st1" cx="145.72" cy="81.07" r="11"/>
<path class="st2" d="M11.8,82.25l-0.83-1.98c-0.03-0.08-0.05-0.12-0.05-0.13c0-0.06,0.17-0.25,0.59-0.29c0.1-0.01,0.2-0.02,0.2-0.19
	c0-0.12-0.12-0.12-0.15-0.12c-0.41,0-0.83,0.03-1.25,0.03c-0.25,0-0.86-0.03-1.11-0.03c-0.06,0-0.18,0-0.18,0.2
	c0,0.11,0.1,0.11,0.23,0.11c0.6,0,0.66,0.1,0.75,0.32l1.17,2.77l-2.1,2.25l-0.13,0.11c-0.49,0.53-0.95,0.69-1.46,0.72
	c-0.13,0.01-0.22,0.01-0.22,0.2c0,0.01,0,0.11,0.13,0.11c0.3,0,0.63-0.03,0.93-0.03c0.37,0,0.75,0.03,1.11,0.03
	c0.06,0,0.18,0,0.18-0.2c0-0.1-0.1-0.11-0.12-0.11c-0.09-0.01-0.4-0.03-0.4-0.31c0-0.16,0.15-0.32,0.27-0.45l1.01-1.07l0.89-0.97
	l1,2.38c0.04,0.11,0.05,0.12,0.05,0.14c0,0.08-0.19,0.25-0.58,0.29c-0.11,0.01-0.2,0.02-0.2,0.19c0,0.12,0.11,0.12,0.15,0.12
	c0.28,0,0.98-0.03,1.25-0.03c0.25,0,0.85,0.03,1.1,0.03c0.07,0,0.19,0,0.19-0.19c0-0.12-0.1-0.12-0.18-0.12
	c-0.67-0.01-0.69-0.04-0.85-0.44c-0.39-0.92-1.05-2.47-1.28-3.07c0.67-0.7,1.72-1.88,2.04-2.16c0.29-0.24,0.67-0.48,1.26-0.51
	c0.13-0.01,0.22-0.01,0.22-0.2c0-0.01,0-0.11-0.13-0.11c-0.3,0-0.63,0.03-0.93,0.03c-0.37,0-0.75-0.03-1.1-0.03
	c-0.06,0-0.19,0-0.19,0.2c0,0.07,0.05,0.1,0.12,0.11c0.09,0.01,0.4,0.03,0.4,0.31c0,0.14-0.11,0.27-0.19,0.36L11.8,82.25"/>
<path class="st2" d="M17.64,83.36c0-0.19-0.01-0.2-0.21-0.2c-0.45,0.44-1.09,0.45-1.38,0.45v0.25c0.17,0,0.63,0,1.02-0.2v3.59
	c0,0.23,0,0.32-0.7,0.32H16.1v0.25c0.13-0.01,0.99-0.03,1.25-0.03c0.22,0,1.1,0.02,1.26,0.03v-0.25h-0.27c-0.7,0-0.7-0.09-0.7-0.32
	V83.36"/>
<path class="st2" d="M38.61,82.25l-0.83-1.98c-0.03-0.08-0.05-0.12-0.05-0.13c0-0.06,0.17-0.25,0.59-0.29
	c0.1-0.01,0.2-0.02,0.2-0.19c0-0.12-0.12-0.12-0.15-0.12c-0.41,0-0.83,0.03-1.25,0.03c-0.25,0-0.86-0.03-1.11-0.03
	c-0.06,0-0.18,0-0.18,0.2c0,0.11,0.1,0.11,0.23,0.11c0.6,0,0.66,0.1,0.75,0.32l1.17,2.77l-2.1,2.25l-0.13,0.11
	c-0.49,0.53-0.95,0.69-1.46,0.72c-0.13,0.01-0.22,0.01-0.22,0.2c0,0.01,0,0.11,0.13,0.11c0.3,0,0.63-0.03,0.93-0.03
	c0.37,0,0.75,0.03,1.11,0.03c0.06,0,0.18,0,0.18-0.2c0-0.1-0.1-0.11-0.12-0.11c-0.09-0.01-0.4-0.03-0.4-0.31
	c0-0.16,0.15-0.32,0.27-0.45l1.01-1.07l0.89-0.97l1,2.38c0.04,0.11,0.05,0.12,0.05,0.14c0,0.08-0.19,0.25-0.58,0.29
	c-0.11,0.01-0.2,0.02-0.2,0.19c0,0.12,0.11,0.12,0.15,0.12c0.28,0,0.97-0.03,1.25-0.03c0.25,0,0.85,0.03,1.1,0.03
	c0.07,0,0.19,0,0.19-0.19c0-0.12-0.1-0.12-0.18-0.12c-0.67-0.01-0.69-0.04-0.85-0.44c-0.39-0.92-1.05-2.47-1.28-3.07
	c0.68-0.7,1.72-1.88,2.04-2.16c0.29-0.24,0.67-0.48,1.26-0.51c0.13-0.01,0.22-0.01,0.22-0.2c0-0.01,0-0.11-0.13-0.11
	c-0.3,0-0.63,0.03-0.93,0.03c-0.37,0-0.75-0.03-1.1-0.03c-0.06,0-0.19,0-0.19,0.2c0,0.07,0.05,0.1,0.12,0.11
	c0.09,0.01,0.4,0.03,0.4,0.31c0,0.14-0.11,0.27-0.19,0.36L38.61,82.25"/>
<path class="st2" d="M45.64,86.55H45.4c-0.02,0.15-0.09,0.57-0.18,0.64c-0.06,0.04-0.6,0.04-0.7,0.04h-1.29
	c0.74-0.65,0.98-0.85,1.41-1.18c0.52-0.42,1-0.85,1-1.52c0-0.85-0.75-1.37-1.65-1.37c-0.87,0-1.46,0.61-1.46,1.26
	c0,0.36,0.3,0.39,0.37,0.39c0.17,0,0.37-0.12,0.37-0.37c0-0.13-0.05-0.37-0.41-0.37c0.22-0.5,0.7-0.65,1.03-0.65
	c0.7,0,1.07,0.55,1.07,1.12c0,0.61-0.44,1.1-0.66,1.35l-1.7,1.67c-0.07,0.06-0.07,0.08-0.07,0.27h2.9L45.64,86.55"/>
<path class="st2" d="M65.03,81.65l-0.83-1.98c-0.03-0.08-0.05-0.12-0.05-0.13c0-0.06,0.17-0.25,0.59-0.29
	c0.1-0.01,0.2-0.02,0.2-0.19c0-0.12-0.12-0.12-0.15-0.12c-0.41,0-0.83,0.03-1.25,0.03c-0.25,0-0.86-0.03-1.11-0.03
	c-0.06,0-0.18,0-0.18,0.2c0,0.11,0.1,0.11,0.23,0.11c0.6,0,0.66,0.1,0.75,0.32l1.17,2.77l-2.1,2.25l-0.13,0.11
	c-0.49,0.53-0.95,0.69-1.46,0.72c-0.13,0.01-0.22,0.01-0.22,0.2c0,0.01,0,0.11,0.13,0.11c0.3,0,0.63-0.03,0.93-0.03
	c0.37,0,0.75,0.03,1.11,0.03c0.06,0,0.18,0,0.18-0.2c0-0.1-0.1-0.11-0.12-0.11c-0.09-0.01-0.4-0.03-0.4-0.31
	c0-0.16,0.15-0.32,0.27-0.45l1.01-1.07l0.89-0.97l1,2.38c0.04,0.11,0.05,0.12,0.05,0.14c0,0.08-0.19,0.25-0.58,0.29
	c-0.11,0.01-0.2,0.02-0.2,0.19c0,0.12,0.11,0.12,0.15,0.12c0.28,0,0.97-0.03,1.25-0.03c0.25,0,0.85,0.03,1.1,0.03
	c0.07,0,0.19,0,0.19-0.19c0-0.12-0.1-0.12-0.18-0.12c-0.67-0.01-0.69-0.04-0.85-0.44c-0.39-0.92-1.05-2.47-1.28-3.07
	c0.68-0.7,1.72-1.88,2.04-2.16c0.29-0.24,0.67-0.48,1.26-0.51c0.13-0.01,0.22-0.01,0.22-0.2c0-0.01,0-0.11-0.13-0.11
	c-0.3,0-0.63,0.03-0.93,0.03c-0.37,0-0.75-0.03-1.1-0.03c-0.06,0-0.19,0-0.19,0.2c0,0.07,0.05,0.1,0.12,0.11
	c0.09,0.01,0.4,0.03,0.4,0.31c0,0.14-0.11,0.27-0.19,0.36L65.03,81.65"/>
<path class="st2" d="M70.43,84.89c0.55,0,0.94,0.38,0.94,1.13c0,0.87-0.51,1.13-0.91,1.13c-0.28,0-0.9-0.08-1.2-0.49
	c0.33-0.01,0.41-0.25,0.41-0.39c0-0.22-0.17-0.39-0.39-0.39c-0.2,0-0.39,0.12-0.39,0.41c0,0.66,0.73,1.09,1.58,1.09
	c0.98,0,1.65-0.65,1.65-1.36c0-0.55-0.45-1.1-1.22-1.26c0.74-0.27,1-0.79,1-1.22c0-0.55-0.64-0.97-1.42-0.97
	c-0.78,0-1.38,0.38-1.38,0.94c0,0.24,0.15,0.37,0.37,0.37c0.22,0,0.36-0.16,0.36-0.36c0-0.2-0.14-0.35-0.36-0.37
	c0.25-0.31,0.73-0.39,0.99-0.39c0.32,0,0.76,0.15,0.76,0.77c0,0.3-0.1,0.62-0.28,0.84c-0.23,0.27-0.43,0.28-0.78,0.3
	c-0.17,0.01-0.19,0.01-0.22,0.02c-0.01,0-0.07,0.01-0.07,0.09c0,0.1,0.06,0.1,0.18,0.1H70.43"/>
<path class="st2" d="M92.74,80.95l-0.83-1.98c-0.03-0.08-0.05-0.12-0.05-0.13c0-0.06,0.17-0.25,0.59-0.29
	c0.1-0.01,0.2-0.02,0.2-0.19c0-0.12-0.12-0.12-0.15-0.12c-0.41,0-0.83,0.03-1.25,0.03c-0.25,0-0.86-0.03-1.11-0.03
	c-0.06,0-0.18,0-0.18,0.2c0,0.11,0.1,0.11,0.23,0.11c0.6,0,0.66,0.1,0.75,0.32l1.17,2.77l-2.1,2.25L89.87,84
	c-0.49,0.53-0.95,0.69-1.46,0.72c-0.13,0.01-0.22,0.01-0.22,0.2c0,0.01,0,0.11,0.13,0.11c0.3,0,0.63-0.03,0.93-0.03
	c0.37,0,0.75,0.03,1.11,0.03c0.06,0,0.18,0,0.18-0.2c0-0.1-0.1-0.11-0.12-0.11c-0.09-0.01-0.4-0.03-0.4-0.31
	c0-0.16,0.15-0.32,0.27-0.45l1.01-1.07l0.89-0.97l1,2.38c0.04,0.11,0.05,0.12,0.05,0.14c0,0.08-0.19,0.25-0.58,0.29
	c-0.11,0.01-0.2,0.02-0.2,0.19c0,0.12,0.11,0.12,0.15,0.12c0.28,0,0.98-0.03,1.25-0.03c0.25,0,0.85,0.03,1.1,0.03
	c0.07,0,0.19,0,0.19-0.19c0-0.12-0.1-0.12-0.18-0.12c-0.67-0.01-0.69-0.04-0.85-0.44c-0.39-0.92-1.05-2.47-1.28-3.07
	c0.67-0.7,1.72-1.88,2.04-2.16c0.29-0.24,0.67-0.48,1.26-0.51c0.13-0.01,0.22-0.01,0.22-0.2c0-0.01,0-0.11-0.13-0.11
	c-0.3,0-0.63,0.03-0.93,0.03c-0.37,0-0.75-0.03-1.1-0.03c-0.06,0-0.19,0-0.19,0.2c0,0.07,0.05,0.1,0.12,0.11
	c0.09,0.01,0.4,0.03,0.4,0.31c0,0.14-0.11,0.27-0.19,0.36L92.74,80.95"/>
<path class="st2" d="M98.61,82.55v2.57h-1.86L98.61,82.55z M99.94,85.38v-0.25h-0.78v-3.13c0-0.15,0-0.2-0.15-0.2
	c-0.08,0-0.11,0-0.18,0.1l-2.33,3.23v0.25h2.07v0.58c0,0.24,0,0.32-0.57,0.32H97.8v0.25c0.35-0.01,0.8-0.03,1.05-0.03
	c0.26,0,0.71,0.01,1.06,0.03v-0.25h-0.19c-0.57,0-0.57-0.08-0.57-0.32v-0.58H99.94z"/>
<path class="st2" d="M118.98,80.83l-0.83-1.98c-0.03-0.08-0.05-0.12-0.05-0.13c0-0.06,0.17-0.25,0.59-0.29
	c0.1-0.01,0.2-0.02,0.2-0.19c0-0.12-0.12-0.12-0.15-0.12c-0.41,0-0.83,0.03-1.25,0.03c-0.25,0-0.86-0.03-1.11-0.03
	c-0.06,0-0.18,0-0.18,0.2c0,0.11,0.1,0.11,0.23,0.11c0.6,0,0.66,0.1,0.75,0.32l1.17,2.77l-2.1,2.25l-0.13,0.11
	c-0.49,0.53-0.95,0.69-1.46,0.72c-0.13,0.01-0.22,0.01-0.22,0.2c0,0.01,0,0.11,0.13,0.11c0.3,0,0.63-0.03,0.93-0.03
	c0.37,0,0.75,0.03,1.11,0.03c0.06,0,0.18,0,0.18-0.2c0-0.1-0.1-0.11-0.12-0.11c-0.09-0.01-0.4-0.03-0.4-0.31
	c0-0.16,0.15-0.32,0.27-0.45l1.01-1.07l0.89-0.97l1,2.38c0.04,0.11,0.05,0.12,0.05,0.14c0,0.08-0.19,0.25-0.58,0.29
	c-0.11,0.01-0.2,0.02-0.2,0.19c0,0.12,0.11,0.12,0.15,0.12c0.28,0,0.97-0.03,1.25-0.03c0.25,0,0.85,0.03,1.1,0.03
	c0.07,0,0.19,0,0.19-0.19c0-0.12-0.1-0.12-0.18-0.12c-0.67-0.01-0.69-0.04-0.85-0.44c-0.39-0.92-1.05-2.47-1.28-3.07
	c0.68-0.7,1.72-1.88,2.04-2.16c0.29-0.24,0.67-0.48,1.26-0.51c0.13-0.01,0.22-0.01,0.22-0.2c0-0.01,0-0.11-0.13-0.11
	c-0.3,0-0.63,0.03-0.93,0.03c-0.37,0-0.75-0.03-1.1-0.03c-0.06,0-0.19,0-0.19,0.2c0,0.07,0.05,0.1,0.12,0.11
	c0.09,0.01,0.4,0.03,0.4,0.31c0,0.14-0.11,0.27-0.19,0.36L118.98,80.83"/>
<path class="st2" d="M123.45,82.49c0.36,0.09,0.57,0.09,0.68,0.09c0.93,0,1.48-0.63,1.48-0.74c0-0.08-0.05-0.1-0.08-0.1
	c-0.01,0-0.03,0-0.06,0.02c-0.17,0.06-0.54,0.2-1.06,0.2c-0.2,0-0.57-0.01-1.03-0.19c-0.07-0.03-0.08-0.03-0.09-0.03
	c-0.09,0-0.09,0.08-0.09,0.19v2.07c0,0.12,0,0.2,0.11,0.2c0.06,0,0.07-0.01,0.14-0.1c0.3-0.39,0.73-0.44,0.98-0.44
	c0.42,0,0.61,0.34,0.65,0.39c0.13,0.23,0.17,0.5,0.17,0.91c0,0.21,0,0.63-0.21,0.93c-0.18,0.25-0.48,0.42-0.82,0.42
	c-0.46,0-0.93-0.25-1.1-0.72c0.27,0.02,0.4-0.15,0.4-0.34c0-0.3-0.26-0.36-0.35-0.36c-0.01,0-0.35,0-0.35,0.38
	c0,0.63,0.58,1.27,1.42,1.27c0.9,0,1.69-0.67,1.69-1.55c0-0.8-0.6-1.53-1.48-1.53c-0.31,0-0.67,0.08-0.98,0.35V82.49"/>
<path class="st2" d="M146.1,80.24l-0.83-1.98c-0.03-0.08-0.05-0.12-0.05-0.13c0-0.06,0.17-0.25,0.59-0.29
	c0.1-0.01,0.2-0.02,0.2-0.19c0-0.12-0.12-0.12-0.15-0.12c-0.41,0-0.83,0.03-1.25,0.03c-0.25,0-0.86-0.03-1.11-0.03
	c-0.06,0-0.18,0-0.18,0.2c0,0.11,0.1,0.11,0.23,0.11c0.6,0,0.66,0.1,0.75,0.32l1.17,2.77l-2.1,2.25l-0.13,0.11
	c-0.49,0.53-0.95,0.69-1.46,0.72c-0.13,0.01-0.22,0.01-0.22,0.2c0,0.01,0,0.11,0.13,0.11c0.3,0,0.63-0.03,0.93-0.03
	c0.37,0,0.75,0.03,1.11,0.03c0.06,0,0.18,0,0.18-0.2c0-0.1-0.1-0.11-0.12-0.11c-0.09-0.01-0.4-0.03-0.4-0.31
	c0-0.16,0.15-0.32,0.27-0.45l1.01-1.07l0.89-0.97l1,2.38c0.04,0.11,0.05,0.12,0.05,0.14c0,0.08-0.19,0.25-0.58,0.29
	c-0.11,0.01-0.2,0.02-0.2,0.19c0,0.12,0.11,0.12,0.15,0.12c0.28,0,0.97-0.03,1.25-0.03c0.25,0,0.85,0.03,1.1,0.03
	c0.07,0,0.19,0,0.19-0.19c0-0.12-0.1-0.12-0.18-0.12c-0.67-0.01-0.69-0.04-0.85-0.44c-0.39-0.92-1.05-2.47-1.28-3.07
	c0.68-0.7,1.72-1.88,2.04-2.16c0.29-0.24,0.67-0.48,1.26-0.51c0.13-0.01,0.22-0.01,0.22-0.2c0-0.01,0-0.11-0.13-0.11
	c-0.3,0-0.63,0.03-0.93,0.03c-0.37,0-0.75-0.03-1.1-0.03c-0.06,0-0.19,0-0.19,0.2c0,0.07,0.05,0.1,0.12,0.11
	c0.09,0.01,0.4,0.03,0.4,0.31c0,0.14-0.11,0.27-0.19,0.36L146.1,80.24"/>
<path class="st2" d="M151.59,85.73c-0.35,0-0.63-0.2-0.77-0.51c-0.11-0.21-0.16-0.56-0.16-0.98c0-0.68,0.41-1.21,0.97-1.21
	c0.32,0,0.54,0.13,0.72,0.39c0.17,0.27,0.18,0.56,0.18,0.97c0,0.4,0,0.7-0.19,0.97C152.16,85.6,151.93,85.73,151.59,85.73
	 M150.63,83.52c0-0.58,0.05-1.1,0.32-1.53c0.24-0.38,0.62-0.64,1.07-0.64c0.21,0,0.49,0.06,0.63,0.25
	c-0.18,0.01-0.32,0.13-0.32,0.34c0,0.18,0.12,0.33,0.33,0.33c0.21,0,0.34-0.14,0.34-0.35c0-0.41-0.3-0.77-0.99-0.77
	c-1.01,0-2.05,0.93-2.05,2.44c0,1.82,0.86,2.37,1.63,2.37c0.86,0,1.6-0.65,1.6-1.58c0-0.89-0.71-1.55-1.53-1.55
	C151.1,82.83,150.79,83.2,150.63,83.52z"/>
<g>
	<g>
		<line class="st1" x1="67.4" y1="42.27" x2="25.08" y2="73.46"/>
		<g>
			<path class="st3" d="M22.65,75.26c0.83-1.27,1.72-3.04,2.03-4.45l0.72,2.42l2.1,1.4C26.06,74.51,24.11,74.84,22.65,75.26z"/>
		</g>
	</g>
</g>
<g>
	<g>
		<line class="st1" x1="69.67" y1="44.66" x2="48.91" y2="69.73"/>
		<g>
			<path class="st3" d="M46.99,72.05c0.5-1.43,0.93-3.36,0.89-4.81l1.28,2.18l2.38,0.85C50.11,70.51,48.3,71.29,46.99,72.05z"/>
		</g>
	</g>
</g>
<g>
	<g>
		<line class="st1" x1="74.88" y1="47.14" x2="69.88" y2="66.03"/>
		<g>
			<path class="st3" d="M69.1,68.94c-0.15-1.51-0.56-3.44-1.2-4.74l2.08,1.44l2.52-0.22C71.3,66.23,69.98,67.71,69.1,68.94z"/>
		</g>
	</g>
</g>
<g>
	<g>
		<line class="st1" x1="82.12" y1="47.35" x2="87.52" y2="65.85"/>
		<g>
			<path class="st3" d="M88.36,68.75c-0.9-1.22-2.26-2.66-3.48-3.44l2.52,0.16l2.04-1.49C88.84,65.3,88.47,67.24,88.36,68.75z"/>
		</g>
	</g>
</g>
<g>
	<g>
		<line class="st1" x1="87.11" y1="45.07" x2="107.56" y2="69.05"/>
		<g>
			<path class="st3" d="M109.52,71.34c-1.32-0.74-3.15-1.5-4.58-1.71l2.37-0.89l1.25-2.2C108.54,68,109,69.92,109.52,71.34z"/>
		</g>
	</g>
</g>
<path class="st1" d="M145.72,80.93"/>
<g>
	<g>
		<line class="st1" x1="89.82" y1="42.53" x2="131.7" y2="71.29"/>
		<g>
			<path class="st3" d="M134.18,73c-1.47-0.37-3.43-0.63-4.87-0.46l2.06-1.47l0.64-2.45C132.37,70.03,133.31,71.76,134.18,73z"/>
		</g>
	</g>
</g>
<g>
	<g>
		<line class="st1" x1="16.24" y1="98.28" x2="18.61" y2="106.97"/>
		<g>
			<path class="st3" d="M15.44,95.37c-0.13,1.51-0.54,3.45-1.17,4.75l2.07-1.46l2.52,0.2C17.65,98.07,16.32,96.6,15.44,95.37z"/>
		</g>
	</g>
</g>
<g>
	<g>
		<line class="st1" x1="7.59" y1="98.37" x2="5.23" y2="106.97"/>
		<g>
			<path class="st3" d="M8.38,95.46c-0.88,1.23-2.21,2.69-3.42,3.5l2.52-0.2l2.07,1.46C8.92,98.9,8.52,96.97,8.38,95.46z"/>
		</g>
	</g>
</g>
<g>
	<g>
		<line class="st1" x1="42.95" y1="98.7" x2="45.33" y2="107.39"/>
		<g>
			<path class="st3" d="M42.16,95.79c-0.13,1.51-0.54,3.45-1.17,4.75l2.07-1.46l2.52,0.2C44.37,98.48,43.04,97.02,42.16,95.79z"/>
		</g>
	</g>
</g>
<g>
	<g>
		<line class="st1" x1="34.3" y1="98.79" x2="31.95" y2="107.39"/>
		<g>
			<path class="st3" d="M35.1,95.88c-0.88,1.23-2.21,2.69-3.42,3.5l2.52-0.2l2.07,1.46C35.63,99.32,35.23,97.38,35.1,95.88z"/>
		</g>
	</g>
</g>
<g>
	<g>
		<line class="st1" x1="69.71" y1="98.95" x2="72.09" y2="107.64"/>
		<g>
			<path class="st3" d="M68.91,96.04c-0.13,1.51-0.54,3.45-1.17,4.75l2.07-1.46l2.52,0.2C71.13,98.73,69.8,97.27,68.91,96.04z"/>
		</g>
	</g>
</g>
<g>
	<g>
		<line class="st1" x1="61.06" y1="99.04" x2="58.71" y2="107.64"/>
		<g>
			<path class="st3" d="M61.86,96.13c-0.88,1.23-2.21,2.69-3.42,3.5l2.52-0.2l2.07,1.46C62.39,99.57,61.99,97.63,61.86,96.13z"/>
		</g>
	</g>
</g>
<g>
	<g>
		<line class="st1" x1="96.47" y1="99.02" x2="98.85" y2="107.71"/>
		<g>
			<path class="st3" d="M95.67,96.11c-0.13,1.51-0.54,3.45-1.17,4.75l2.07-1.46l2.52,0.2C97.89,98.8,96.56,97.34,95.67,96.11z"/>
		</g>
	</g>
</g>
<g>
	<g>
		<line class="st1" x1="87.82" y1="99.1" x2="85.47" y2="107.71"/>
		<g>
			<path class="st3" d="M88.62,96.19c-0.88,1.23-2.21,2.69-3.42,3.5l2.52-0.2l2.07,1.46C89.15,99.64,88.75,97.7,88.62,96.19z"/>
		</g>
	</g>
</g>
<g>
	<g>
		<line class="st1" x1="123.23" y1="99.02" x2="125.61" y2="107.71"/>
		<g>
			<path class="st3" d="M122.43,96.11c-0.13,1.51-0.54,3.45-1.17,4.75l2.07-1.46l2.52,0.2C124.65,98.8,123.32,97.34,122.43,96.11z"
				/>
		</g>
	</g>
</g>
<g>
	<g>
		<line class="st1" x1="114.58" y1="99.1" x2="112.23" y2="107.71"/>
		<g>
			<path class="st3" d="M115.38,96.19c-0.88,1.23-2.21,2.69-3.42,3.5l2.52-0.2l2.07,1.46C115.91,99.64,115.51,97.7,115.38,96.19z"/>
		</g>
	</g>
</g>
<g>
	<g>
		<line class="st1" x1="149.99" y1="99.02" x2="152.37" y2="107.71"/>
		<g>
			<path class="st3" d="M149.19,96.11c-0.13,1.51-0.54,3.45-1.17,4.75l2.07-1.46l2.52,0.2C151.41,98.8,150.08,97.34,149.19,96.11z"
				/>
		</g>
	</g>
</g>
<g>
	<g>
		<line class="st1" x1="141.34" y1="99.1" x2="138.99" y2="107.71"/>
		<g>
			<path class="st3" d="M142.14,96.19c-0.88,1.23-2.21,2.69-3.42,3.5l2.52-0.2l2.07,1.46C142.67,99.64,142.27,97.7,142.14,96.19z"/>
		</g>
	</g>
</g>
<path class="st2" d="M1.28,108.96c0.03-0.13,0.1-0.38,0.1-0.41c0-0.11-0.08-0.17-0.18-0.17c-0.02,0-0.2,0.01-0.26,0.23l-0.92,3.69
	C0,112.38,0,112.39,0,112.4c0,0.1,0.07,0.17,0.18,0.17c0.13,0,0.21-0.11,0.22-0.13c0.03-0.06,0.11-0.39,0.35-1.37
	c0.2,0.17,0.49,0.2,0.62,0.2c0.45,0,0.69-0.29,0.85-0.47c0.06,0.29,0.29,0.47,0.57,0.47c0.22,0,0.37-0.15,0.47-0.35
	c0.11-0.23,0.19-0.62,0.19-0.63c0-0.06-0.06-0.06-0.08-0.06c-0.06,0-0.07,0.03-0.09,0.12c-0.11,0.41-0.22,0.79-0.48,0.79
	c-0.17,0-0.19-0.17-0.19-0.29c0-0.14,0.08-0.44,0.13-0.66l0.18-0.69c0.02-0.1,0.08-0.34,0.11-0.43c0.03-0.15,0.1-0.39,0.1-0.43
	c0-0.12-0.09-0.17-0.18-0.17c-0.03,0-0.2,0.01-0.25,0.22l-0.3,1.19c-0.08,0.32-0.15,0.59-0.17,0.65c-0.01,0.03-0.31,0.61-0.83,0.61
	c-0.32,0-0.47-0.21-0.47-0.55c0-0.18,0.04-0.36,0.09-0.54L1.28,108.96"/>
<path class="st2" d="M5.17,109.29c0-0.12-0.01-0.13-0.14-0.13c-0.29,0.28-0.7,0.29-0.88,0.29v0.16c0.11,0,0.41,0,0.65-0.13v2.3
	c0,0.15,0,0.21-0.45,0.21H4.18v0.16c0.08,0,0.64-0.02,0.8-0.02c0.14,0,0.71,0.01,0.81,0.02V112H5.62c-0.45,0-0.45-0.06-0.45-0.21
	V109.29"/>
<path class="st2" d="M7.5,112.13c-0.21,0-0.48-0.12-0.57-0.49c-0.06-0.27-0.06-0.64-0.06-0.97c0-0.33,0-0.67,0.07-0.92
	c0.09-0.36,0.38-0.45,0.57-0.45c0.24,0,0.48,0.15,0.56,0.41c0.07,0.24,0.08,0.57,0.08,0.96c0,0.33,0,0.67-0.06,0.95
	C7.99,112.03,7.68,112.13,7.5,112.13 M8.55,110.72c0-0.5-0.06-0.85-0.27-1.17c-0.14-0.21-0.42-0.39-0.78-0.39
	c-1.05,0-1.05,1.23-1.05,1.56c0,0.32,0,1.53,1.05,1.53C8.55,112.25,8.55,111.05,8.55,110.72z"/>
<path class="st2" d="M16.67,108.96c0.03-0.13,0.1-0.38,0.1-0.41c0-0.11-0.08-0.17-0.18-0.17c-0.02,0-0.2,0.01-0.26,0.23l-0.92,3.69
	c-0.02,0.08-0.02,0.09-0.02,0.1c0,0.1,0.07,0.17,0.18,0.17c0.13,0,0.21-0.11,0.22-0.13c0.03-0.06,0.11-0.39,0.35-1.37
	c0.2,0.17,0.49,0.2,0.62,0.2c0.45,0,0.69-0.29,0.85-0.47c0.06,0.29,0.29,0.47,0.57,0.47c0.22,0,0.37-0.15,0.47-0.35
	c0.11-0.23,0.19-0.62,0.19-0.63c0-0.06-0.06-0.06-0.08-0.06c-0.06,0-0.07,0.03-0.09,0.12c-0.11,0.41-0.22,0.79-0.48,0.79
	c-0.17,0-0.19-0.17-0.19-0.29c0-0.14,0.08-0.44,0.13-0.66l0.18-0.69c0.02-0.1,0.08-0.34,0.11-0.43c0.03-0.15,0.1-0.39,0.1-0.43
	c0-0.12-0.09-0.17-0.18-0.17c-0.03,0-0.2,0.01-0.25,0.22l-0.3,1.19c-0.08,0.32-0.15,0.59-0.17,0.65c-0.01,0.03-0.31,0.61-0.83,0.61
	c-0.32,0-0.47-0.21-0.47-0.55c0-0.18,0.04-0.36,0.09-0.54L16.67,108.96"/>
<path class="st2" d="M20.56,109.29c0-0.12-0.01-0.13-0.14-0.13c-0.29,0.28-0.7,0.29-0.88,0.29v0.16c0.11,0,0.41,0,0.65-0.13v2.3
	c0,0.15,0,0.21-0.45,0.21h-0.17v0.16c0.08,0,0.64-0.02,0.8-0.02c0.14,0,0.71,0.01,0.81,0.02V112h-0.17c-0.45,0-0.45-0.06-0.45-0.21
	V109.29"/>
<path class="st2" d="M23.13,109.29c0-0.12-0.01-0.13-0.14-0.13c-0.29,0.28-0.7,0.29-0.88,0.29v0.16c0.11,0,0.41,0,0.65-0.13v2.3
	c0,0.15,0,0.21-0.45,0.21h-0.17v0.16c0.08,0,0.64-0.02,0.8-0.02c0.14,0,0.71,0.01,0.81,0.02V112h-0.17c-0.45,0-0.45-0.06-0.45-0.21
	V109.29"/>
<path class="st2" d="M28.29,109.13c0.03-0.13,0.1-0.38,0.1-0.41c0-0.11-0.08-0.17-0.18-0.17c-0.02,0-0.2,0.01-0.26,0.23l-0.92,3.69
	c-0.02,0.08-0.02,0.09-0.02,0.1c0,0.1,0.07,0.17,0.18,0.17c0.13,0,0.21-0.11,0.22-0.13c0.03-0.06,0.11-0.39,0.35-1.37
	c0.2,0.17,0.49,0.2,0.62,0.2c0.45,0,0.69-0.29,0.85-0.47c0.06,0.29,0.29,0.47,0.57,0.47c0.22,0,0.37-0.15,0.47-0.35
	c0.11-0.23,0.19-0.62,0.19-0.63c0-0.06-0.06-0.06-0.08-0.06c-0.06,0-0.07,0.03-0.09,0.12c-0.11,0.41-0.22,0.79-0.48,0.79
	c-0.17,0-0.19-0.17-0.19-0.29c0-0.14,0.08-0.44,0.13-0.66l0.18-0.69c0.02-0.1,0.08-0.34,0.11-0.43c0.03-0.15,0.1-0.39,0.1-0.43
	c0-0.12-0.09-0.17-0.18-0.17c-0.03,0-0.2,0.01-0.25,0.22l-0.3,1.19c-0.08,0.32-0.15,0.59-0.17,0.65c-0.01,0.03-0.31,0.61-0.83,0.61
	c-0.32,0-0.47-0.21-0.47-0.55c0-0.18,0.04-0.36,0.09-0.54L28.29,109.13"/>
<path class="st2" d="M32.94,111.51h-0.15c-0.01,0.1-0.06,0.37-0.12,0.41c-0.04,0.03-0.38,0.03-0.45,0.03H31.4
	c0.47-0.42,0.63-0.55,0.9-0.76c0.33-0.27,0.64-0.55,0.64-0.97c0-0.55-0.48-0.88-1.06-0.88c-0.56,0-0.94,0.39-0.94,0.81
	c0,0.23,0.19,0.25,0.24,0.25c0.11,0,0.24-0.08,0.24-0.24c0-0.08-0.03-0.24-0.27-0.24c0.14-0.32,0.45-0.42,0.66-0.42
	c0.45,0,0.69,0.35,0.69,0.72c0,0.39-0.28,0.7-0.42,0.87l-1.09,1.07c-0.05,0.04-0.05,0.05-0.05,0.18h1.86L32.94,111.51"/>
<path class="st2" d="M34.51,112.29c-0.21,0-0.48-0.12-0.57-0.49c-0.06-0.27-0.06-0.64-0.06-0.97c0-0.33,0-0.67,0.07-0.92
	c0.09-0.36,0.38-0.45,0.57-0.45c0.24,0,0.48,0.15,0.56,0.41c0.07,0.24,0.08,0.57,0.08,0.96c0,0.33,0,0.67-0.06,0.95
	C35,112.2,34.69,112.29,34.51,112.29 M35.56,110.89c0-0.5-0.06-0.85-0.27-1.17c-0.14-0.21-0.42-0.39-0.78-0.39
	c-1.05,0-1.05,1.23-1.05,1.56c0,0.32,0,1.53,1.05,1.53C35.56,112.42,35.56,111.22,35.56,110.89z"/>
<path class="st2" d="M43.34,109.19c0.03-0.13,0.1-0.38,0.1-0.41c0-0.11-0.08-0.17-0.18-0.17c-0.02,0-0.2,0.01-0.26,0.23l-0.92,3.69
	c-0.02,0.08-0.02,0.09-0.02,0.1c0,0.1,0.07,0.17,0.18,0.17c0.13,0,0.21-0.11,0.22-0.13c0.03-0.06,0.11-0.39,0.35-1.37
	c0.2,0.17,0.49,0.2,0.62,0.2c0.45,0,0.69-0.29,0.85-0.47c0.06,0.29,0.29,0.47,0.57,0.47c0.22,0,0.37-0.15,0.47-0.35
	c0.11-0.23,0.19-0.62,0.19-0.63c0-0.06-0.06-0.06-0.08-0.06c-0.06,0-0.07,0.03-0.09,0.12c-0.11,0.41-0.22,0.79-0.48,0.79
	c-0.17,0-0.19-0.17-0.19-0.29c0-0.14,0.08-0.44,0.13-0.66l0.18-0.69c0.02-0.1,0.08-0.34,0.11-0.43c0.03-0.15,0.1-0.39,0.1-0.43
	c0-0.12-0.09-0.17-0.18-0.17c-0.03,0-0.2,0.01-0.25,0.22l-0.3,1.19c-0.08,0.32-0.15,0.59-0.17,0.65c-0.01,0.03-0.31,0.61-0.83,0.61
	c-0.32,0-0.47-0.21-0.47-0.55c0-0.18,0.04-0.36,0.09-0.54L43.34,109.19"/>
<path class="st2" d="M47.99,111.57h-0.15c-0.01,0.1-0.06,0.37-0.12,0.41c-0.04,0.03-0.38,0.03-0.45,0.03h-0.83
	c0.47-0.42,0.63-0.55,0.9-0.76c0.33-0.27,0.64-0.55,0.64-0.97c0-0.55-0.48-0.88-1.06-0.88c-0.56,0-0.94,0.39-0.94,0.81
	c0,0.23,0.19,0.25,0.24,0.25c0.11,0,0.24-0.08,0.24-0.24c0-0.08-0.03-0.24-0.27-0.24c0.14-0.32,0.45-0.42,0.66-0.42
	c0.45,0,0.69,0.35,0.69,0.72c0,0.39-0.28,0.7-0.42,0.87l-1.09,1.07C46,112.26,46,112.27,46,112.39h1.86L47.99,111.57"/>
<path class="st2" d="M49.79,109.53c0-0.12-0.01-0.13-0.14-0.13c-0.29,0.28-0.7,0.29-0.88,0.29v0.16c0.11,0,0.41,0,0.65-0.13v2.3
	c0,0.15,0,0.21-0.45,0.21H48.8v0.16c0.08,0,0.64-0.02,0.8-0.02c0.14,0,0.71,0.01,0.81,0.02v-0.16h-0.17c-0.45,0-0.45-0.06-0.45-0.21
	V109.53"/>
<path class="st2" d="M54.95,109.38c0.03-0.13,0.1-0.38,0.1-0.41c0-0.11-0.08-0.17-0.18-0.17c-0.02,0-0.2,0.01-0.26,0.23l-0.92,3.69
	c-0.02,0.08-0.02,0.09-0.02,0.1c0,0.1,0.07,0.17,0.18,0.17c0.13,0,0.21-0.11,0.22-0.13c0.03-0.06,0.11-0.39,0.35-1.37
	c0.2,0.17,0.49,0.2,0.62,0.2c0.45,0,0.69-0.29,0.85-0.47c0.06,0.29,0.29,0.47,0.57,0.47c0.22,0,0.37-0.15,0.47-0.35
	c0.11-0.23,0.19-0.62,0.19-0.63c0-0.06-0.06-0.06-0.08-0.06c-0.06,0-0.07,0.03-0.09,0.12c-0.11,0.41-0.22,0.79-0.48,0.79
	c-0.17,0-0.19-0.17-0.19-0.29c0-0.14,0.08-0.44,0.13-0.66l0.18-0.69c0.02-0.1,0.08-0.34,0.11-0.43c0.03-0.15,0.1-0.39,0.1-0.43
	c0-0.12-0.09-0.17-0.18-0.17c-0.03,0-0.2,0.01-0.25,0.22l-0.3,1.19c-0.08,0.32-0.15,0.59-0.17,0.65c-0.01,0.03-0.31,0.61-0.83,0.61
	c-0.32,0-0.47-0.21-0.47-0.55c0-0.18,0.04-0.36,0.09-0.54L54.95,109.38"/>
<path class="st2" d="M58.56,111.07c0.35,0,0.6,0.24,0.6,0.73c0,0.56-0.32,0.73-0.59,0.73c-0.18,0-0.58-0.05-0.77-0.32
	c0.21-0.01,0.26-0.16,0.26-0.25c0-0.14-0.11-0.25-0.25-0.25c-0.13,0-0.25,0.08-0.25,0.26c0,0.42,0.47,0.7,1.01,0.7
	c0.63,0,1.06-0.42,1.06-0.87c0-0.35-0.29-0.7-0.78-0.81c0.47-0.17,0.64-0.51,0.64-0.78c0-0.36-0.41-0.62-0.91-0.62
	c-0.5,0-0.88,0.24-0.88,0.6c0,0.15,0.1,0.24,0.23,0.24c0.14,0,0.23-0.1,0.23-0.23c0-0.13-0.09-0.23-0.23-0.23
	c0.16-0.2,0.47-0.25,0.64-0.25c0.2,0,0.49,0.1,0.49,0.49c0,0.19-0.06,0.4-0.18,0.54c-0.15,0.17-0.28,0.18-0.5,0.19
	c-0.11,0.01-0.12,0.01-0.14,0.01c-0.01,0-0.05,0.01-0.05,0.06c0,0.06,0.04,0.06,0.12,0.06H58.56"/>
<path class="st2" d="M61.18,112.54c-0.21,0-0.48-0.12-0.57-0.49c-0.06-0.27-0.06-0.64-0.06-0.97c0-0.33,0-0.67,0.07-0.92
	c0.09-0.36,0.38-0.45,0.57-0.45c0.24,0,0.48,0.15,0.56,0.41c0.07,0.24,0.08,0.57,0.08,0.96c0,0.33,0,0.67-0.06,0.95
	C61.66,112.44,61.36,112.54,61.18,112.54 M62.22,111.14c0-0.5-0.06-0.85-0.27-1.17c-0.14-0.21-0.42-0.39-0.78-0.39
	c-1.05,0-1.05,1.23-1.05,1.56s0,1.53,1.05,1.53C62.22,112.67,62.22,111.46,62.22,111.14z"/>
<path class="st2" d="M69.57,109.56c0.03-0.13,0.1-0.38,0.1-0.41c0-0.11-0.08-0.17-0.18-0.17c-0.02,0-0.2,0.01-0.26,0.23l-0.92,3.69
	c-0.02,0.08-0.02,0.09-0.02,0.1c0,0.1,0.07,0.17,0.18,0.17c0.13,0,0.21-0.11,0.22-0.13c0.03-0.06,0.11-0.39,0.35-1.37
	c0.2,0.17,0.49,0.2,0.62,0.2c0.45,0,0.69-0.29,0.85-0.47c0.06,0.29,0.29,0.47,0.57,0.47c0.22,0,0.37-0.15,0.47-0.35
	c0.11-0.23,0.19-0.62,0.19-0.63c0-0.06-0.06-0.06-0.08-0.06c-0.06,0-0.07,0.03-0.09,0.12c-0.11,0.41-0.22,0.79-0.48,0.79
	c-0.17,0-0.19-0.17-0.19-0.29c0-0.14,0.08-0.44,0.13-0.66l0.18-0.69c0.02-0.1,0.08-0.34,0.11-0.43c0.03-0.15,0.1-0.39,0.1-0.43
	c0-0.12-0.09-0.17-0.18-0.17c-0.03,0-0.2,0.01-0.25,0.22l-0.3,1.19c-0.08,0.32-0.15,0.59-0.17,0.65c-0.01,0.03-0.31,0.61-0.83,0.61
	c-0.32,0-0.47-0.21-0.47-0.55c0-0.18,0.04-0.36,0.09-0.54L69.57,109.56"/>
<path class="st2" d="M73.18,111.26c0.35,0,0.6,0.24,0.6,0.73c0,0.56-0.32,0.73-0.59,0.73c-0.18,0-0.58-0.05-0.77-0.32
	c0.21-0.01,0.26-0.16,0.26-0.25c0-0.14-0.11-0.25-0.25-0.25c-0.13,0-0.25,0.08-0.25,0.26c0,0.42,0.47,0.7,1.01,0.7
	c0.63,0,1.06-0.42,1.06-0.87c0-0.35-0.29-0.7-0.78-0.81c0.47-0.17,0.64-0.51,0.64-0.78c0-0.36-0.41-0.62-0.91-0.62
	c-0.5,0-0.88,0.24-0.88,0.6c0,0.15,0.1,0.24,0.23,0.24c0.14,0,0.23-0.1,0.23-0.23c0-0.13-0.09-0.23-0.23-0.23
	c0.16-0.2,0.47-0.25,0.64-0.25c0.2,0,0.49,0.1,0.49,0.49c0,0.19-0.06,0.4-0.18,0.54c-0.15,0.17-0.28,0.18-0.5,0.19
	c-0.11,0.01-0.12,0.01-0.14,0.01c-0.01,0-0.05,0.01-0.05,0.06c0,0.06,0.04,0.06,0.12,0.06H73.18"/>
<path class="st2" d="M76.03,109.9c0-0.12-0.01-0.13-0.14-0.13c-0.29,0.28-0.7,0.29-0.88,0.29v0.16c0.11,0,0.41,0,0.65-0.13v2.3
	c0,0.15,0,0.21-0.45,0.21h-0.17v0.16c0.08,0,0.64-0.02,0.8-0.02c0.14,0,0.71,0.01,0.81,0.02v-0.16h-0.17
	c-0.45,0-0.45-0.06-0.45-0.21V109.9"/>
<path class="st2" d="M81.55,109.56c0.03-0.13,0.1-0.38,0.1-0.41c0-0.11-0.08-0.17-0.18-0.17c-0.02,0-0.2,0.01-0.26,0.23l-0.92,3.69
	c-0.02,0.08-0.02,0.09-0.02,0.1c0,0.1,0.07,0.17,0.18,0.17c0.13,0,0.21-0.11,0.22-0.13c0.03-0.06,0.11-0.39,0.35-1.37
	c0.2,0.17,0.49,0.2,0.62,0.2c0.45,0,0.69-0.29,0.85-0.47c0.06,0.29,0.29,0.47,0.57,0.47c0.22,0,0.37-0.15,0.47-0.35
	c0.11-0.23,0.19-0.62,0.19-0.63c0-0.06-0.06-0.06-0.08-0.06c-0.06,0-0.07,0.03-0.09,0.12c-0.11,0.41-0.22,0.79-0.48,0.79
	c-0.17,0-0.19-0.17-0.19-0.29c0-0.14,0.08-0.44,0.13-0.66l0.18-0.69c0.02-0.1,0.08-0.34,0.11-0.43c0.03-0.15,0.1-0.39,0.1-0.43
	c0-0.12-0.09-0.17-0.18-0.17c-0.03,0-0.2,0.01-0.25,0.22l-0.3,1.19c-0.08,0.32-0.15,0.59-0.17,0.65c-0.01,0.03-0.31,0.61-0.83,0.61
	c-0.32,0-0.47-0.21-0.47-0.55c0-0.18,0.04-0.36,0.09-0.54L81.55,109.56"/>
<path class="st2" d="M85.46,110.21v1.65h-1.19L85.46,110.21z M86.31,112.02v-0.16h-0.5v-2.01c0-0.1,0-0.13-0.1-0.13
	c-0.05,0-0.07,0-0.12,0.06l-1.49,2.07v0.16h1.33v0.37c0,0.15,0,0.21-0.36,0.21h-0.12v0.16c0.23-0.01,0.51-0.02,0.68-0.02
	c0.17,0,0.46,0.01,0.68,0.02v-0.16h-0.12c-0.36,0-0.36-0.05-0.36-0.21v-0.37H86.31z"/>
<path class="st2" d="M87.77,112.73c-0.21,0-0.48-0.12-0.57-0.49c-0.06-0.27-0.06-0.64-0.06-0.97c0-0.33,0-0.67,0.07-0.92
	c0.09-0.36,0.38-0.45,0.57-0.45c0.24,0,0.48,0.15,0.56,0.41c0.07,0.24,0.08,0.57,0.08,0.96c0,0.33,0,0.67-0.06,0.95
	C88.26,112.63,87.95,112.73,87.77,112.73 M88.82,111.33c0-0.5-0.06-0.85-0.27-1.17c-0.14-0.21-0.42-0.39-0.78-0.39
	c-1.05,0-1.05,1.23-1.05,1.56c0,0.32,0,1.53,1.05,1.53C88.82,112.85,88.82,111.65,88.82,111.33z"/>
<path class="st2" d="M96.34,109.75c0.03-0.13,0.1-0.38,0.1-0.41c0-0.11-0.08-0.17-0.18-0.17c-0.02,0-0.2,0.01-0.26,0.23l-0.92,3.69
	c-0.02,0.08-0.02,0.09-0.02,0.1c0,0.1,0.07,0.17,0.18,0.17c0.13,0,0.21-0.11,0.22-0.13c0.03-0.06,0.11-0.39,0.35-1.37
	c0.2,0.17,0.49,0.2,0.62,0.2c0.45,0,0.69-0.29,0.85-0.47c0.06,0.29,0.29,0.47,0.57,0.47c0.22,0,0.37-0.15,0.47-0.35
	c0.11-0.23,0.19-0.62,0.19-0.63c0-0.06-0.06-0.06-0.08-0.06c-0.06,0-0.07,0.03-0.09,0.12c-0.11,0.41-0.22,0.79-0.48,0.79
	c-0.17,0-0.19-0.17-0.19-0.29c0-0.14,0.08-0.44,0.13-0.66l0.18-0.69c0.02-0.1,0.08-0.34,0.11-0.43c0.03-0.15,0.1-0.39,0.1-0.43
	c0-0.12-0.09-0.17-0.18-0.17c-0.03,0-0.2,0.01-0.25,0.22l-0.3,1.19c-0.08,0.32-0.15,0.59-0.16,0.65c-0.01,0.03-0.31,0.61-0.83,0.61
	c-0.32,0-0.47-0.21-0.47-0.55c0-0.18,0.04-0.36,0.09-0.54L96.34,109.75"/>
<path class="st2" d="M100.25,110.4v1.65h-1.19L100.25,110.4z M101.1,112.21v-0.16h-0.5v-2.01c0-0.1,0-0.13-0.1-0.13
	c-0.05,0-0.07,0-0.12,0.06l-1.49,2.07v0.16h1.33v0.37c0,0.15,0,0.21-0.36,0.21h-0.12v0.16c0.23-0.01,0.51-0.02,0.68-0.02
	c0.17,0,0.46,0.01,0.68,0.02v-0.16h-0.12c-0.36,0-0.36-0.05-0.36-0.21v-0.37H101.1z"/>
<path class="st2" d="M102.79,110.08c0-0.12-0.01-0.13-0.14-0.13c-0.29,0.28-0.7,0.29-0.88,0.29v0.16c0.11,0,0.41,0,0.65-0.13v2.3
	c0,0.15,0,0.21-0.45,0.21h-0.17v0.16c0.08,0,0.63-0.02,0.8-0.02c0.14,0,0.71,0.01,0.81,0.02v-0.16h-0.17
	c-0.45,0-0.45-0.06-0.45-0.21V110.08"/>
<path class="st2" d="M108.36,109.52c0.03-0.13,0.1-0.38,0.1-0.41c0-0.11-0.08-0.17-0.18-0.17c-0.02,0-0.2,0.01-0.26,0.23l-0.92,3.69
	c-0.02,0.08-0.02,0.09-0.02,0.1c0,0.1,0.07,0.17,0.18,0.17c0.13,0,0.21-0.11,0.22-0.13c0.03-0.06,0.11-0.39,0.35-1.37
	c0.2,0.17,0.49,0.2,0.62,0.2c0.45,0,0.69-0.29,0.85-0.47c0.06,0.29,0.29,0.47,0.57,0.47c0.22,0,0.37-0.15,0.47-0.35
	c0.11-0.23,0.19-0.62,0.19-0.63c0-0.06-0.06-0.06-0.08-0.06c-0.06,0-0.07,0.03-0.09,0.12c-0.11,0.41-0.22,0.79-0.48,0.79
	c-0.17,0-0.19-0.17-0.19-0.29c0-0.14,0.08-0.44,0.13-0.66l0.18-0.69c0.02-0.1,0.08-0.34,0.11-0.43c0.03-0.15,0.1-0.39,0.1-0.43
	c0-0.12-0.09-0.17-0.18-0.17c-0.03,0-0.2,0.01-0.25,0.22l-0.3,1.19c-0.08,0.32-0.15,0.59-0.16,0.65c-0.01,0.03-0.31,0.61-0.83,0.61
	c-0.32,0-0.47-0.21-0.47-0.55c0-0.18,0.04-0.36,0.09-0.54L108.36,109.52"/>
<path class="st2" d="M111.43,110.2c0.23,0.06,0.37,0.06,0.44,0.06c0.6,0,0.95-0.41,0.95-0.47c0-0.05-0.03-0.06-0.05-0.06
	c-0.01,0-0.02,0-0.04,0.01c-0.11,0.04-0.35,0.13-0.68,0.13c-0.13,0-0.36-0.01-0.66-0.12c-0.05-0.02-0.05-0.02-0.06-0.02
	c-0.06,0-0.06,0.05-0.06,0.12v1.33c0,0.08,0,0.13,0.07,0.13c0.04,0,0.05-0.01,0.09-0.06c0.19-0.25,0.47-0.28,0.63-0.28
	c0.27,0,0.39,0.22,0.41,0.25c0.08,0.15,0.11,0.32,0.11,0.58c0,0.14,0,0.4-0.14,0.6c-0.11,0.16-0.31,0.27-0.53,0.27
	c-0.29,0-0.6-0.16-0.71-0.46c0.17,0.01,0.26-0.1,0.26-0.22c0-0.19-0.17-0.23-0.23-0.23c-0.01,0-0.23,0-0.23,0.24
	c0,0.41,0.37,0.81,0.91,0.81c0.58,0,1.08-0.43,1.08-1c0-0.51-0.39-0.98-0.95-0.98c-0.2,0-0.43,0.05-0.63,0.22V110.2"/>
<path class="st2" d="M114.51,112.68c-0.21,0-0.48-0.12-0.57-0.49c-0.06-0.27-0.06-0.64-0.06-0.97c0-0.33,0-0.67,0.07-0.92
	c0.09-0.36,0.38-0.45,0.57-0.45c0.24,0,0.48,0.15,0.56,0.41c0.07,0.24,0.08,0.57,0.08,0.96c0,0.33,0,0.67-0.06,0.95
	C115,112.58,114.69,112.68,114.51,112.68 M115.56,111.28c0-0.5-0.06-0.85-0.27-1.17c-0.14-0.21-0.42-0.39-0.78-0.39
	c-1.05,0-1.05,1.23-1.05,1.56c0,0.32,0,1.53,1.05,1.53C115.56,112.81,115.56,111.6,115.56,111.28z"/>
<path class="st2" d="M122.74,109.52c0.03-0.13,0.1-0.38,0.1-0.41c0-0.11-0.08-0.17-0.18-0.17c-0.02,0-0.2,0.01-0.26,0.23l-0.92,3.69
	c-0.02,0.08-0.02,0.09-0.02,0.1c0,0.1,0.07,0.17,0.18,0.17c0.13,0,0.21-0.11,0.22-0.13c0.03-0.06,0.11-0.39,0.35-1.37
	c0.2,0.17,0.49,0.2,0.62,0.2c0.45,0,0.69-0.29,0.85-0.47c0.06,0.29,0.29,0.47,0.57,0.47c0.22,0,0.37-0.15,0.47-0.35
	c0.11-0.23,0.19-0.62,0.19-0.63c0-0.06-0.06-0.06-0.08-0.06c-0.06,0-0.07,0.03-0.09,0.12c-0.11,0.41-0.22,0.79-0.48,0.79
	c-0.17,0-0.19-0.17-0.19-0.29c0-0.14,0.08-0.44,0.13-0.66l0.18-0.69c0.02-0.1,0.08-0.34,0.11-0.43c0.03-0.15,0.1-0.39,0.1-0.43
	c0-0.12-0.09-0.17-0.18-0.17c-0.03,0-0.2,0.01-0.25,0.22l-0.3,1.19c-0.08,0.32-0.15,0.59-0.16,0.65c-0.01,0.03-0.31,0.61-0.83,0.61
	c-0.32,0-0.47-0.21-0.47-0.55c0-0.18,0.04-0.36,0.09-0.54L122.74,109.52"/>
<path class="st2" d="M125.82,110.2c0.23,0.06,0.37,0.06,0.44,0.06c0.6,0,0.95-0.41,0.95-0.47c0-0.05-0.03-0.06-0.05-0.06
	c-0.01,0-0.02,0-0.04,0.01c-0.11,0.04-0.35,0.13-0.68,0.13c-0.13,0-0.36-0.01-0.66-0.12c-0.05-0.02-0.05-0.02-0.06-0.02
	c-0.06,0-0.06,0.05-0.06,0.12v1.33c0,0.08,0,0.13,0.07,0.13c0.04,0,0.05-0.01,0.09-0.06c0.19-0.25,0.47-0.28,0.63-0.28
	c0.27,0,0.39,0.22,0.41,0.25c0.08,0.15,0.11,0.32,0.11,0.58c0,0.14,0,0.4-0.14,0.6c-0.11,0.16-0.31,0.27-0.53,0.27
	c-0.29,0-0.6-0.16-0.71-0.46c0.17,0.01,0.26-0.1,0.26-0.22c0-0.19-0.17-0.23-0.23-0.23c-0.01,0-0.23,0-0.23,0.24
	c0,0.41,0.37,0.81,0.91,0.81c0.58,0,1.08-0.43,1.08-1c0-0.51-0.39-0.98-0.95-0.98c-0.2,0-0.43,0.05-0.63,0.22V110.2"/>
<path class="st2" d="M129.13,109.85c0-0.12-0.01-0.13-0.14-0.13c-0.29,0.28-0.7,0.29-0.88,0.29v0.16c0.11,0,0.41,0,0.65-0.13v2.3
	c0,0.15,0,0.21-0.45,0.21h-0.17v0.16c0.08,0,0.63-0.02,0.8-0.02c0.14,0,0.71,0.01,0.81,0.02v-0.16h-0.17
	c-0.45,0-0.45-0.06-0.45-0.21V109.85"/>
<path class="st2" d="M135.1,109.56c0.03-0.13,0.1-0.38,0.1-0.41c0-0.11-0.08-0.17-0.18-0.17c-0.02,0-0.2,0.01-0.26,0.23l-0.92,3.69
	c-0.02,0.08-0.02,0.09-0.02,0.1c0,0.1,0.07,0.17,0.18,0.17c0.13,0,0.21-0.11,0.22-0.13c0.03-0.06,0.11-0.39,0.35-1.37
	c0.2,0.17,0.49,0.2,0.62,0.2c0.45,0,0.69-0.29,0.85-0.47c0.06,0.29,0.29,0.47,0.57,0.47c0.22,0,0.37-0.15,0.47-0.35
	c0.11-0.23,0.19-0.62,0.19-0.63c0-0.06-0.06-0.06-0.08-0.06c-0.06,0-0.07,0.03-0.09,0.12c-0.11,0.41-0.22,0.79-0.48,0.79
	c-0.17,0-0.19-0.17-0.19-0.29c0-0.14,0.08-0.44,0.13-0.66l0.18-0.69c0.02-0.1,0.08-0.34,0.11-0.43c0.03-0.15,0.1-0.39,0.1-0.43
	c0-0.12-0.09-0.17-0.18-0.17c-0.03,0-0.2,0.01-0.25,0.22l-0.3,1.19c-0.08,0.32-0.15,0.59-0.16,0.65c-0.01,0.03-0.31,0.61-0.83,0.61
	c-0.32,0-0.47-0.21-0.47-0.55c0-0.18,0.04-0.36,0.09-0.54L135.1,109.56"/>
<path class="st2" d="M138.77,112.71c-0.23,0-0.4-0.13-0.5-0.33c-0.07-0.14-0.1-0.36-0.1-0.63c0-0.44,0.26-0.78,0.62-0.78
	c0.21,0,0.35,0.08,0.46,0.25c0.11,0.17,0.11,0.36,0.11,0.62c0,0.26,0,0.45-0.12,0.62C139.13,112.62,138.99,112.71,138.77,112.71
	 M138.16,111.29c0-0.37,0.03-0.7,0.2-0.98c0.15-0.24,0.4-0.41,0.69-0.41c0.14,0,0.32,0.04,0.41,0.16c-0.11,0.01-0.21,0.09-0.21,0.22
	c0,0.11,0.08,0.21,0.21,0.21s0.22-0.09,0.22-0.22c0-0.26-0.19-0.5-0.64-0.5c-0.65,0-1.31,0.59-1.31,1.56c0,1.17,0.55,1.52,1.05,1.52
	c0.55,0,1.03-0.42,1.03-1.01c0-0.57-0.46-1-0.98-1C138.45,110.85,138.25,111.09,138.16,111.29z"/>
<path class="st2" d="M141.26,112.73c-0.21,0-0.48-0.12-0.57-0.49c-0.06-0.27-0.06-0.64-0.06-0.97c0-0.33,0-0.67,0.07-0.92
	c0.09-0.36,0.38-0.45,0.57-0.45c0.24,0,0.48,0.15,0.56,0.41c0.07,0.24,0.08,0.57,0.08,0.96c0,0.33,0,0.67-0.06,0.95
	C141.75,112.63,141.44,112.73,141.26,112.73 M142.31,111.33c0-0.5-0.06-0.85-0.27-1.17c-0.14-0.21-0.42-0.39-0.78-0.39
	c-1.05,0-1.05,1.23-1.05,1.56c0,0.32,0,1.53,1.05,1.53C142.31,112.85,142.31,111.65,142.31,111.33z"/>
<path class="st2" d="M149.65,109.7c0.03-0.13,0.1-0.38,0.1-0.41c0-0.11-0.08-0.17-0.18-0.17c-0.02,0-0.2,0.01-0.26,0.23l-0.92,3.69
	c-0.02,0.08-0.02,0.09-0.02,0.1c0,0.1,0.07,0.17,0.18,0.17c0.13,0,0.21-0.11,0.22-0.13c0.03-0.06,0.11-0.39,0.35-1.37
	c0.2,0.17,0.49,0.2,0.62,0.2c0.45,0,0.69-0.29,0.85-0.47c0.06,0.29,0.29,0.47,0.57,0.47c0.22,0,0.37-0.15,0.47-0.35
	c0.11-0.23,0.19-0.62,0.19-0.63c0-0.06-0.06-0.06-0.08-0.06c-0.06,0-0.07,0.03-0.09,0.12c-0.11,0.41-0.22,0.79-0.48,0.79
	c-0.17,0-0.19-0.17-0.19-0.29c0-0.14,0.08-0.44,0.13-0.66l0.18-0.69c0.02-0.1,0.08-0.34,0.11-0.43c0.03-0.15,0.1-0.39,0.1-0.43
	c0-0.12-0.09-0.17-0.18-0.17c-0.03,0-0.2,0.01-0.25,0.22l-0.3,1.19c-0.08,0.32-0.15,0.59-0.16,0.65c-0.01,0.03-0.31,0.61-0.83,0.61
	c-0.32,0-0.47-0.21-0.47-0.55c0-0.18,0.04-0.36,0.09-0.54L149.65,109.7"/>
<path class="st2" d="M153.32,112.85c-0.23,0-0.4-0.13-0.5-0.33c-0.07-0.14-0.1-0.36-0.1-0.63c0-0.44,0.26-0.78,0.62-0.78
	c0.21,0,0.35,0.08,0.46,0.25c0.11,0.17,0.11,0.36,0.11,0.62c0,0.26,0,0.45-0.12,0.62C153.68,112.76,153.54,112.85,153.32,112.85
	 M152.71,111.43c0-0.37,0.03-0.7,0.2-0.98c0.15-0.24,0.4-0.41,0.69-0.41c0.14,0,0.32,0.04,0.41,0.16c-0.11,0.01-0.21,0.09-0.21,0.22
	c0,0.11,0.08,0.21,0.21,0.21c0.14,0,0.22-0.09,0.22-0.22c0-0.26-0.19-0.5-0.64-0.5c-0.65,0-1.31,0.59-1.31,1.56
	c0,1.17,0.55,1.52,1.05,1.52c0.55,0,1.03-0.42,1.03-1.01c0-0.57-0.46-1-0.98-1C153,110.99,152.8,111.23,152.71,111.43z"/>
<path class="st2" d="M156.04,110.04c0-0.12-0.01-0.13-0.14-0.13c-0.29,0.28-0.7,0.29-0.88,0.29v0.16c0.11,0,0.41,0,0.65-0.13v2.3
	c0,0.15,0,0.21-0.45,0.21h-0.17v0.16c0.08,0,0.63-0.02,0.8-0.02c0.14,0,0.71,0.01,0.81,0.02v-0.16h-0.17
	c-0.45,0-0.45-0.06-0.45-0.21V110.04"/>
<path class="st2" d="M79.29,3.72c-0.11,0.46-0.32,1.3-0.7,2.02c-0.35,0.68-0.72,1.16-1.15,1.16c-0.33,0-0.54-0.29-0.54-1.21
	c0-0.42,0.06-0.99,0.32-1.97H79.29 M77.3,3.4c0.17-0.64,0.37-1.43,0.76-2.14c0.27-0.49,0.64-1.04,1.08-1.04
	c0.49,0,0.55,0.64,0.55,1.2c0,0.49-0.08,0.99-0.32,1.98H77.3z M80.35,2.04c0-0.65-0.18-2.04-1.19-2.04c-1.38,0-2.91,2.8-2.91,5.08
	c0,0.93,0.29,2.04,1.19,2.04C78.84,7.11,80.35,4.26,80.35,2.04z"/>
<g>
	<g>
		<line class="st1" x1="78.1" y1="8.6" x2="78.1" y2="17.89"/>
		<g>
			<path class="st3" d="M78.1,20.91c-0.53-1.42-1.43-3.18-2.38-4.27l2.38,0.86l2.38-0.86C79.52,17.73,78.62,19.49,78.1,20.91z"/>
		</g>
	</g>
</g>
</svg>
