<?xml version="1.0" encoding="utf-8"?>
<!-- Generator: Adobe Illustrator 26.0.2, SVG Export Plug-In . SVG Version: 6.00 Build 0)  -->
<svg version="1.1" id="Layer_1" xmlns="http://www.w3.org/2000/svg" xmlns:xlink="http://www.w3.org/1999/xlink" x="0px" y="0px"
	 viewBox="0 0 156.8 115.85" style="enable-background:new 0 0 156.8 115.85;" xml:space="preserve">
<style type="text/css">
	.st0{opacity:0.4;fill:#486AFB;stroke:#486AFB;stroke-miterlimit:10;}
	.st1{fill:none;stroke:#486AFB;stroke-miterlimit:10;}
	.st2{fill:#FD46FC;}
	.st3{fill:#486AFB;}
</style>
<circle class="st0" cx="11.5" cy="85.91" r="11"/>
<circle class="st1" cx="11.5" cy="85.91" r="11"/>
<circle class="st0" cx="77.88" cy="37.29" r="11"/>
<circle class="st1" cx="77.88" cy="37.29" r="11"/>
<path class="st2" d="M80.79,34.84l0.14-0.14c0.3-0.3,0.63-0.64,1.3-0.69c0.11-0.01,0.2-0.01,0.2-0.19c0-0.08-0.05-0.12-0.13-0.12
	c-0.26,0-0.55,0.03-0.81,0.03c-0.33,0-0.68-0.03-0.99-0.03c-0.06,0-0.19,0-0.19,0.19c0,0.11,0.1,0.12,0.15,0.12
	c0.07,0,0.36,0.02,0.36,0.23c0,0.17-0.23,0.43-0.27,0.48l-2.3,2.65l-1.09-2.95c-0.06-0.14-0.06-0.16-0.06-0.17
	c0-0.24,0.49-0.24,0.59-0.24c0.14,0,0.24,0,0.24-0.2c0-0.11-0.12-0.11-0.15-0.11c-0.28,0-0.97,0.03-1.25,0.03
	c-0.25,0-0.86-0.03-1.11-0.03c-0.06,0-0.19,0-0.19,0.2c0,0.11,0.1,0.11,0.23,0.11c0.6,0,0.64,0.09,0.72,0.34l1.22,3.27
	c0.01,0.03,0.04,0.14,0.04,0.17c0,0.03-0.4,1.63-0.45,1.81c-0.13,0.55-0.14,0.58-0.93,0.59c-0.19,0-0.27,0-0.27,0.2
	c0,0.11,0.12,0.11,0.14,0.11c0.28,0,0.97-0.03,1.25-0.03c0.28,0,0.99,0.03,1.27,0.03c0.07,0,0.19,0,0.19-0.2
	c0-0.11-0.09-0.11-0.28-0.11c-0.02,0-0.21,0-0.38-0.02c-0.21-0.02-0.27-0.04-0.27-0.16c0-0.07,0.09-0.42,0.14-0.62l0.35-1.4
	c0.05-0.19,0.06-0.22,0.14-0.31L80.79,34.84"/>
<circle class="st0" cx="38.26" cy="85.62" r="11"/>
<circle class="st1" cx="38.26" cy="85.62" r="11"/>
<circle class="st0" cx="65.02" cy="85.2" r="11"/>
<circle class="st1" cx="65.02" cy="85.2" r="11"/>
<circle class="st0" cx="91.78" cy="84.78" r="11"/>
<circle class="st1" cx="91.78" cy="84.78" r="11"/>
<circle class="st0" cx="118.54" cy="84.35" r="11"/>
<circle class="st1" cx="118.54" cy="84.35" r="11"/>
<circle class="st0" cx="145.3" cy="83.93" r="11"/>
<circle class="st1" cx="145.3" cy="83.93" r="11"/>
<path class="st2" d="M11.38,85.1l-0.83-1.98c-0.03-0.08-0.05-0.12-0.05-0.13c0-0.06,0.17-0.25,0.59-0.29c0.1-0.01,0.2-0.02,0.2-0.19
	c0-0.12-0.12-0.12-0.15-0.12c-0.41,0-0.83,0.03-1.25,0.03c-0.25,0-0.86-0.03-1.11-0.03c-0.06,0-0.18,0-0.18,0.2
	c0,0.11,0.1,0.11,0.23,0.11c0.6,0,0.66,0.1,0.75,0.32l1.17,2.77l-2.1,2.25l-0.13,0.11c-0.49,0.53-0.95,0.69-1.46,0.72
	c-0.13,0.01-0.22,0.01-0.22,0.2c0,0.01,0,0.11,0.13,0.11c0.3,0,0.63-0.03,0.93-0.03c0.37,0,0.75,0.03,1.11,0.03
	c0.06,0,0.18,0,0.18-0.2c0-0.1-0.1-0.11-0.12-0.11c-0.09-0.01-0.4-0.03-0.4-0.31c0-0.16,0.15-0.32,0.27-0.45l1.01-1.07l0.89-0.97
	l1,2.38c0.04,0.11,0.05,0.12,0.05,0.14c0,0.08-0.19,0.25-0.58,0.29c-0.11,0.01-0.2,0.02-0.2,0.19c0,0.12,0.11,0.12,0.15,0.12
	c0.28,0,0.98-0.03,1.25-0.03c0.25,0,0.85,0.03,1.1,0.03c0.07,0,0.19,0,0.19-0.19c0-0.12-0.1-0.12-0.18-0.12
	c-0.67-0.01-0.69-0.04-0.85-0.44c-0.39-0.92-1.05-2.47-1.28-3.07c0.67-0.7,1.72-1.88,2.04-2.16c0.29-0.24,0.67-0.48,1.26-0.51
	c0.13-0.01,0.22-0.01,0.22-0.2c0-0.01,0-0.11-0.13-0.11c-0.3,0-0.63,0.03-0.93,0.03c-0.37,0-0.75-0.03-1.1-0.03
	c-0.06,0-0.19,0-0.19,0.2c0,0.07,0.05,0.1,0.12,0.11c0.09,0.01,0.4,0.03,0.4,0.31c0,0.14-0.11,0.27-0.19,0.36L11.38,85.1"/>
<path class="st2" d="M17.22,86.22c0-0.19-0.01-0.2-0.21-0.2c-0.45,0.44-1.09,0.45-1.38,0.45v0.25c0.17,0,0.63,0,1.02-0.2v3.59
	c0,0.23,0,0.32-0.7,0.32h-0.27v0.25c0.13-0.01,0.99-0.03,1.25-0.03c0.22,0,1.1,0.02,1.26,0.03v-0.25h-0.27c-0.7,0-0.7-0.09-0.7-0.32
	V86.22"/>
<path class="st2" d="M38.19,85.1l-0.83-1.98c-0.03-0.08-0.05-0.12-0.05-0.13c0-0.06,0.17-0.25,0.59-0.29c0.1-0.01,0.2-0.02,0.2-0.19
	c0-0.12-0.12-0.12-0.15-0.12c-0.41,0-0.83,0.03-1.25,0.03c-0.25,0-0.86-0.03-1.11-0.03c-0.06,0-0.18,0-0.18,0.2
	c0,0.11,0.1,0.11,0.23,0.11c0.6,0,0.66,0.1,0.75,0.32l1.17,2.77l-2.1,2.25l-0.13,0.11c-0.49,0.53-0.95,0.69-1.46,0.72
	c-0.13,0.01-0.22,0.01-0.22,0.2c0,0.01,0,0.11,0.13,0.11c0.3,0,0.63-0.03,0.93-0.03c0.37,0,0.75,0.03,1.11,0.03
	c0.06,0,0.18,0,0.18-0.2c0-0.1-0.1-0.11-0.12-0.11c-0.09-0.01-0.4-0.03-0.4-0.31c0-0.16,0.15-0.32,0.27-0.45l1.01-1.07l0.89-0.97
	l1,2.38c0.04,0.11,0.05,0.12,0.05,0.14c0,0.08-0.19,0.25-0.58,0.29c-0.11,0.01-0.2,0.02-0.2,0.19c0,0.12,0.11,0.12,0.15,0.12
	c0.28,0,0.98-0.03,1.25-0.03c0.25,0,0.85,0.03,1.1,0.03c0.07,0,0.19,0,0.19-0.19c0-0.12-0.1-0.12-0.18-0.12
	c-0.67-0.01-0.69-0.04-0.85-0.44c-0.39-0.92-1.05-2.47-1.28-3.07c0.67-0.7,1.72-1.88,2.04-2.16c0.29-0.24,0.67-0.48,1.26-0.51
	c0.13-0.01,0.22-0.01,0.22-0.2c0-0.01,0-0.11-0.13-0.11c-0.3,0-0.63,0.03-0.93,0.03c-0.37,0-0.75-0.03-1.1-0.03
	c-0.06,0-0.19,0-0.19,0.2c0,0.07,0.05,0.1,0.12,0.11c0.09,0.01,0.4,0.03,0.4,0.31c0,0.14-0.11,0.27-0.19,0.36L38.19,85.1"/>
<path class="st2" d="M45.22,89.41h-0.24c-0.02,0.15-0.09,0.57-0.18,0.64c-0.06,0.04-0.6,0.04-0.7,0.04h-1.29
	c0.74-0.65,0.98-0.85,1.41-1.18c0.52-0.42,1-0.85,1-1.52c0-0.85-0.75-1.37-1.65-1.37c-0.87,0-1.46,0.61-1.46,1.26
	c0,0.36,0.3,0.39,0.37,0.39c0.17,0,0.37-0.12,0.37-0.37c0-0.13-0.05-0.37-0.41-0.37c0.22-0.5,0.7-0.65,1.03-0.65
	c0.7,0,1.07,0.55,1.07,1.12c0,0.61-0.44,1.1-0.66,1.35l-1.7,1.67c-0.07,0.06-0.07,0.08-0.07,0.27h2.9L45.22,89.41"/>
<path class="st2" d="M64.61,84.51l-0.83-1.98c-0.03-0.08-0.05-0.12-0.05-0.13c0-0.06,0.17-0.25,0.59-0.29
	c0.1-0.01,0.2-0.02,0.2-0.19c0-0.12-0.12-0.12-0.15-0.12c-0.41,0-0.83,0.03-1.25,0.03c-0.25,0-0.86-0.03-1.11-0.03
	c-0.06,0-0.18,0-0.18,0.2c0,0.11,0.1,0.11,0.23,0.11c0.6,0,0.66,0.1,0.75,0.32l1.17,2.77l-2.1,2.25l-0.13,0.11
	c-0.49,0.53-0.95,0.69-1.46,0.72c-0.13,0.01-0.22,0.01-0.22,0.2c0,0.01,0,0.11,0.13,0.11c0.3,0,0.63-0.03,0.93-0.03
	c0.37,0,0.75,0.03,1.11,0.03c0.06,0,0.18,0,0.18-0.2c0-0.1-0.1-0.11-0.12-0.11c-0.09-0.01-0.4-0.03-0.4-0.31
	c0-0.16,0.15-0.32,0.27-0.45l1.01-1.07l0.89-0.97l1,2.38c0.04,0.11,0.05,0.12,0.05,0.14c0,0.08-0.19,0.25-0.58,0.29
	c-0.11,0.01-0.2,0.02-0.2,0.19c0,0.12,0.11,0.12,0.15,0.12c0.28,0,0.97-0.03,1.25-0.03c0.25,0,0.85,0.03,1.1,0.03
	c0.07,0,0.19,0,0.19-0.19c0-0.12-0.1-0.12-0.18-0.12c-0.67-0.01-0.69-0.04-0.85-0.44c-0.39-0.92-1.05-2.47-1.28-3.07
	c0.67-0.7,1.72-1.88,2.04-2.16c0.29-0.24,0.67-0.48,1.26-0.51c0.13-0.01,0.22-0.01,0.22-0.2c0-0.01,0-0.11-0.13-0.11
	c-0.3,0-0.63,0.03-0.93,0.03c-0.37,0-0.75-0.03-1.1-0.03c-0.06,0-0.19,0-0.19,0.2c0,0.07,0.05,0.1,0.12,0.11
	c0.09,0.01,0.4,0.03,0.4,0.31c0,0.14-0.11,0.27-0.19,0.36L64.61,84.51"/>
<path class="st2" d="M70.01,87.74c0.55,0,0.94,0.38,0.94,1.13c0,0.87-0.51,1.13-0.91,1.13c-0.28,0-0.9-0.08-1.2-0.49
	c0.33-0.01,0.41-0.25,0.41-0.39c0-0.22-0.17-0.39-0.39-0.39c-0.2,0-0.39,0.12-0.39,0.41c0,0.66,0.73,1.09,1.58,1.09
	c0.98,0,1.65-0.65,1.65-1.36c0-0.55-0.45-1.1-1.22-1.26c0.74-0.27,1-0.79,1-1.22c0-0.55-0.64-0.97-1.42-0.97
	c-0.78,0-1.38,0.38-1.38,0.94c0,0.24,0.15,0.37,0.37,0.37c0.22,0,0.36-0.16,0.36-0.36c0-0.2-0.14-0.35-0.36-0.37
	c0.25-0.31,0.73-0.39,0.99-0.39c0.32,0,0.76,0.15,0.76,0.77c0,0.3-0.1,0.62-0.28,0.84c-0.23,0.27-0.43,0.28-0.78,0.3
	c-0.18,0.01-0.19,0.01-0.22,0.02c-0.01,0-0.07,0.01-0.07,0.09c0,0.1,0.06,0.1,0.18,0.1H70.01"/>
<path class="st2" d="M92.31,83.8l-0.83-1.98c-0.03-0.08-0.05-0.12-0.05-0.13c0-0.06,0.17-0.25,0.59-0.29c0.1-0.01,0.2-0.02,0.2-0.19
	c0-0.12-0.12-0.12-0.15-0.12c-0.41,0-0.83,0.03-1.25,0.03c-0.25,0-0.86-0.03-1.11-0.03c-0.06,0-0.18,0-0.18,0.2
	c0,0.11,0.1,0.11,0.23,0.11c0.6,0,0.66,0.1,0.75,0.32l1.17,2.77l-2.1,2.25l-0.13,0.11c-0.49,0.53-0.95,0.69-1.46,0.72
	c-0.13,0.01-0.22,0.01-0.22,0.2c0,0.01,0,0.11,0.13,0.11c0.3,0,0.63-0.03,0.93-0.03c0.37,0,0.75,0.03,1.11,0.03
	c0.06,0,0.18,0,0.18-0.2c0-0.1-0.1-0.11-0.12-0.11c-0.09-0.01-0.4-0.03-0.4-0.31c0-0.16,0.15-0.32,0.27-0.45l1.01-1.07l0.89-0.97
	l1,2.38c0.04,0.11,0.05,0.12,0.05,0.14c0,0.08-0.19,0.25-0.58,0.29c-0.11,0.01-0.2,0.02-0.2,0.19c0,0.12,0.11,0.12,0.15,0.12
	c0.28,0,0.97-0.03,1.25-0.03c0.25,0,0.85,0.03,1.1,0.03c0.07,0,0.19,0,0.19-0.19c0-0.12-0.1-0.12-0.18-0.12
	c-0.67-0.01-0.69-0.04-0.85-0.44c-0.39-0.92-1.05-2.47-1.28-3.07c0.68-0.7,1.72-1.88,2.04-2.16c0.29-0.24,0.67-0.48,1.26-0.51
	c0.13-0.01,0.22-0.01,0.22-0.2c0-0.01,0-0.11-0.13-0.11c-0.3,0-0.63,0.03-0.93,0.03c-0.37,0-0.75-0.03-1.1-0.03
	c-0.06,0-0.19,0-0.19,0.2c0,0.07,0.05,0.1,0.12,0.11c0.09,0.01,0.4,0.03,0.4,0.31c0,0.14-0.11,0.27-0.19,0.36L92.31,83.8"/>
<path class="st2" d="M98.19,85.41v2.57h-1.86L98.19,85.41z M99.52,88.23v-0.25h-0.78v-3.13c0-0.15,0-0.2-0.15-0.2
	c-0.08,0-0.11,0-0.18,0.1l-2.33,3.23v0.25h2.07v0.58c0,0.24,0,0.32-0.57,0.32h-0.19v0.25c0.35-0.01,0.8-0.03,1.05-0.03
	c0.26,0,0.71,0.01,1.06,0.03v-0.25h-0.19c-0.57,0-0.57-0.08-0.57-0.32v-0.58H99.52z"/>
<path class="st2" d="M118.56,83.69l-0.83-1.98c-0.03-0.08-0.05-0.12-0.05-0.13c0-0.06,0.17-0.25,0.59-0.29
	c0.1-0.01,0.2-0.02,0.2-0.19c0-0.12-0.12-0.12-0.15-0.12c-0.41,0-0.83,0.03-1.25,0.03c-0.25,0-0.86-0.03-1.11-0.03
	c-0.06,0-0.18,0-0.18,0.2c0,0.11,0.1,0.11,0.23,0.11c0.6,0,0.66,0.1,0.75,0.32l1.17,2.77l-2.1,2.25l-0.13,0.11
	c-0.49,0.53-0.95,0.69-1.46,0.72c-0.13,0.01-0.22,0.01-0.22,0.2c0,0.01,0,0.11,0.13,0.11c0.3,0,0.63-0.03,0.93-0.03
	c0.37,0,0.75,0.03,1.11,0.03c0.06,0,0.18,0,0.18-0.2c0-0.1-0.1-0.11-0.12-0.11c-0.09-0.01-0.4-0.03-0.4-0.31
	c0-0.16,0.15-0.32,0.27-0.45l1.01-1.07l0.89-0.97l1,2.38c0.04,0.11,0.05,0.12,0.05,0.14c0,0.08-0.19,0.25-0.58,0.29
	c-0.11,0.01-0.2,0.02-0.2,0.19c0,0.12,0.11,0.12,0.15,0.12c0.28,0,0.97-0.03,1.25-0.03c0.25,0,0.85,0.03,1.1,0.03
	c0.07,0,0.19,0,0.19-0.19c0-0.12-0.1-0.12-0.18-0.12c-0.67-0.01-0.69-0.04-0.85-0.44c-0.39-0.92-1.05-2.47-1.28-3.07
	c0.67-0.7,1.72-1.88,2.04-2.16c0.29-0.24,0.67-0.48,1.26-0.51c0.13-0.01,0.22-0.01,0.22-0.2c0-0.01,0-0.11-0.13-0.11
	c-0.3,0-0.63,0.03-0.93,0.03c-0.37,0-0.75-0.03-1.1-0.03c-0.06,0-0.19,0-0.19,0.2c0,0.07,0.05,0.1,0.12,0.11
	c0.09,0.01,0.4,0.03,0.4,0.31c0,0.14-0.11,0.27-0.19,0.36L118.56,83.69"/>
<path class="st2" d="M123.03,85.35c0.36,0.09,0.57,0.09,0.68,0.09c0.93,0,1.48-0.63,1.48-0.74c0-0.08-0.05-0.1-0.08-0.1
	c-0.01,0-0.03,0-0.06,0.02c-0.17,0.06-0.54,0.2-1.06,0.2c-0.2,0-0.57-0.01-1.03-0.19c-0.07-0.03-0.08-0.03-0.09-0.03
	c-0.09,0-0.09,0.08-0.09,0.19v2.07c0,0.12,0,0.2,0.11,0.2c0.06,0,0.07-0.01,0.14-0.1c0.3-0.39,0.73-0.44,0.98-0.44
	c0.42,0,0.61,0.34,0.65,0.39c0.13,0.23,0.17,0.5,0.17,0.91c0,0.21,0,0.62-0.21,0.93c-0.18,0.25-0.48,0.42-0.82,0.42
	c-0.46,0-0.93-0.25-1.1-0.72c0.27,0.02,0.4-0.15,0.4-0.34c0-0.3-0.26-0.36-0.35-0.36c-0.01,0-0.35,0-0.35,0.38
	c0,0.63,0.58,1.27,1.42,1.27c0.9,0,1.69-0.67,1.69-1.55c0-0.8-0.6-1.53-1.48-1.53c-0.31,0-0.68,0.08-0.98,0.35V85.35"/>
<path class="st2" d="M145.67,83.09l-0.83-1.98c-0.03-0.08-0.05-0.12-0.05-0.13c0-0.06,0.17-0.25,0.59-0.29
	c0.1-0.01,0.2-0.02,0.2-0.19c0-0.12-0.12-0.12-0.15-0.12c-0.41,0-0.83,0.03-1.25,0.03c-0.25,0-0.86-0.03-1.11-0.03
	c-0.06,0-0.18,0-0.18,0.2c0,0.11,0.1,0.11,0.23,0.11c0.6,0,0.66,0.1,0.75,0.32l1.17,2.77l-2.1,2.25l-0.13,0.11
	c-0.49,0.53-0.95,0.69-1.46,0.72c-0.13,0.01-0.22,0.01-0.22,0.2c0,0.01,0,0.11,0.13,0.11c0.3,0,0.63-0.03,0.93-0.03
	c0.37,0,0.75,0.03,1.11,0.03c0.06,0,0.18,0,0.18-0.2c0-0.1-0.1-0.11-0.12-0.11c-0.09-0.01-0.4-0.03-0.4-0.31
	c0-0.16,0.15-0.32,0.27-0.45l1.01-1.07l0.89-0.97l1,2.38c0.04,0.11,0.05,0.12,0.05,0.14c0,0.08-0.19,0.25-0.58,0.29
	c-0.11,0.01-0.2,0.02-0.2,0.19c0,0.12,0.11,0.12,0.15,0.12c0.28,0,0.98-0.03,1.25-0.03c0.25,0,0.85,0.03,1.1,0.03
	c0.07,0,0.19,0,0.19-0.19c0-0.12-0.1-0.12-0.18-0.12c-0.67-0.01-0.69-0.04-0.85-0.44c-0.39-0.92-1.05-2.47-1.28-3.07
	c0.68-0.7,1.72-1.88,2.04-2.16c0.29-0.24,0.67-0.48,1.26-0.51c0.13-0.01,0.22-0.01,0.22-0.2c0-0.01,0-0.11-0.13-0.11
	c-0.3,0-0.63,0.03-0.93,0.03c-0.37,0-0.75-0.03-1.1-0.03c-0.06,0-0.19,0-0.19,0.2c0,0.07,0.05,0.1,0.12,0.11
	c0.09,0.01,0.4,0.03,0.4,0.31c0,0.14-0.11,0.27-0.19,0.36L145.67,83.09"/>
<path class="st2" d="M151.17,88.59c-0.35,0-0.63-0.2-0.77-0.51c-0.11-0.21-0.16-0.56-0.16-0.98c0-0.68,0.41-1.21,0.97-1.21
	c0.32,0,0.54,0.13,0.72,0.39c0.17,0.27,0.18,0.56,0.18,0.97c0,0.4,0,0.7-0.19,0.97C151.74,88.46,151.51,88.59,151.17,88.59
	 M150.21,86.38c0-0.58,0.05-1.1,0.32-1.53c0.24-0.38,0.62-0.64,1.07-0.64c0.21,0,0.49,0.06,0.63,0.25
	c-0.18,0.01-0.32,0.13-0.32,0.34c0,0.18,0.12,0.33,0.33,0.33c0.21,0,0.34-0.14,0.34-0.35c0-0.41-0.3-0.77-0.99-0.77
	c-1.01,0-2.05,0.93-2.05,2.44c0,1.82,0.86,2.37,1.63,2.37c0.86,0,1.6-0.65,1.6-1.58c0-0.89-0.71-1.55-1.53-1.55
	C150.68,85.69,150.37,86.06,150.21,86.38z"/>
<g>
	<g>
		<line class="st1" x1="66.98" y1="45.13" x2="24.66" y2="76.32"/>
		<g>
			<path class="st3" d="M22.23,78.11c0.83-1.27,1.72-3.04,2.03-4.45l0.72,2.42l2.1,1.4C25.64,77.37,23.69,77.69,22.23,78.11z"/>
		</g>
	</g>
</g>
<g>
	<g>
		<line class="st1" x1="69.25" y1="47.52" x2="48.49" y2="72.58"/>
		<g>
			<path class="st3" d="M46.56,74.91c0.5-1.43,0.93-3.36,0.89-4.81l1.28,2.18l2.38,0.85C49.69,73.37,47.88,74.15,46.56,74.91z"/>
		</g>
	</g>
</g>
<g>
	<g>
		<line class="st1" x1="74.46" y1="50" x2="69.46" y2="68.88"/>
		<g>
			<path class="st3" d="M68.68,71.8c-0.15-1.51-0.56-3.44-1.2-4.74l2.08,1.44l2.52-0.22C70.88,69.09,69.56,70.56,68.68,71.8z"/>
		</g>
	</g>
</g>
<g>
	<g>
		<line class="st1" x1="81.7" y1="50.2" x2="87.09" y2="68.71"/>
		<g>
			<path class="st3" d="M87.94,71.61c-0.9-1.22-2.26-2.66-3.48-3.44l2.52,0.16l2.04-1.49C88.42,68.15,88.05,70.09,87.94,71.61z"/>
		</g>
	</g>
</g>
<g>
	<g>
		<line class="st1" x1="86.69" y1="47.93" x2="107.14" y2="71.9"/>
		<g>
			<path class="st3" d="M109.1,74.2c-1.32-0.74-3.15-1.5-4.58-1.71l2.37-0.89l1.25-2.2C108.12,70.85,108.58,72.78,109.1,74.2z"/>
		</g>
	</g>
</g>
<path class="st1" d="M145.3,83.78"/>
<g>
	<g>
		<line class="st1" x1="89.4" y1="45.39" x2="131.28" y2="74.15"/>
		<g>
			<path class="st3" d="M133.76,75.86c-1.47-0.37-3.43-0.63-4.87-0.46l2.06-1.47l0.64-2.45C131.95,72.88,132.89,74.62,133.76,75.86z
				"/>
		</g>
	</g>
</g>
<g>
	<g>
		<line class="st1" x1="15.82" y1="101.14" x2="18.19" y2="109.83"/>
		<g>
			<path class="st3" d="M15.02,98.23c-0.13,1.51-0.54,3.45-1.17,4.75l2.07-1.46l2.52,0.2C17.23,100.92,15.9,99.46,15.02,98.23z"/>
		</g>
	</g>
</g>
<g>
	<g>
		<line class="st1" x1="7.17" y1="101.23" x2="4.81" y2="109.83"/>
		<g>
			<path class="st3" d="M7.96,98.32c-0.88,1.23-2.21,2.69-3.42,3.5l2.52-0.2l2.07,1.46C8.5,101.76,8.09,99.82,7.96,98.32z"/>
		</g>
	</g>
</g>
<g>
	<g>
		<line class="st1" x1="42.53" y1="101.56" x2="44.91" y2="110.25"/>
		<g>
			<path class="st3" d="M41.73,98.65c-0.13,1.51-0.54,3.45-1.17,4.75l2.07-1.46l2.52,0.2C43.95,101.34,42.62,99.88,41.73,98.65z"/>
		</g>
	</g>
</g>
<g>
	<g>
		<line class="st1" x1="33.88" y1="101.64" x2="31.53" y2="110.25"/>
		<g>
			<path class="st3" d="M34.68,98.73c-0.88,1.23-2.21,2.69-3.42,3.5l2.52-0.2l2.07,1.46C35.21,102.18,34.81,100.24,34.68,98.73z"/>
		</g>
	</g>
</g>
<g>
	<g>
		<line class="st1" x1="69.29" y1="101.81" x2="71.67" y2="110.5"/>
		<g>
			<path class="st3" d="M68.49,98.9c-0.13,1.51-0.54,3.45-1.17,4.75l2.07-1.46l2.52,0.2C70.71,101.59,69.38,100.13,68.49,98.9z"/>
		</g>
	</g>
</g>
<g>
	<g>
		<line class="st1" x1="60.64" y1="101.89" x2="58.29" y2="110.5"/>
		<g>
			<path class="st3" d="M61.44,98.98c-0.88,1.23-2.21,2.69-3.42,3.5l2.52-0.2l2.07,1.46C61.97,102.43,61.57,100.49,61.44,98.98z"/>
		</g>
	</g>
</g>
<g>
	<g>
		<line class="st1" x1="96.05" y1="101.88" x2="98.43" y2="110.57"/>
		<g>
			<path class="st3" d="M95.25,98.96c-0.13,1.51-0.54,3.45-1.17,4.75l2.07-1.46l2.52,0.2C97.47,101.66,96.14,100.2,95.25,98.96z"/>
		</g>
	</g>
</g>
<g>
	<g>
		<line class="st1" x1="87.4" y1="101.96" x2="85.05" y2="110.57"/>
		<g>
			<path class="st3" d="M88.2,99.05c-0.88,1.23-2.21,2.69-3.42,3.5l2.52-0.2l2.07,1.46C88.73,102.5,88.33,100.56,88.2,99.05z"/>
		</g>
	</g>
</g>
<g>
	<g>
		<line class="st1" x1="122.81" y1="101.88" x2="125.19" y2="110.57"/>
		<g>
			<path class="st3" d="M122.01,98.96c-0.13,1.51-0.54,3.45-1.17,4.75l2.07-1.46l2.52,0.2C124.23,101.66,122.9,100.2,122.01,98.96z"
				/>
		</g>
	</g>
</g>
<g>
	<g>
		<line class="st1" x1="114.16" y1="101.96" x2="111.81" y2="110.57"/>
		<g>
			<path class="st3" d="M114.95,99.05c-0.88,1.23-2.21,2.69-3.42,3.5l2.52-0.2l2.07,1.46C115.49,102.5,115.09,100.56,114.95,99.05z"
				/>
		</g>
	</g>
</g>
<g>
	<g>
		<line class="st1" x1="149.57" y1="101.88" x2="151.94" y2="110.57"/>
		<g>
			<path class="st3" d="M148.77,98.96c-0.13,1.51-0.54,3.45-1.17,4.75l2.07-1.46l2.52,0.2C150.99,101.66,149.66,100.2,148.77,98.96z
				"/>
		</g>
	</g>
</g>
<g>
	<g>
		<line class="st1" x1="140.92" y1="101.96" x2="138.57" y2="110.57"/>
		<g>
			<path class="st3" d="M141.71,99.05c-0.88,1.23-2.21,2.69-3.42,3.5l2.52-0.2l2.07,1.46C142.25,102.5,141.85,100.56,141.71,99.05z"
				/>
		</g>
	</g>
</g>
<path class="st2" d="M4.75,112.15c0-0.12-0.01-0.13-0.14-0.13c-0.29,0.28-0.7,0.29-0.88,0.29v0.16c0.11,0,0.41,0,0.65-0.13v2.3
	c0,0.15,0,0.21-0.45,0.21H3.76v0.16c0.08,0,0.64-0.02,0.8-0.02c0.14,0,0.71,0.01,0.81,0.02v-0.16H5.2c-0.45,0-0.45-0.06-0.45-0.21
	V112.15"/>
<path class="st2" d="M7.08,114.98c-0.21,0-0.48-0.12-0.57-0.49c-0.06-0.27-0.06-0.64-0.06-0.97c0-0.33,0-0.67,0.07-0.92
	c0.09-0.36,0.38-0.45,0.57-0.45c0.24,0,0.48,0.15,0.56,0.41c0.07,0.24,0.08,0.57,0.08,0.96c0,0.33,0,0.67-0.06,0.95
	C7.57,114.88,7.26,114.98,7.08,114.98 M8.13,113.58c0-0.5-0.06-0.85-0.27-1.17c-0.14-0.21-0.42-0.39-0.78-0.39
	c-1.05,0-1.05,1.23-1.05,1.56c0,0.32,0,1.53,1.05,1.53C8.13,115.11,8.13,113.91,8.13,113.58z"/>
<path class="st2" d="M20.14,112.15c0-0.12-0.01-0.13-0.14-0.13c-0.29,0.28-0.7,0.29-0.88,0.29v0.16c0.11,0,0.41,0,0.65-0.13v2.3
	c0,0.15,0,0.21-0.45,0.21h-0.17v0.16c0.08,0,0.64-0.02,0.8-0.02c0.14,0,0.71,0.01,0.81,0.02v-0.16h-0.17
	c-0.45,0-0.45-0.06-0.45-0.21V112.15"/>
<path class="st2" d="M22.71,112.15c0-0.12-0.01-0.13-0.14-0.13c-0.29,0.28-0.7,0.29-0.88,0.29v0.16c0.11,0,0.41,0,0.65-0.13v2.3
	c0,0.15,0,0.21-0.45,0.21h-0.17v0.16c0.08,0,0.64-0.02,0.8-0.02c0.14,0,0.71,0.01,0.81,0.02v-0.16h-0.17
	c-0.45,0-0.45-0.06-0.45-0.21V112.15"/>
<path class="st2" d="M32.52,114.37h-0.15c-0.01,0.1-0.06,0.37-0.12,0.41c-0.04,0.03-0.38,0.03-0.45,0.03h-0.83
	c0.47-0.42,0.63-0.55,0.9-0.76c0.33-0.27,0.64-0.55,0.64-0.97c0-0.55-0.48-0.88-1.06-0.88c-0.56,0-0.94,0.39-0.94,0.81
	c0,0.23,0.19,0.25,0.24,0.25c0.11,0,0.24-0.08,0.24-0.24c0-0.08-0.03-0.24-0.27-0.24c0.14-0.32,0.45-0.42,0.66-0.42
	c0.45,0,0.69,0.35,0.69,0.72c0,0.39-0.28,0.7-0.42,0.87l-1.09,1.07c-0.05,0.04-0.05,0.05-0.05,0.18h1.86L32.52,114.37"/>
<path class="st2" d="M34.09,115.15c-0.21,0-0.48-0.12-0.57-0.49c-0.06-0.27-0.06-0.64-0.06-0.97c0-0.33,0-0.67,0.07-0.92
	c0.09-0.36,0.38-0.45,0.57-0.45c0.24,0,0.48,0.15,0.56,0.41c0.07,0.24,0.08,0.57,0.08,0.96c0,0.33,0,0.67-0.06,0.95
	C34.58,115.05,34.27,115.15,34.09,115.15 M35.14,113.75c0-0.5-0.06-0.85-0.27-1.17c-0.14-0.21-0.42-0.39-0.78-0.39
	c-1.05,0-1.05,1.23-1.05,1.56s0,1.53,1.05,1.53C35.14,115.28,35.14,114.07,35.14,113.75z"/>
<path class="st2" d="M47.57,114.43h-0.15c-0.01,0.1-0.06,0.37-0.12,0.41c-0.04,0.03-0.38,0.03-0.45,0.03h-0.83
	c0.47-0.42,0.63-0.55,0.9-0.76c0.33-0.27,0.64-0.55,0.64-0.97c0-0.55-0.48-0.88-1.06-0.88c-0.56,0-0.94,0.39-0.94,0.81
	c0,0.23,0.19,0.25,0.24,0.25c0.11,0,0.24-0.08,0.24-0.24c0-0.08-0.03-0.24-0.27-0.24c0.14-0.32,0.45-0.42,0.66-0.42
	c0.45,0,0.69,0.35,0.69,0.72c0,0.39-0.28,0.7-0.42,0.87l-1.09,1.07c-0.05,0.04-0.05,0.05-0.05,0.18h1.86L47.57,114.43"/>
<path class="st2" d="M49.37,112.38c0-0.12-0.01-0.13-0.14-0.13c-0.29,0.28-0.7,0.29-0.88,0.29v0.16c0.11,0,0.41,0,0.65-0.13v2.3
	c0,0.15,0,0.21-0.45,0.21h-0.17v0.16c0.08,0,0.64-0.02,0.8-0.02c0.14,0,0.71,0.01,0.81,0.02v-0.16h-0.17
	c-0.45,0-0.45-0.06-0.45-0.21V112.38"/>
<path class="st2" d="M58.14,113.93c0.35,0,0.6,0.24,0.6,0.73c0,0.56-0.32,0.73-0.59,0.73c-0.18,0-0.58-0.05-0.77-0.32
	c0.21-0.01,0.26-0.16,0.26-0.25c0-0.14-0.11-0.25-0.25-0.25c-0.13,0-0.25,0.08-0.25,0.26c0,0.42,0.47,0.7,1.01,0.7
	c0.63,0,1.06-0.42,1.06-0.87c0-0.35-0.29-0.7-0.78-0.81c0.47-0.17,0.64-0.51,0.64-0.78c0-0.36-0.41-0.62-0.91-0.62
	c-0.5,0-0.88,0.24-0.88,0.6c0,0.15,0.1,0.24,0.23,0.24c0.14,0,0.23-0.1,0.23-0.23c0-0.13-0.09-0.23-0.23-0.23
	c0.16-0.2,0.47-0.25,0.64-0.25c0.2,0,0.49,0.1,0.49,0.49c0,0.19-0.06,0.4-0.18,0.54c-0.15,0.17-0.28,0.18-0.5,0.19
	c-0.11,0.01-0.12,0.01-0.14,0.01c-0.01,0-0.05,0.01-0.05,0.06c0,0.06,0.04,0.06,0.12,0.06H58.14"/>
<path class="st2" d="M60.76,115.4c-0.21,0-0.48-0.12-0.57-0.49c-0.06-0.27-0.06-0.64-0.06-0.97c0-0.33,0-0.67,0.07-0.92
	c0.09-0.36,0.38-0.45,0.57-0.45c0.24,0,0.48,0.15,0.56,0.41c0.07,0.24,0.08,0.57,0.08,0.96c0,0.33,0,0.67-0.06,0.95
	C61.24,115.3,60.94,115.4,60.76,115.4 M61.8,114c0-0.5-0.06-0.85-0.27-1.17c-0.14-0.21-0.42-0.39-0.78-0.39
	c-1.05,0-1.05,1.23-1.05,1.56c0,0.32,0,1.53,1.05,1.53C61.8,115.53,61.8,114.32,61.8,114z"/>
<path class="st2" d="M72.76,114.11c0.35,0,0.6,0.24,0.6,0.73c0,0.56-0.32,0.73-0.59,0.73c-0.18,0-0.58-0.05-0.77-0.32
	c0.21-0.01,0.26-0.16,0.26-0.25c0-0.14-0.11-0.25-0.25-0.25c-0.13,0-0.25,0.08-0.25,0.26c0,0.42,0.47,0.7,1.01,0.7
	c0.63,0,1.06-0.42,1.06-0.87c0-0.35-0.29-0.7-0.78-0.81c0.47-0.17,0.64-0.51,0.64-0.78c0-0.36-0.41-0.62-0.91-0.62
	c-0.5,0-0.88,0.24-0.88,0.6c0,0.15,0.1,0.24,0.23,0.24c0.14,0,0.23-0.1,0.23-0.23c0-0.13-0.09-0.23-0.23-0.23
	c0.16-0.2,0.47-0.25,0.64-0.25c0.2,0,0.49,0.1,0.49,0.49c0,0.19-0.06,0.4-0.18,0.54c-0.15,0.17-0.28,0.18-0.5,0.19
	c-0.11,0.01-0.12,0.01-0.14,0.01c-0.01,0-0.05,0.01-0.05,0.06c0,0.06,0.04,0.06,0.12,0.06H72.76"/>
<path class="st2" d="M75.61,112.75c0-0.12-0.01-0.13-0.14-0.13c-0.29,0.28-0.7,0.29-0.88,0.29v0.16c0.11,0,0.41,0,0.65-0.13v2.3
	c0,0.15,0,0.21-0.45,0.21h-0.17v0.16c0.08,0,0.64-0.02,0.8-0.02c0.14,0,0.71,0.01,0.81,0.02v-0.16h-0.17
	c-0.45,0-0.45-0.06-0.45-0.21V112.75"/>
<path class="st2" d="M85.04,113.07v1.65h-1.19L85.04,113.07z M85.89,114.88v-0.16h-0.5v-2.01c0-0.1,0-0.13-0.1-0.13
	c-0.05,0-0.07,0-0.12,0.06l-1.49,2.07v0.16h1.33v0.37c0,0.15,0,0.21-0.36,0.21h-0.12v0.16c0.23-0.01,0.51-0.02,0.68-0.02
	c0.17,0,0.46,0.01,0.68,0.02v-0.16h-0.12c-0.36,0-0.36-0.05-0.36-0.21v-0.37H85.89z"/>
<path class="st2" d="M87.35,115.58c-0.21,0-0.48-0.12-0.57-0.49c-0.06-0.27-0.06-0.64-0.06-0.97c0-0.33,0-0.67,0.07-0.92
	c0.09-0.36,0.38-0.45,0.57-0.45c0.24,0,0.48,0.15,0.56,0.41c0.07,0.24,0.08,0.57,0.08,0.96c0,0.33,0,0.67-0.06,0.95
	C87.84,115.48,87.53,115.58,87.35,115.58 M88.4,114.18c0-0.5-0.06-0.85-0.27-1.17c-0.14-0.21-0.42-0.39-0.78-0.39
	c-1.05,0-1.05,1.23-1.05,1.56c0,0.32,0,1.53,1.05,1.53C88.4,115.71,88.4,114.51,88.4,114.18z"/>
<path class="st2" d="M99.83,113.25v1.65h-1.19L99.83,113.25z M100.68,115.07v-0.16h-0.5v-2.01c0-0.1,0-0.13-0.1-0.13
	c-0.05,0-0.07,0-0.12,0.06l-1.49,2.07v0.16h1.33v0.37c0,0.15,0,0.21-0.36,0.21h-0.12v0.16c0.23-0.01,0.51-0.02,0.68-0.02
	c0.17,0,0.46,0.01,0.68,0.02v-0.16h-0.12c-0.36,0-0.36-0.05-0.36-0.21v-0.37H100.68z"/>
<path class="st2" d="M102.37,112.94c0-0.12-0.01-0.13-0.14-0.13c-0.29,0.28-0.7,0.29-0.88,0.29v0.16c0.11,0,0.41,0,0.65-0.13v2.3
	c0,0.15,0,0.21-0.45,0.21h-0.17v0.16c0.08,0,0.63-0.02,0.8-0.02c0.14,0,0.71,0.01,0.81,0.02v-0.16h-0.17
	c-0.45,0-0.45-0.06-0.45-0.21V112.94"/>
<path class="st2" d="M111.01,113.06c0.23,0.06,0.37,0.06,0.44,0.06c0.6,0,0.95-0.41,0.95-0.47c0-0.05-0.03-0.06-0.05-0.06
	c-0.01,0-0.02,0-0.04,0.01c-0.11,0.04-0.35,0.13-0.68,0.13c-0.13,0-0.36-0.01-0.66-0.12c-0.05-0.02-0.05-0.02-0.06-0.02
	c-0.06,0-0.06,0.05-0.06,0.12v1.33c0,0.08,0,0.13,0.07,0.13c0.04,0,0.05-0.01,0.09-0.06c0.19-0.25,0.47-0.28,0.63-0.28
	c0.27,0,0.39,0.22,0.41,0.25c0.08,0.15,0.11,0.32,0.11,0.58c0,0.14,0,0.4-0.14,0.6c-0.11,0.16-0.31,0.27-0.53,0.27
	c-0.29,0-0.6-0.16-0.71-0.46c0.17,0.01,0.26-0.1,0.26-0.22c0-0.19-0.17-0.23-0.23-0.23c-0.01,0-0.23,0-0.23,0.24
	c0,0.41,0.37,0.81,0.91,0.81c0.58,0,1.08-0.43,1.08-1c0-0.51-0.39-0.98-0.95-0.98c-0.2,0-0.43,0.05-0.63,0.22V113.06"/>
<path class="st2" d="M114.09,115.54c-0.21,0-0.48-0.12-0.57-0.49c-0.06-0.27-0.06-0.64-0.06-0.97c0-0.33,0-0.67,0.07-0.92
	c0.09-0.36,0.38-0.45,0.57-0.45c0.24,0,0.48,0.15,0.56,0.41c0.07,0.24,0.08,0.57,0.08,0.96c0,0.33,0,0.67-0.06,0.95
	C114.58,115.44,114.27,115.54,114.09,115.54 M115.14,114.14c0-0.5-0.06-0.85-0.27-1.17c-0.14-0.21-0.42-0.39-0.78-0.39
	c-1.05,0-1.05,1.23-1.05,1.56s0,1.53,1.05,1.53C115.14,115.67,115.14,114.46,115.14,114.14z"/>
<path class="st2" d="M125.39,113.06c0.23,0.06,0.37,0.06,0.44,0.06c0.6,0,0.95-0.41,0.95-0.47c0-0.05-0.03-0.06-0.05-0.06
	c-0.01,0-0.02,0-0.04,0.01c-0.11,0.04-0.35,0.13-0.68,0.13c-0.13,0-0.36-0.01-0.66-0.12c-0.05-0.02-0.05-0.02-0.06-0.02
	c-0.06,0-0.06,0.05-0.06,0.12v1.33c0,0.08,0,0.13,0.07,0.13c0.04,0,0.05-0.01,0.09-0.06c0.19-0.25,0.47-0.28,0.63-0.28
	c0.27,0,0.39,0.22,0.41,0.25c0.08,0.15,0.11,0.32,0.11,0.58c0,0.14,0,0.4-0.14,0.6c-0.11,0.16-0.31,0.27-0.53,0.27
	c-0.29,0-0.6-0.16-0.71-0.46c0.17,0.01,0.26-0.1,0.26-0.22c0-0.19-0.17-0.23-0.23-0.23c-0.01,0-0.23,0-0.23,0.24
	c0,0.41,0.37,0.81,0.91,0.81c0.58,0,1.08-0.43,1.08-1c0-0.51-0.39-0.98-0.95-0.98c-0.2,0-0.43,0.05-0.63,0.22V113.06"/>
<path class="st2" d="M128.71,112.71c0-0.12-0.01-0.13-0.14-0.13c-0.29,0.28-0.7,0.29-0.88,0.29v0.16c0.11,0,0.41,0,0.65-0.13v2.3
	c0,0.15,0,0.21-0.45,0.21h-0.17v0.16c0.08,0,0.63-0.02,0.8-0.02c0.14,0,0.71,0.01,0.81,0.02v-0.16h-0.17
	c-0.45,0-0.45-0.06-0.45-0.21V112.71"/>
<path class="st2" d="M138.35,115.57c-0.23,0-0.4-0.13-0.5-0.33c-0.07-0.14-0.1-0.36-0.1-0.63c0-0.44,0.26-0.78,0.62-0.78
	c0.21,0,0.35,0.08,0.46,0.25c0.11,0.17,0.11,0.36,0.11,0.62c0,0.26,0,0.45-0.12,0.62C138.71,115.48,138.57,115.57,138.35,115.57
	 M137.74,114.15c0-0.37,0.03-0.7,0.2-0.98c0.15-0.24,0.4-0.41,0.69-0.41c0.14,0,0.32,0.04,0.41,0.16c-0.11,0.01-0.21,0.09-0.21,0.22
	c0,0.11,0.08,0.21,0.21,0.21c0.14,0,0.22-0.09,0.22-0.22c0-0.26-0.19-0.5-0.64-0.5c-0.65,0-1.31,0.59-1.31,1.56
	c0,1.17,0.55,1.52,1.05,1.52c0.55,0,1.03-0.42,1.03-1.01c0-0.57-0.46-1-0.98-1C138.03,113.7,137.83,113.94,137.74,114.15z"/>
<path class="st2" d="M140.84,115.58c-0.21,0-0.48-0.12-0.57-0.49c-0.06-0.27-0.06-0.64-0.06-0.97c0-0.33,0-0.67,0.07-0.92
	c0.09-0.36,0.38-0.45,0.57-0.45c0.24,0,0.48,0.15,0.56,0.41c0.07,0.24,0.08,0.57,0.08,0.96c0,0.33,0,0.67-0.06,0.95
	C141.33,115.48,141.02,115.58,140.84,115.58 M141.89,114.18c0-0.5-0.06-0.85-0.27-1.17c-0.14-0.21-0.42-0.39-0.78-0.39
	c-1.05,0-1.05,1.23-1.05,1.56c0,0.32,0,1.53,1.05,1.53C141.89,115.71,141.89,114.51,141.89,114.18z"/>
<path class="st2" d="M152.9,115.71c-0.23,0-0.4-0.13-0.5-0.33c-0.07-0.14-0.1-0.36-0.1-0.63c0-0.44,0.26-0.78,0.62-0.78
	c0.21,0,0.35,0.08,0.46,0.25c0.11,0.17,0.11,0.36,0.11,0.62c0,0.26,0,0.45-0.12,0.62C153.26,115.62,153.12,115.71,152.9,115.71
	 M152.28,114.29c0-0.37,0.03-0.7,0.2-0.98c0.15-0.24,0.4-0.41,0.69-0.41c0.14,0,0.32,0.04,0.41,0.16c-0.11,0.01-0.21,0.09-0.21,0.22
	c0,0.11,0.08,0.21,0.21,0.21s0.22-0.09,0.22-0.22c0-0.26-0.19-0.5-0.64-0.5c-0.65,0-1.31,0.59-1.31,1.56c0,1.17,0.55,1.52,1.05,1.52
	c0.55,0,1.03-0.42,1.03-1.01c0-0.57-0.46-1-0.98-1C152.58,113.84,152.38,114.08,152.28,114.29z"/>
<path class="st2" d="M155.62,112.89c0-0.12-0.01-0.13-0.14-0.13c-0.29,0.28-0.7,0.29-0.88,0.29v0.16c0.11,0,0.41,0,0.65-0.13v2.3
	c0,0.15,0,0.21-0.45,0.21h-0.17v0.16c0.08,0,0.63-0.02,0.8-0.02c0.14,0,0.71,0.01,0.81,0.02v-0.16h-0.17
	c-0.45,0-0.45-0.06-0.45-0.21V112.89"/>
<path class="st2" d="M2.4,112.36c-0.07,0.28-0.2,0.81-0.43,1.26c-0.22,0.42-0.45,0.73-0.72,0.73c-0.2,0-0.33-0.18-0.33-0.76
	c0-0.26,0.04-0.62,0.2-1.23H2.4 M1.16,112.16c0.11-0.4,0.23-0.89,0.48-1.33c0.17-0.3,0.4-0.65,0.68-0.65c0.3,0,0.34,0.4,0.34,0.75
	c0,0.3-0.05,0.62-0.2,1.23H1.16z M3.06,111.31c0-0.41-0.11-1.27-0.74-1.27c-0.86,0-1.82,1.75-1.82,3.17c0,0.58,0.18,1.27,0.74,1.27
	C2.12,114.47,3.06,112.7,3.06,111.31z"/>
<g>
	<g>
		<line class="st1" x1="77.68" y1="11.45" x2="77.68" y2="20.75"/>
		<g>
			<path class="st3" d="M77.68,23.77c-0.53-1.42-1.43-3.18-2.38-4.27l2.38,0.86l2.38-0.86C79.1,20.59,78.2,22.35,77.68,23.77z"/>
		</g>
	</g>
</g>
<path class="st2" d="M17.4,112.45c-0.07,0.28-0.2,0.81-0.43,1.26c-0.22,0.42-0.45,0.73-0.72,0.73c-0.2,0-0.33-0.18-0.33-0.76
	c0-0.26,0.04-0.62,0.2-1.23H17.4 M16.16,112.26c0.11-0.4,0.23-0.89,0.48-1.33c0.17-0.3,0.4-0.65,0.68-0.65c0.3,0,0.34,0.4,0.34,0.75
	c0,0.3-0.05,0.62-0.2,1.23H16.16z M18.06,111.41c0-0.41-0.11-1.27-0.74-1.27c-0.86,0-1.82,1.75-1.82,3.17
	c0,0.58,0.18,1.27,0.74,1.27C17.12,114.57,18.06,112.79,18.06,111.41z"/>
<path class="st2" d="M29.16,112.67c-0.07,0.28-0.2,0.81-0.43,1.26c-0.22,0.42-0.45,0.73-0.72,0.73c-0.2,0-0.33-0.18-0.33-0.76
	c0-0.26,0.04-0.62,0.2-1.23H29.16 M27.92,112.47c0.11-0.4,0.23-0.89,0.48-1.33c0.17-0.3,0.4-0.65,0.68-0.65
	c0.3,0,0.34,0.4,0.34,0.75c0,0.3-0.05,0.62-0.2,1.23H27.92z M29.82,111.62c0-0.41-0.11-1.27-0.74-1.27c-0.86,0-1.82,1.75-1.82,3.17
	c0,0.58,0.18,1.27,0.74,1.27C28.88,114.79,29.82,113.01,29.82,111.62z"/>
<path class="st2" d="M43.72,112.77c-0.07,0.28-0.2,0.81-0.43,1.26c-0.22,0.42-0.45,0.73-0.72,0.73c-0.2,0-0.33-0.18-0.33-0.76
	c0-0.26,0.04-0.62,0.2-1.23H43.72 M42.48,112.57c0.11-0.4,0.23-0.89,0.48-1.33c0.17-0.3,0.4-0.65,0.68-0.65
	c0.3,0,0.34,0.4,0.34,0.75c0,0.3-0.05,0.62-0.2,1.23H42.48z M44.38,111.72c0-0.41-0.11-1.27-0.74-1.27c-0.86,0-1.82,1.75-1.82,3.17
	c0,0.58,0.18,1.27,0.74,1.27C43.44,114.89,44.38,113.11,44.38,111.72z"/>
<path class="st2" d="M70.14,113.17c-0.07,0.28-0.2,0.81-0.43,1.26c-0.22,0.42-0.45,0.73-0.72,0.73c-0.2,0-0.33-0.18-0.33-0.76
	c0-0.26,0.04-0.62,0.2-1.23H70.14 M68.9,112.97c0.11-0.4,0.23-0.89,0.48-1.33c0.17-0.3,0.4-0.65,0.68-0.65c0.3,0,0.34,0.4,0.34,0.75
	c0,0.3-0.05,0.62-0.2,1.23H68.9z M70.81,112.12c0-0.41-0.11-1.27-0.74-1.27c-0.86,0-1.82,1.75-1.82,3.17c0,0.58,0.18,1.27,0.74,1.27
	C69.86,115.29,70.81,113.51,70.81,112.12z"/>
<path class="st2" d="M55.91,112.85c-0.07,0.28-0.2,0.81-0.43,1.26c-0.22,0.42-0.45,0.73-0.72,0.73c-0.2,0-0.33-0.18-0.33-0.76
	c0-0.26,0.04-0.62,0.2-1.23H55.91 M54.68,112.65c0.11-0.4,0.23-0.89,0.48-1.33c0.17-0.3,0.4-0.65,0.68-0.65
	c0.3,0,0.34,0.4,0.34,0.75c0,0.3-0.05,0.62-0.2,1.23H54.68z M56.58,111.8c0-0.41-0.11-1.27-0.74-1.27c-0.86,0-1.82,1.75-1.82,3.17
	c0,0.58,0.18,1.27,0.74,1.27C55.64,114.97,56.58,113.19,56.58,111.8z"/>
<path class="st2" d="M82.67,113.07c-0.07,0.28-0.2,0.81-0.43,1.26c-0.22,0.42-0.45,0.73-0.72,0.73c-0.2,0-0.33-0.18-0.33-0.76
	c0-0.26,0.04-0.62,0.2-1.23H82.67 M81.44,112.87c0.11-0.4,0.23-0.89,0.48-1.33c0.17-0.3,0.4-0.65,0.68-0.65
	c0.3,0,0.34,0.4,0.34,0.75c0,0.3-0.05,0.62-0.2,1.23H81.44z M83.34,112.02c0-0.41-0.11-1.27-0.74-1.27c-0.86,0-1.82,1.75-1.82,3.17
	c0,0.58,0.18,1.27,0.74,1.27C82.4,115.19,83.34,113.41,83.34,112.02z"/>
<path class="st2" d="M97.46,113.17c-0.07,0.28-0.2,0.81-0.43,1.26c-0.22,0.42-0.45,0.73-0.72,0.73c-0.2,0-0.33-0.18-0.33-0.76
	c0-0.26,0.04-0.62,0.2-1.23H97.46 M96.22,112.97c0.11-0.4,0.23-0.89,0.48-1.33c0.17-0.3,0.4-0.65,0.68-0.65
	c0.3,0,0.34,0.4,0.34,0.75c0,0.3-0.05,0.62-0.2,1.23H96.22z M98.12,112.12c0-0.41-0.11-1.27-0.74-1.27c-0.86,0-1.82,1.75-1.82,3.17
	c0,0.58,0.18,1.27,0.74,1.27C97.18,115.29,98.12,113.51,98.12,112.12z"/>
<path class="st2" d="M109.43,113.17c-0.07,0.28-0.2,0.81-0.43,1.26c-0.22,0.42-0.45,0.73-0.72,0.73c-0.2,0-0.33-0.18-0.33-0.76
	c0-0.26,0.04-0.62,0.2-1.23H109.43 M108.2,112.97c0.11-0.4,0.23-0.89,0.48-1.33c0.17-0.3,0.4-0.65,0.68-0.65
	c0.3,0,0.34,0.4,0.34,0.75c0,0.3-0.05,0.62-0.2,1.23H108.2z M110.1,112.12c0-0.41-0.11-1.27-0.74-1.27c-0.86,0-1.82,1.75-1.82,3.17
	c0,0.58,0.18,1.27,0.74,1.27C109.16,115.29,110.1,113.51,110.1,112.12z"/>
<path class="st2" d="M123.64,113.27c-0.07,0.28-0.2,0.81-0.43,1.26c-0.22,0.42-0.45,0.73-0.72,0.73c-0.2,0-0.33-0.18-0.33-0.76
	c0-0.26,0.04-0.62,0.2-1.23H123.64 M122.4,113.07c0.11-0.4,0.23-0.89,0.48-1.33c0.17-0.3,0.4-0.65,0.68-0.65
	c0.3,0,0.34,0.4,0.34,0.75c0,0.3-0.05,0.62-0.2,1.23H122.4z M124.3,112.22c0-0.41-0.11-1.27-0.74-1.27c-0.86,0-1.82,1.75-1.82,3.17
	c0,0.58,0.18,1.27,0.74,1.27C123.36,115.39,124.3,113.61,124.3,112.22z"/>
<path class="st2" d="M136.19,113.17c-0.07,0.28-0.2,0.81-0.43,1.26c-0.22,0.42-0.45,0.73-0.72,0.73c-0.2,0-0.33-0.18-0.33-0.76
	c0-0.26,0.04-0.62,0.2-1.23H136.19 M134.96,112.97c0.11-0.4,0.23-0.89,0.48-1.33c0.17-0.3,0.4-0.65,0.68-0.65
	c0.3,0,0.34,0.4,0.34,0.75c0,0.3-0.05,0.62-0.2,1.23H134.96z M136.86,112.12c0-0.41-0.11-1.27-0.74-1.27
	c-0.86,0-1.82,1.75-1.82,3.17c0,0.58,0.18,1.27,0.74,1.27C135.92,115.29,136.86,113.51,136.86,112.12z"/>
<path class="st2" d="M150.5,113.27c-0.07,0.28-0.2,0.81-0.43,1.26c-0.22,0.42-0.45,0.73-0.72,0.73c-0.2,0-0.33-0.18-0.33-0.76
	c0-0.26,0.04-0.62,0.2-1.23H150.5 M149.26,113.07c0.11-0.4,0.23-0.89,0.48-1.33c0.17-0.3,0.4-0.65,0.68-0.65
	c0.3,0,0.34,0.4,0.34,0.75c0,0.3-0.05,0.62-0.2,1.23H149.26z M151.16,112.22c0-0.41-0.11-1.27-0.74-1.27
	c-0.86,0-1.82,1.75-1.82,3.17c0,0.58,0.18,1.27,0.74,1.27C150.22,115.39,151.16,113.61,151.16,112.22z"/>
<path class="st2" d="M78.31,2.71c0.75,0.04,1.32,0.5,1.32,1.37c0,1.17-0.85,2.59-2.35,2.71L78.31,2.71 M77.03,6.79
	c-0.6-0.03-1.31-0.38-1.31-1.37c0-1.19,0.85-2.58,2.33-2.71L77.03,6.79z M78.93,0.24c0-0.02,0.03-0.13,0.03-0.14
	c0-0.01,0-0.1-0.12-0.1c-0.1,0-0.11,0.03-0.15,0.2l-0.58,2.3c-1.58,0.05-3.04,1.37-3.04,2.72c0,0.94,0.7,1.73,1.91,1.8
	c-0.08,0.31-0.15,0.63-0.23,0.93c-0.12,0.47-0.22,0.84-0.22,0.87c0,0.1,0.07,0.11,0.12,0.11c0.05,0,0.07-0.01,0.1-0.04
	c0.02-0.02,0.08-0.26,0.11-0.4l0.38-1.48c1.6-0.05,3.04-1.39,3.04-2.72c0-0.78-0.53-1.7-1.91-1.8L78.93,0.24z"/>
</svg>
