<svg id="Layer_1" data-name="Layer 1" xmlns="http://www.w3.org/2000/svg" viewBox="0 0 195.23 156.76"><defs><style>.cls-1{fill:#fd46fc;}.cls-2{fill:#486afb;}</style></defs><path class="cls-1" d="M58.62,73c.1,1.07.19,2.14.29,3.21,0,.53.09,1.05.15,1.58s0,1.33.58,1.71a.64.64,0,0,0,.76-.12c.43-.45.28-1.15.23-1.72s-.09-1-.15-1.52c-.11-1-.21-2.11-.31-3.16a.76.76,0,0,0-.76-.75.79.79,0,0,0-.79.77Z"/><path class="cls-1" d="M58.72,73.27a4.68,4.68,0,0,1,5.54,1,3.29,3.29,0,0,1,1,2.62c-.18.86-1.34,1.37-2.08,1.65a10.72,10.72,0,0,1-3.56.49.66.66,0,0,0-.19,1.28,6.12,6.12,0,0,0,4-.26,5,5,0,0,0,3.11-2.47,3.88,3.88,0,0,0-1-3.69A6.15,6.15,0,0,0,62.54,72a5.92,5.92,0,0,0-4.31.46c-.58.3-.09,1.13.49.85Z"/><path class="cls-1" d="M67.57,78.29l.28,1.29c.05.21.09.42.15.63s.06.21.1.31a1.64,1.64,0,0,0,.24.43.71.71,0,0,0,.78.32.78.78,0,0,0,.33-.19.75.75,0,0,0,.21-.49,2,2,0,0,0,0-.34,3.62,3.62,0,0,0-.06-.46q0-.33-.12-.66l-.28-1.29a.84.84,0,0,0-1-.59.89.89,0,0,0-.63,1Z"/><path class="cls-1" d="M67.87,74.88a.62.62,0,0,0,.19,0l.14,0,.13,0a.59.59,0,0,0,.28-.26.34.34,0,0,0,0-.26.29.29,0,0,0-.16-.21l-.1,0,.08,0A.76.76,0,0,0,68.3,74a.7.7,0,0,0-.25,0l-.08,0-.13.06a.94.94,0,0,0-.12.09l.09-.07-.1.07.09-.06a.76.76,0,0,0-.2.2.53.53,0,0,0-.08.17.47.47,0,0,0,0,.17.27.27,0,0,0,.06.17.43.43,0,0,0,.28.21l.06,0a.69.69,0,0,0,.32,0l.14,0,.15,0h0a.45.45,0,0,0,.23-.13l.08-.1,0,0a.3.3,0,0,0,0-.16.43.43,0,0,0,0-.16l0-.11a.36.36,0,0,0-.15-.15.46.46,0,0,0-.34-.09h-.14l-.15,0-.14,0-.13.06,0,0-.06,0,.63.16s0,0,0,0l0,.11s0,0,0,0v.16a0,0,0,0,1,0,0l0,.1,0,0-.06.07s0,0,0,0l-.08.06,0,0-.09,0,.05,0-.09,0h0l-.08,0h0L68,74.23v0l.06-.08,0,.06.07-.06-.07,0,.09,0-.08,0h.06a.33.33,0,0,0-.14,0,.25.25,0,0,0-.14,0,.41.41,0,0,0-.17.22.36.36,0,0,0,0,.27.37.37,0,0,0,.22.17Z"/><path class="cls-1" d="M73.36,76.36a4.49,4.49,0,0,0-1.57,1,.53.53,0,0,0-.09.61,3.21,3.21,0,0,0,1.63,1.36c.33.14.68.26,1,.41a2.84,2.84,0,0,1,.51.28,1.43,1.43,0,0,1,.14.13s0,0,0,0,0,0,0-.06,0-.23,0-.1c0-.07,0-.08,0,0s-.06,0,0,0a1.13,1.13,0,0,1-.21.12c.16-.07-.07,0-.11,0a6.23,6.23,0,0,1-1.07.17q-.61.06-1.23.06a2.76,2.76,0,0,0-1.4.14.51.51,0,0,0-.19.69,1.65,1.65,0,0,0,1.14.54,6,6,0,0,0,1.2.07,5.65,5.65,0,0,0,2.29-.5A1.24,1.24,0,0,0,76,79.36a4.29,4.29,0,0,0-1.89-1,2.43,2.43,0,0,1-1.5-1l-.09.61a3.14,3.14,0,0,1,1.08-.68.54.54,0,0,0,.39-.63.51.51,0,0,0-.63-.36Z"/><path class="cls-1" d="M76.9,79.61a4.75,4.75,0,0,0,3.82,0,1.3,1.3,0,0,0,.78-1.44,1.74,1.74,0,0,0-1-1.13,2.37,2.37,0,0,0-2.78.72,2.31,2.31,0,0,0,.33,3.08,3.06,3.06,0,0,0,1.9.7,3.94,3.94,0,0,0,2.3-.58A.6.6,0,0,0,82,79.88a13,13,0,0,0-1.46.17,4.43,4.43,0,0,1-.63,0h-.14c-.12,0,.09,0,0,0L79.39,80l-.13,0h0L79,79.81c-.11-.06-.06,0,0,0l-.11-.09a.47.47,0,0,0-.1-.1c-.11-.12,0,.07,0-.07a1.3,1.3,0,0,1-.22-.83,1.17,1.17,0,0,1,1.28-1,.91.91,0,0,1,.77.47.41.41,0,0,1,0,.26.59.59,0,0,1-.06.08,1.24,1.24,0,0,1-.22.12,4.07,4.07,0,0,1-2.73-.06.66.66,0,0,0-.86.24.62.62,0,0,0,.22.85Z"/><path class="cls-1" d="M86.83,77.51a3.83,3.83,0,0,0-2.24-.24,2,2,0,0,0-1.49,1.58,2.11,2.11,0,0,0,1,2.16,2.38,2.38,0,0,0,2.56-.16,2.57,2.57,0,0,0,.95-2.6.58.58,0,0,0-.65-.42.62.62,0,0,0-.53.58,2.88,2.88,0,0,0,.5,2,2.28,2.28,0,0,0,2,1.07.69.69,0,0,0,.62-.46.61.61,0,0,0-.29-.69c-.12,0-.23-.12-.35-.18l-.17-.07c.07,0,.06,0,0,0L88.54,80l-.17-.11s-.13-.08-.05,0a2.68,2.68,0,0,1-.3-.28s-.14-.17-.07-.07l-.09-.14a2.68,2.68,0,0,1-.18-.33c0,.09,0-.1,0-.1a1.17,1.17,0,0,1-.05-.2s0-.18,0-.11,0-.17,0-.12l-1.17-.14a1.65,1.65,0,0,1-.18.91,1,1,0,0,1-.22.31l-.11.1c.06,0,.05,0,0,0a1.38,1.38,0,0,1-.24.14l-.12,0s-.24,0-.14,0h-.28c.09,0-.15,0-.17,0a1,1,0,0,1-.6-.4.93.93,0,0,1,.33-1.34,2.62,2.62,0,0,1,2,.14.43.43,0,0,0,.51-.3.4.4,0,0,0-.28-.5Z"/><path class="cls-1" d="M92.23,77a7.35,7.35,0,0,0-1,.38,1.28,1.28,0,0,0-.73.56c-.31.73.74,1.14,1.22,1.43l1,.58a2,2,0,0,1,.67.49c.1.13.08.22-.06.32l-.11,0h0l-.08,0-.21.06-.1,0H92.7a4.43,4.43,0,0,1-.52,0,1.92,1.92,0,0,1-.41,0,4.05,4.05,0,0,1-.5-.12,2.24,2.24,0,0,0-.57-.13c-.26,0-.54.28-.44.56a1.46,1.46,0,0,0,.81.75,2.87,2.87,0,0,0,1.12.22,2.38,2.38,0,0,0,1.94-.88,1.25,1.25,0,0,0-.42-1.71,8.55,8.55,0,0,0-.91-.56l-1-.58a5.14,5.14,0,0,0-.51-.29c-.05,0-.05-.09-.05,0s0,0,.09,0a5.6,5.6,0,0,1,1.12-.42c.5-.13.31-.91-.19-.76Z"/><path class="cls-1" d="M96.16,79.53a11.38,11.38,0,0,0,2.4.26,6.12,6.12,0,0,0,2.36-.37,1.31,1.31,0,0,0,.8-1.62,2.15,2.15,0,0,0-1.52-1.27,3.29,3.29,0,0,0-3.75,1.12A2.59,2.59,0,0,0,97,81.18c1.46,1.22,3.42.91,5.06.27a.61.61,0,0,0,.45-.64.56.56,0,0,0-.58-.51,7.88,7.88,0,0,1-3.45.08,2.26,2.26,0,0,1-1-.65,1.46,1.46,0,0,1-.33-1.09,1.92,1.92,0,0,1,2.12-1.51,2.22,2.22,0,0,1,1.47.54.67.67,0,0,1,.21.55c0,.21-.21.26-.4.3a8.66,8.66,0,0,1-4.08.07c-.61-.15-.9.81-.27.94Z"/><path class="cls-1" d="M53.83,68.92c-.33,4.93-.51,9.87-.57,14.82,0,1.61-.54,4.33,1.63,4.73a19.08,19.08,0,0,0,3.38.12l3.73,0c9.86,0,19.72-.2,29.58-.25,5.56,0,11.1.05,16.65.29a.6.6,0,0,0,.58-.73,39,39,0,0,1-1.53-10.32c-.09-1.74-.17-3.48-.27-5.23a30.88,30.88,0,0,0-.58-5.06.49.49,0,0,0-.88-.1c-.24.4-1.35.29-1.75.31l-2.37.09c-1.41.06-2.82.11-4.23.14q-4.35.12-8.7.19c-5.8.12-11.6.27-17.41.42-3.32.08-6.63.23-10,.43-.67,0-.72,1,0,1,12.16-.07,24.3-.91,36.44-1.35l5.1-.16c.8,0,1.6,0,2.39,0a1.51,1.51,0,0,0,1.33-.63l-.88-.11a47,47,0,0,1,.72,5.27c.11,1.75.09,3.49.11,5.24a34.2,34.2,0,0,0,1.34,10.16l.58-.73c-9.47-.48-19-.35-28.45-.17-4.73.09-9.45.23-14.18.26q-3.54,0-7.08,0a22.42,22.42,0,0,1-3.38-.07c-1.22-.22-1-1.62-1-2.56,0-5.36.16-10.72.41-16.07,0-.48-.71-.46-.74,0Z"/><path class="cls-1" d="M67.5,144.81c1.25-.18,2.52-.31,3.79-.39s2.54,0,3.8-.16c.41,0,.63-.71.12-.79a19.54,19.54,0,0,0-3.9-.06c-1.32.06-2.63.18-3.93.35a.53.53,0,1,0,.12,1.05Z"/><path class="cls-1" d="M69.67,145.52a20.83,20.83,0,0,1,.82,3.66c.07.6.1,1.2.12,1.81a4.92,4.92,0,0,0,.17,1.88c.17.37.69.28.88,0a4,4,0,0,0,.28-1.88,16.66,16.66,0,0,0-.14-2,17.21,17.21,0,0,0-.85-3.81c-.27-.79-1.54-.44-1.28.35Z"/><path class="cls-1" d="M74.52,151.16a5.59,5.59,0,0,0,1.87.11,4.2,4.2,0,0,0,1.76-.5,1,1,0,0,0,.48-1.45,2.37,2.37,0,0,0-1.38-.86,3,3,0,0,0-3,.83,2.39,2.39,0,0,0-.64,1.48,2.11,2.11,0,0,0,.59,1.51,2.78,2.78,0,0,0,1.66.85,6.21,6.21,0,0,0,2.27-.19.52.52,0,0,0-.12-1,14.93,14.93,0,0,1-1.5.06,3.61,3.61,0,0,1-.66-.08,1.77,1.77,0,0,1-.49-.17,2,2,0,0,1-.39-.26,1.13,1.13,0,0,1-.32-.4,1.12,1.12,0,0,1,0-.93,1.91,1.91,0,0,1,1.89-1,2.17,2.17,0,0,1,1.11.35c.09.06.31.18.31.3s-.16.19-.25.23a4.41,4.41,0,0,1-3,.34c-.54-.12-.8.72-.24.84Z"/><path class="cls-1" d="M82.69,147.79a3.43,3.43,0,0,0-2.8,1.38.54.54,0,0,0,.19.74c.63.39,1.24.8,1.86,1.22.32.21.64.42,1,.65.06,0,.14.16.2.18v0a.13.13,0,0,1,0-.12c0-.07.06-.05,0,0a5.41,5.41,0,0,1-1.75.59,8.65,8.65,0,0,1-.89.09,2.09,2.09,0,0,0-1.11.17.52.52,0,0,0-.12.82,1.75,1.75,0,0,0,1.33.27,7.19,7.19,0,0,0,1.3-.21,7.3,7.3,0,0,0,1.18-.44,2.53,2.53,0,0,0,1-.69,1,1,0,0,0-.08-1.21,3.78,3.78,0,0,0-1-.74c-.78-.51-1.56-1-2.32-1.56l.11.85a2.42,2.42,0,0,1,1.92-.92.55.55,0,0,0,0-1.1Z"/><path class="cls-1" d="M86.79,146.59a27.46,27.46,0,0,0,.27,3.63,10.51,10.51,0,0,0,.94,3.49.61.61,0,0,0,1.12-.31,33.87,33.87,0,0,0-.59-3.44,27.24,27.24,0,0,1-.33-3.38.71.71,0,0,0-1.41,0Z"/><path class="cls-1" d="M84.68,150.62a43.44,43.44,0,0,0,4.42,0c.74,0,1.48-.1,2.21-.17a13,13,0,0,0,2.15-.34.43.43,0,0,0-.1-.84,20.27,20.27,0,0,0-2.2.12c-.7,0-1.41.07-2.12.08-1.45,0-2.9,0-4.34-.08a.63.63,0,0,0,0,1.25Z"/><path class="cls-1" d="M63.63,142.87q.27,3.4.53,6.81l.25,3.46a6.4,6.4,0,0,0,.43,2.42,2.11,2.11,0,0,0,1.8,1.16c1.06.1,2.16,0,3.23,0,2.28,0,4.57,0,6.85,0l13.69-.14c2.22,0,4.45,0,6.66-.06a2.72,2.72,0,0,0,1.93-.66c.61-.69.29-1.56,0-2.28a65.48,65.48,0,0,1-2.56-6.7,18.87,18.87,0,0,1-1.14-7.05c0-.56-.83-.53-.87,0,0,.3-3.25.4-3.62.42-1.32.1-2.65.18-4,.25q-3.92.23-7.83.31t-7.83.07c-2.65,0-5.31-.16-8-.1a.41.41,0,0,0,0,.81c2.22.2,4.48.19,6.71.2s4.48,0,6.71,0c4.44-.1,8.87-.3,13.3-.63l3.72-.27c.71-.06,1.57-.16,1.65-1h-.87a24,24,0,0,0,2.22,10.9c.37.89.74,1.76,1.1,2.64a4.75,4.75,0,0,1,.44,1.35c0,.46-.23.66-.63.78a11.38,11.38,0,0,1-2.86.11H91.55L79,155.68c-2.08,0-4.15,0-6.23.08-1.07,0-2.15.05-3.23.06a14.33,14.33,0,0,1-2.93,0c-1.07-.22-1.16-1.35-1.25-2.26-.12-1.16-.23-2.31-.34-3.47q-.33-3.58-.65-7.17c0-.45-.75-.44-.72,0Z"/><path class="cls-2" d="M79.47,92.75c0,2.83-.11,5.67,0,8.5s.29,5.66.49,8.49c.39,5.56.57,11.15.53,16.72,0,1.56-.06,3.12-.14,4.67a27.75,27.75,0,0,0-.1,4.82c.07.6,1,.48,1.13,0a15.89,15.89,0,0,0,.39-4.07c0-1.44,0-2.87,0-4.3,0-2.83-.18-5.65-.31-8.48-.26-5.58-.79-11.15-1-16.73-.11-3.21-.31-6.4-.32-9.6a.37.37,0,0,0-.74,0Z"/><path class="cls-2" d="M76.53,132.26c.73.8,1.45,1.59,2.2,2.37a20.49,20.49,0,0,0,2.36,2.2.45.45,0,0,0,.57,0,.44.44,0,0,0,.12-.56,19.65,19.65,0,0,0-2.08-2.57c-.73-.81-1.48-1.6-2.24-2.39a.66.66,0,0,0-.92,0,.65.65,0,0,0,0,.91Z"/><path class="cls-2" d="M81.56,136.45c.77-.74,1.52-1.5,2.22-2.3q.52-.59,1-1.2a3.34,3.34,0,0,0,.86-1.5c.06-.39-.41-.5-.68-.38a2,2,0,0,0-.62.51c-.17.19-.34.38-.5.58l-1,1.19c-.69.78-1.39,1.53-2.13,2.26a.62.62,0,0,0,0,.86.64.64,0,0,0,.87,0Z"/><path class="cls-2" d="M87.48,110.47a26.32,26.32,0,0,0,3.87-.07c.63-.06,1.25-.14,1.87-.24a5,5,0,0,0,1.9-.55c.27-.18.3-.7-.09-.76a6.41,6.41,0,0,0-1.8.14c-.64.08-1.28.16-1.93.21a28.34,28.34,0,0,1-3.8,0,.63.63,0,0,0,0,1.26Z"/><path class="cls-2" d="M89.58,111.44a19.9,19.9,0,0,1-.21,2.78l-.18,1.34a7.83,7.83,0,0,0-.2,1.36.35.35,0,0,0,.6.23,4.62,4.62,0,0,0,.72-1.35,7.65,7.65,0,0,0,.43-1.36,11.77,11.77,0,0,0,.22-3,.69.69,0,0,0-1.38,0Z"/><path class="cls-2" d="M87.6,117.54c1-.08,2-.17,3-.3a14.42,14.42,0,0,0,3-.53c.37-.13.5-.77,0-.86a14,14,0,0,0-3,0c-1,0-2,.11-3,.19a.84.84,0,0,0-.81.78.77.77,0,0,0,.78.77Z"/><path class="cls-2" d="M95.68,116.86a2.18,2.18,0,0,0-.22-.21.66.66,0,0,1-.17-.23.7.7,0,0,1-.09-.24.69.69,0,0,1,0-.29,1.58,1.58,0,0,1,.06-.26l.05-.12a1.3,1.3,0,0,1,.1-.15l.07-.08a1.14,1.14,0,0,1,.11-.11l.07-.06h0l.15-.09.08-.05H96l.07,0,.17,0c-.07,0,.07,0,.1,0h.12c-.06,0,0,0,0,0l.07,0,.08,0s-.07,0,0,0,.16.09.08,0l.12.1s.07.08,0,0,0,0,0,0,.06.09.09.15,0,.07,0,0,0,0,0,.07a1.59,1.59,0,0,1,.06.3c0,.1,0,0,0,0v.09a1.09,1.09,0,0,1,0,.18c0,.31,0,.61,0,.91,0,.14,0,.29,0,.44a1.42,1.42,0,0,0,.23.62.5.5,0,0,0,.57.23.52.52,0,0,0,.39-.49,5.63,5.63,0,0,0,0-.58h0a.45.45,0,0,1,0-.11,2.53,2.53,0,0,1,0-.28c0-.33,0-.67-.06-1a2,2,0,0,0-.91-1.52,1.87,1.87,0,0,0-1.82.09,2.18,2.18,0,0,0-1,1.57,1.68,1.68,0,0,0,.89,1.78.44.44,0,0,0,.48-.2.41.41,0,0,0-.07-.5Z"/><path class="cls-2" d="M102.77,111.69a1.3,1.3,0,0,0-1.62-.23,2,2,0,0,0-.93,1.74,7.77,7.77,0,0,0,.4,2.19c.11.38.22.75.32,1.13s.15.75.27,1.11a.47.47,0,0,0,.89,0c.36-1.22-.4-2.51-.68-3.67a2.31,2.31,0,0,1,0-1.49c.14-.29.55-.47.79-.2a.42.42,0,0,0,.58,0,.41.41,0,0,0,0-.57Z"/><path class="cls-2" d="M100.06,116.12c1.29-.2,2.57-.42,3.84-.7a.48.48,0,0,0-.11-.94c-1.3,0-2.59.14-3.88.26a.74.74,0,0,0-.72.8.7.7,0,0,0,.87.58Z"/><path class="cls-2" d="M104.23,112.7c.19.94.34,1.89.46,2.84s.16,1.89.34,2.82a.47.47,0,0,0,.9,0,12,12,0,0,0,0-3,28,28,0,0,0-.44-3,.66.66,0,0,0-.81-.46.69.69,0,0,0-.49.81Z"/><path class="cls-2" d="M106.24,116a3.4,3.4,0,0,0,2,1.63,1.59,1.59,0,0,0,1.52-.21,1.41,1.41,0,0,0,.26-1.53,7,7,0,0,0-.59-1.68.49.49,0,0,0-.9.24,6.63,6.63,0,0,0,.27,1.71,1.06,1.06,0,0,0,0,.19,1.22,1.22,0,0,1,0,.17c0-.09,0-.11,0,0v.08c0,.07,0,0,0,0s0,0,0,.07,0-.1,0,0,.08-.1,0-.06l.06,0,.07,0-.06,0H109a.48.48,0,0,0-.12,0c-.16,0,.12,0,0,0a.58.58,0,0,1-.14,0l-.15,0-.08,0,0,0-.27-.13c-.09,0-.18-.13-.27-.17l0,0-.06,0-.12-.1-.21-.22,0-.06c.07.09.08.11,0,0l-.09-.13a1.82,1.82,0,0,1-.15-.27.7.7,0,0,0-.95-.24.71.71,0,0,0-.27.94Z"/><path class="cls-2" d="M111.47,117a6.63,6.63,0,0,0,1.78,0,3.94,3.94,0,0,0,1.51-.44,1.37,1.37,0,0,0,.73-1.12,1.28,1.28,0,0,0-.81-1.1,2,2,0,0,0-2.56.54,1.91,1.91,0,0,0,.85,2.58c1.2.64,2.69.22,3.93-.09.41-.1.47-.76,0-.85a18.68,18.68,0,0,0-2.59,0,1.46,1.46,0,0,1-1.4-.81c-.22-.63.4-.92.94-.82a1,1,0,0,1,.76.41c.11.22-.09.42-.26.54a3,3,0,0,1-1.2.39,5.38,5.38,0,0,1-1.5,0,.41.41,0,0,0-.46.26.35.35,0,0,0,.26.44Z"/><path class="cls-2" d="M117.09,116.9a2.34,2.34,0,0,0,.54.94c.34.36.89,0,.81-.47-.12-.61-.53-1.29-.36-1.91a.94.94,0,0,1,.15-.32c.08-.11,0,0,.06-.07s.14-.13.08-.09a1,1,0,0,1,.17-.1c-.11.05.14,0,0,0s.19,0,.13,0l.09,0s0,0,0,0,.16.11.09,0a.93.93,0,0,1,.14.14s0,0,0,0l.06.08.1.18,0,.12.06.14a4.05,4.05,0,0,1,.12.47c.17.72.29,1.46.51,2.16a.49.49,0,0,0,.45.34.49.49,0,0,0,.47-.35,5,5,0,0,0-.2-2.16,4.31,4.31,0,0,0-.84-1.65,1.42,1.42,0,0,0-1.68-.39,1.84,1.84,0,0,0-.93,1.34,5.88,5.88,0,0,0,.28,2.24l.8-.46a1.5,1.5,0,0,1-.35-.5.46.46,0,0,0-.54-.31.47.47,0,0,0-.33.55Z"/><path class="cls-2" d="M123.11,115a2.21,2.21,0,0,0-.6,2.25,2.62,2.62,0,0,0,1.9,1.76,3.46,3.46,0,0,0,.78.09,2.22,2.22,0,0,0,.45,0,2.35,2.35,0,0,0,.44-.17.59.59,0,0,0-.13-1.07c-.25,0-.5-.07-.75-.09h0l-.18,0-.31-.07-.29-.09.06,0-.06,0-.16-.08-.11-.07-.07,0,0,0-.22-.21c-.09-.09.08.13,0,0l-.08-.12-.06-.12c-.08-.14,0,.11,0,0a1.34,1.34,0,0,1-.07-.27s0,0,0-.08,0,0,0,0v-.12s0-.22,0-.27,0,.1,0,0a.24.24,0,0,1,0-.08s0-.1,0-.1,0,.08,0,0l0-.07.06-.09c0-.06,0,0,0,0a.12.12,0,0,1,0-.05.57.57,0,0,1,.11-.11.58.58,0,0,0,0-.8.61.61,0,0,0-.82,0Z"/><path class="cls-2" d="M127.39,116.9c1.12.43,2.87.75,3.66-.4a1.11,1.11,0,0,0-.28-1.61,1.94,1.94,0,0,0-1.32-.36,2.44,2.44,0,0,0-2.13,1.75,3,3,0,0,0,1,3,3.72,3.72,0,0,0,4.15.19.57.57,0,0,0-.42-1,4,4,0,0,1-2.47.08,2.13,2.13,0,0,1-1.36-1.45,1.37,1.37,0,0,1,.73-1.6,1.32,1.32,0,0,1,.87-.14c.29.06.63.27.54.61s-.74.42-1.07.45a4.14,4.14,0,0,1-1.71-.18.41.41,0,0,0-.49.28.39.39,0,0,0,.27.48Z"/><path class="cls-2" d="M122.23,50.26a27.75,27.75,0,0,0,3.87-.08c.63,0,1.25-.13,1.87-.23a5,5,0,0,0,1.9-.55c.27-.18.3-.71-.09-.77a6.41,6.41,0,0,0-1.8.14c-.64.09-1.28.17-1.92.22a28.5,28.5,0,0,1-3.81,0c-.81-.06-.85,1.22,0,1.26Z"/><path class="cls-2" d="M124.33,51.22a20,20,0,0,1-.21,2.79l-.18,1.34a9,9,0,0,0-.2,1.35.35.35,0,0,0,.6.24,4.68,4.68,0,0,0,.72-1.36,7.17,7.17,0,0,0,.43-1.36,11.27,11.27,0,0,0,.22-3,.69.69,0,0,0-1.38,0Z"/><path class="cls-2" d="M122.35,57.33c1-.09,2-.18,3-.3a15.11,15.11,0,0,0,3-.53c.38-.14.5-.78,0-.86a14,14,0,0,0-3-.06c-1,0-2,.12-3,.2a.82.82,0,0,0-.8.78.76.76,0,0,0,.77.77Z"/><path class="cls-2" d="M130.44,56.65c-.07-.08-.16-.14-.23-.22a.6.6,0,0,1-.17-.23A.73.73,0,0,1,130,56a.75.75,0,0,1,0-.3,1.58,1.58,0,0,1,.06-.26l0-.11c0-.06.07-.11.1-.16s.06-.06.07-.07l.11-.11.07-.06s-.06,0,0,0l.15-.1a.2.2,0,0,0,.08,0h0l0,0,.07,0,.17,0c-.07,0,.07,0,.1,0h.23l.08,0s-.07,0,0,0,.16.1.09,0l.11.11,0,0s0,0,0,0l.09.15s0,.07,0,0,0,0,0,.06a2.82,2.82,0,0,1,.07.31c0,.1,0,0,0,0v.09a1.09,1.09,0,0,1,0,.18c0,.3,0,.6-.05.91,0,.14,0,.29,0,.43a1.6,1.6,0,0,0,.23.63.53.53,0,0,0,.57.23.55.55,0,0,0,.4-.5c0-.19,0-.38,0-.57,0,0,0,.1,0,0a.37.37,0,0,1,0-.11,2.44,2.44,0,0,1,0-.27c0-.34,0-.67-.06-1A2,2,0,0,0,132,53.9a1.87,1.87,0,0,0-1.82.1,2.21,2.21,0,0,0-1,1.56,1.7,1.7,0,0,0,.89,1.79.43.43,0,0,0,.48-.21.41.41,0,0,0-.06-.49Z"/><path class="cls-2" d="M137.53,51.47a1.35,1.35,0,0,0-1.63-.23A2,2,0,0,0,135,53a7.83,7.83,0,0,0,.4,2.19c.11.37.22.75.32,1.13s.15.74.27,1.11a.47.47,0,0,0,.9,0c.35-1.21-.4-2.5-.69-3.66a2.31,2.31,0,0,1,0-1.49.49.49,0,0,1,.79-.2.42.42,0,0,0,.59-.59Z"/><path class="cls-2" d="M134.81,55.9c1.29-.19,2.57-.41,3.84-.7a.47.47,0,0,0-.11-.93c-1.29,0-2.59.14-3.88.26a.74.74,0,0,0-.72.8.69.69,0,0,0,.87.57Z"/><path class="cls-2" d="M139,52.48c.18.94.33,1.89.45,2.84s.16,1.9.34,2.83a.47.47,0,0,0,.9,0,12,12,0,0,0,0-3,27.63,27.63,0,0,0-.44-3,.66.66,0,0,0-.81-.46.68.68,0,0,0-.48.8Z"/><path class="cls-2" d="M141,55.81a3.49,3.49,0,0,0,2,1.63,1.6,1.6,0,0,0,1.51-.21,1.42,1.42,0,0,0,.26-1.54,7.14,7.14,0,0,0-.59-1.68.49.49,0,0,0-.9.25,7.17,7.17,0,0,0,.27,1.71,1.29,1.29,0,0,0,0,.19s0,.14,0,.16,0-.1,0,0v.08c0,.06,0,.05,0,0a.19.19,0,0,1,0,.07c0-.09,0-.11,0,0s.08-.1,0-.05.12-.08.06,0,0,0,.07,0h-.06q-.1,0,.06,0a.48.48,0,0,0-.12,0c-.16,0,.12,0,0,0l-.14,0-.15-.05-.07,0,0,0-.28-.14-.26-.17c.08.07.1.08,0,0l-.06,0-.11-.1a2.39,2.39,0,0,1-.22-.23l-.05-.06,0,0-.09-.12-.15-.27a.7.7,0,0,0-1-.24.71.71,0,0,0-.27.94Z"/><path class="cls-2" d="M146.22,56.78a7.07,7.07,0,0,0,1.78,0,3.78,3.78,0,0,0,1.51-.45,1.34,1.34,0,0,0,.73-1.11,1.3,1.3,0,0,0-.81-1.11,2,2,0,0,0-2.56.55,1.92,1.92,0,0,0,.85,2.58c1.2.64,2.7.21,3.93-.09.41-.11.47-.77,0-.85a17.1,17.1,0,0,0-2.58,0,1.45,1.45,0,0,1-1.41-.82c-.22-.63.4-.91.95-.82a1.09,1.09,0,0,1,.75.41c.11.23-.09.43-.26.55a3,3,0,0,1-1.2.38,5.39,5.39,0,0,1-1.5,0,.38.38,0,0,0-.45.26.34.34,0,0,0,.25.44Z"/><path class="cls-2" d="M151.84,56.68a2.43,2.43,0,0,0,.54,1c.34.35.89,0,.81-.47-.12-.61-.52-1.29-.36-1.91a.92.92,0,0,1,.16-.33c.07-.11,0,0,0-.06l.09-.09a.54.54,0,0,1,.16-.1c-.11,0,.15,0,0,0s.18,0,.12,0l.09,0h0s.16.1.09.05.1.09.15.13,0,.06,0,0l.06.08a1.62,1.62,0,0,1,.1.18l.05.11.06.15a3.59,3.59,0,0,1,.12.47c.18.71.29,1.45.51,2.15a.48.48,0,0,0,.45.34.47.47,0,0,0,.47-.35,4.77,4.77,0,0,0-.2-2.15,4.17,4.17,0,0,0-.84-1.65,1.41,1.41,0,0,0-1.67-.39,1.77,1.77,0,0,0-.93,1.34,5.69,5.69,0,0,0,.27,2.24l.8-.47a1.39,1.39,0,0,1-.34-.49.45.45,0,0,0-.55-.31.46.46,0,0,0-.33.54Z"/><path class="cls-2" d="M157.87,54.75a2.19,2.19,0,0,0-.61,2.25A2.76,2.76,0,0,0,160,58.84a2.18,2.18,0,0,0,.44,0,2.39,2.39,0,0,0,.44-.18.58.58,0,0,0-.13-1.06c-.25,0-.49-.07-.75-.09H160l-.09,0-.18,0-.31-.07-.29-.1.06,0-.06,0-.16-.08-.11-.07-.07,0,0,0a2.09,2.09,0,0,1-.22-.2c-.09-.09.09.13,0,0l-.08-.11-.06-.13c-.08-.13,0,.11,0,0a2,2,0,0,1-.07-.26s0,0,0-.08,0,0,0,0,0-.11,0-.12a.81.81,0,0,1,0-.27c0,.08,0,.1,0,0s0,0,0-.07a.36.36,0,0,1,0-.11c0,.08,0,.09,0,0l0-.06.06-.1,0,0,.05-.06a.52.52,0,0,1,.11-.1.56.56,0,0,0,0-.8.59.59,0,0,0-.81,0Z"/><path class="cls-2" d="M162.14,56.68c1.12.44,2.87.76,3.66-.4a1.1,1.1,0,0,0-.28-1.6,2,2,0,0,0-1.32-.37,2.44,2.44,0,0,0-2.13,1.76,3,3,0,0,0,1,3,3.74,3.74,0,0,0,4.15.18.57.57,0,0,0-.42-1,4,4,0,0,1-2.47.08A2.13,2.13,0,0,1,163,56.79a1.38,1.38,0,0,1,.73-1.6,1.33,1.33,0,0,1,.87-.14c.29.06.63.26.54.6s-.74.43-1.07.46a4.14,4.14,0,0,1-1.71-.18.4.4,0,0,0-.49.28.38.38,0,0,0,.27.47Z"/><path class="cls-2" d="M4.89,47.42a26.33,26.33,0,0,0,3.87-.08c.62-.05,1.25-.13,1.86-.23a4.92,4.92,0,0,0,1.9-.55c.28-.18.31-.7-.09-.76a6.76,6.76,0,0,0-1.79.13c-.64.09-1.28.17-1.93.22a28.34,28.34,0,0,1-3.8,0c-.81-.06-.86,1.22,0,1.26Z"/><path class="cls-2" d="M7,48.38a21.69,21.69,0,0,1-.21,2.79L6.6,52.51a9,9,0,0,0-.21,1.35.35.35,0,0,0,.6.24,5,5,0,0,0,.73-1.36,8,8,0,0,0,.43-1.36,12.15,12.15,0,0,0,.22-3,.69.69,0,0,0-1.38,0Z"/><path class="cls-2" d="M5,54.49c1-.09,2-.18,3-.3a15,15,0,0,0,3-.53c.38-.13.51-.78,0-.86a14,14,0,0,0-3,0c-1,0-2,.11-3,.19a.83.83,0,0,0-.8.78.76.76,0,0,0,.77.77Z"/><path class="cls-2" d="M13.09,53.81c-.07-.08-.15-.14-.22-.22a.51.51,0,0,1-.17-.23.65.65,0,0,1-.09-.23.61.61,0,0,1,0-.3,1.16,1.16,0,0,1,.06-.26.48.48,0,0,1,0-.11,1.4,1.4,0,0,1,.1-.16l.06-.07.12-.11.07-.06s-.06,0,0,0l.16-.1.08,0h0l0,0,.06,0,.18,0c-.08,0,.07,0,.1,0h.23l.08,0s-.08,0,0,0,.15.1.08,0a.57.57,0,0,1,.11.11l0,0s0,0,0,0a1.09,1.09,0,0,1,.08.15v0l0,.06a1.16,1.16,0,0,1,.07.31c0,.1,0,0,0,0a.28.28,0,0,1,0,.09v.18c0,.3,0,.6,0,.91a3.1,3.1,0,0,0,0,.43,1.3,1.3,0,0,0,.23.63.51.51,0,0,0,.57.23.54.54,0,0,0,.39-.5,5.46,5.46,0,0,0,0-.57s0,.1,0,0v-.1c0-.1,0-.19,0-.28a8.55,8.55,0,0,0-.06-1,2,2,0,0,0-.91-1.52,1.83,1.83,0,0,0-1.81.09,2.18,2.18,0,0,0-1,1.57,1.68,1.68,0,0,0,.89,1.78.44.44,0,0,0,.48-.2.42.42,0,0,0-.07-.5Z"/><path class="cls-2" d="M20.18,48.64a1.31,1.31,0,0,0-1.63-.23,1.94,1.94,0,0,0-.92,1.74,7.49,7.49,0,0,0,.4,2.19c.1.37.22.75.31,1.13s.16.74.27,1.11a.47.47,0,0,0,.9,0c.36-1.21-.4-2.5-.68-3.66a2.31,2.31,0,0,1,0-1.49.5.5,0,0,1,.8-.2.43.43,0,0,0,.58,0,.41.41,0,0,0,0-.57Z"/><path class="cls-2" d="M17.47,53.06c1.29-.19,2.57-.41,3.84-.7a.47.47,0,0,0-.11-.93c-1.3,0-2.59.14-3.89.26a.73.73,0,0,0-.71.8.69.69,0,0,0,.87.57Z"/><path class="cls-2" d="M21.64,49.65c.19.94.33,1.88.46,2.83s.16,1.9.34,2.83a.47.47,0,0,0,.9,0,12,12,0,0,0,0-3,23.48,23.48,0,0,0-.44-3,.65.65,0,0,0-.8-.46.69.69,0,0,0-.49.81Z"/><path class="cls-2" d="M23.65,53a3.4,3.4,0,0,0,2,1.63,1.59,1.59,0,0,0,1.51-.21,1.38,1.38,0,0,0,.26-1.54,7.27,7.27,0,0,0-.58-1.68.49.49,0,0,0-.9.25,7.08,7.08,0,0,0,.26,1.71,1.29,1.29,0,0,1,0,.19s.05.14,0,.16,0-.1,0,0v.08c0,.07,0,0,0,0a.19.19,0,0,0,0,.07c0-.09,0-.11,0-.05s.08-.1,0,0c.1-.07.12-.08.06-.05s0,0,.07,0l-.07,0h-.06c-.15,0,.13,0,0,0l-.15,0-.14,0-.08,0,.05,0-.28-.14c-.09,0-.17-.12-.26-.16.09.06.1.07.05,0l-.06,0-.12-.1a2.29,2.29,0,0,1-.21-.23l-.05-.06c.07.1.08.11,0,0L25,52.54a1.82,1.82,0,0,1-.15-.27.7.7,0,0,0-1.22.7Z"/><path class="cls-2" d="M28.87,53.94a6.71,6.71,0,0,0,1.79,0,3.78,3.78,0,0,0,1.51-.45,1.36,1.36,0,0,0,.73-1.11,1.3,1.3,0,0,0-.81-1.11,2,2,0,0,0-2.57.55,1.93,1.93,0,0,0,.86,2.58c1.2.64,2.69.22,3.93-.09a.44.44,0,0,0,0-.85,18.53,18.53,0,0,0-2.58,0,1.48,1.48,0,0,1-1.41-.81c-.21-.64.41-.92,1-.83.26.05.63.16.75.41s-.08.43-.26.55a2.92,2.92,0,0,1-1.19.38,5.46,5.46,0,0,1-1.51,0,.39.39,0,0,0-.45.26.36.36,0,0,0,.25.44Z"/><path class="cls-2" d="M34.5,53.84a2.2,2.2,0,0,0,.54.95c.33.35.89,0,.8-.47-.11-.61-.52-1.29-.35-1.91a.94.94,0,0,1,.15-.32c.08-.12,0,0,.06-.07s.14-.14.08-.09a.59.59,0,0,1,.17-.1c-.11.05.14,0,0,0h.12l.1,0s0,0,0,0,.17.1.1,0l.14.14h0l.06.08a1.74,1.74,0,0,1,.11.18l0,.11a.88.88,0,0,1,0,.15c.05.15.09.31.13.47.17.71.28,1.45.51,2.15a.47.47,0,0,0,.45.34.49.49,0,0,0,.47-.35,4.91,4.91,0,0,0-.2-2.15,4.45,4.45,0,0,0-.84-1.65A1.42,1.42,0,0,0,35.57,51a1.82,1.82,0,0,0-.93,1.34,5.69,5.69,0,0,0,.27,2.24l.81-.46a1.46,1.46,0,0,1-.35-.5.44.44,0,0,0-.54-.31.45.45,0,0,0-.33.54Z"/><path class="cls-2" d="M40.52,51.91a2.19,2.19,0,0,0-.6,2.25,2.62,2.62,0,0,0,1.9,1.76,2.91,2.91,0,0,0,.78.08,2.22,2.22,0,0,0,.45,0,2.39,2.39,0,0,0,.44-.18.58.58,0,0,0-.13-1.06q-.37-.06-.75-.09h.06l-.09,0-.17,0-.31-.07-.3-.1.07,0-.06,0-.16-.08a.41.41,0,0,1-.11-.07l-.08-.05c.08.06.09.07,0,0a2.09,2.09,0,0,1-.22-.2c-.09-.09.08.13,0,0l-.07-.11-.06-.12c-.08-.14,0,.1,0,0a2,2,0,0,1-.08-.26s0-.05,0-.08,0-.05,0,0,0-.11,0-.12,0-.22,0-.27,0,.1,0,0a.24.24,0,0,1,0-.08.45.45,0,0,1,0-.11c0,.08,0,.09,0,0a.16.16,0,0,1,0-.07.53.53,0,0,1,.06-.1s0,0,0,0l.05-.06.12-.1a.57.57,0,0,0,0-.8.6.6,0,0,0-.81,0Z"/><path class="cls-2" d="M44.8,53.85c1.11.43,2.87.75,3.66-.4a1.11,1.11,0,0,0-.28-1.61,2,2,0,0,0-1.33-.37,2.44,2.44,0,0,0-2.13,1.76,3,3,0,0,0,1,3,3.73,3.73,0,0,0,4.15.18.57.57,0,0,0-.42-1A4,4,0,0,1,47,55.4,2.12,2.12,0,0,1,45.65,54a1.37,1.37,0,0,1,.74-1.6,1.32,1.32,0,0,1,.87-.14c.28.06.63.26.54.61s-.74.42-1.07.45A4.12,4.12,0,0,1,45,53.09a.41.41,0,0,0-.5.28.4.4,0,0,0,.28.48Z"/><path class="cls-1" d="M6.24,9.18C6.12,10.45,6,11.73,5.89,13a14.82,14.82,0,0,0-.08,3.82c.1.58.88.43,1,0a8.73,8.73,0,0,0,.37-1.91c.08-.63.15-1.27.21-1.91.13-1.28.23-2.56.34-3.84A.74.74,0,0,0,7,8.42a.8.8,0,0,0-.78.76Z"/><path class="cls-1" d="M6.39,11.81A17.7,17.7,0,0,0,8.2,14.54c.62.79,1.79,2.05,2.82,1.07a2.27,2.27,0,0,0,.52-1.51c.08-.59.15-1.18.22-1.77L12,10.55a8.75,8.75,0,0,0,.11-1.84.43.43,0,0,0-.85-.1,6.91,6.91,0,0,0-.37,1.49c-.1.48-.18,1-.27,1.45-.17.95-.29,1.94-.52,2.88,0,0,0,.18-.05.17s.21-.15.23-.1l-.3-.2a11.26,11.26,0,0,1-.85-1A15.94,15.94,0,0,1,7.61,11.1c-.43-.76-1.63-.07-1.22.71Z"/><path class="cls-1" d="M13.39,14.74a2.48,2.48,0,0,0,1.18,1.8,1.93,1.93,0,0,0,2-.09,1.55,1.55,0,0,0,.59-1.85,2.36,2.36,0,0,0-1.38-1.37,3.14,3.14,0,0,0-1.36-.15,5.4,5.4,0,0,0-1.38.24.4.4,0,0,0-.3.44.37.37,0,0,0,.39.34A7.81,7.81,0,0,1,15,13.88a1.53,1.53,0,0,1,1.17.7,1.05,1.05,0,0,1,.13.54.62.62,0,0,1-.18.4l-.07.06h0l-.14.08s0,0,0,0l-.09,0-.09,0-.07,0h-.28l-.07,0-.09,0c-.09,0,0,0,0,0a.78.78,0,0,1-.2-.11l-.07,0,0,0-.15-.14-.07-.08c0,.06,0,0,0,0a1.37,1.37,0,0,1-.13-.2s-.08-.19-.05-.11a2.42,2.42,0,0,1-.13-.46.52.52,0,0,0-.63-.36.54.54,0,0,0-.38.63Z"/><path class="cls-1" d="M19.41,15.86a2.53,2.53,0,0,1,0-.28c0-.05,0-.1,0-.14s0,.12,0,0a3.07,3.07,0,0,1,.14-.52s.07-.16,0-.07,0-.06,0-.07a1.71,1.71,0,0,1,.13-.23c0-.08.09-.16.14-.24a.76.76,0,0,0,.08-.11c.1-.13-.09.1,0,0s.22-.27.35-.4l.19-.17.11-.09h0a3.59,3.59,0,0,1,.95-.54.43.43,0,0,0,.21-.47.42.42,0,0,0-.4-.3,3,3,0,0,0-2.37,1.14,3.71,3.71,0,0,0-.85,2.56.58.58,0,0,0,.59.58.62.62,0,0,0,.61-.59Z"/><path class="cls-1" d="M23.75,11.69c-.06.81-.08,1.62-.06,2.44,0,.39,0,.78.07,1.17a2.16,2.16,0,0,0,.49,1.39.6.6,0,0,0,.91-.13,2.32,2.32,0,0,0,.22-1.27c0-.41,0-.82-.05-1.22,0-.8,0-1.6,0-2.4a.78.78,0,0,0-.79-.79.87.87,0,0,0-.83.81Z"/><path class="cls-1" d="M23.42,14.73a13.14,13.14,0,0,1,1.87-.26c.66,0,1.31,0,2-.08A.47.47,0,0,0,27.7,14a.44.44,0,0,0-.32-.48,6.44,6.44,0,0,0-2.1-.13,15.17,15.17,0,0,0-2.12.27.58.58,0,0,0-.42.68.56.56,0,0,0,.68.39Z"/><path class="cls-1" d="M27.43,10.81a34.94,34.94,0,0,1,.1,6c-.05.69.92.85,1.23.31.42-.71.84-1.42,1.25-2.14.2-.33.39-.68.59-1,0,0,.12-.24.18-.25a1.35,1.35,0,0,1,.22.14,2.4,2.4,0,0,1,.82,1.19,7.82,7.82,0,0,1,.23,1.6c0,.33.48.61.75.29a2.34,2.34,0,0,0,.29-2.27,3.41,3.41,0,0,0-1.51-1.81,1.27,1.27,0,0,0-1.3-.06,3.46,3.46,0,0,0-.83,1l-1.83,2.66,1.24.31a23.65,23.65,0,0,0-.1-6.4.68.68,0,0,0-.83-.47.71.71,0,0,0-.5.83Z"/><path class="cls-1" d="M34.43,16a3.1,3.1,0,0,0,3.46-.57,2,2,0,0,0,.54-1.47,1.74,1.74,0,0,0-.81-1.32,1.5,1.5,0,0,0-1.53-.07,4.28,4.28,0,0,0-1.21,1.26,3.12,3.12,0,0,0-.69,1.68A1.89,1.89,0,0,0,34.8,17a3,3,0,0,0,2.12.5A5.5,5.5,0,0,0,39.24,17c.47-.24.3-1.09-.26-1a12.91,12.91,0,0,1-3,.17h-.07l-.17-.05c.08,0-.12-.07-.14-.08s-.12-.14-.07-.07,0-.08,0-.08-.09-.18,0-.06a1.16,1.16,0,0,1,0-.95,6,6,0,0,1,.69-1.17c.17-.24.4-.5.7-.46a.83.83,0,0,1,.62.53.92.92,0,0,1-.16.86,2.1,2.1,0,0,1-2.46.34.58.58,0,0,0-.8.29.54.54,0,0,0,.36.74Z"/><path class="cls-1" d="M40.86,15.63l-.06-.06h0l-.08-.13-.07-.13h0a.14.14,0,0,0,0-.06,2.82,2.82,0,0,1-.07-.31c0,.09,0,0,0,0v-.17s0-.09,0-.13h0s0,0,0-.08.06-.19.09-.29,0,.06,0,0l.08-.15.07-.11s0,0,0,0l0-.07.11-.1a.1.1,0,0,1,.05,0c0-.05,0,0,0,0a.88.88,0,0,1,.28-.16c.07,0,.07,0,0,0l.1,0,.16-.05.39-.08a4.81,4.81,0,0,0,1.66-.48.48.48,0,0,0-.36-.89l-.17,0H43l-.26,0h-.1l-.81.1a3,3,0,0,0-1.44.59,2.48,2.48,0,0,0-.8,2.27,2.16,2.16,0,0,0,.59,1.22.51.51,0,0,0,.69,0,.49.49,0,0,0,0-.68Z"/><path class="cls-1" d="M44.91,15.44a2.82,2.82,0,0,1,.52-1.78,2.55,2.55,0,0,1,.65-.62c.18-.13.5-.36.67-.12a2,2,0,0,1,.25.84c.08.4.13.81.19,1.22.11.82.14,1.65.24,2.47a.48.48,0,0,0,.55.36.53.53,0,0,0,.46-.49,8.5,8.5,0,0,0-.25-3.05,8.29,8.29,0,0,0-.43-1.39,1.36,1.36,0,0,0-.78-.83c-.81-.27-1.63.58-2,1.17a3.66,3.66,0,0,0-.65,2.22c0,.4.65.39.63,0Z"/><path class="cls-1" d="M5.48,27.59a15.68,15.68,0,0,1,.57-4c.09-.32.19-.64.31-.95s.16-.56.39-.66c.46-.2.88.55,1,.87a9.19,9.19,0,0,1,.67,3.28,8.32,8.32,0,0,0,.72,3.46.68.68,0,0,0,1.21-.18,3,3,0,0,0,.22-.77c.05-.36-.43-.58-.71-.4a3.62,3.62,0,0,0-.61.56l1.1.28c-.13-.51-.32-1-.43-1.53S9.78,26.51,9.7,26A11.75,11.75,0,0,0,9,22.88C8.63,22,7.91,21,6.89,21.09s-1.38,1.54-1.61,2.4a18.94,18.94,0,0,0-.65,4.1c0,.55.84.53.85,0Z"/><path class="cls-1" d="M7.13,26.72H9.47a7,7,0,0,0,.8-.08.56.56,0,0,0,.54-.52.52.52,0,0,0-.52-.51c-.26,0-.53-.07-.8-.08H7.16a.64.64,0,0,0-.62.6.59.59,0,0,0,.59.59Z"/><path class="cls-1" d="M15.39,26.23a2.33,2.33,0,0,0-3.27-.16,2.43,2.43,0,0,0-.79,1.69c0,.76.72,1,1.36,1.09a3.35,3.35,0,0,0,2-.49l.2-.13a.23.23,0,0,1-.14,0s0,.15,0,.2a7.08,7.08,0,0,1,0,1c0,.81,0,1.61,0,2.42A5.84,5.84,0,0,0,15,34.41a.63.63,0,0,0,1.08,0,4.76,4.76,0,0,0,.2-2.16c0-.72-.05-1.45-.07-2.18s.19-2.68-.95-3c-.6-.18-1,.23-1.5.44a2.14,2.14,0,0,1-.9.16,1,1,0,0,1-.35-.05c-.1-.05,0,.09,0-.06-.05-.45.43-.92.82-1.06a1.37,1.37,0,0,1,1.47.41c.39.41,1-.22.64-.65Z"/><path class="cls-1" d="M14.45,31.8l1.6,0a4.37,4.37,0,0,0,1.76-.28.54.54,0,0,0,0-.94,4.29,4.29,0,0,0-1.75-.23l-1.6,0a.77.77,0,0,0-.75.74.72.72,0,0,0,.73.72Z"/><path class="cls-1" d="M16.72,27.3a2.1,2.1,0,0,0,2.11,1.55,2.14,2.14,0,0,0,2-1.93,2.18,2.18,0,0,0-.28-1.34c-.18-.31-.46-.69-.87-.58a.53.53,0,0,0-.35.49,1.13,1.13,0,0,0,.16.53l.08.15c0,.08,0-.08,0,0l0,.07,0,.14s0,.05,0,.07,0-.09,0,0a2.43,2.43,0,0,0,0,.27c0,.1,0-.13,0,0a.94.94,0,0,0,0,.16s0,.08,0,.12,0-.09,0,0a2,2,0,0,1-.14.25l0,.06s.1-.12,0-.05l-.08.09-.1.09c-.07.07,0,0,.06,0a.18.18,0,0,0-.07.05l-.14.08s-.09,0,0,0,0,0,0,0l-.15,0h-.05c.14-.05.1,0,0,0h-.21s.15,0,0,0l-.15,0h-.05c-.1,0,0,0,0,0s-.18-.09-.26-.14-.09-.07,0,0,0,0,0,0l-.1-.1a.12.12,0,0,1-.05-.05c-.09-.08.06.1,0,0L18,27.13l0-.06c0-.08,0,0,0,.06A.64.64,0,0,0,18,27a.63.63,0,0,0-.78-.44.67.67,0,0,0-.47.78Z"/><path class="cls-1" d="M22.05,27.17c.08.47.15.94.24,1.4.05.23.09.46.15.69a1.65,1.65,0,0,0,.39.82.59.59,0,0,0,.9-.13,1.45,1.45,0,0,0,.15-.54c0-.13,0-.25,0-.38,0-.28-.05-.55-.09-.83-.05-.48-.13-1-.19-1.44a.78.78,0,0,0-.37-.48.87.87,0,0,0-.59-.07.83.83,0,0,0-.58,1Z"/><path class="cls-1" d="M22.38,23.43l-.06.05.09-.06a.38.38,0,0,0-.13.09.64.64,0,0,0-.1.13l-.06.1-.11.19a2.12,2.12,0,0,0-.11.21.6.6,0,0,0-.08.29.42.42,0,0,0,.2.35.45.45,0,0,0,.42,0,.6.6,0,0,0,.21-.21,2.25,2.25,0,0,0,.12-.21l.12-.19.05-.1.07-.15a.39.39,0,0,0,0-.15l0,.1,0-.07a.37.37,0,0,0-.18-.43.4.4,0,0,0-.46.07Z"/><path class="cls-1" d="M24.76,22c.1,1.18.25,2.35.44,3.52.1.59.2,1.18.34,1.76s.32,1.42,1.05,1.38a.77.77,0,0,0,.69-.6,2.33,2.33,0,0,0-.07-1c-.11-.59-.24-1.17-.35-1.76-.19-1.1-.35-2.22-.46-3.33a.82.82,0,0,0-.8-.81.85.85,0,0,0-.84.82Z"/><path class="cls-1" d="M29.51,26.67a.13.13,0,0,0,0-.25.13.13,0,1,0,0,.25Z"/><path class="cls-1" d="M29.49,26a1.66,1.66,0,0,0-.71,1.18A1.91,1.91,0,0,0,29,28.33a1.88,1.88,0,0,0,2.58.55,2.33,2.33,0,0,0,1-2.69,2.4,2.4,0,0,0-2.27-1.86,2.28,2.28,0,0,0-1.46.71,2.56,2.56,0,0,0-.47.66,2.14,2.14,0,0,0-.21.86.47.47,0,0,0,.43.48.51.51,0,0,0,.55-.36c.06-.15,0,.07,0-.06l.05-.09a1.51,1.51,0,0,0,.11-.22l.12-.2a.61.61,0,0,1,.07-.1c.07-.1-.06.06,0,0a2.34,2.34,0,0,1,.32-.31c-.12.09.07-.05.11-.07l.1-.05,0,0,.07,0c.05,0,.23,0,.1,0h.14s.11,0,0,0a.84.84,0,0,1,.24.06s-.08,0,0,0l.14.08c.14.09,0,0,0,0l.1.09a.6.6,0,0,1,.08.08s.13.16,0,0a2.51,2.51,0,0,1,.26.45c0,.11,0,0,0,0a.56.56,0,0,0,0,.12,1.55,1.55,0,0,1,.05.23s0,.19,0,0a.41.41,0,0,1,0,.11,2.72,2.72,0,0,1,0,.28c0,.1,0-.15,0,0l0,.09a.38.38,0,0,1,0,.15s.07-.13,0,0a.76.76,0,0,1-.12.2s.12-.14,0,0l-.1.1-.08.08c-.08.06.15-.11,0,0l-.2.11c-.07.05,0,0,.05,0l-.08,0-.26.07s.15,0,0,0h-.11c-.13,0,0,0,0,0l-.09,0-.13,0h0l-.07,0-.07,0,.06,0a.71.71,0,0,0-.15-.15c.08,0,.07.1,0,0a.75.75,0,0,0-.07-.12c0-.08,0-.06,0,0a.49.49,0,0,0,0-.11.24.24,0,0,0,0-.08s0-.05,0-.07,0,.1,0,.06v-.22s0,.13,0,0a.53.53,0,0,0,0-.12c0-.07-.07.12,0,0l.06-.1s-.09.1,0,0,.16-.14,0,0a.6.6,0,0,0,.23-.81.6.6,0,0,0-.81-.2Z"/><path class="cls-1" d="M33.52,27.66a4.41,4.41,0,0,1,0-1.62,1.42,1.42,0,0,1,.11-.33c0-.05,0-.1.07-.14l0-.07c0-.08,0,0,0,0a1.75,1.75,0,0,1,.24-.23c-.08.06,0,0,.05,0a.77.77,0,0,1,.18-.1c-.09.05,0,0,0,0l.14,0s.11,0,0,0h.24c-.12,0,0,0,.06,0s0,0,0,0l.07,0s.14.1.07,0l.15.15c.05,0,0,0,0,0l.07.1.09.15c.08.14.14.27.21.41a1.54,1.54,0,0,1,.08.19c.06.12,0,.05,0,0a.36.36,0,0,1,0,.09,4,4,0,0,1,.15.45c.11.33.19.66.27,1a3.86,3.86,0,0,0,.16.48.92.92,0,0,0,.58.66.61.61,0,0,0,.6-.16,1,1,0,0,0,.19-.83,2.74,2.74,0,0,0-.11-.57c-.1-.34-.21-.67-.34-1a4.69,4.69,0,0,0-1.16-1.91,2.08,2.08,0,0,0-3.19,1.12,5,5,0,0,0-.14,2.35.52.52,0,0,0,.59.51.55.55,0,0,0,.45-.65Z"/><path class="cls-1" d="M38.13,26.13c.11.47.2.94.33,1.41.06.22.12.45.2.66a3.19,3.19,0,0,0,.2.46c.08.13.18.25.27.37a.57.57,0,0,0,.92-.26,2.51,2.51,0,0,0,.06-.82,7.37,7.37,0,0,0-.13-.82c-.09-.48-.21-.94-.32-1.41a.77.77,0,0,0-.95-.54.82.82,0,0,0-.58.95Z"/><path class="cls-1" d="M39.08,22.68a.28.28,0,0,0,0-.12.5.5,0,0,0-.08-.12l-.11-.08,0,0a.7.7,0,0,0-.45,0,.59.59,0,0,0-.14.06h0l-.1.08a.39.39,0,0,0-.08.1h0a.58.58,0,0,0-.05.14.59.59,0,0,0,0,.14v.05a.17.17,0,0,0,0,.1.21.21,0,0,0,0,.07l0,0,.1.16.12.17a1.71,1.71,0,0,0,.11.14l.08.08a.33.33,0,0,0,.18.08.31.31,0,0,0,.21,0,.34.34,0,0,0,.16-.36l0-.08a.76.76,0,0,0-.06-.16l-.06-.15-.14-.32.05.21v.08a0,0,0,0,1,0,0l-.05.1,0,0-.07.08.06-.05-.09.07.05,0-.1,0h-.05l-.09,0,0,0L38.41,23l0,0-.06-.08,0,0a.35.35,0,0,0,.1.11.31.31,0,0,0,.13.06h.09a.32.32,0,0,0,.14,0A.38.38,0,0,0,39,23l0-.09a.31.31,0,0,0,0-.19Z"/><path class="cls-1" d="M44.85,25a1.69,1.69,0,1,0-1.31,2.83,1.35,1.35,0,0,0,.49,0,1.1,1.1,0,0,0,.55-.47,2,2,0,0,0,.33-1.12H43.77a2.28,2.28,0,0,0,1,1.84,1.91,1.91,0,0,0,2.16.17.58.58,0,0,0,.28-.62.55.55,0,0,0-.54-.41s-.25,0-.1,0a1.14,1.14,0,0,0-.26,0h-.16c.17,0-.06,0-.09,0l-.16,0c-.06,0-.14-.05,0,0a3.36,3.36,0,0,1-.33-.16l-.14-.09c.13.09,0,0,0-.05l-.14-.12s-.12-.15,0,0a2,2,0,0,1-.19-.31c0,.12,0,0,0-.06a1.46,1.46,0,0,1,0-.2c-.1-.64-1.16-.48-1.12.15a.75.75,0,0,1-.26.63l.27-.15c-.14,0,.08,0-.06,0h-.09l-.08,0c-.12,0,.05,0-.06,0a1.71,1.71,0,0,1-.23-.13c.06,0,0,0,0,0l-.1-.09c-.09-.1,0,.06,0-.06L43,26.23s-.05-.11,0,0A.83.83,0,0,1,43,26a.45.45,0,0,1,0-.29l.06-.1c0,.06,0,0,0,0l.08-.08c-.07.06,0,0,.05,0l.1-.06h0l.25-.07h.18l.16,0a.39.39,0,0,1,.15.06.64.64,0,0,1,.16.14.45.45,0,0,0,.61,0,.44.44,0,0,0,0-.61Z"/><path class="cls-1" d="M122.1,4.66l-.21,3.65c0,.61-.06,1.22-.08,1.83a4.73,4.73,0,0,0,.08,1.8.45.45,0,0,0,.81.09,4.76,4.76,0,0,0,.3-1.76c0-.63.1-1.27.14-1.9l.21-3.73c0-.8-1.2-.76-1.25,0Z"/><path class="cls-1" d="M122,3.92a3.26,3.26,0,0,1,3.66-.17c.46.28,1.25,1,1.06,1.58-.1.3-.43.5-.68.66a12,12,0,0,1-1.19.71,11.18,11.18,0,0,1-1.36.63A3.83,3.83,0,0,0,122,8a.49.49,0,0,0,.22.82,2.85,2.85,0,0,0,1.7-.31,12.69,12.69,0,0,0,1.56-.68,10.84,10.84,0,0,0,1.45-.89,2.58,2.58,0,0,0,1-1.23A2.6,2.6,0,0,0,126.59,3a4.32,4.32,0,0,0-2.47-.74,4.27,4.27,0,0,0-2.76,1,.46.46,0,0,0,0,.66.51.51,0,0,0,.68,0Z"/><path class="cls-1" d="M126.08,12.16A1.09,1.09,0,0,1,126,12s-.08-.19,0-.07l-.09-.28,0-.2c0-.12,0,.08,0-.05s0-.2,0-.3,0-.07,0-.1,0,.07,0,0a.83.83,0,0,1,0-.15,1.31,1.31,0,0,1,.09-.28c-.06.15,0-.05,0-.08l.08-.13.08-.12c.08-.12-.08.09,0,0l.22-.22a.53.53,0,0,0,.11-.09l0,0,.06,0,.28-.16.13-.06h0l.07,0a1.67,1.67,0,0,1,.3-.08l.14,0c.12,0-.09,0,.06,0a1.6,1.6,0,0,1,.31,0h.26a.51.51,0,0,0,.57-.29.47.47,0,0,0-.2-.59,2.62,2.62,0,0,0-3.2.66,2.93,2.93,0,0,0-.16,3.4.57.57,0,0,0,.77.19.57.57,0,0,0,.21-.76Z"/><path class="cls-1" d="M130.15,11.63l.27-.1.38-.1a4.91,4.91,0,0,0,.73-.19,2,2,0,0,0,1.16-.87,1.48,1.48,0,0,0,.19-1.21,1.14,1.14,0,0,0-1.1-.75,2.23,2.23,0,0,0-2,1.78,2.46,2.46,0,0,0,.92,2.66,2.33,2.33,0,0,0,1.48.37,2.16,2.16,0,0,0,.89-.25,2.07,2.07,0,0,0,.63-.62.59.59,0,0,0-.15-.77.64.64,0,0,0-.8.07c.15-.12-.07,0-.11,0s0,0,.05,0a.49.49,0,0,0-.11,0l-.19.07-.12,0-.08,0h.06a.74.74,0,0,0-.21,0H132c-.08,0-.08-.05,0,0a1.57,1.57,0,0,0-.23,0l-.1,0-.08,0c-.07,0-.06,0,0,0s-.37-.19-.37-.2.12.1,0,0l-.1-.08s0-.05-.06-.07,0,0,0,0l-.05-.08-.11-.19s-.1-.14,0,0a.65.65,0,0,1,0-.13,2.25,2.25,0,0,1-.05-.22v-.07c0,.07,0-.09,0-.11a1.77,1.77,0,0,1,0-.23s0-.16,0-.05l0-.14a1.24,1.24,0,0,1,.14-.4l.15-.23h0s.06-.07.1-.1l.1-.09h0l.12-.07.08,0h0l.11,0s.13,0,.06,0h.15a.3.3,0,0,1,.14.07c-.05,0,0,.05,0,.05l0,.07c0-.08,0,.15,0,.06v.11s0-.06,0,0A.83.83,0,0,1,132,10c0-.06,0,0,0,0a.94.94,0,0,1-.1.1s-.12.09,0,0l-.1.06a2.41,2.41,0,0,1-.59.22,8.51,8.51,0,0,0-1.39.41.46.46,0,0,0-.18.63.46.46,0,0,0,.63.16Z"/><path class="cls-1" d="M134.29,10.11c.36.86,1,1.9,2,2.05a1.82,1.82,0,0,0,1.58-.52,2.32,2.32,0,0,0,.56-1.38,3.75,3.75,0,0,0,0-.67,1.61,1.61,0,0,0-.25-.82.44.44,0,0,0-.78.11,2.09,2.09,0,0,0-.08.23,1.52,1.52,0,0,0,0,.21s0,.1,0,0c0,.06,0,.12,0,.18l0,.26c0,.11,0-.11,0,0l0,.15a4.43,4.43,0,0,1-.13.49.21.21,0,0,0,0,.07s.07-.14,0-.08a.47.47,0,0,1-.05.1.41.41,0,0,1,0,.09l0,.06c0,.08.06-.07.06-.07s-.12.13-.15.16l0,0s.08-.08.09-.07l-.11.06-.06,0s.17,0,.1,0a.45.45,0,0,1-.11,0l-.06,0,.09,0h-.15c-.11,0,.17,0,0,0l-.12,0c-.12,0,.14.07,0,0l-.13-.07,0,0c.11.08,0,0,0,0a1.89,1.89,0,0,1-.2-.2l-.11-.12s.11.15,0,.05l-.05-.07-.18-.28a6.54,6.54,0,0,1-.3-.59.67.67,0,0,0-.43-.32.73.73,0,0,0-.54.07.72.72,0,0,0-.27,1Z"/><path class="cls-1" d="M139.82,11l.15.61a4.07,4.07,0,0,0,.18.44,1.28,1.28,0,0,0,.15.25.56.56,0,0,0,.55.26.59.59,0,0,0,.47-.4,2.31,2.31,0,0,0,.08-.43,1.72,1.72,0,0,0,0-.32l0-.62a.76.76,0,0,0-.1-.39l-.13-.17a.88.88,0,0,0-.34-.19.61.61,0,0,0-.3,0,.75.75,0,0,0-.53.31.51.51,0,0,0-.14.26.78.78,0,0,0,0,.4Z"/><path class="cls-1" d="M140.22,8.62a1.48,1.48,0,0,0,.42,0,1.28,1.28,0,0,0,.27-.05,1.17,1.17,0,0,0,.26-.1,1.51,1.51,0,0,0,.63-.57.49.49,0,0,0-.18-.67A3,3,0,0,0,140.9,7a3,3,0,0,0-.43,0h-.16a.79.79,0,0,0-.4.1.54.54,0,0,0-.27.53.49.49,0,0,0,.1.26A.52.52,0,0,0,140,8a.65.65,0,0,0,.31,0l.07,0,.16,0-.14,0a1.77,1.77,0,0,1,.46,0l-.13,0,.28.08-.12,0,.19.08-.18-.67,0,0,.08-.1a1.14,1.14,0,0,1-.19.19l.11-.09a1,1,0,0,1-.23.13l.13,0a1.34,1.34,0,0,1-.27.07l.13,0a.69.69,0,0,1-.25,0h.08a.56.56,0,0,0-.4,0,.55.55,0,0,0-.24.32.48.48,0,0,0,0,.39.52.52,0,0,0,.32.24Z"/><path class="cls-1" d="M143.8,11.39a2.7,2.7,0,0,0,1.68,1.39,1.65,1.65,0,0,0,1.13-.2,1.56,1.56,0,0,0,.62-.7,2.09,2.09,0,0,0,0-1.81,2,2,0,0,0-1.68-1,2.51,2.51,0,0,0-1,.16c-.45.18-1,.44-1.08.95a.53.53,0,0,0,.1.47.46.46,0,0,0,.43.21,1,1,0,0,0,.42-.1l.17-.08.36-.18-.17.07a2.88,2.88,0,0,1,.5-.15c.17,0-.13,0,0,0h.32l.13,0,.1,0c-.21-.05-.07,0,0,0l.11.07c.1.06-.12-.1,0,0s.1.09.15.15l-.11-.14a.92.92,0,0,1,.13.24l-.07-.17a1,1,0,0,1,.07.29l0-.18a1.09,1.09,0,0,1,0,.18s0,.23,0,.08,0,0,0,.08l-.06.17.07-.18a1.48,1.48,0,0,1-.14.25l.12-.15a1.19,1.19,0,0,1-.2.19l.17-.12-.18.1.19-.08-.18,0,.2,0h-.2l.2,0a1.1,1.1,0,0,1-.26-.06l.18.07a2,2,0,0,1-.32-.18l.16.12a3.08,3.08,0,0,1-.51-.51l.13.16-.19-.27a.82.82,0,0,0-.47-.34.78.78,0,0,0-.58.08.77.77,0,0,0-.3,1Z"/><path class="cls-1" d="M148.14,11.89a4.49,4.49,0,0,0,3.52.65,2.59,2.59,0,0,0,1.84-2.36A1.79,1.79,0,0,0,153,8.83a.78.78,0,0,0-.9-.23.5.5,0,0,0-.23.55.5.5,0,0,0,.08.2s0,.08,0,0l.05.13s0-.11,0,0,0,.1,0,.14a.13.13,0,0,0,0,.06c0,.07,0-.06,0-.06s0,.11,0,.14,0,.23,0,.28,0-.15,0-.08,0,0,0,.06a.83.83,0,0,1,0,.15,2.67,2.67,0,0,1-.09.26c0,.09.07-.15,0-.06l0,.06-.08.14-.07.11,0,.05s.11-.13.05-.07-.14.16-.22.23.12-.08,0,0a.57.57,0,0,1-.13.08l-.06,0c-.13.08.12,0,0,0l-.2.07-.21,0c-.09,0,.05,0,.05,0h-.12a3.53,3.53,0,0,1-.46,0c-.09,0,0,0,0,0l-.12,0-.22,0a4,4,0,0,1-.46-.14l-.09,0c-.1,0,.11,0,0,0l-.21-.09-.45-.23a.8.8,0,0,0-1,.29.77.77,0,0,0,.27,1Z"/><path class="cls-1" d="M155.16,9.22l-.26.61a.56.56,0,0,0,.15.56,7.46,7.46,0,0,0,2,1.37l-.12-.92-.06.05-.22.16-.11.09s0,0,0,0l-.15.11c-.21.15-.41.3-.63.43-.43.28-.89.51-1.3.81a.48.48,0,0,0-.22.51.43.43,0,0,0,.44.33,5.75,5.75,0,0,0,3.08-1.67.58.58,0,0,0-.12-.92,7.74,7.74,0,0,1-1-.53l-.22-.16s0,0,0,0l-.12-.09a5.3,5.3,0,0,1-.43-.38l.14.56.25-.61a.55.55,0,0,0-.4-.69.61.61,0,0,0-.72.41Z"/><path class="cls-1" d="M158.34,7.53a24,24,0,0,0,.37,2.38,6.46,6.46,0,0,0,.78,2.22.63.63,0,0,0,1.15-.32,11.45,11.45,0,0,0-.28-2.26c-.06-.36-.11-.71-.17-1.07,0-.17-.05-.35-.07-.53l0-.24a1,1,0,0,1,0-.17c0,.08,0,.07,0,0a.86.86,0,0,0-.25-.6.81.81,0,0,0-.59-.24c-.41,0-.93.38-.88.86Z"/><path class="cls-1" d="M162,11.52c.21.21.41.43.63.61s.29.25.44.35l.18.13a1.21,1.21,0,0,0,.2.09.5.5,0,0,0,.24.06.48.48,0,0,0,.3-.11.4.4,0,0,0,.15-.19.42.42,0,0,0,0-.31,1.11,1.11,0,0,0-.12-.3l-.1-.18c-.08-.13-.17-.24-.26-.36-.21-.28-.45-.54-.67-.8a.72.72,0,0,0-.5-.2.75.75,0,0,0-.51.22.68.68,0,0,0,0,1Z"/><path class="cls-1" d="M163.76,12a15.14,15.14,0,0,0-.21,8.79c.24.69,1.4.62,1.36-.18-.07-1.39-.2-2.77-.15-4.15a16.88,16.88,0,0,1,.66-4.05c.3-1.07-1.36-1.45-1.66-.41Z"/><path class="cls-1" d="M171.67,6.09,172,9.42c.11,1.12.19,2.25.37,3.36a.63.63,0,0,0,.72.47.7.7,0,0,0,.6-.65c.07-.74.26-2.13,1.16-2.3,1.2-.23,1.43,1.54,2.24,2a.54.54,0,0,0,.79-.45,1.9,1.9,0,0,0-.41-1.15,4.43,4.43,0,0,0-.76-.91,2.32,2.32,0,0,0-2.1-.58c-1.39.36-2,2-2.23,3.25l1.31.15c-.07-1.12-.25-2.24-.38-3.36l-.39-3.32c-.08-.72-1.35-.54-1.27.17Z"/><path class="cls-1" d="M181.76,10.06a1.35,1.35,0,0,0-1.8-.35,1.47,1.47,0,0,0-.74,1.76,1.89,1.89,0,0,0,1.84,1.29,1.92,1.92,0,0,0,1.78-1.4l-.85.24a3.51,3.51,0,0,0,2.82,1.21.46.46,0,0,0,.14-.9,11.51,11.51,0,0,1-1.17-.4,5.83,5.83,0,0,1-1.07-.64.53.53,0,0,0-.87.37c0,.31-.48.41-.68.38a1.19,1.19,0,0,1-.53-.18,1,1,0,0,1-.33-.31.59.59,0,0,1-.06-.3c0-.15,0,0,0-.05l0,0,.07-.08c.11-.1,0,0,0,0l.11-.06c.09-.05,0,0,.05,0a.5.5,0,0,1,.13,0h.11c-.05,0,.08,0,0,0l.08.05c-.07,0,.05,0,0,0a.52.52,0,0,0,.68.17.5.5,0,0,0,.19-.68Z"/><path class="cls-1" d="M187.68,10a3,3,0,0,0-1.4,2.07.48.48,0,0,0,.22.55,3.56,3.56,0,0,0,2.6.46,1.9,1.9,0,0,0,1.43-1.84,4.72,4.72,0,0,0-.92-2.38,7.36,7.36,0,0,0-.8-1,4.89,4.89,0,0,0-.41-.37,1.57,1.57,0,0,0-.69-.41.67.67,0,0,0-.75,1c.16.31.48.45.75.69A5.28,5.28,0,0,1,189.24,11a1,1,0,0,1,0,.72.87.87,0,0,1-.45.37,2.53,2.53,0,0,1-1.83-.26l.24.42a2,2,0,0,1,.88-1.43c.49-.31.06-1.07-.44-.76Z"/><path class="cls-1" d="M143.94,23.18a30.32,30.32,0,0,1,.31,3.44,21.06,21.06,0,0,0,.17,3.46c.09.47.71.35.85,0a9.48,9.48,0,0,0,.36-3.6,28,28,0,0,0-.36-3.65.68.68,0,0,0-.83-.47.71.71,0,0,0-.5.83Z"/><path class="cls-1" d="M147.15,24c.23.95.42,1.92.58,2.89.08.46.16.92.23,1.39a4,4,0,0,0,.35,1.46.44.44,0,0,0,.75,0,3.38,3.38,0,0,0,.19-1.52c0-.51-.05-1-.11-1.52a24.41,24.41,0,0,0-.57-3.07.74.74,0,0,0-1.42.38Z"/><path class="cls-1" d="M145.43,27.64c.89-.11,1.78-.06,2.66-.15a.41.41,0,0,0,.38-.29.37.37,0,0,0-.17-.42,6,6,0,0,0-2.85-.25.6.6,0,0,0-.58.56.56.56,0,0,0,.56.55Z"/><path class="cls-1" d="M151.37,23.52l4,.25,2,.11a6.31,6.31,0,0,0,1.94,0c.28-.07.43-.57.1-.7a6.51,6.51,0,0,0-1.87-.27l-2.06-.13-4.05-.24a.5.5,0,0,0,0,1Z"/><path class="cls-1" d="M154.67,28.82a12.12,12.12,0,0,1-.14-2.76,12,12,0,0,1,.13-1.33c0-.23.08-.47.14-.7a1.22,1.22,0,0,0,0-.68.31.31,0,0,0-.52-.13c-.35.31-.4,1-.48,1.41a11.83,11.83,0,0,0-.19,1.44,13,13,0,0,0,.16,3c.1.55.95.31.86-.24Z"/><path class="cls-1" d="M163.54,22.91a4.78,4.78,0,0,0-1.93,1.16,1.9,1.9,0,0,0-.34,2.09,5.23,5.23,0,0,0,1.17,1.4c.29.3.69.71.38,1.1-.6.75-1.82,0-2.55-.07a.47.47,0,0,0-.34.8,2.92,2.92,0,0,0,2.74.66A1.88,1.88,0,0,0,164,28.17a2.74,2.74,0,0,0-1-1.61c-.37-.36-.88-.77-.83-1.29.06-.7,1-1.1,1.59-1.31a.57.57,0,0,0,.4-.67.54.54,0,0,0-.67-.38Z"/><path class="cls-1" d="M.51,7.88A127.66,127.66,0,0,0,1.66,37.11a.43.43,0,0,0,.41.32C15.34,35.94,28.68,35,42,34.12c3.73-.24,7.45-.51,11.18-.63a.56.56,0,0,0,.56-.54c-.51-9.34-1.24-18.68-2.05-28A.65.65,0,0,0,51,4.3c-13,1-26.15,1.42-39.23,1.63C8.08,6,4.35,6,.62,6a.63.63,0,0,0,0,1.25c13.08.07,26.19-.37,39.25-1.06L51,5.6,50.37,5c.58,9.34,1.3,18.69,2.28,28l.55-.54c-6.65.54-13.33.88-20,1.39s-13.32,1.07-20,1.7c-3.72.35-7.43.73-11.15,1.07l.41.31A144.71,144.71,0,0,1,1.09,22.34,131.83,131.83,0,0,1,1.3,7.87c0-.51-.75-.49-.79,0Z"/><path class="cls-1" d="M116.63.42a171.32,171.32,0,0,0,.51,26.32c.24,2.44.55,4.87.83,7.31,0,.21.26.33.45.34,3.56.17,7.14.18,10.7.23s7.14.07,10.71.08q10.59,0,21.17-.17t21.28-.6l5.34-.22c1.69-.07,3.4-.08,5.08-.21a2.35,2.35,0,0,0,2.49-2.12,21.89,21.89,0,0,0,0-2.43c0-.92,0-1.83,0-2.74-.11-8-.2-15.95-.42-23.92a.61.61,0,0,0-.61-.61c-9.63,0-19.27-.17-28.9-.29l-29-.4C130.75.91,125.31.82,119.87.85a.54.54,0,0,0,0,1.07c9.63.3,19.27.3,28.9.4s19.35.19,29,.32c5.44.08,10.88.15,16.32.27l-.62-.61c.07,6.89.25,13.79.4,20.68l.12,5.23.06,2.49c0,.81,0,1.51-.94,1.71a15.26,15.26,0,0,1-2.24.18l-2.74.14-5,.22q-20.71.87-41.45.8-5.79,0-11.58-.09c-3.9,0-7.8-.19-11.7-.2l.45.34c-.69-4.31-1-8.69-1.31-13s-.39-8.66-.33-13c0-2.45.12-4.9.25-7.35,0-.56-.84-.54-.87,0Z"/><path class="cls-2" d="M123.89,39.12q-4.85,5.21-9.57,10.54c-3.11,3.51-6.29,7-9.14,10.74-.27.35.32.77.61.45,3.18-3.47,6.14-7.14,9.25-10.66s6.27-7,9.48-10.46a.44.44,0,0,0-.63-.61Z"/><path class="cls-2" d="M103.88,59.08a9.3,9.3,0,0,1-.24,2.73.43.43,0,0,0,.52.52c2.94-.46,6-.73,8.85-1.46.42-.1.37-.79-.09-.76-3,.22-6,.91-9,1.4l.52.51a9.75,9.75,0,0,0,.25-3c0-.54-.87-.52-.84,0Z"/><path class="cls-2" d="M45.73,39.78c2.41,3.79,4.85,7.57,7.39,11.28C54.38,52.9,55.68,54.7,57,56.5a48.15,48.15,0,0,0,4.17,5.26.48.48,0,0,0,.75-.57c-1.12-1.91-2.58-3.65-3.88-5.43s-2.62-3.61-3.91-5.42C51.53,46.71,49,43,46.64,39.25c-.35-.56-1.27,0-.91.53Z"/><path class="cls-2" d="M61.83,59.19s0-.08,0-.12,0-.08,0,0,0,0,0,0a.49.49,0,0,0,0-.12c0-.13,0-.25,0-.37s0-.53,0-.8A11.25,11.25,0,0,1,62,56.22a.51.51,0,0,0-.36-.63A.56.56,0,0,0,61,56a6.94,6.94,0,0,0-.45,3.41.77.77,0,0,0,.2.47.62.62,0,0,0,.55.17.7.7,0,0,0,.58-.83Z"/><path class="cls-2" d="M59.1,60.46l-2.79.29c-.46,0-.93.1-1.39.17a4.77,4.77,0,0,0-1.44.32.49.49,0,0,0,.11.89,4.56,4.56,0,0,0,1.38,0c.46,0,.91-.07,1.37-.12l2.73-.27a.69.69,0,0,0,.67-.65.63.63,0,0,0-.64-.64Z"/></svg>