<?xml version="1.0" encoding="utf-8"?>
<!-- Generator: Adobe Illustrator 26.0.2, SVG Export Plug-In . SVG Version: 6.00 Build 0)  -->
<svg version="1.1" id="Layer_1" xmlns="http://www.w3.org/2000/svg" xmlns:xlink="http://www.w3.org/1999/xlink" x="0px" y="0px"
	 viewBox="0 0 124.8 57.4" style="enable-background:new 0 0 124.8 57.4;" xml:space="preserve">
<style type="text/css">
	.st0{opacity:0.2;fill:#486AFB;stroke:#486AFB;stroke-miterlimit:10;enable-background:new    ;}
	.st1{fill:none;stroke:#486AFB;stroke-miterlimit:10;}
	.st2{fill:#FD46FC;}
	.st3{fill:#486AFB;}
</style>
<g>
	<circle class="st0" cx="113.3" cy="45.9" r="11"/>
	<circle class="st1" cx="113.3" cy="45.9" r="11"/>
</g>
<circle class="st0" cx="49.2" cy="45.9" r="11"/>
<g>
	<circle class="st0" cx="11.5" cy="45.8" r="11"/>
	<circle class="st1" cx="11.5" cy="45.8" r="11"/>
</g>
<path class="st2" d="M66.9,0.9C66.9,0.7,67,0.3,67,0.3C67,0.1,66.9,0,66.8,0c0,0-0.3,0-0.4,0.4l-1.4,5.7c0,0.1,0,0.1,0,0.2
	c0,0.1,0.1,0.3,0.3,0.3c0.2,0,0.3-0.2,0.3-0.2c0-0.1,0.2-0.6,0.6-2.1c0.3,0.3,0.8,0.3,1,0.3c0.7,0,1.1-0.4,1.3-0.7
	c0.1,0.4,0.5,0.7,0.9,0.7c0.3,0,0.6-0.2,0.7-0.6c0.2-0.4,0.3-1,0.3-1c0-0.1-0.1-0.1-0.1-0.1c-0.1,0-0.1,0-0.1,0.2
	c-0.2,0.7-0.3,1.2-0.8,1.2C69,4.3,69,4,69,3.8c0-0.2,0.1-0.7,0.2-1l0.3-1.1c0-0.2,0.1-0.5,0.2-0.7c0.1-0.2,0.2-0.6,0.2-0.7
	c0-0.2-0.1-0.3-0.3-0.3c0,0-0.3,0-0.4,0.3l-0.5,1.9c-0.1,0.5-0.2,0.9-0.3,1c0,0.1-0.5,0.9-1.3,0.9c-0.5,0-0.7-0.3-0.7-0.9
	c0-0.3,0.1-0.6,0.1-0.8L66.9,0.9"/>
<path class="st2" d="M11,45.2l-0.8-2c0-0.1-0.1-0.1-0.1-0.1c0-0.1,0.2-0.2,0.6-0.3c0.1,0,0.2,0,0.2-0.2c0-0.1-0.1-0.1-0.1-0.1
	c-0.4,0-0.8,0-1.2,0c-0.2,0-0.9,0-1.1,0c-0.1,0-0.2,0-0.2,0.2c0,0.1,0.1,0.1,0.2,0.1c0.6,0,0.7,0.1,0.8,0.3l1.2,2.8l-2.1,2.2
	l-0.1,0.1C7.7,48.8,7.2,49,6.7,49c-0.1,0-0.2,0-0.2,0.2c0,0,0,0.1,0.1,0.1c0.3,0,0.6,0,0.9,0c0.4,0,0.8,0,1.1,0c0.1,0,0.2,0,0.2-0.2
	C8.8,49,8.7,49,8.7,49c-0.1,0-0.4,0-0.4-0.3c0-0.2,0.1-0.3,0.3-0.5l1-1.1l0.9-1l1,2.4c0,0.1,0.1,0.1,0.1,0.1c0,0.1-0.2,0.2-0.6,0.3
	c-0.1,0-0.2,0-0.2,0.2c0,0.1,0.1,0.1,0.1,0.1c0.3,0,1,0,1.2,0c0.2,0,0.9,0,1.1,0c0.1,0,0.2,0,0.2-0.2c0-0.1-0.1-0.1-0.2-0.1
	c-0.7,0-0.7,0-0.9-0.4c-0.4-0.9-1.1-2.5-1.3-3.1c0.7-0.7,1.7-1.9,2-2.2c0.3-0.2,0.7-0.5,1.3-0.5c0.1,0,0.2,0,0.2-0.2
	c0,0,0-0.1-0.1-0.1c-0.3,0-0.6,0-0.9,0c-0.4,0-0.8,0-1.1,0c-0.1,0-0.2,0-0.2,0.2c0,0.1,0.1,0.1,0.1,0.1c0.1,0,0.4,0,0.4,0.3
	c0,0.1-0.1,0.3-0.2,0.4L11,45.2"/>
<path class="st2" d="M15.8,47.6c0-0.2,0-0.2-0.2-0.2c-0.4,0.4-1.1,0.5-1.4,0.5v0.2c0.2,0,0.6,0,1-0.2v3.6c0,0.2,0,0.3-0.7,0.3h-0.3
	v0.2c0.1,0,1,0,1.2,0c0.2,0,1.1,0,1.3,0v-0.2h-0.3c-0.7,0-0.7-0.1-0.7-0.3L15.8,47.6"/>
<path class="st2" d="M48.8,45.2l-0.8-2c0-0.1,0-0.1,0-0.1c0-0.1,0.2-0.2,0.6-0.3c0.1,0,0.2,0,0.2-0.2c0-0.1-0.1-0.1-0.2-0.1
	c-0.4,0-0.8,0-1.2,0c-0.2,0-0.9,0-1.1,0c-0.1,0-0.2,0-0.2,0.2c0,0.1,0.1,0.1,0.2,0.1c0.6,0,0.7,0.1,0.8,0.3l1.2,2.8l-2.1,2.2
	L46,48.3c-0.5,0.5-1,0.7-1.5,0.7c-0.1,0-0.2,0-0.2,0.2c0,0,0,0.1,0.1,0.1c0.3,0,0.6,0,0.9,0c0.4,0,0.8,0,1.1,0c0.1,0,0.2,0,0.2-0.2
	c0-0.1-0.1-0.1-0.1-0.1c-0.1,0-0.4,0-0.4-0.3c0-0.2,0.2-0.3,0.3-0.5l1-1.1l0.9-1l1,2.4c0,0.1,0,0.1,0,0.1c0,0.1-0.2,0.2-0.6,0.3
	c-0.1,0-0.2,0-0.2,0.2c0,0.1,0.1,0.1,0.2,0.1c0.3,0,1,0,1.2,0c0.2,0,0.8,0,1.1,0c0.1,0,0.2,0,0.2-0.2c0-0.1-0.1-0.1-0.2-0.1
	c-0.7,0-0.7,0-0.8-0.4c-0.4-0.9-1-2.5-1.3-3.1c0.7-0.7,1.7-1.9,2-2.2c0.3-0.2,0.7-0.5,1.3-0.5c0.1,0,0.2,0,0.2-0.2
	c0,0,0-0.1-0.1-0.1c-0.3,0-0.6,0-0.9,0c-0.4,0-0.8,0-1.1,0c-0.1,0-0.2,0-0.2,0.2c0,0.1,0,0.1,0.1,0.1c0.1,0,0.4,0,0.4,0.3
	c0,0.1-0.1,0.3-0.2,0.4L48.8,45.2"/>
<path class="st2" d="M55.8,49.8h-0.2c0,0.2-0.1,0.6-0.2,0.6c-0.1,0-0.6,0-0.7,0h-1.3c0.7-0.7,1-0.8,1.4-1.2c0.5-0.4,1-0.8,1-1.5
	c0-0.8-0.8-1.4-1.7-1.4c-0.9,0-1.5,0.6-1.5,1.3c0,0.4,0.3,0.4,0.4,0.4c0.2,0,0.4-0.1,0.4-0.4c0-0.1,0-0.4-0.4-0.4
	c0.2-0.5,0.7-0.7,1-0.7c0.7,0,1.1,0.5,1.1,1.1c0,0.6-0.4,1.1-0.7,1.3l-1.7,1.7c-0.1,0.1-0.1,0.1-0.1,0.3h2.9L55.8,49.8"/>
<circle class="st1" cx="49.2" cy="45.9" r="11"/>
<path class="st2" d="M111.5,45l-0.8-2c0-0.1,0-0.1,0-0.1c0-0.1,0.2-0.2,0.6-0.3c0.1,0,0.2,0,0.2-0.2c0-0.1-0.1-0.1-0.2-0.1
	c-0.4,0-0.8,0-1.3,0c-0.2,0-0.9,0-1.1,0c-0.1,0-0.2,0-0.2,0.2c0,0.1,0.1,0.1,0.2,0.1c0.6,0,0.7,0.1,0.7,0.3l1.2,2.8l-2.1,2.3
	l-0.1,0.1c-0.5,0.5-1,0.7-1.5,0.7c-0.1,0-0.2,0-0.2,0.2c0,0,0,0.1,0.1,0.1c0.3,0,0.6,0,0.9,0c0.4,0,0.8,0,1.1,0c0.1,0,0.2,0,0.2-0.2
	c0-0.1-0.1-0.1-0.1-0.1c-0.1,0-0.4,0-0.4-0.3c0-0.2,0.1-0.3,0.3-0.4l1-1.1l0.9-1l1,2.4c0,0.1,0,0.1,0,0.1c0,0.1-0.2,0.2-0.6,0.3
	c-0.1,0-0.2,0-0.2,0.2c0,0.1,0.1,0.1,0.1,0.1c0.3,0,1,0,1.3,0c0.2,0,0.9,0,1.1,0c0.1,0,0.2,0,0.2-0.2c0-0.1-0.1-0.1-0.2-0.1
	c-0.7,0-0.7,0-0.9-0.4c-0.4-0.9-1.1-2.5-1.3-3.1c0.7-0.7,1.7-1.9,2-2.2c0.3-0.2,0.7-0.5,1.3-0.5c0.1,0,0.2,0,0.2-0.2
	c0,0,0-0.1-0.1-0.1c-0.3,0-0.6,0-0.9,0c-0.4,0-0.7,0-1.1,0c-0.1,0-0.2,0-0.2,0.2c0,0.1,0,0.1,0.1,0.1c0.1,0,0.4,0,0.4,0.3
	c0,0.1-0.1,0.3-0.2,0.4L111.5,45"/>
<path class="st2" d="M118.1,50c0,0.1-0.1,0.4-0.1,0.4c0,0.2,0.1,0.2,0.2,0.2c0.1,0,0.2-0.1,0.3-0.2c0-0.1,0.1-0.3,0.1-0.4
	c0-0.1,0.1-0.5,0.2-0.6c0-0.2,0.1-0.3,0.1-0.5c0.1-0.3,0.1-0.3,0.2-0.5c0.2-0.3,0.6-0.7,1.1-0.7c0.4,0,0.4,0.3,0.4,0.5
	c0,0.4-0.3,1.2-0.4,1.5c-0.1,0.2-0.1,0.3-0.1,0.4c0,0.4,0.3,0.6,0.7,0.6c0.7,0,1-1,1-1.1c0-0.1-0.1-0.1-0.1-0.1
	c-0.1,0-0.1,0-0.1,0.1c-0.2,0.6-0.5,0.8-0.7,0.8c-0.1,0-0.2-0.1-0.2-0.2c0-0.2,0-0.3,0.2-0.6c0.1-0.2,0.4-1,0.4-1.4
	c0-0.1,0-0.4-0.3-0.6c-0.1-0.1-0.3-0.2-0.7-0.2c-0.6,0-1,0.4-1.2,0.7c-0.1-0.6-0.6-0.7-0.9-0.7c-0.6,0-1,0.4-1.2,0.6
	c0-0.5-0.5-0.6-0.8-0.6c-0.3,0-0.5,0.2-0.6,0.4c-0.2,0.3-0.3,0.7-0.3,0.7c0,0.1,0.1,0.1,0.1,0.1c0.1,0,0.1,0,0.2-0.2
	c0.1-0.4,0.2-0.8,0.5-0.8c0.2,0,0.2,0.2,0.2,0.3c0,0.1-0.1,0.4-0.1,0.6c-0.1,0.2-0.1,0.5-0.2,0.6l-0.2,0.9c0,0.1-0.1,0.3-0.1,0.3
	c0,0.2,0.1,0.2,0.2,0.2c0.1,0,0.2-0.1,0.3-0.2c0-0.1,0.1-0.3,0.1-0.4c0-0.1,0.1-0.5,0.2-0.6c0-0.2,0.1-0.3,0.1-0.5
	c0.1-0.3,0.1-0.3,0.3-0.6c0.2-0.3,0.5-0.6,1.1-0.6c0.4,0,0.4,0.4,0.4,0.5c0,0.2,0,0.3-0.1,0.7L118.1,50"/>
<path class="st3" d="M78.6,45.9c0-0.3-0.2-0.5-0.5-0.5c-0.3,0-0.5,0.2-0.5,0.5c0,0.3,0.2,0.5,0.5,0.5C78.4,46.5,78.6,46.2,78.6,45.9
	"/>
<path class="st3" d="M83,45.9c0-0.3-0.2-0.5-0.5-0.5c-0.3,0-0.5,0.2-0.5,0.5c0,0.3,0.2,0.5,0.5,0.5C82.8,46.5,83,46.2,83,45.9"/>
<path class="st3" d="M87.4,45.9c0-0.3-0.2-0.5-0.5-0.5c-0.3,0-0.5,0.2-0.5,0.5c0,0.3,0.2,0.5,0.5,0.5C87.2,46.5,87.4,46.2,87.4,45.9
	"/>
<g>
	<g>
		<line class="st1" x1="67.6" y1="8.7" x2="25.2" y2="31"/>
		<g>
			<path class="st3" d="M22.5,32.4c1-1.1,2.1-2.7,2.7-4.1l0.3,2.5l1.9,1.7C26,32.2,24,32.3,22.5,32.4z"/>
		</g>
	</g>
</g>
<g>
	<g>
		<line class="st1" x1="67.6" y1="8.7" x2="51.1" y2="29.2"/>
		<g>
			<path class="st3" d="M49.2,31.5c0.5-1.4,0.9-3.4,0.8-4.8l1.3,2.2l2.4,0.8C52.3,29.9,50.5,30.8,49.2,31.5z"/>
		</g>
	</g>
</g>
<g>
	<g>
		<line class="st1" x1="67.6" y1="8.7" x2="103.9" y2="29.7"/>
		<g>
			<path class="st3" d="M106.5,31.2c-1.5-0.3-3.5-0.4-4.9-0.1l1.9-1.6L104,27C104.5,28.4,105.5,30.1,106.5,31.2z"/>
		</g>
	</g>
</g>
</svg>
