<?xml version="1.0" encoding="utf-8"?>
<!-- Generator: Adobe Illustrator 26.0.2, SVG Export Plug-In . SVG Version: 6.00 Build 0)  -->
<svg version="1.1" id="Layer_1" xmlns="http://www.w3.org/2000/svg" xmlns:xlink="http://www.w3.org/1999/xlink" x="0px" y="0px"
	 viewBox="0 0 111.66 39.52" style="enable-background:new 0 0 111.66 39.52;" xml:space="preserve">
<style type="text/css">
	.st0{opacity:0.4;fill:#486AFB;stroke:#486AFB;stroke-miterlimit:10;}
	.st1{fill:none;stroke:#486AFB;stroke-miterlimit:10;}
	.st2{fill:#FD46FC;}
	.st3{fill:#486AFB;}
</style>
<circle class="st0" cx="11.5" cy="19.18" r="11"/>
<circle class="st1" cx="11.5" cy="19.18" r="11"/>
<circle class="st0" cx="59.5" cy="19.18" r="11"/>
<path class="st2" d="M103.99,39.3c-0.49,0-0.88-0.36-0.88-1.07c0-0.3,0.12-1.11,0.47-1.7c0.42-0.68,1.01-0.82,1.35-0.82
	c0.83,0,0.91,0.65,0.91,0.96c0,0.47-0.2,1.28-0.54,1.79C104.92,39.04,104.38,39.3,103.99,39.3 M107.26,35.7c0.13,0,0.49,0,0.49-0.34
	c0-0.24-0.21-0.24-0.39-0.24h-2.27c-1.5,0-2.6,1.64-2.6,2.82c0,0.88,0.59,1.57,1.49,1.57c1.17,0,2.49-1.2,2.49-2.73
	c0-0.17,0-0.65-0.31-1.08H107.26z"/>
<path class="st2" d="M111.66,33.93h-0.24c-0.02,0.15-0.09,0.57-0.18,0.64c-0.06,0.04-0.6,0.04-0.7,0.04h-1.29
	c0.74-0.65,0.98-0.85,1.41-1.18c0.52-0.42,1-0.85,1-1.52c0-0.85-0.75-1.37-1.65-1.37c-0.87,0-1.46,0.61-1.46,1.26
	c0,0.36,0.3,0.39,0.37,0.39c0.17,0,0.37-0.12,0.37-0.37c0-0.13-0.05-0.37-0.41-0.37c0.22-0.5,0.7-0.65,1.03-0.65
	c0.7,0,1.07,0.55,1.07,1.12c0,0.61-0.44,1.1-0.66,1.35l-1.7,1.67c-0.07,0.06-0.07,0.08-0.07,0.27h2.9L111.66,33.93"/>
<circle class="st1" cx="59.5" cy="19.18" r="11"/>
<g>
	<g>
		<line class="st1" x1="24.5" y1="19.18" x2="42.98" y2="19.18"/>
		<g>
			<path class="st3" d="M46,19.18c-1.42,0.53-3.18,1.43-4.27,2.38l0.86-2.38l-0.86-2.38C42.82,17.76,44.58,18.65,46,19.18z"/>
		</g>
	</g>
</g>
<g>
	<g>
		<line class="st1" x1="99.31" y1="34.46" x2="77.2" y2="23.52"/>
		<g>
			<path class="st3" d="M74.5,22.18c1.51,0.16,3.48,0.13,4.89-0.24l-1.83,1.75l-0.28,2.51C76.72,24.87,75.54,23.28,74.5,22.18z"/>
		</g>
	</g>
</g>
<g>
	<g>
		<line class="st1" x1="100.31" y1="5.46" x2="77.29" y2="15.02"/>
		<g>
			<path class="st3" d="M74.5,16.18c1.11-1.03,2.39-2.54,3.03-3.84l0.12,2.53l1.71,1.87C77.98,16.28,76.01,16.12,74.5,16.18z"/>
		</g>
	</g>
</g>
<path class="st2" d="M106.7,19.03c-0.33-0.08-0.61-0.08-0.79-0.08c-0.32,0-1.12,0-1.12,0.54c0,0.42,0.6,0.42,0.94,0.42
	c0.17,0,0.62,0,1.06-0.19c0.08,0.15,0.11,0.35,0.11,0.52c0,0.36-0.26,1.56-0.57,2.08c-0.31,0.49-0.8,0.81-1.42,0.81
	c-0.92,0-1.7-0.56-1.7-1.45c0-0.2,0.05-0.41,0.07-0.51c0.15-0.59,0.47-1.89,0.59-2.33c0.32-1.08,1.52-2.1,2.7-2.1
	c0.37,0,0.59,0.18,0.59,0.57C107.15,17.62,106.91,18.64,106.7,19.03 M106.36,19.38c-0.24,0.17-0.49,0.17-0.62,0.17
	c-0.04,0-0.48,0-0.48-0.08c0-0.16,0.49-0.16,0.62-0.16C106.05,19.31,106.17,19.31,106.36,19.38z M101.86,24.99
	c-0.01,0.02-0.04,0.15-0.04,0.16c0,0.14,0.15,0.14,0.24,0.14c0.2,0,0.2-0.02,0.26-0.23c0.03-0.16,0.62-2.54,0.63-2.56
	c0.42,0.7,1.18,0.98,1.98,0.98c2,0,3.11-1.52,3.11-2.82c0-0.7-0.31-1.07-0.64-1.32c0.36-0.3,0.76-0.94,0.76-1.63
	c0-0.85-0.62-1.32-1.55-1.32c-1.42,0-2.89,1.1-3.25,2.54L101.86,24.99z"/>
<path class="st2" d="M106.47,1.13c0,0.7-0.38,1.41-0.9,1.72c-0.27-0.1-0.47-0.12-0.76-0.12c-0.21,0-0.77-0.01-0.77,0.32
	c-0.01,0.28,0.51,0.25,0.69,0.25c0.37,0,0.52-0.01,0.81-0.13c0.38,0.36,0.43,0.67,0.44,1.12c0.02,0.58-0.22,1.32-0.5,1.71
	c-0.39,0.54-1.05,0.89-1.62,0.89c-0.75,0-1.13-0.58-1.13-1.28c0-0.1,0-0.25,0.05-0.44l0.64-2.51c0.22-0.85,0.93-2.43,2.12-2.43
	C106.12,0.23,106.47,0.54,106.47,1.13 M105.24,3.01c-0.13,0.05-0.24,0.07-0.48,0.07c-0.14,0-0.34,0.01-0.44-0.04
	c0.02-0.1,0.38-0.08,0.49-0.08C105.02,2.96,105.11,2.96,105.24,3.01z M107.03,1.36c0-0.75-0.55-1.36-1.35-1.36
	c-0.58,0-0.85,0.16-1.2,0.42c-0.55,0.4-1.09,1.36-1.28,2.12l-1.58,6.31c-0.01,0.04,0.04,0.1,0.12,0.1c0.08,0,0.11-0.02,0.12-0.05
	l0.7-2.74c0.19,0.6,0.63,0.96,1.35,0.96s1.47-0.35,1.92-0.79c0.48-0.46,0.8-1.09,0.8-1.83c0-0.72-0.37-1.23-0.73-1.48
	C106.46,2.69,107.03,2.07,107.03,1.36z"/>
<path class="st2" d="M108.91,8.46c-0.32,0-0.75-0.19-0.89-0.77c-0.1-0.42-0.1-0.99-0.1-1.51c0-0.51,0-1.05,0.11-1.43
	c0.15-0.55,0.6-0.7,0.89-0.7c0.38,0,0.75,0.23,0.87,0.64c0.11,0.38,0.12,0.89,0.12,1.5c0,0.52,0,1.04-0.09,1.48
	C109.67,8.3,109.19,8.46,108.91,8.46 M110.54,6.27c0-0.77-0.09-1.33-0.42-1.82c-0.22-0.32-0.65-0.6-1.22-0.6
	c-1.63,0-1.63,1.92-1.63,2.42s0,2.38,1.63,2.38S110.54,6.78,110.54,6.27z"/>
<g>
	<g>
		<line class="st1" x1="100.31" y1="19.46" x2="77.75" y2="19.32"/>
		<g>
			<path class="st3" d="M74.73,19.3c1.42-0.52,3.19-1.41,4.29-2.35l-0.88,2.37l0.85,2.38C77.91,20.74,76.15,19.83,74.73,19.3z"/>
		</g>
	</g>
</g>
<path class="st2" d="M62.41,16.73l0.14-0.14c0.3-0.3,0.63-0.64,1.3-0.69c0.11-0.01,0.2-0.01,0.2-0.19c0-0.08-0.05-0.12-0.13-0.12
	c-0.26,0-0.55,0.03-0.81,0.03c-0.33,0-0.68-0.03-0.99-0.03c-0.06,0-0.19,0-0.19,0.19c0,0.11,0.1,0.12,0.15,0.12
	c0.07,0,0.36,0.02,0.36,0.23c0,0.17-0.23,0.43-0.27,0.48l-2.3,2.65l-1.09-2.95c-0.06-0.14-0.06-0.16-0.06-0.17
	c0-0.24,0.49-0.24,0.59-0.24c0.14,0,0.24,0,0.24-0.2c0-0.11-0.12-0.11-0.15-0.11c-0.28,0-0.97,0.03-1.25,0.03
	c-0.25,0-0.86-0.03-1.11-0.03c-0.06,0-0.19,0-0.19,0.2c0,0.11,0.1,0.11,0.23,0.11c0.6,0,0.64,0.09,0.72,0.34L59,19.51
	c0.01,0.03,0.04,0.14,0.04,0.17c0,0.03-0.4,1.63-0.45,1.81c-0.13,0.55-0.14,0.58-0.93,0.59c-0.19,0-0.27,0-0.27,0.2
	c0,0.11,0.12,0.11,0.14,0.11c0.28,0,0.97-0.03,1.25-0.03c0.28,0,0.99,0.03,1.27,0.03c0.07,0,0.19,0,0.19-0.2
	c0-0.11-0.09-0.11-0.28-0.11c-0.02,0-0.21,0-0.38-0.02c-0.21-0.02-0.27-0.04-0.27-0.16c0-0.07,0.09-0.42,0.14-0.62l0.35-1.4
	c0.05-0.19,0.06-0.22,0.14-0.31L62.41,16.73"/>
<path class="st2" d="M12.04,18.21l-0.83-1.98c-0.03-0.08-0.05-0.12-0.05-0.13c0-0.06,0.17-0.25,0.59-0.29
	c0.1-0.01,0.2-0.02,0.2-0.19c0-0.12-0.12-0.12-0.15-0.12c-0.41,0-0.83,0.03-1.25,0.03c-0.25,0-0.86-0.03-1.11-0.03
	c-0.06,0-0.18,0-0.18,0.2c0,0.11,0.1,0.11,0.23,0.11c0.6,0,0.66,0.1,0.75,0.32l1.17,2.77l-2.1,2.25l-0.13,0.11
	c-0.49,0.53-0.95,0.69-1.46,0.72c-0.13,0.01-0.22,0.01-0.22,0.2c0,0.01,0,0.11,0.13,0.11c0.3,0,0.63-0.03,0.93-0.03
	c0.37,0,0.75,0.03,1.11,0.03c0.06,0,0.18,0,0.18-0.2c0-0.1-0.1-0.11-0.12-0.11c-0.09-0.01-0.4-0.03-0.4-0.31
	c0-0.16,0.15-0.32,0.27-0.45l1.01-1.07l0.89-0.97l1,2.38c0.04,0.11,0.05,0.12,0.05,0.14c0,0.08-0.19,0.25-0.58,0.29
	c-0.11,0.01-0.2,0.02-0.2,0.19c0,0.12,0.11,0.12,0.15,0.12c0.28,0,0.98-0.03,1.25-0.03c0.25,0,0.85,0.03,1.1,0.03
	c0.07,0,0.19,0,0.19-0.19c0-0.12-0.1-0.12-0.18-0.12c-0.67-0.01-0.69-0.04-0.85-0.44c-0.39-0.92-1.05-2.47-1.28-3.07
	c0.67-0.7,1.72-1.88,2.04-2.16c0.29-0.24,0.67-0.48,1.26-0.51c0.13-0.01,0.22-0.01,0.22-0.2c0-0.01,0-0.11-0.13-0.11
	c-0.3,0-0.63,0.03-0.93,0.03c-0.37,0-0.75-0.03-1.1-0.03c-0.06,0-0.19,0-0.19,0.2c0,0.07,0.05,0.1,0.12,0.11
	c0.09,0.01,0.4,0.03,0.4,0.31c0,0.14-0.11,0.27-0.19,0.36L12.04,18.21"/>
</svg>
